<svg xmlns="http://www.w3.org/2000/svg" xmlns:xlink="http://www.w3.org/1999/xlink" width="64" height="64" viewBox="70 0 62 64"><path d="M172 69 L172 85 168 85 168 69 172 69 M172 117 L172 133 168 133 168 117 172 117 M186 99 L202 99 202 103 186 103 186 99 M138 99 L154 99 154 103 138 103 138 99" fill="var(--svg-fill-color)" stroke="var(--svg-stroke-color)"/><path d="M103 26 L103 30 107 30 107 34 103 34 103 38 99 38 99 34 95 34 95 30 99 30 99 26 103 26" fill="var(--svg-fill-color)" stroke="var(--svg-stroke-color)"/></svg>