<svg xmlns="http://www.w3.org/2000/svg" xmlns:xlink="http://www.w3.org/1999/xlink" width="64" height="64" viewBox="691 0 62 64"><path d="M703.6 50.4 Q709 55.8 716 57.35 L720 57.95 720 64 716 64 716 61.45 Q707.35 59.8 700.75 53.2 694.2 46.65 692.55 38 L690 38 690 34 696.1 34 Q696.2 36.05 696.65 38 698.2 45 703.6 50.4 M703.6 13.6 Q698.2 19 696.65 26 696.2 27.95 696.1 30 L690 30 690 26 692.55 26 Q694.2 17.35 700.75 10.75 707.35 4.2 716 2.55 L716 0 720 0 720 6.1 716 6.65 Q709 8.2 703.6 13.6 M740.4 13.6 Q735 8.2 728 6.65 L724 6.1 724 0 728 0 728 2.55 Q736.65 4.2 743.2 10.75 749.8 17.35 751.45 26 L754 26 754 30 747.95 30 747.35 26 Q745.8 19 740.4 13.6 M740.4 50.4 Q745.85 44.95 747.4 37.9 L747.95 34 754 34 754 37.9 751.5 37.9 Q749.85 46.6 743.2 53.2 736.65 59.8 728 61.45 L728 64 724 64 724 57.95 728 57.35 Q735 55.8 740.4 50.4" fill="var(--svg-fill-color)" stroke="var(--svg-stroke-color)"/><path d="M724 26 L724 30 728 30 728 34 724 34 724 38 720 38 720 34 716 34 716 30 720 30 720 26 724 26" fill="var(--svg-fill-color)" stroke="var(--svg-stroke-color)"/><path d="M720 99 L724 99 724 103 720 103 720 99 M724 129 L724 133 720 133 720 129 724 129 M724 69 L724 73 720 73 720 69 724 69" fill="var(--svg-fill-color)" stroke="var(--svg-stroke-color)"/><path d="M772.6 50.4 Q775.1 52.9 778 54.6 L776 58.05 Q772.65 56.1 769.75 53.2 766.9 50.35 764.95 47.05 761 40.35 761 32 761 23.65 764.95 16.95 766.85 13.65 769.75 10.75 772.65 7.85 775.95 5.95 L777.95 9.45 Q775.1 11.1 772.6 13.6 770.1 16.1 768.45 19 765 24.75 765 32 765 39.25 768.45 45.05 770.1 47.9 772.6 50.4 M809.4 13.6 Q806.9 11.1 804.05 9.45 L806.05 5.95 Q809.3 7.85 812.2 10.75 815.1 13.65 817.05 17 821 23.65 821 32 821 40.35 817.05 47.05 815.1 50.3 812.2 53.2 809.3 56.1 806.05 58.05 L804.05 54.6 Q806.9 52.9 809.4 50.4 811.9 47.9 813.6 45.05 817 39.25 817 32 817 24.75 813.6 19 811.9 16.1 809.4 13.6 M793 32 Q793 32.8 792.35 33.35 791.8 34 791 34 790.2 34 789.55 33.35 789 32.8 789 32 789 31.2 789.55 30.55 790.2 30 791 30 791.8 30 792.35 30.55 793 31.2 793 32" fill="var(--svg-fill-color)" stroke="var(--svg-stroke-color)"/><path d="M841.6 13.6 Q837.8 17.4 835.9 22 835.1 23.95 834.65 26 L828 26 828 22 831.6 22 Q833.75 15.8 838.75 10.75 843.8 5.75 850 3.6 L850 0 854 0 854 6.65 Q851.95 7.1 850 7.9 845.4 9.8 841.6 13.6" fill="var(--svg-fill-color)" stroke="var(--svg-stroke-color)"/><path d="M878.4 13.6 Q874.6 9.8 870 7.9 868.05 7.1 866 6.65 L866 0 870 0 870 3.6 Q876.2 5.75 881.25 10.75 886.25 15.8 888.4 22 L892 22 892 26 885.35 26 Q884.9 23.95 884.1 22 882.2 17.4 878.4 13.6" fill="var(--svg-fill-color)" stroke="var(--svg-stroke-color)"/><path d="M841.6 50.4 Q845.4 54.2 850 56.1 851.95 56.9 854 57.35 L854 64 850 64 850 60.4 Q843.8 58.25 838.75 53.25 833.75 48.2 831.6 42 L828 42 828 38 834.65 38 Q835.1 40.05 835.9 42 837.8 46.6 841.6 50.4" fill="var(--svg-fill-color)" stroke="var(--svg-stroke-color)"/><path d="M878.4 50.4 Q882.2 46.6 884.1 42 L885.35 38 892 38 892 42 888.4 42 Q886.25 48.2 881.25 53.25 876.2 58.25 870 60.4 L870 64 866 64 866 57.35 Q868.05 56.9 870 56.1 874.6 54.2 878.4 50.4" fill="var(--svg-fill-color)" stroke="var(--svg-stroke-color)"/><path d="M998 58 L998 62 Q985.55 62 976.75 53.2 968 44.45 968 32 L972 32 Q972 42.8 979.6 50.4 987.2 58 998 58 M1016.4 13.6 Q1008.8 6 998 6 L998 2 Q1010.45 2 1019.2 10.75 1028 19.55 1028 32 L1024 32 Q1024 21.2 1016.4 13.6" fill="var(--svg-fill-color)" stroke="var(--svg-stroke-color)"/><path d="M948.8 12.2 Q940.6 4 929 4 917.4 4 909.2 12.15 L909.15 12.2 Q901 20.4 901 32 901 43.6 909.2 51.8 917.4 60 929 60 940.6 60 948.8 51.8 957 43.6 957 32 957 20.4 948.8 12.2 M959 32 Q959 44.45 950.2 53.2 941.45 62 929 62 916.55 62 907.75 53.2 899 44.45 899 32 899 19.55 907.75 10.75 916.55 2 929 2 941.45 2 950.2 10.75 959 19.55 959 32" fill="var(--svg-fill-color)" stroke="var(--svg-stroke-color)"/><path d="M938.9 22.1 Q934.8 18 929 18 923.2 18 919.1 22.05 L919.05 22.1 Q915 26.2 915 32 915 37.8 919.1 41.9 923.2 46 929 46 934.8 46 938.9 41.9 943 37.8 943 32 943 26.2 938.9 22.1 M945 32 Q945 38.65 940.3 43.3 935.65 48 929 48 922.35 48 917.65 43.3 913 38.65 913 32 913 25.35 917.65 20.65 922.35 16 929 16 935.65 16 940.3 20.65 945 25.35 945 32" fill="var(--svg-fill-color)" stroke="var(--svg-stroke-color)"/><path d="M1298 26 L1298 38 1274 62 1250 38 1250 26 1274 2 1298 26 M1276 32 Q1276 32.85 1275.4 33.4 1274.85 34 1274 34 1273.15 34 1272.55 33.4 1272 32.85 1272 32 1272 31.15 1272.55 30.55 1273.15 30 1274 30 1274.85 30 1275.4 30.55 1276 31.15 1276 32 M1274 8 L1254 28 1254 36 1274 56 1294 36 1294 28 1274 8" fill="var(--svg-fill-color)" stroke="var(--svg-stroke-color)"/><path d="M1231 32 L1211 12 1199 12 1179 32 1199 52 1211 52 1231 32 M1213 56 L1197 56 1173 32 1197 8 1213 8 1237 32 1213 56 M1205 34 Q1204.15 34 1203.6 33.4 1203 32.85 1203 32 1203 31.15 1203.6 30.55 1204.15 30 1205 30 1205.85 30 1206.45 30.55 1207 31.15 1207 32 1207 32.85 1206.45 33.4 1205.85 34 1205 34" fill="var(--svg-fill-color)" stroke="var(--svg-stroke-color)"/><path d="M1231 32 L1211 12 1199 12 1179 32 1199 52 1211 52 1231 32 M1213 56 L1197 56 1173 32 1197 8 1213 8 1237 32 1213 56 M1205 34 Q1204.15 34 1203.6 33.4 1203 32.85 1203 32 1203 31.15 1203.6 30.55 1204.15 30 1205 30 1205.85 30 1206.45 30.55 1207 31.15 1207 32 1207 32.85 1206.45 33.4 1205.85 34 1205 34" fill="var(--svg-fill-color)" stroke="var(--svg-stroke-color)"/><path d="M1231 32 L1211 12 1199 12 1179 32 1199 52 1211 52 1231 32 M1213 56 L1197 56 1173 32 1197 8 1213 8 1237 32 1213 56 M1205 34 Q1204.15 34 1203.6 33.4 1203 32.85 1203 32 1203 31.15 1203.6 30.55 1204.15 30 1205 30 1205.85 30 1206.45 30.55 1207 31.15 1207 32 1207 32.85 1206.45 33.4 1205.85 34 1205 34" fill="var(--svg-fill-color)" stroke="var(--svg-stroke-color)"/><path d="M1367 26 L1367 38 1362 43 1359 40 1363 36 1363 28 1359 24 1362 21 1367 26 M1343 2 L1349 8 1347 10 1343 6 1339 10 1337 8 1343 2 M1345 32 Q1345 32.85 1344.4 33.4 1343.85 34 1343 34 1342.15 34 1341.6 33.45 L1341.55 33.4 Q1341 32.85 1341 32 1341 31.15 1341.55 30.55 1342.15 30 1343 30 1343.85 30 1344.4 30.55 L1344.45 30.6 Q1345 31.15 1345 32 M1343 62 L1337 56 1339 54 1343 58 1347 54 1349 56 1343 62 M1319 26 L1324 21 1327 24 1323 28 1323 36 1327 40 1324 43 1319 38 1319 26" fill="var(--svg-fill-color)" stroke="var(--svg-stroke-color)"/></svg>