<svg xmlns="http://www.w3.org/2000/svg" xmlns:xlink="http://www.w3.org/1999/xlink" width="64" height="64" viewBox="139 0 62 64"><path d="M172 69 L172 85 168 85 168 69 172 69 M172 117 L172 133 168 133 168 117 172 117 M186 99 L202 99 202 103 186 103 186 99 M138 99 L154 99 154 103 138 103 138 99" fill="var(--svg-fill-color)" stroke="var(--svg-stroke-color)"/><path d="M241 69 L241 85 237 85 237 69 241 69 M241 117 L241 133 237 133 237 117 241 117 M207 99 L223 99 223 103 207 103 207 99 M255 99 L271 99 271 103 255 103 255 99" fill="var(--svg-fill-color)" stroke="var(--svg-stroke-color)"/><path d="M247 28 Q247 28.85 246.4 29.4 245.85 30 245 30 244.15 30 243.55 29.4 243 28.85 243 28 243 27.15 243.55 26.55 244.15 26 245 26 245.85 26 246.4 26.55 247 27.15 247 28 M241 36 Q241 36.85 240.4 37.4 239.85 38 239 38 238.15 38 237.55 37.4 237 36.85 237 36 237 35.15 237.55 34.55 238.15 34 239 34 239.85 34 240.4 34.55 241 35.15 241 36 M235 28 Q235 28.85 234.4 29.4 233.85 30 233 30 232.15 30 231.55 29.4 231 28.85 231 28 231 27.15 231.55 26.55 232.15 26 233 26 233.85 26 234.4 26.55 235 27.15 235 28" fill="var(--svg-fill-color)" stroke="var(--svg-stroke-color)"/><path d="M168 24 L168 30 162 30 162 28 166 28 166 24 168 24 M172 24 L174 24 174 28 178 28 178 30 172 30 172 24 M172 40 L172 34 178 34 178 36 174 36 174 40 172 40 M168 40 L166 40 166 36 162 36 162 34 168 34 168 40" fill="var(--svg-fill-color)" stroke="var(--svg-stroke-color)"/></svg>