<svg xmlns="http://www.w3.org/2000/svg" xmlns:xlink="http://www.w3.org/1999/xlink" width="64" height="64" viewBox="1 69 62 64"><path d="M16 170 L22 164 24 166 20 170 24 174 22 176 16 170 M34 170 Q34 170.85 33.4 171.4 32.85 172 32 172 31.15 172 30.55 171.4 30 170.85 30 170 30 169.15 30.55 168.55 31.15 168 32 168 32.85 168 33.4 168.55 34 169.15 34 170 M48 170 L42 176 40 174 44 170 40 166 42 164 48 170" fill="var(--svg-fill-color)" stroke="var(--svg-stroke-color)"/><path d="M34 75 L34 91 30 91 30 75 34 75 M42 99 L58 99 58 103 42 103 42 99 M34 111 L34 127 30 127 30 111 34 111 M6 99 L22 99 22 103 6 103 6 99" fill="var(--svg-fill-color)" stroke="var(--svg-stroke-color)"/></svg>