<svg xmlns="http://www.w3.org/2000/svg" xmlns:xlink="http://www.w3.org/1999/xlink" width="64" height="64" viewBox="898 69 62 64"><path d="M998 58 L998 62 Q985.55 62 976.75 53.2 968 44.45 968 32 L972 32 Q972 42.8 979.6 50.4 987.2 58 998 58 M1016.4 13.6 Q1008.8 6 998 6 L998 2 Q1010.45 2 1019.2 10.75 1028 19.55 1028 32 L1024 32 Q1024 21.2 1016.4 13.6" fill="var(--svg-fill-color)" stroke="var(--svg-stroke-color)"/><path d="M948.8 12.2 Q940.6 4 929 4 917.4 4 909.2 12.15 L909.15 12.2 Q901 20.4 901 32 901 43.6 909.2 51.8 917.4 60 929 60 940.6 60 948.8 51.8 957 43.6 957 32 957 20.4 948.8 12.2 M959 32 Q959 44.45 950.2 53.2 941.45 62 929 62 916.55 62 907.75 53.2 899 44.45 899 32 899 19.55 907.75 10.75 916.55 2 929 2 941.45 2 950.2 10.75 959 19.55 959 32" fill="var(--svg-fill-color)" stroke="var(--svg-stroke-color)"/><path d="M938.9 22.1 Q934.8 18 929 18 923.2 18 919.1 22.05 L919.05 22.1 Q915 26.2 915 32 915 37.8 919.1 41.9 923.2 46 929 46 934.8 46 938.9 41.9 943 37.8 943 32 943 26.2 938.9 22.1 M945 32 Q945 38.65 940.3 43.3 935.65 48 929 48 922.35 48 917.65 43.3 913 38.65 913 32 913 25.35 917.65 20.65 922.35 16 929 16 935.65 16 940.3 20.65 945 25.35 945 32" fill="var(--svg-fill-color)" stroke="var(--svg-stroke-color)"/><path d="M907.75 79.75 Q915.85 71.7 927 71.05 L929 71 931 71.05 Q942.15 71.7 950.2 79.75 958.3 87.85 958.95 99 L956.95 99 Q956.3 88.65 948.8 81.2 941.35 73.7 931 73.1 L929 73 927 73.05 Q916.65 73.7 909.2 81.15 L909.15 81.2 Q906.7 83.65 905 86.4 901.5 92.05 901.05 99 L899.05 99 Q899.6 89.9 905 82.9 906.25 81.25 907.75 79.75 M940.3 89.65 Q944.3 93.65 944.9 99 L942.9 99 Q942.25 94.45 938.9 91.1 935.55 87.7 931 87.15 L931 85.1 Q936.35 85.7 940.3 89.65 M917.65 89.65 Q921.65 85.7 927 85.1 L927 87.15 Q922.45 87.7 919.1 91.05 L919.05 91.1 Q915.7 94.45 915.15 99 L913.1 99 Q913.7 93.65 917.65 89.65 M940.3 112.3 Q936.35 116.3 931 116.9 L931 114.9 Q935.55 114.3 938.9 110.9 942.3 107.55 942.9 103 L944.9 103 Q944.3 108.35 940.3 112.3 M950.2 122.2 Q942.15 130.3 931 130.95 L929 131 927 130.95 Q915.85 130.3 907.75 122.2 L905 119.1 Q899.6 112.05 899.05 103 L901.1 103 Q901.5 109.9 905 115.55 906.7 118.3 909.2 120.8 916.65 128.3 927 128.95 L929 129 931 128.95 Q941.35 128.3 948.8 120.8 956.3 113.35 956.95 103 L958.95 103 Q958.3 114.15 950.2 122.2 M931 101.05 Q931 101.85 930.4 102.4 929.85 103 929.05 103 L928.95 103 Q928.15 103 927.55 102.4 927 101.85 927 101.05 L927 100.95 Q927 100.15 927.55 99.55 928.15 99 928.95 99 L929.05 99 Q929.85 99 930.4 99.55 931 100.15 931 100.95 L931 101.05 M917.65 112.3 Q913.7 108.35 913.1 103 L915.15 103 Q915.7 107.55 919.1 110.9 922.45 114.25 927 114.9 L927 116.9 Q921.65 116.3 917.65 112.3" fill="var(--svg-fill-color)" stroke="var(--svg-stroke-color)"/><path d="M937 168 L961 168 961 172 937 172 937 168 M927 202 L927 199.95 Q915.85 199.3 907.75 191.2 900.45 183.9 899.25 174 L901.25 174 Q902.45 183.05 909.2 189.8 917.05 197.65 928 198 L930 198 Q940.95 197.65 948.8 189.8 955.55 183.05 956.75 174 L958.75 174 Q957.55 183.9 950.2 191.2 942.15 199.3 931 199.95 L931 202 927 202 M897 168 L921 168 921 172 897 172 897 168 M927 168 L931 168 931 172 927 172 927 168 M931 138 L931 140.05 Q942.15 140.7 950.2 148.75 957.55 156.1 958.75 166 L956.75 166 Q955.55 156.95 948.8 150.2 940.95 142.35 930 142 L928 142 Q917.05 142.35 909.2 150.15 L909.15 150.2 Q902.45 156.95 901.25 166 L899.25 166 Q900.45 156.1 907.75 148.75 915.85 140.7 927 140.05 L927 138 931 138" fill="var(--svg-fill-color)" stroke="var(--svg-stroke-color)"/><path d="M988.1 91.1 Q984 95.2 984 101 984 106.8 988.1 110.9 992.2 115 998 115 1003.75 115 1007.85 110.9 L1007.9 110.85 Q1012 106.75 1012 101 1012 95.2 1007.9 91.1 1003.8 87 998 87 992.2 87 988.1 91.1 M1010.7 88.25 Q1016 93.55 1016 101 1016 108.4 1010.7 113.7 1005.4 119 998 119 990.55 119 985.25 113.7 980 108.45 980 101 980 93.55 985.25 88.3 L985.3 88.25 Q990.55 83 998 83 1005.45 83 1010.7 88.25" fill="var(--svg-fill-color)" stroke="var(--svg-stroke-color)"/><path d="M966 99 L1030 99 1030 103 966 103 966 99" fill="var(--svg-fill-color)" stroke="var(--svg-stroke-color)"/><path d="M966 95 L970 95 970 107 966 107 966 95" fill="var(--svg-fill-color)" stroke="var(--svg-stroke-color)"/><path d="M1298 26 L1298 38 1274 62 1250 38 1250 26 1274 2 1298 26 M1276 32 Q1276 32.85 1275.4 33.4 1274.85 34 1274 34 1273.15 34 1272.55 33.4 1272 32.85 1272 32 1272 31.15 1272.55 30.55 1273.15 30 1274 30 1274.85 30 1275.4 30.55 1276 31.15 1276 32 M1274 8 L1254 28 1254 36 1274 56 1294 36 1294 28 1274 8" fill="var(--svg-fill-color)" stroke="var(--svg-stroke-color)"/><path d="M1231 32 L1211 12 1199 12 1179 32 1199 52 1211 52 1231 32 M1213 56 L1197 56 1173 32 1197 8 1213 8 1237 32 1213 56 M1205 34 Q1204.15 34 1203.6 33.4 1203 32.85 1203 32 1203 31.15 1203.6 30.55 1204.15 30 1205 30 1205.85 30 1206.45 30.55 1207 31.15 1207 32 1207 32.85 1206.45 33.4 1205.85 34 1205 34" fill="var(--svg-fill-color)" stroke="var(--svg-stroke-color)"/><path d="M1231 32 L1211 12 1199 12 1179 32 1199 52 1211 52 1231 32 M1213 56 L1197 56 1173 32 1197 8 1213 8 1237 32 1213 56 M1205 34 Q1204.15 34 1203.6 33.4 1203 32.85 1203 32 1203 31.15 1203.6 30.55 1204.15 30 1205 30 1205.85 30 1206.45 30.55 1207 31.15 1207 32 1207 32.85 1206.45 33.4 1205.85 34 1205 34" fill="var(--svg-fill-color)" stroke="var(--svg-stroke-color)"/><path d="M1231 32 L1211 12 1199 12 1179 32 1199 52 1211 52 1231 32 M1213 56 L1197 56 1173 32 1197 8 1213 8 1237 32 1213 56 M1205 34 Q1204.15 34 1203.6 33.4 1203 32.85 1203 32 1203 31.15 1203.6 30.55 1204.15 30 1205 30 1205.85 30 1206.45 30.55 1207 31.15 1207 32 1207 32.85 1206.45 33.4 1205.85 34 1205 34" fill="var(--svg-fill-color)" stroke="var(--svg-stroke-color)"/><path d="M1367 26 L1367 38 1362 43 1359 40 1363 36 1363 28 1359 24 1362 21 1367 26 M1343 2 L1349 8 1347 10 1343 6 1339 10 1337 8 1343 2 M1345 32 Q1345 32.85 1344.4 33.4 1343.85 34 1343 34 1342.15 34 1341.6 33.45 L1341.55 33.4 Q1341 32.85 1341 32 1341 31.15 1341.55 30.55 1342.15 30 1343 30 1343.85 30 1344.4 30.55 L1344.45 30.6 Q1345 31.15 1345 32 M1343 62 L1337 56 1339 54 1343 58 1347 54 1349 56 1343 62 M1319 26 L1324 21 1327 24 1323 28 1323 36 1327 40 1324 43 1319 38 1319 26" fill="var(--svg-fill-color)" stroke="var(--svg-stroke-color)"/></svg>