<svg xmlns="http://www.w3.org/2000/svg" xmlns:xlink="http://www.w3.org/1999/xlink" width="64" height="64" viewBox="1105 69 62 64"><path d="M1146 95 L1142 91 1150 83 1154 87 1146 95 M1142 111 L1146 107 1154 115 1150 119 1142 111 M1126 107 L1130 111 1122 119 1118 115 1126 107 M1126 95 L1118 87 1122 83 1130 91 1126 95" fill="var(--svg-fill-color)" stroke="var(--svg-stroke-color)"/><path d="M1298 26 L1298 38 1274 62 1250 38 1250 26 1274 2 1298 26 M1276 32 Q1276 32.85 1275.4 33.4 1274.85 34 1274 34 1273.15 34 1272.55 33.4 1272 32.85 1272 32 1272 31.15 1272.55 30.55 1273.15 30 1274 30 1274.85 30 1275.4 30.55 1276 31.15 1276 32 M1274 8 L1254 28 1254 36 1274 56 1294 36 1294 28 1274 8" fill="var(--svg-fill-color)" stroke="var(--svg-stroke-color)"/><path d="M1231 32 L1211 12 1199 12 1179 32 1199 52 1211 52 1231 32 M1213 56 L1197 56 1173 32 1197 8 1213 8 1237 32 1213 56 M1205 34 Q1204.15 34 1203.6 33.4 1203 32.85 1203 32 1203 31.15 1203.6 30.55 1204.15 30 1205 30 1205.85 30 1206.45 30.55 1207 31.15 1207 32 1207 32.85 1206.45 33.4 1205.85 34 1205 34" fill="var(--svg-fill-color)" stroke="var(--svg-stroke-color)"/><path d="M1231 32 L1211 12 1199 12 1179 32 1199 52 1211 52 1231 32 M1213 56 L1197 56 1173 32 1197 8 1213 8 1237 32 1213 56 M1205 34 Q1204.15 34 1203.6 33.4 1203 32.85 1203 32 1203 31.15 1203.6 30.55 1204.15 30 1205 30 1205.85 30 1206.45 30.55 1207 31.15 1207 32 1207 32.85 1206.45 33.4 1205.85 34 1205 34" fill="var(--svg-fill-color)" stroke="var(--svg-stroke-color)"/><path d="M1231 32 L1211 12 1199 12 1179 32 1199 52 1211 52 1231 32 M1213 56 L1197 56 1173 32 1197 8 1213 8 1237 32 1213 56 M1205 34 Q1204.15 34 1203.6 33.4 1203 32.85 1203 32 1203 31.15 1203.6 30.55 1204.15 30 1205 30 1205.85 30 1206.45 30.55 1207 31.15 1207 32 1207 32.85 1206.45 33.4 1205.85 34 1205 34" fill="var(--svg-fill-color)" stroke="var(--svg-stroke-color)"/><path d="M1367 26 L1367 38 1362 43 1359 40 1363 36 1363 28 1359 24 1362 21 1367 26 M1343 2 L1349 8 1347 10 1343 6 1339 10 1337 8 1343 2 M1345 32 Q1345 32.85 1344.4 33.4 1343.85 34 1343 34 1342.15 34 1341.6 33.45 L1341.55 33.4 Q1341 32.85 1341 32 1341 31.15 1341.55 30.55 1342.15 30 1343 30 1343.85 30 1344.4 30.55 L1344.45 30.6 Q1345 31.15 1345 32 M1343 62 L1337 56 1339 54 1343 58 1347 54 1349 56 1343 62 M1319 26 L1324 21 1327 24 1323 28 1323 36 1327 40 1324 43 1319 38 1319 26" fill="var(--svg-fill-color)" stroke="var(--svg-stroke-color)"/></svg>