<svg xmlns="http://www.w3.org/2000/svg" xmlns:xlink="http://www.w3.org/1999/xlink" width="64" height="64" viewBox="277 69 62 64"><path d="M476 32 Q476 44.45 467.2 53.2 458.45 62 446 62 433.55 62 424.75 53.2 416 44.45 416 32 416 19.55 424.75 10.75 433.55 2 446 2 458.45 2 467.2 10.75 476 19.55 476 32 M464.4 13.6 Q456.8 6 446 6 435.2 6 427.6 13.6 420 21.2 420 32 420 42.8 427.6 50.4 435.2 58 446 58 456.8 58 464.4 50.4 472 42.8 472 32 472 21.2 464.4 13.6" fill="var(--svg-fill-color)" stroke="var(--svg-stroke-color)"/><path d="M476 101 Q476 113.45 467.2 122.2 458.45 131 446 131 433.55 131 424.75 122.2 416 113.45 416 101 416 88.55 424.75 79.75 433.55 71 446 71 458.45 71 467.2 79.75 476 88.55 476 101 M464.4 82.6 Q456.8 75 446 75 435.2 75 427.6 82.6 420 90.2 420 101 420 111.8 427.6 119.4 435.2 127 446 127 456.8 127 464.4 119.4 472 111.8 472 101 472 90.2 464.4 82.6" fill="var(--svg-fill-color)" stroke="var(--svg-stroke-color)"/><path d="M602.4 13.6 Q594.8 6 584 6 573.2 6 565.6 13.6 558 21.2 558 32 558 42.8 565.6 50.4 573.2 58 584 58 594.8 58 602.4 50.4 610 42.8 610 32 610 21.2 602.4 13.6 M614 32 Q614 44.45 605.2 53.2 596.45 62 584 62 571.55 62 562.75 53.2 554 44.45 554 32 554 19.55 562.75 10.75 571.55 2 584 2 596.45 2 605.2 10.75 614 19.55 614 32" fill="var(--svg-fill-color)" stroke="var(--svg-stroke-color)"/><path d="M533.4 13.6 Q525.8 6 515 6 504.2 6 496.6 13.6 489 21.2 489 32 489 42.8 496.6 50.4 504.2 58 515 58 525.8 58 533.4 50.4 541 42.8 541 32 541 21.2 533.4 13.6 M545 32 Q545 44.45 536.2 53.2 527.45 62 515 62 502.55 62 493.75 53.2 485 44.45 485 32 485 19.55 493.75 10.75 502.55 2 515 2 527.45 2 536.2 10.75 545 19.55 545 32" fill="var(--svg-fill-color)" stroke="var(--svg-stroke-color)"/><path d="M527.7 19.25 Q533 24.55 533 32 533 39.4 527.7 44.7 522.4 50 515 50 507.55 50 502.25 44.7 497 39.45 497 32 497 24.55 502.25 19.3 L502.3 19.25 Q507.55 14 515 14 522.45 14 527.7 19.25 M505.1 22.1 Q501 26.2 501 32 501 37.8 505.1 41.9 509.2 46 515 46 520.75 46 524.85 41.9 L524.9 41.85 Q529 37.75 529 32 529 26.2 524.9 22.1 520.8 18 515 18 509.2 18 505.1 22.1" fill="var(--svg-fill-color)" stroke="var(--svg-stroke-color)"/><path d="M545 101 Q545 113.45 536.2 122.2 527.45 131 515 131 502.55 131 493.75 122.2 485 113.45 485 101 485 88.55 493.75 79.75 502.55 71 515 71 527.45 71 536.2 79.75 545 88.55 545 101 M533.4 82.6 Q525.8 75 515 75 504.2 75 496.6 82.6 489 90.2 489 101 489 111.8 496.6 119.4 504.2 127 515 127 525.8 127 533.4 119.4 541 111.8 541 101 541 90.2 533.4 82.6" fill="var(--svg-fill-color)" stroke="var(--svg-stroke-color)"/><path d="M515 87 Q518.9 87 522.05 88.85 L520.05 92.3 Q517.8 91 515.05 91 L515 91 512.25 91.35 Q511.05 91.7 510 92.3 L508 88.85 Q509.95 87.65 512.25 87.25 L515 87 M501 101 Q501 97.1 502.85 94 L506.3 96 Q505 98.25 505 101 L505 101.05 Q505 103.75 506.3 106 L502.8 108 Q501 104.85 501 101 M529 101 Q529 104.9 527.15 108.05 L523.7 106.05 Q525 103.8 525 101 525 98.2 523.7 95.95 L527.15 93.95 Q529 97.05 529 101 M515 115 Q511.1 115 508 113.2 L510 109.7 Q512.2 111 515 111 517.8 111 520.05 109.7 L522.05 113.15 Q518.9 115 515 115" fill="var(--svg-fill-color)" stroke="var(--svg-stroke-color)"/><path d="M340 103 L332 103 332 99 340 99 340 103 M310 69 L310 77 306 77 306 69 310 69 M284 103 L276 103 276 99 284 99 284 103 M310 125 L310 133 306 133 306 125 310 125" fill="var(--svg-fill-color)" stroke="var(--svg-stroke-color)"/></svg>