<svg xmlns="http://www.w3.org/2000/svg" xmlns:xlink="http://www.w3.org/1999/xlink" width="64" height="64" viewBox="1 138 62 64"><path d="M16 170 L22 164 24 166 20 170 24 174 22 176 16 170 M34 170 Q34 170.85 33.4 171.4 32.85 172 32 172 31.15 172 30.55 171.4 30 170.85 30 170 30 169.15 30.55 168.55 31.15 168 32 168 32.85 168 33.4 168.55 34 169.15 34 170 M48 170 L42 176 40 174 44 170 40 166 42 164 48 170" fill="var(--svg-fill-color)" stroke="var(--svg-stroke-color)"/><path d="M56 280 Q57.65 280 58.85 281.2 60 282.35 60 284 L60 304 56 304 56 284 36 284 36 280 56 280 M8 280 L28 280 28 284 8 284 8 304 4 304 4 284 Q4 282.35 5.15 281.2 6.35 280 8 280 M60 332 Q60 333.65 58.85 334.8 57.65 336 56 336 L36 336 36 332 56 332 56 312 60 312 60 332 M8 336 Q6.35 336 5.15 334.8 4 333.65 4 332 L4 312 8 312 8 332 28 332 28 336 8 336" fill="var(--svg-fill-color)" stroke="var(--svg-stroke-color)"/></svg>