<svg xmlns="http://www.w3.org/2000/svg" xmlns:xlink="http://www.w3.org/1999/xlink" width="64" height="64" viewBox="1312 138 62 64"><path d="M1367 26 L1367 38 1362 43 1359 40 1363 36 1363 28 1359 24 1362 21 1367 26 M1343 2 L1349 8 1347 10 1343 6 1339 10 1337 8 1343 2 M1345 32 Q1345 32.85 1344.4 33.4 1343.85 34 1343 34 1342.15 34 1341.6 33.45 L1341.55 33.4 Q1341 32.85 1341 32 1341 31.15 1341.55 30.55 1342.15 30 1343 30 1343.85 30 1344.4 30.55 L1344.45 30.6 Q1345 31.15 1345 32 M1343 62 L1337 56 1339 54 1343 58 1347 54 1349 56 1343 62 M1319 26 L1324 21 1327 24 1323 28 1323 36 1327 40 1324 43 1319 38 1319 26" fill="var(--svg-fill-color)" stroke="var(--svg-stroke-color)"/><path d="M1322.1 183.1 L1330.5 176.4 Q1331.4 178.2 1332.95 179.8 L1325 186 1322.1 183.1 M1343 156 L1341 156.15 1341 146 1345 146 1345 156.15 1343 156 M1345 170 Q1345 170.85 1344.4 171.4 1343.85 172 1343 172 1342.15 172 1341.55 171.4 1341 170.85 1341 170 1341 169.15 1341.55 168.55 1342.15 168 1343 168 1343.85 168 1344.4 168.55 1345 169.15 1345 170 M1361 186 L1353 179.8 Q1354.55 178.2 1355.5 176.4 L1363.9 183.1 1361 186" fill="var(--svg-fill-color)" stroke="var(--svg-stroke-color)"/></svg>