<svg xmlns="http://www.w3.org/2000/svg" xmlns:xlink="http://www.w3.org/1999/xlink" width="64" height="64" viewBox="139 138 62 64"><path d="M158 170 L164 164 166 166 162 170 166 174 164 176 158 170" fill="var(--svg-fill-color)" stroke="var(--svg-stroke-color)"/><path d="M182 170 L176 176 174 174 178 170 174 166 176 164 182 170" fill="var(--svg-fill-color)" stroke="var(--svg-stroke-color)"/><path d="M241 101 Q241 101.85 240.4 102.4 239.85 103 239 103 238.15 103 237.55 102.4 237 101.85 237 101 237 100.15 237.55 99.55 238.15 99 239 99 239.85 99 240.4 99.55 241 100.15 241 101" fill="var(--svg-fill-color)" stroke="var(--svg-stroke-color)"/><path d="M56 280 Q57.65 280 58.85 281.2 60 282.35 60 284 L60 304 56 304 56 284 36 284 36 280 56 280 M8 280 L28 280 28 284 8 284 8 304 4 304 4 284 Q4 282.35 5.15 281.2 6.35 280 8 280 M60 332 Q60 333.65 58.85 334.8 57.65 336 56 336 L36 336 36 332 56 332 56 312 60 312 60 332 M8 336 Q6.35 336 5.15 334.8 4 333.65 4 332 L4 312 8 312 8 332 28 332 28 336 8 336" fill="var(--svg-fill-color)" stroke="var(--svg-stroke-color)"/><path d="M77 280 L93 280 93 284 77 284 77 300 73 300 73 284 Q73 282.35 74.15 281.2 75.35 280 77 280 M125 280 Q126.65 280 127.85 281.2 129 282.35 129 284 L129 300 125 300 125 284 109 284 109 280 125 280 M77 336 Q75.35 336 74.15 334.8 73 333.65 73 332 L73 316 77 316 77 332 93 332 93 336 77 336 M129 332 Q129 333.65 127.85 334.8 126.65 336 125 336 L109 336 109 332 125 332 125 316 129 316 129 332" fill="var(--svg-fill-color)" stroke="var(--svg-stroke-color)"/></svg>