<svg xmlns="http://www.w3.org/2000/svg" xmlns:xlink="http://www.w3.org/1999/xlink" width="64" height="64" viewBox="208 138 62 64"><path d="M476 32 Q476 44.45 467.2 53.2 458.45 62 446 62 433.55 62 424.75 53.2 416 44.45 416 32 416 19.55 424.75 10.75 433.55 2 446 2 458.45 2 467.2 10.75 476 19.55 476 32 M464.4 13.6 Q456.8 6 446 6 435.2 6 427.6 13.6 420 21.2 420 32 420 42.8 427.6 50.4 435.2 58 446 58 456.8 58 464.4 50.4 472 42.8 472 32 472 21.2 464.4 13.6" fill="var(--svg-fill-color)" stroke="var(--svg-stroke-color)"/><path d="M476 101 Q476 113.45 467.2 122.2 458.45 131 446 131 433.55 131 424.75 122.2 416 113.45 416 101 416 88.55 424.75 79.75 433.55 71 446 71 458.45 71 467.2 79.75 476 88.55 476 101 M464.4 82.6 Q456.8 75 446 75 435.2 75 427.6 82.6 420 90.2 420 101 420 111.8 427.6 119.4 435.2 127 446 127 456.8 127 464.4 119.4 472 111.8 472 101 472 90.2 464.4 82.6" fill="var(--svg-fill-color)" stroke="var(--svg-stroke-color)"/><path d="M239 170 L245 176 243 178 239 174 235 178 233 176 239 170" fill="var(--svg-fill-color)" stroke="var(--svg-stroke-color)"/><path d="M239 170 L233 164 235 162 239 166 243 162 245 164 239 170" fill="var(--svg-fill-color)" stroke="var(--svg-stroke-color)"/><path d="M241 101 Q241 101.85 240.4 102.4 239.85 103 239 103 238.15 103 237.55 102.4 237 101.85 237 101 237 100.15 237.55 99.55 238.15 99 239 99 239.85 99 240.4 99.55 241 100.15 241 101" fill="var(--svg-fill-color)" stroke="var(--svg-stroke-color)"/><path d="M77 280 L93 280 93 284 77 284 77 300 73 300 73 284 Q73 282.35 74.15 281.2 75.35 280 77 280 M125 280 Q126.65 280 127.85 281.2 129 282.35 129 284 L129 300 125 300 125 284 109 284 109 280 125 280 M77 336 Q75.35 336 74.15 334.8 73 333.65 73 332 L73 316 77 316 77 332 93 332 93 336 77 336 M129 332 Q129 333.65 127.85 334.8 126.65 336 125 336 L109 336 109 332 125 332 125 316 129 316 129 332" fill="var(--svg-fill-color)" stroke="var(--svg-stroke-color)"/><path d="M308 152 L314 158 312 160 308 156 304 160 302 158 308 152 M310 170 Q310 170.85 309.4 171.4 308.85 172 308 172 307.15 172 306.55 171.4 306 170.85 306 170 306 169.15 306.55 168.55 307.15 168 308 168 308.85 168 309.4 168.55 310 169.15 310 170 M308 188 L302 182 304 180 308 184 312 180 314 182 308 188" fill="var(--svg-fill-color)" stroke="var(--svg-stroke-color)"/></svg>