<svg xmlns="http://www.w3.org/2000/svg" xmlns:xlink="http://www.w3.org/1999/xlink" width="64" height="64" viewBox="829 207 62 64"><path d="M841.6 13.6 Q837.8 17.4 835.9 22 835.1 23.95 834.65 26 L828 26 828 22 831.6 22 Q833.75 15.8 838.75 10.75 843.8 5.75 850 3.6 L850 0 854 0 854 6.65 Q851.95 7.1 850 7.9 845.4 9.8 841.6 13.6" fill="var(--svg-fill-color)" stroke="var(--svg-stroke-color)"/><path d="M878.4 13.6 Q874.6 9.8 870 7.9 868.05 7.1 866 6.65 L866 0 870 0 870 3.6 Q876.2 5.75 881.25 10.75 886.25 15.8 888.4 22 L892 22 892 26 885.35 26 Q884.9 23.95 884.1 22 882.2 17.4 878.4 13.6" fill="var(--svg-fill-color)" stroke="var(--svg-stroke-color)"/><path d="M841.6 50.4 Q845.4 54.2 850 56.1 851.95 56.9 854 57.35 L854 64 850 64 850 60.4 Q843.8 58.25 838.75 53.25 833.75 48.2 831.6 42 L828 42 828 38 834.65 38 Q835.1 40.05 835.9 42 837.8 46.6 841.6 50.4" fill="var(--svg-fill-color)" stroke="var(--svg-stroke-color)"/><path d="M878.4 50.4 Q882.2 46.6 884.1 42 L885.35 38 892 38 892 42 888.4 42 Q886.25 48.2 881.25 53.25 876.2 58.25 870 60.4 L870 64 866 64 866 57.35 Q868.05 56.9 870 56.1 874.6 54.2 878.4 50.4" fill="var(--svg-fill-color)" stroke="var(--svg-stroke-color)"/><path d="M860 127 Q867.25 127 873.05 123.6 L875.05 127.05 Q868.35 131 860 131 851.7 131 845 127.1 L847 123.6 Q852.8 127 860 127 M886 101 Q886 93.75 882.6 88 L886.05 86 Q890 92.65 890 101 890 109.4 886 116.1 L882.55 114.1 Q886 108.25 886 101 M834 101 Q834 108.3 837.45 114.1 L834 116.1 Q830 109.4 830 101 830 92.65 833.95 86 L837.4 88 Q834 93.8 834 101 M860 75 Q852.75 75 846.95 78.45 L844.95 74.95 Q851.65 71 860 71 868.35 71 875.05 74.95 L873.05 78.45 Q867.25 75 860 75" fill="var(--svg-fill-color)" stroke="var(--svg-stroke-color)"/><path d="M860 93 Q856.7 93 854.35 95.3 L854.3 95.35 Q852 97.7 852 101 852 104.3 854.35 106.65 856.7 109 860 109 863.3 109 865.6 106.65 L865.65 106.6 Q868 104.3 868 101 868 97.7 865.65 95.35 863.3 93 860 93 M872 101 Q872 105.95 868.45 109.45 864.95 113 860 113 855.05 113 851.5 109.45 848 105.95 848 101 848 96.05 851.5 92.5 855.05 89 860 89 864.95 89 868.45 92.5 872 96.05 872 101" fill="var(--svg-fill-color)" stroke="var(--svg-stroke-color)"/><path d="M860 265 Q867.25 265 873.05 261.6 L875.05 265.05 Q868.35 269 860 269 851.7 269 845 265.1 L847 261.6 Q852.8 265 860 265 M834 239 Q834 246.3 837.45 252.1 L834 254.1 Q830 247.4 830 239 830 230.65 833.95 224 L837.4 226 Q834 231.8 834 239 M886 239 Q886 231.75 882.6 226 L886.05 224 Q890 230.65 890 239 890 247.4 886 254.1 L882.55 252.1 Q886 246.25 886 239 M860 213 Q852.75 213 846.95 216.45 L844.95 212.95 Q851.65 209 860 209 868.35 209 875.05 212.95 L873.05 216.45 Q867.25 213 860 213" fill="var(--svg-fill-color)" stroke="var(--svg-stroke-color)"/><path d="M852.9 231.9 L852.85 231.95 Q850 234.9 850 239 L850 239.05 Q850 243.15 852.9 246.1 855.85 249 860 249 864.15 249 867.05 246.1 L867.1 246.05 Q870 243.15 870 239 870 234.85 867.1 231.9 864.15 229 860.05 229 L860 229 Q855.9 229 852.95 231.85 L852.9 231.9 M862 239 Q862 239.85 861.4 240.4 860.85 241 860 241 859.15 241 858.55 240.4 858 239.85 858 239 858 238.15 858.55 237.55 859.15 237 860 237 860.85 237 861.4 237.55 862 238.15 862 239 M869.9 229.05 Q874 233.15 874 239 874 244.8 869.9 248.9 865.8 253 860 253 854.15 253 850.05 248.9 846 244.8 846 239 846 233.2 850.05 229.1 L850.1 229.05 Q854.2 225 860 225 865.8 225 869.9 229.05" fill="var(--svg-fill-color)" stroke="var(--svg-stroke-color)"/><path d="M998 58 L998 62 Q985.55 62 976.75 53.2 968 44.45 968 32 L972 32 Q972 42.8 979.6 50.4 987.2 58 998 58 M1016.4 13.6 Q1008.8 6 998 6 L998 2 Q1010.45 2 1019.2 10.75 1028 19.55 1028 32 L1024 32 Q1024 21.2 1016.4 13.6" fill="var(--svg-fill-color)" stroke="var(--svg-stroke-color)"/><path d="M884 170 Q884 179.95 876.95 186.95 869.95 194 860 194 850.05 194 843 186.95 836 179.95 836 170 836 160.05 843 153 850.05 146 860 146 869.95 146 876.95 153 884 160.05 884 170 M874.15 155.85 Q868.3 150 860 150 851.7 150 845.85 155.85 840 161.7 840 170 840 178.3 845.85 184.15 851.7 190 860 190 868.3 190 874.1 184.15 L874.15 184.1 Q880 178.3 880 170 880 161.7 874.15 155.85" fill="var(--svg-fill-color)" stroke="var(--svg-stroke-color)"/><path d="M945 237 L961 237 961 241 945 241 945 237 M931 207 L931 223 927 223 927 207 931 207 M897 237 L913 237 913 241 897 241 897 237 M931 255 L931 271 927 271 927 255 931 255" fill="var(--svg-fill-color)" stroke="var(--svg-stroke-color)"/><path d="M948.8 219.2 Q940.6 211 929 211 917.4 211 909.2 219.15 L909.15 219.2 Q901 227.4 901 239 901 250.6 909.2 258.8 917.4 267 929 267 940.6 267 948.8 258.8 957 250.6 957 239 957 227.4 948.8 219.2 M959 239 Q959 251.45 950.2 260.2 941.45 269 929 269 916.55 269 907.75 260.2 899 251.45 899 239 899 226.55 907.75 217.75 916.55 209 929 209 941.45 209 950.2 217.75 959 226.55 959 239" fill="var(--svg-fill-color)" stroke="var(--svg-stroke-color)"/><path d="M948.8 12.2 Q940.6 4 929 4 917.4 4 909.2 12.15 L909.15 12.2 Q901 20.4 901 32 901 43.6 909.2 51.8 917.4 60 929 60 940.6 60 948.8 51.8 957 43.6 957 32 957 20.4 948.8 12.2 M959 32 Q959 44.45 950.2 53.2 941.45 62 929 62 916.55 62 907.75 53.2 899 44.45 899 32 899 19.55 907.75 10.75 916.55 2 929 2 941.45 2 950.2 10.75 959 19.55 959 32" fill="var(--svg-fill-color)" stroke="var(--svg-stroke-color)"/><path d="M938.9 22.1 Q934.8 18 929 18 923.2 18 919.1 22.05 L919.05 22.1 Q915 26.2 915 32 915 37.8 919.1 41.9 923.2 46 929 46 934.8 46 938.9 41.9 943 37.8 943 32 943 26.2 938.9 22.1 M945 32 Q945 38.65 940.3 43.3 935.65 48 929 48 922.35 48 917.65 43.3 913 38.65 913 32 913 25.35 917.65 20.65 922.35 16 929 16 935.65 16 940.3 20.65 945 25.35 945 32" fill="var(--svg-fill-color)" stroke="var(--svg-stroke-color)"/><path d="M907.75 79.75 Q915.85 71.7 927 71.05 L929 71 931 71.05 Q942.15 71.7 950.2 79.75 958.3 87.85 958.95 99 L956.95 99 Q956.3 88.65 948.8 81.2 941.35 73.7 931 73.1 L929 73 927 73.05 Q916.65 73.7 909.2 81.15 L909.15 81.2 Q906.7 83.65 905 86.4 901.5 92.05 901.05 99 L899.05 99 Q899.6 89.9 905 82.9 906.25 81.25 907.75 79.75 M940.3 89.65 Q944.3 93.65 944.9 99 L942.9 99 Q942.25 94.45 938.9 91.1 935.55 87.7 931 87.15 L931 85.1 Q936.35 85.7 940.3 89.65 M917.65 89.65 Q921.65 85.7 927 85.1 L927 87.15 Q922.45 87.7 919.1 91.05 L919.05 91.1 Q915.7 94.45 915.15 99 L913.1 99 Q913.7 93.65 917.65 89.65 M940.3 112.3 Q936.35 116.3 931 116.9 L931 114.9 Q935.55 114.3 938.9 110.9 942.3 107.55 942.9 103 L944.9 103 Q944.3 108.35 940.3 112.3 M950.2 122.2 Q942.15 130.3 931 130.95 L929 131 927 130.95 Q915.85 130.3 907.75 122.2 L905 119.1 Q899.6 112.05 899.05 103 L901.1 103 Q901.5 109.9 905 115.55 906.7 118.3 909.2 120.8 916.65 128.3 927 128.95 L929 129 931 128.95 Q941.35 128.3 948.8 120.8 956.3 113.35 956.95 103 L958.95 103 Q958.3 114.15 950.2 122.2 M931 101.05 Q931 101.85 930.4 102.4 929.85 103 929.05 103 L928.95 103 Q928.15 103 927.55 102.4 927 101.85 927 101.05 L927 100.95 Q927 100.15 927.55 99.55 928.15 99 928.95 99 L929.05 99 Q929.85 99 930.4 99.55 931 100.15 931 100.95 L931 101.05 M917.65 112.3 Q913.7 108.35 913.1 103 L915.15 103 Q915.7 107.55 919.1 110.9 922.45 114.25 927 114.9 L927 116.9 Q921.65 116.3 917.65 112.3" fill="var(--svg-fill-color)" stroke="var(--svg-stroke-color)"/><path d="M937 168 L961 168 961 172 937 172 937 168 M927 202 L927 199.95 Q915.85 199.3 907.75 191.2 900.45 183.9 899.25 174 L901.25 174 Q902.45 183.05 909.2 189.8 917.05 197.65 928 198 L930 198 Q940.95 197.65 948.8 189.8 955.55 183.05 956.75 174 L958.75 174 Q957.55 183.9 950.2 191.2 942.15 199.3 931 199.95 L931 202 927 202 M897 168 L921 168 921 172 897 172 897 168 M927 168 L931 168 931 172 927 172 927 168 M931 138 L931 140.05 Q942.15 140.7 950.2 148.75 957.55 156.1 958.75 166 L956.75 166 Q955.55 156.95 948.8 150.2 940.95 142.35 930 142 L928 142 Q917.05 142.35 909.2 150.15 L909.15 150.2 Q902.45 156.95 901.25 166 L899.25 166 Q900.45 156.1 907.75 148.75 915.85 140.7 927 140.05 L927 138 931 138" fill="var(--svg-fill-color)" stroke="var(--svg-stroke-color)"/><path d="M988.1 91.1 Q984 95.2 984 101 984 106.8 988.1 110.9 992.2 115 998 115 1003.75 115 1007.85 110.9 L1007.9 110.85 Q1012 106.75 1012 101 1012 95.2 1007.9 91.1 1003.8 87 998 87 992.2 87 988.1 91.1 M1010.7 88.25 Q1016 93.55 1016 101 1016 108.4 1010.7 113.7 1005.4 119 998 119 990.55 119 985.25 113.7 980 108.45 980 101 980 93.55 985.25 88.3 L985.3 88.25 Q990.55 83 998 83 1005.45 83 1010.7 88.25" fill="var(--svg-fill-color)" stroke="var(--svg-stroke-color)"/><path d="M991.3 195.2 L996 195.95 996 182 1000 182 1000 195.95 1004.8 195.2 1005.85 199.05 998 200 Q993.95 200 990.25 199.05 L991.3 195.2 M972.85 163.25 Q972.25 165.55 972.1 168 L986 168 986 172 972.1 172 Q972.25 174.5 972.85 176.8 L968.95 177.85 Q968 174.1 968 170 968 165.9 968.95 162.2 L972.85 163.25 M1023.2 176.75 Q1023.75 174.45 1023.95 172 L1010 172 1010 168 1023.95 168 Q1023.75 165.55 1023.2 163.3 L1027.05 162.25 Q1028 165.9 1028 170 1028 174.1 1027.05 177.75 L1023.2 176.75 M1004.75 144.85 L1000 144.1 1000 158 996 158 996 144.1 991.35 144.8 990.3 140.95 Q993.95 140 998 140 1002.1 140 1005.8 140.95 L1004.75 144.85" fill="var(--svg-fill-color)" stroke="var(--svg-stroke-color)"/><path d="M1298 26 L1298 38 1274 62 1250 38 1250 26 1274 2 1298 26 M1276 32 Q1276 32.85 1275.4 33.4 1274.85 34 1274 34 1273.15 34 1272.55 33.4 1272 32.85 1272 32 1272 31.15 1272.55 30.55 1273.15 30 1274 30 1274.85 30 1275.4 30.55 1276 31.15 1276 32 M1274 8 L1254 28 1254 36 1274 56 1294 36 1294 28 1274 8" fill="var(--svg-fill-color)" stroke="var(--svg-stroke-color)"/><path d="M1231 32 L1211 12 1199 12 1179 32 1199 52 1211 52 1231 32 M1213 56 L1197 56 1173 32 1197 8 1213 8 1237 32 1213 56 M1205 34 Q1204.15 34 1203.6 33.4 1203 32.85 1203 32 1203 31.15 1203.6 30.55 1204.15 30 1205 30 1205.85 30 1206.45 30.55 1207 31.15 1207 32 1207 32.85 1206.45 33.4 1205.85 34 1205 34" fill="var(--svg-fill-color)" stroke="var(--svg-stroke-color)"/><path d="M1231 32 L1211 12 1199 12 1179 32 1199 52 1211 52 1231 32 M1213 56 L1197 56 1173 32 1197 8 1213 8 1237 32 1213 56 M1205 34 Q1204.15 34 1203.6 33.4 1203 32.85 1203 32 1203 31.15 1203.6 30.55 1204.15 30 1205 30 1205.85 30 1206.45 30.55 1207 31.15 1207 32 1207 32.85 1206.45 33.4 1205.85 34 1205 34" fill="var(--svg-fill-color)" stroke="var(--svg-stroke-color)"/><path d="M1231 32 L1211 12 1199 12 1179 32 1199 52 1211 52 1231 32 M1213 56 L1197 56 1173 32 1197 8 1213 8 1237 32 1213 56 M1205 34 Q1204.15 34 1203.6 33.4 1203 32.85 1203 32 1203 31.15 1203.6 30.55 1204.15 30 1205 30 1205.85 30 1206.45 30.55 1207 31.15 1207 32 1207 32.85 1206.45 33.4 1205.85 34 1205 34" fill="var(--svg-fill-color)" stroke="var(--svg-stroke-color)"/><path d="M1367 26 L1367 38 1362 43 1359 40 1363 36 1363 28 1359 24 1362 21 1367 26 M1343 2 L1349 8 1347 10 1343 6 1339 10 1337 8 1343 2 M1345 32 Q1345 32.85 1344.4 33.4 1343.85 34 1343 34 1342.15 34 1341.6 33.45 L1341.55 33.4 Q1341 32.85 1341 32 1341 31.15 1341.55 30.55 1342.15 30 1343 30 1343.85 30 1344.4 30.55 L1344.45 30.6 Q1345 31.15 1345 32 M1343 62 L1337 56 1339 54 1343 58 1347 54 1349 56 1343 62 M1319 26 L1324 21 1327 24 1323 28 1323 36 1327 40 1324 43 1319 38 1319 26" fill="var(--svg-fill-color)" stroke="var(--svg-stroke-color)"/><path d="M1069 170 Q1069 170.65 1068.65 171.15 L1068.4 171.4 Q1067.85 172 1067 172 1066.15 172 1065.55 171.4 L1065.35 171.15 Q1065 170.65 1065 170 1065 169.15 1065.55 168.55 1066.15 168 1067 168 1067.85 168 1068.4 168.55 1069 169.15 1069 170 M1047 182 L1087 182 1067 148 1047 182 M1067 140 L1095 186 1039 186 1067 140" fill="var(--svg-fill-color)" stroke="var(--svg-stroke-color)"/><path d="M1185 182 L1195.75 173.85 Q1196.45 175.55 1197.9 177 L1198.2 177.3 1192.15 182 1217.85 182 1211.75 177.25 1212 177 Q1213.5 175.55 1214.25 173.8 L1225 182 1207 151.4 1207 160.2 1205 160 1203 160.2 1203 151.4 1185 182 M1207 170 Q1207 170.65 1206.65 171.15 L1206.4 171.4 Q1205.85 172 1205 172 1204.15 172 1203.55 171.4 L1203.35 171.15 Q1203 170.65 1203 170 1203 169.15 1203.55 168.55 1204.15 168 1205 168 1205.85 168 1206.4 168.55 1207 169.15 1207 170 M1205 140 L1233 186 1177 186 1205 140" fill="var(--svg-fill-color)" stroke="var(--svg-stroke-color)"/><path d="M1266.9 162.9 L1266.85 162.95 Q1264 165.9 1264 170 L1264 170.05 Q1264 172.1 1264.7 173.85 1265.45 175.6 1266.9 177.1 L1267.15 177.35 Q1270 180 1274 180 1278 180 1280.85 177.3 L1281.05 177.1 1281.1 177.05 Q1282.55 175.6 1283.3 173.8 1284 172.05 1284 170 1284 165.85 1281.1 162.9 1278.9 160.7 1276 160.2 L1274.05 160 1274 160 1272 160.2 Q1269.15 160.7 1266.95 162.85 L1266.9 162.9 M1272 146 L1276 146 1276 156.15 Q1280.55 156.7 1283.9 160.05 1288 164.15 1288 170 1288 173.5 1286.5 176.4 L1294.9 183.1 1292 186 1284 179.8 1283.9 179.9 Q1279.8 184 1274 184 1268.15 184 1264.05 179.9 L1263.95 179.8 1256 186 1253.1 183.1 1261.5 176.4 Q1260 173.5 1260 170 1260 164.2 1264.05 160.1 L1264.1 160.05 Q1267.45 156.7 1272 156.15 L1272 146 M1276 170 Q1276 170.85 1275.4 171.4 1274.85 172 1274 172 1273.15 172 1272.55 171.4 1272 170.85 1272 170 1272 169.15 1272.55 168.55 1273.15 168 1274 168 1274.85 168 1275.4 168.55 1276 169.15 1276 170" fill="var(--svg-fill-color)" stroke="var(--svg-stroke-color)"/><path d="M1322.1 183.1 L1330.5 176.4 Q1331.4 178.2 1332.95 179.8 L1325 186 1322.1 183.1 M1343 156 L1341 156.15 1341 146 1345 146 1345 156.15 1343 156 M1345 170 Q1345 170.85 1344.4 171.4 1343.85 172 1343 172 1342.15 172 1341.55 171.4 1341 170.85 1341 170 1341 169.15 1341.55 168.55 1342.15 168 1343 168 1343.85 168 1344.4 168.55 1345 169.15 1345 170 M1361 186 L1353 179.8 Q1354.55 178.2 1355.5 176.4 L1363.9 183.1 1361 186" fill="var(--svg-fill-color)" stroke="var(--svg-stroke-color)"/><path d="M1091 239 Q1091 248.95 1083.95 255.95 1076.95 263 1067 263 1057.05 263 1050 255.95 1043 248.95 1043 239 1043 229.05 1050 222 1057.05 215 1067 215 1076.95 215 1083.95 222 1091 229.05 1091 239 M1067 259 Q1074.3 259 1079.65 254.5 L1051.5 226.35 Q1047 231.75 1047 239 1047 247.3 1052.85 253.15 1058.7 259 1067 259 M1081.15 224.85 Q1075.3 219 1067 219 1059.75 219 1054.35 223.5 L1082.5 251.65 Q1087 246.3 1087 239 1087 230.7 1081.15 224.85" fill="var(--svg-fill-color)" stroke="var(--svg-stroke-color)"/><path d="M1154.4 220.6 Q1162 228.2 1162 239 1162 249.75 1154.4 257.35 L1154.35 257.4 Q1146.75 265 1136 265 1125.2 265 1117.6 257.4 1110 249.8 1110 239 1110 228.25 1117.6 220.6 1125.25 213 1136 213 1146.8 213 1154.4 220.6 M1120.7 229.4 Q1118 233.65 1118 239 1118 246.45 1123.3 251.75 1128.55 257 1136 257 1141.4 257 1145.6 254.3 L1120.7 229.4 M1154 239 Q1154 231.55 1148.75 226.3 1143.45 221 1136 221 1130.65 221 1126.4 223.7 L1151.3 248.6 Q1154 244.4 1154 239" fill="var(--svg-fill-color)" stroke="var(--svg-stroke-color)"/><path d="M1235 239 Q1235 251.45 1226.2 260.2 1217.45 269 1205 269 1192.55 269 1183.75 260.2 1175 251.45 1175 239 1175 226.55 1183.75 217.75 1192.55 209 1205 209 1217.45 209 1226.2 217.75 1235 226.55 1235 239 M1205 265 Q1214.75 265 1221.95 258.8 L1185.25 222.1 Q1179 229.25 1179 239 1179 249.8 1186.6 257.4 1194.2 265 1205 265 M1223.4 220.6 Q1215.8 213 1205 213 1195.25 213 1188.1 219.25 L1224.8 255.95 Q1231 248.75 1231 239 1231 228.2 1223.4 220.6" fill="var(--svg-fill-color)" stroke="var(--svg-stroke-color)"/><path d="M1255.6 220.6 Q1253.1 223.1 1251.4 226 1249.7 228.9 1248.85 232.25 L1244.95 231.15 Q1245.95 227.35 1247.9 224 1249.85 220.65 1252.75 217.75 1255.65 214.85 1259 212.9 1262.4 210.9 1266.2 209.9 L1267.3 213.8 Q1263.95 214.65 1261 216.4 1258.15 218.05 1255.6 220.6 M1292.4 220.6 Q1289.9 218.1 1287.15 216.4 1284.1 214.6 1280.8 213.8 L1281.8 209.9 Q1285.65 210.85 1289.1 213 1292.35 214.85 1295.25 217.75 1298.15 220.65 1300.05 223.95 1302.05 227.35 1303.05 231.25 L1299.2 232.3 Q1298.3 228.9 1296.55 225.95 1294.9 223.1 1292.4 220.6 M1292.35 257.35 Q1294.9 254.8 1296.55 252.05 1298.35 249.05 1299.2 245.7 L1303.05 246.75 Q1302.05 250.55 1300 254 1298.1 257.3 1295.2 260.2 1292.3 263.1 1289.05 264.95 1285.6 267 1281.8 268 L1280.8 264.1 Q1284.1 263.3 1287.05 261.55 1289.85 259.85 1292.35 257.35 M1272 242 L1271.7 242.7 1271 243 Q1270.6 243 1270.3 242.7 1270 242.4 1270 242 1270 241.6 1270.3 241.3 1270.6 241 1271 241 1271.4 241 1271.7 241.3 L1272 242 M1272 236 L1271.7 236.7 1271 237 Q1270.6 237 1270.3 236.7 1270 236.4 1270 236 1270 235.6 1270.3 235.3 1270.6 235 1271 235 1271.4 235 1271.7 235.3 L1272 236 M1278 236 L1277.7 236.7 1277 237 Q1276.6 237 1276.3 236.7 1276 236.4 1276 236 1276 235.6 1276.3 235.3 1276.6 235 1277 235 L1277.7 235.3 1278 236 M1278 242 L1277.7 242.7 1277 243 Q1276.6 243 1276.3 242.7 1276 242.4 1276 242 1276 241.6 1276.3 241.3 1276.6 241 1277 241 L1277.7 241.3 1278 242 M1255.65 257.35 Q1258.15 259.85 1261 261.6 1263.95 263.25 1267.25 264.15 L1266.2 268 Q1262.4 267 1259.05 265.05 1255.7 263.1 1252.8 260.2 1249.9 257.3 1248 254 1245.95 250.55 1244.9 246.8 L1248.8 245.8 Q1249.65 249.05 1251.45 252.05 1253.1 254.8 1255.65 257.35" fill="var(--svg-fill-color)" stroke="var(--svg-stroke-color)"/><path d="M1347 236 L1346.7 236.7 1346 237 Q1345.6 237 1345.3 236.7 1345 236.4 1345 236 1345 235.6 1345.3 235.3 1345.6 235 1346 235 1346.4 235 1346.7 235.3 L1347 236 M1347 242 L1346.7 242.7 1346 243 Q1345.6 243 1345.3 242.7 1345 242.4 1345 242 1345 241.6 1345.3 241.3 1345.6 241 1346 241 1346.4 241 1346.7 241.3 L1347 242 M1341 242 L1340.7 242.7 1340 243 Q1339.6 243 1339.3 242.7 1339 242.4 1339 242 1339 241.6 1339.3 241.3 1339.6 241 1340 241 L1340.7 241.3 1341 242 M1341 236 L1340.7 236.7 1340 237 Q1339.6 237 1339.3 236.7 1339 236.4 1339 236 1339 235.6 1339.3 235.3 1339.6 235 1340 235 L1340.7 235.3 1341 236 M1363 239 L1367 239 Q1367 248.95 1359.95 255.95 1352.95 263 1343 263 1333.05 263 1326 255.95 1319 248.95 1319 239 L1323 239 Q1323 247.3 1328.85 253.15 1334.7 259 1343 259 1351.3 259 1357.1 253.15 L1357.15 253.1 Q1363 247.3 1363 239" fill="var(--svg-fill-color)" stroke="var(--svg-stroke-color)"/></svg>