<svg xmlns="http://www.w3.org/2000/svg" xmlns:xlink="http://www.w3.org/1999/xlink" width="64" height="64" viewBox="208 207 62 64"><path d="M476 32 Q476 44.45 467.2 53.2 458.45 62 446 62 433.55 62 424.75 53.2 416 44.45 416 32 416 19.55 424.75 10.75 433.55 2 446 2 458.45 2 467.2 10.75 476 19.55 476 32 M464.4 13.6 Q456.8 6 446 6 435.2 6 427.6 13.6 420 21.2 420 32 420 42.8 427.6 50.4 435.2 58 446 58 456.8 58 464.4 50.4 472 42.8 472 32 472 21.2 464.4 13.6" fill="var(--svg-fill-color)" stroke="var(--svg-stroke-color)"/><path d="M476 101 Q476 113.45 467.2 122.2 458.45 131 446 131 433.55 131 424.75 122.2 416 113.45 416 101 416 88.55 424.75 79.75 433.55 71 446 71 458.45 71 467.2 79.75 476 88.55 476 101 M464.4 82.6 Q456.8 75 446 75 435.2 75 427.6 82.6 420 90.2 420 101 420 111.8 427.6 119.4 435.2 127 446 127 456.8 127 464.4 119.4 472 111.8 472 101 472 90.2 464.4 82.6" fill="var(--svg-fill-color)" stroke="var(--svg-stroke-color)"/><path d="M239 235 L245 241 243 243 239 239 235 243 233 241 239 235" fill="var(--svg-fill-color)" stroke="var(--svg-stroke-color)"/><path d="M77 280 L93 280 93 284 77 284 77 300 73 300 73 284 Q73 282.35 74.15 281.2 75.35 280 77 280 M125 280 Q126.65 280 127.85 281.2 129 282.35 129 284 L129 300 125 300 125 284 109 284 109 280 125 280 M77 336 Q75.35 336 74.15 334.8 73 333.65 73 332 L73 316 77 316 77 332 93 332 93 336 77 336 M129 332 Q129 333.65 127.85 334.8 126.65 336 125 336 L109 336 109 332 125 332 125 316 129 316 129 332" fill="var(--svg-fill-color)" stroke="var(--svg-stroke-color)"/><path d="M146 280 L162 280 162 284 146 284 146 300 142 300 142 284 Q142 282.35 143.15 281.2 144.35 280 146 280 M146 336 Q144.35 336 143.15 334.8 142 333.65 142 332 L142 316 146 316 146 332 162 332 162 336 146 336 M194 280 Q195.65 280 196.85 281.2 198 282.35 198 284 L198 300 194 300 194 284 178 284 178 280 194 280 M198 332 Q198 333.65 196.85 334.8 195.65 336 194 336 L178 336 178 332 194 332 194 316 198 316 198 332" fill="var(--svg-fill-color)" stroke="var(--svg-stroke-color)"/><path d="M324 306 L340 306 340 310 324 310 324 306 M310 276 L310 292 306 292 306 276 310 276 M276 306 L292 306 292 310 276 310 276 306 M310 324 L310 340 306 340 306 324 310 324" fill="var(--svg-fill-color)" stroke="var(--svg-stroke-color)"/><path d="M85 357 L91 357 91 353 95 353 95 361 85 361 85 371 77 371 77 367 81 367 81 361 Q81 359.35 82.15 358.2 83.35 357 85 357 M85 397 Q83.35 397 82.15 395.8 81 394.65 81 393 L81 387 77 387 77 383 85 383 85 393 95 393 95 401 91 401 91 397 85 397 M117 357 Q118.65 357 119.85 358.2 121 359.35 121 361 L121 367 125 367 125 371 117 371 117 361 107 361 107 353 111 353 111 357 117 357 M99 375 L99 371 103 371 103 375 107 375 107 379 103 379 103 383 99 383 99 379 95 379 95 375 99 375 M121 393 Q121 394.65 119.85 395.8 118.65 397 117 397 L111 397 111 401 107 401 107 393 117 393 117 383 125 383 125 387 121 387 121 393" fill="var(--svg-fill-color)" stroke="var(--svg-stroke-color)"/><path d="M263 336 L215 336 Q213.35 336 212.15 334.8 211 333.65 211 332 L211 284 Q211 282.35 212.15 281.2 213.35 280 215 280 L263 280 Q264.65 280 265.85 281.2 267 282.35 267 284 L267 332 Q267 333.65 265.85 334.8 264.65 336 263 336 M225 306 L225 310 215 310 215 332 237 332 237 322 241 322 241 332 263 332 263 310 253 310 253 306 263 306 263 284 241 284 241 294 237 294 237 284 215 284 215 306 225 306 M241 308 Q241 308.85 240.4 309.4 239.85 310 239 310 238.15 310 237.55 309.4 237 308.85 237 308 237 307.15 237.55 306.55 238.15 306 239 306 239.85 306 240.4 306.55 241 307.15 241 308" fill="var(--svg-fill-color)" stroke="var(--svg-stroke-color)"/><path d="M150 353 L164 353 164 345 168 345 168 357 150 357 150 375 138 375 138 371 146 371 146 357 Q146 355.35 147.15 354.2 148.35 353 150 353 M150 401 Q148.35 401 147.15 399.8 146 398.65 146 397 L146 383 138 383 138 379 150 379 150 397 168 397 168 409 164 409 164 401 150 401 M190 353 Q191.65 353 192.85 354.2 194 355.35 194 357 L194 371 202 371 202 375 190 375 190 357 172 357 172 345 176 345 176 353 190 353 M194 397 Q194 398.65 192.85 399.8 191.65 401 190 401 L176 401 176 409 172 409 172 397 190 397 190 379 202 379 202 383 194 383 194 397" fill="var(--svg-fill-color)" stroke="var(--svg-stroke-color)"/><path d="M308 152 L314 158 312 160 308 156 304 160 302 158 308 152 M310 170 Q310 170.85 309.4 171.4 308.85 172 308 172 307.15 172 306.55 171.4 306 170.85 306 170 306 169.15 306.55 168.55 307.15 168 308 168 308.85 168 309.4 168.55 310 169.15 310 170 M308 188 L302 182 304 180 308 184 312 180 314 182 308 188" fill="var(--svg-fill-color)" stroke="var(--svg-stroke-color)"/></svg>