<svg xmlns="http://www.w3.org/2000/svg" xmlns:xlink="http://www.w3.org/1999/xlink" width="64" height="64" viewBox="277 207 62 64"><path d="M476 32 Q476 44.45 467.2 53.2 458.45 62 446 62 433.55 62 424.75 53.2 416 44.45 416 32 416 19.55 424.75 10.75 433.55 2 446 2 458.45 2 467.2 10.75 476 19.55 476 32 M464.4 13.6 Q456.8 6 446 6 435.2 6 427.6 13.6 420 21.2 420 32 420 42.8 427.6 50.4 435.2 58 446 58 456.8 58 464.4 50.4 472 42.8 472 32 472 21.2 464.4 13.6" fill="var(--svg-fill-color)" stroke="var(--svg-stroke-color)"/><path d="M476 101 Q476 113.45 467.2 122.2 458.45 131 446 131 433.55 131 424.75 122.2 416 113.45 416 101 416 88.55 424.75 79.75 433.55 71 446 71 458.45 71 467.2 79.75 476 88.55 476 101 M464.4 82.6 Q456.8 75 446 75 435.2 75 427.6 82.6 420 90.2 420 101 420 111.8 427.6 119.4 435.2 127 446 127 456.8 127 464.4 119.4 472 111.8 472 101 472 90.2 464.4 82.6" fill="var(--svg-fill-color)" stroke="var(--svg-stroke-color)"/><path d="M464.4 151.6 Q456.8 144 446 144 435.2 144 427.6 151.6 420 159.2 420 170 420 180.8 427.6 188.4 435.2 196 446 196 456.8 196 464.4 188.4 472 180.8 472 170 472 159.2 464.4 151.6 M476 170 Q476 182.45 467.2 191.2 458.45 200 446 200 433.55 200 424.75 191.2 416 182.45 416 170 416 157.55 424.75 148.75 433.55 140 446 140 458.45 140 467.2 148.75 476 157.55 476 170" fill="var(--svg-fill-color)" stroke="var(--svg-stroke-color)"/><path d="M602.4 13.6 Q594.8 6 584 6 573.2 6 565.6 13.6 558 21.2 558 32 558 42.8 565.6 50.4 573.2 58 584 58 594.8 58 602.4 50.4 610 42.8 610 32 610 21.2 602.4 13.6 M614 32 Q614 44.45 605.2 53.2 596.45 62 584 62 571.55 62 562.75 53.2 554 44.45 554 32 554 19.55 562.75 10.75 571.55 2 584 2 596.45 2 605.2 10.75 614 19.55 614 32" fill="var(--svg-fill-color)" stroke="var(--svg-stroke-color)"/><path d="M476 239 Q476 251.45 467.2 260.2 458.45 269 446 269 433.55 269 424.75 260.2 416 251.45 416 239 416 226.55 424.75 217.75 433.55 209 446 209 458.45 209 467.2 217.75 476 226.55 476 239 M464.4 220.6 Q456.8 213 446 213 435.2 213 427.6 220.6 420 228.2 420 239 420 249.8 427.6 257.4 435.2 265 446 265 456.8 265 464.4 257.4 472 249.8 472 239 472 228.2 464.4 220.6" fill="var(--svg-fill-color)" stroke="var(--svg-stroke-color)"/><path d="M533.4 13.6 Q525.8 6 515 6 504.2 6 496.6 13.6 489 21.2 489 32 489 42.8 496.6 50.4 504.2 58 515 58 525.8 58 533.4 50.4 541 42.8 541 32 541 21.2 533.4 13.6 M545 32 Q545 44.45 536.2 53.2 527.45 62 515 62 502.55 62 493.75 53.2 485 44.45 485 32 485 19.55 493.75 10.75 502.55 2 515 2 527.45 2 536.2 10.75 545 19.55 545 32" fill="var(--svg-fill-color)" stroke="var(--svg-stroke-color)"/><path d="M527.7 19.25 Q533 24.55 533 32 533 39.4 527.7 44.7 522.4 50 515 50 507.55 50 502.25 44.7 497 39.45 497 32 497 24.55 502.25 19.3 L502.3 19.25 Q507.55 14 515 14 522.45 14 527.7 19.25 M505.1 22.1 Q501 26.2 501 32 501 37.8 505.1 41.9 509.2 46 515 46 520.75 46 524.85 41.9 L524.9 41.85 Q529 37.75 529 32 529 26.2 524.9 22.1 520.8 18 515 18 509.2 18 505.1 22.1" fill="var(--svg-fill-color)" stroke="var(--svg-stroke-color)"/><path d="M545 101 Q545 113.45 536.2 122.2 527.45 131 515 131 502.55 131 493.75 122.2 485 113.45 485 101 485 88.55 493.75 79.75 502.55 71 515 71 527.45 71 536.2 79.75 545 88.55 545 101 M533.4 82.6 Q525.8 75 515 75 504.2 75 496.6 82.6 489 90.2 489 101 489 111.8 496.6 119.4 504.2 127 515 127 525.8 127 533.4 119.4 541 111.8 541 101 541 90.2 533.4 82.6" fill="var(--svg-fill-color)" stroke="var(--svg-stroke-color)"/><path d="M515 87 Q518.9 87 522.05 88.85 L520.05 92.3 Q517.8 91 515.05 91 L515 91 512.25 91.35 Q511.05 91.7 510 92.3 L508 88.85 Q509.95 87.65 512.25 87.25 L515 87 M501 101 Q501 97.1 502.85 94 L506.3 96 Q505 98.25 505 101 L505 101.05 Q505 103.75 506.3 106 L502.8 108 Q501 104.85 501 101 M529 101 Q529 104.9 527.15 108.05 L523.7 106.05 Q525 103.8 525 101 525 98.2 523.7 95.95 L527.15 93.95 Q529 97.05 529 101 M515 115 Q511.1 115 508 113.2 L510 109.7 Q512.2 111 515 111 517.8 111 520.05 109.7 L522.05 113.15 Q518.9 115 515 115" fill="var(--svg-fill-color)" stroke="var(--svg-stroke-color)"/><path d="M533.4 151.6 Q525.8 144 515 144 504.2 144 496.6 151.6 489 159.2 489 170 489 180.8 496.6 188.4 504.2 196 515 196 525.8 196 533.4 188.4 541 180.8 541 170 541 159.2 533.4 151.6 M545 170 Q545 182.45 536.2 191.2 527.45 200 515 200 502.55 200 493.75 191.2 485 182.45 485 170 485 157.55 493.75 148.75 502.55 140 515 140 527.45 140 536.2 148.75 545 157.55 545 170" fill="var(--svg-fill-color)" stroke="var(--svg-stroke-color)"/><path d="M324 306 L340 306 340 310 324 310 324 306 M310 276 L310 292 306 292 306 276 310 276 M276 306 L292 306 292 310 276 310 276 306 M310 324 L310 340 306 340 306 324 310 324" fill="var(--svg-fill-color)" stroke="var(--svg-stroke-color)"/><path d="M263 336 L215 336 Q213.35 336 212.15 334.8 211 333.65 211 332 L211 284 Q211 282.35 212.15 281.2 213.35 280 215 280 L263 280 Q264.65 280 265.85 281.2 267 282.35 267 284 L267 332 Q267 333.65 265.85 334.8 264.65 336 263 336 M225 306 L225 310 215 310 215 332 237 332 237 322 241 322 241 332 263 332 263 310 253 310 253 306 263 306 263 284 241 284 241 294 237 294 237 284 215 284 215 306 225 306 M241 308 Q241 308.85 240.4 309.4 239.85 310 239 310 238.15 310 237.55 309.4 237 308.85 237 308 237 307.15 237.55 306.55 238.15 306 239 306 239.85 306 240.4 306.55 241 307.15 241 308" fill="var(--svg-fill-color)" stroke="var(--svg-stroke-color)"/><path d="M150 353 L164 353 164 345 168 345 168 357 150 357 150 375 138 375 138 371 146 371 146 357 Q146 355.35 147.15 354.2 148.35 353 150 353 M150 401 Q148.35 401 147.15 399.8 146 398.65 146 397 L146 383 138 383 138 379 150 379 150 397 168 397 168 409 164 409 164 401 150 401 M190 353 Q191.65 353 192.85 354.2 194 355.35 194 357 L194 371 202 371 202 375 190 375 190 357 172 357 172 345 176 345 176 353 190 353 M194 397 Q194 398.65 192.85 399.8 191.65 401 190 401 L176 401 176 409 172 409 172 397 190 397 190 379 202 379 202 383 194 383 194 397" fill="var(--svg-fill-color)" stroke="var(--svg-stroke-color)"/><path d="M308 231 L314 237 312 239 308 235 304 239 302 237 308 231 M308 239 L314 245 312 247 308 243 304 247 302 245 308 239" fill="var(--svg-fill-color)" stroke="var(--svg-stroke-color)"/><path d="M308 152 L314 158 312 160 308 156 304 160 302 158 308 152 M310 170 Q310 170.85 309.4 171.4 308.85 172 308 172 307.15 172 306.55 171.4 306 170.85 306 170 306 169.15 306.55 168.55 307.15 168 308 168 308.85 168 309.4 168.55 310 169.15 310 170 M308 188 L302 182 304 180 308 184 312 180 314 182 308 188" fill="var(--svg-fill-color)" stroke="var(--svg-stroke-color)"/></svg>