<svg xmlns="http://www.w3.org/2000/svg" xmlns:xlink="http://www.w3.org/1999/xlink" width="64" height="64" viewBox="484 207 62 64"><path d="M602.4 13.6 Q594.8 6 584 6 573.2 6 565.6 13.6 558 21.2 558 32 558 42.8 565.6 50.4 573.2 58 584 58 594.8 58 602.4 50.4 610 42.8 610 32 610 21.2 602.4 13.6 M614 32 Q614 44.45 605.2 53.2 596.45 62 584 62 571.55 62 562.75 53.2 554 44.45 554 32 554 19.55 562.75 10.75 571.55 2 584 2 596.45 2 605.2 10.75 614 19.55 614 32" fill="var(--svg-fill-color)" stroke="var(--svg-stroke-color)"/><path d="M614 101 Q614 113.45 605.2 122.2 596.45 131 584 131 571.55 131 562.75 122.2 554 113.45 554 101 554 88.55 562.75 79.75 571.55 71 584 71 596.45 71 605.2 79.75 614 88.55 614 101 M602.4 82.6 Q594.8 75 584 75 573.2 75 565.6 82.6 558 90.2 558 101 558 111.8 565.6 119.4 573.2 127 584 127 594.8 127 602.4 119.4 610 111.8 610 101 610 90.2 602.4 82.6" fill="var(--svg-fill-color)" stroke="var(--svg-stroke-color)"/><path d="M602.4 151.6 Q594.8 144 584 144 573.2 144 565.6 151.6 558 159.2 558 170 558 180.8 565.6 188.4 573.2 196 584 196 594.8 196 602.4 188.4 610 180.8 610 170 610 159.2 602.4 151.6 M614 170 Q614 182.45 605.2 191.2 596.45 200 584 200 571.55 200 562.75 191.2 554 182.45 554 170 554 157.55 562.75 148.75 571.55 140 584 140 596.45 140 605.2 148.75 614 157.55 614 170" fill="var(--svg-fill-color)" stroke="var(--svg-stroke-color)"/><path d="M602.4 220.6 Q594.8 213 584 213 573.2 213 565.6 220.6 558 228.2 558 239 558 249.8 565.6 257.4 573.2 265 584 265 594.8 265 602.4 257.4 610 249.8 610 239 610 228.2 602.4 220.6 M614 239 Q614 251.45 605.2 260.2 596.45 269 584 269 571.55 269 562.75 260.2 554 251.45 554 239 554 226.55 562.75 217.75 571.55 209 584 209 596.45 209 605.2 217.75 614 226.55 614 239" fill="var(--svg-fill-color)" stroke="var(--svg-stroke-color)"/><path d="M574.1 229.1 Q570 233.2 570 239 570 244.8 574.1 248.9 578.2 253 584 253 589.75 253 593.85 248.9 L593.9 248.85 Q598 244.75 598 239 598 233.2 593.9 229.1 589.8 225 584 225 578.2 225 574.1 229.1 M596.7 226.25 Q602 231.55 602 239 602 246.4 596.7 251.7 591.4 257 584 257 576.55 257 571.25 251.7 566 246.45 566 239 566 231.55 571.25 226.3 L571.3 226.25 Q576.55 221 584 221 591.45 221 596.7 226.25" fill="var(--svg-fill-color)" stroke="var(--svg-stroke-color)"/><path d="M662.9 22.05 Q667 26.15 667 32 667 37.8 662.9 41.9 658.8 46 653 46 647.15 46 643.05 41.9 639 37.8 639 32 639 26.2 643.05 22.1 L643.1 22.05 Q647.2 18 653 18 658.8 18 662.9 22.05 M645.9 24.9 L645.85 24.95 Q643 27.9 643 32 L643 32.05 Q643 36.15 645.9 39.1 648.85 42 653 42 657.15 42 660.05 39.1 L660.1 39.05 Q663 36.15 663 32 663 27.85 660.1 24.9 657.15 22 653.05 22 L653 22 Q648.9 22 645.95 24.85 L645.9 24.9 M683 32 Q683 44.45 674.2 53.2 665.45 62 653 62 640.55 62 631.75 53.2 623 44.45 623 32 623 19.55 631.75 10.75 640.55 2 653 2 665.45 2 674.2 10.75 683 19.55 683 32 M671.4 13.6 Q663.8 6 653 6 642.2 6 634.6 13.6 627 21.2 627 32 627 42.8 634.6 50.4 642.2 58 653 58 663.8 58 671.4 50.4 679 42.8 679 32 679 21.2 671.4 13.6" fill="var(--svg-fill-color)" stroke="var(--svg-stroke-color)"/><path d="M703.6 50.4 Q709 55.8 716 57.35 L720 57.95 720 64 716 64 716 61.45 Q707.35 59.8 700.75 53.2 694.2 46.65 692.55 38 L690 38 690 34 696.1 34 Q696.2 36.05 696.65 38 698.2 45 703.6 50.4 M703.6 13.6 Q698.2 19 696.65 26 696.2 27.95 696.1 30 L690 30 690 26 692.55 26 Q694.2 17.35 700.75 10.75 707.35 4.2 716 2.55 L716 0 720 0 720 6.1 716 6.65 Q709 8.2 703.6 13.6 M740.4 13.6 Q735 8.2 728 6.65 L724 6.1 724 0 728 0 728 2.55 Q736.65 4.2 743.2 10.75 749.8 17.35 751.45 26 L754 26 754 30 747.95 30 747.35 26 Q745.8 19 740.4 13.6 M740.4 50.4 Q745.85 44.95 747.4 37.9 L747.95 34 754 34 754 37.9 751.5 37.9 Q749.85 46.6 743.2 53.2 736.65 59.8 728 61.45 L728 64 724 64 724 57.95 728 57.35 Q735 55.8 740.4 50.4" fill="var(--svg-fill-color)" stroke="var(--svg-stroke-color)"/><path d="M740.4 119.4 Q745.5 114.3 747.2 107.75 L751.05 108.75 Q749.1 116.3 743.2 122.2 737.3 128.1 729.75 130.05 726.1 131 722 131 717.85 131 714.15 130.05 706.65 128.1 700.8 122.25 L700.75 122.2 Q694.9 116.35 692.95 108.8 L696.85 107.75 Q698.5 114.3 703.6 119.4 708.65 124.45 715.2 126.15 L722 127 Q725.55 127 728.7 126.2 735.3 124.5 740.4 119.4 M740.4 82.6 Q735.3 77.5 728.7 75.8 L722 75 Q718.45 75 715.25 75.85 708.7 77.5 703.6 82.6 698.5 87.7 696.8 94.3 L692.95 93.25 Q694.85 85.65 700.75 79.75 706.65 73.9 714.2 71.95 717.9 71 722 71 726.05 71 729.75 71.95 737.3 73.85 743.2 79.75 L743.25 79.8 Q749.1 85.65 751.05 93.2 L747.2 94.25 Q745.5 87.7 740.4 82.6" fill="var(--svg-fill-color)" stroke="var(--svg-stroke-color)"/><path d="M714.9 162.9 L714.85 162.95 Q712 165.9 712 170 L712 170.05 Q712 174.15 714.9 177.1 717.85 180 722 180 726.15 180 729.05 177.1 L729.1 177.05 Q732 174.15 732 170 732 165.85 729.1 162.9 726.15 160 722.05 160 L722 160 Q717.9 160 714.95 162.85 L714.9 162.9 M731.9 160.05 Q736 164.15 736 170 736 175.8 731.9 179.9 727.8 184 722 184 716.15 184 712.05 179.9 708 175.8 708 170 708 164.2 712.05 160.1 L712.1 160.05 Q716.2 156 722 156 727.8 156 731.9 160.05 M724 170 Q724 170.85 723.4 171.4 722.85 172 722 172 721.15 172 720.55 171.4 720 170.85 720 170 720 169.15 720.55 168.55 721.15 168 722 168 722.85 168 723.4 168.55 724 169.15 724 170" fill="var(--svg-fill-color)" stroke="var(--svg-stroke-color)"/><path d="M752 170 Q752 182.45 743.2 191.2 734.45 200 722 200 709.55 200 700.75 191.2 692 182.45 692 170 692 157.55 700.75 148.75 709.55 140 722 140 734.45 140 743.2 148.75 752 157.55 752 170 M740.4 151.6 Q732.8 144 722 144 711.2 144 703.6 151.6 696 159.2 696 170 696 180.8 703.6 188.4 711.2 196 722 196 732.8 196 740.4 188.4 748 180.8 748 170 748 159.2 740.4 151.6" fill="var(--svg-fill-color)" stroke="var(--svg-stroke-color)"/><path d="M533.4 220.6 Q525.8 213 515 213 504.2 213 496.6 220.6 489 228.2 489 239 489 249.8 496.6 257.4 504.2 265 515 265 525.8 265 533.4 257.4 541 249.8 541 239 541 228.2 533.4 220.6 M545 239 Q545 251.45 536.2 260.2 527.45 269 515 269 502.55 269 493.75 260.2 485 251.45 485 239 485 226.55 493.75 217.75 502.55 209 515 209 527.45 209 536.2 217.75 545 226.55 545 239" fill="var(--svg-fill-color)" stroke="var(--svg-stroke-color)"/><path d="M517 237 L543 237 543 241 517 241 517 267 513 267 513 241 487 241 487 237 513 237 513 211 517 211 517 237" fill="var(--svg-fill-color)" stroke="var(--svg-stroke-color)"/><path d="M509 243 L521 243 521 247 509 247 509 243" fill="var(--svg-fill-color)" stroke="var(--svg-stroke-color)"/><path d="M507 249 L523 249 523 253 507 253 507 249" fill="var(--svg-fill-color)" stroke="var(--svg-stroke-color)"/><path d="M504.95 255 L525.05 255 525.05 259 504.95 259 504.95 255" fill="var(--svg-fill-color)" stroke="var(--svg-stroke-color)"/><path d="M533.4 13.6 Q525.8 6 515 6 504.2 6 496.6 13.6 489 21.2 489 32 489 42.8 496.6 50.4 504.2 58 515 58 525.8 58 533.4 50.4 541 42.8 541 32 541 21.2 533.4 13.6 M545 32 Q545 44.45 536.2 53.2 527.45 62 515 62 502.55 62 493.75 53.2 485 44.45 485 32 485 19.55 493.75 10.75 502.55 2 515 2 527.45 2 536.2 10.75 545 19.55 545 32" fill="var(--svg-fill-color)" stroke="var(--svg-stroke-color)"/><path d="M527.7 19.25 Q533 24.55 533 32 533 39.4 527.7 44.7 522.4 50 515 50 507.55 50 502.25 44.7 497 39.45 497 32 497 24.55 502.25 19.3 L502.3 19.25 Q507.55 14 515 14 522.45 14 527.7 19.25 M505.1 22.1 Q501 26.2 501 32 501 37.8 505.1 41.9 509.2 46 515 46 520.75 46 524.85 41.9 L524.9 41.85 Q529 37.75 529 32 529 26.2 524.9 22.1 520.8 18 515 18 509.2 18 505.1 22.1" fill="var(--svg-fill-color)" stroke="var(--svg-stroke-color)"/><path d="M545 101 Q545 113.45 536.2 122.2 527.45 131 515 131 502.55 131 493.75 122.2 485 113.45 485 101 485 88.55 493.75 79.75 502.55 71 515 71 527.45 71 536.2 79.75 545 88.55 545 101 M533.4 82.6 Q525.8 75 515 75 504.2 75 496.6 82.6 489 90.2 489 101 489 111.8 496.6 119.4 504.2 127 515 127 525.8 127 533.4 119.4 541 111.8 541 101 541 90.2 533.4 82.6" fill="var(--svg-fill-color)" stroke="var(--svg-stroke-color)"/><path d="M515 87 Q518.9 87 522.05 88.85 L520.05 92.3 Q517.8 91 515.05 91 L515 91 512.25 91.35 Q511.05 91.7 510 92.3 L508 88.85 Q509.95 87.65 512.25 87.25 L515 87 M501 101 Q501 97.1 502.85 94 L506.3 96 Q505 98.25 505 101 L505 101.05 Q505 103.75 506.3 106 L502.8 108 Q501 104.85 501 101 M529 101 Q529 104.9 527.15 108.05 L523.7 106.05 Q525 103.8 525 101 525 98.2 523.7 95.95 L527.15 93.95 Q529 97.05 529 101 M515 115 Q511.1 115 508 113.2 L510 109.7 Q512.2 111 515 111 517.8 111 520.05 109.7 L522.05 113.15 Q518.9 115 515 115" fill="var(--svg-fill-color)" stroke="var(--svg-stroke-color)"/><path d="M533.4 151.6 Q525.8 144 515 144 504.2 144 496.6 151.6 489 159.2 489 170 489 180.8 496.6 188.4 504.2 196 515 196 525.8 196 533.4 188.4 541 180.8 541 170 541 159.2 533.4 151.6 M545 170 Q545 182.45 536.2 191.2 527.45 200 515 200 502.55 200 493.75 191.2 485 182.45 485 170 485 157.55 493.75 148.75 502.55 140 515 140 527.45 140 536.2 148.75 545 157.55 545 170" fill="var(--svg-fill-color)" stroke="var(--svg-stroke-color)"/><path d="M683 101 Q683 113.45 674.2 122.2 665.45 131 653 131 640.55 131 631.75 122.2 623 113.45 623 101 623 88.55 631.75 79.75 640.55 71 653 71 665.45 71 674.2 79.75 683 88.55 683 101 M671.4 82.6 Q663.8 75 653 75 642.2 75 634.6 82.6 627 90.2 627 101 627 111.8 634.6 119.4 642.2 127 653 127 663.8 127 671.4 119.4 679 111.8 679 101 679 90.2 671.4 82.6" fill="var(--svg-fill-color)" stroke="var(--svg-stroke-color)"/><path d="M665.7 88.25 Q671 93.55 671 101 671 108.4 665.7 113.7 660.4 119 653 119 645.55 119 640.25 113.7 635 108.45 635 101 635 93.55 640.25 88.3 L640.3 88.25 Q645.55 83 653 83 660.45 83 665.7 88.25 M643.1 91.1 Q639 95.2 639 101 639 106.8 643.1 110.9 647.2 115 653 115 658.75 115 662.85 110.9 L662.9 110.85 Q667 106.75 667 101 667 95.2 662.9 91.1 658.8 87 653 87 647.2 87 643.1 91.1" fill="var(--svg-fill-color)" stroke="var(--svg-stroke-color)"/><path d="M671.4 151.6 Q663.8 144 653 144 642.2 144 634.6 151.6 627 159.2 627 170 627 180.8 634.6 188.4 642.2 196 653 196 663.8 196 671.4 188.4 679 180.8 679 170 679 159.2 671.4 151.6 M683 170 Q683 182.45 674.2 191.2 665.45 200 653 200 640.55 200 631.75 191.2 623 182.45 623 170 623 157.55 631.75 148.75 640.55 140 653 140 665.45 140 674.2 148.75 683 157.55 683 170" fill="var(--svg-fill-color)" stroke="var(--svg-stroke-color)"/><path d="M671.4 220.6 Q663.8 213 653 213 642.2 213 634.6 220.6 627 228.2 627 239 627 249.8 634.6 257.4 642.2 265 653 265 663.8 265 671.4 257.4 679 249.8 679 239 679 228.2 671.4 220.6 M683 239 Q683 251.45 674.2 260.2 665.45 269 653 269 640.55 269 631.75 260.2 623 251.45 623 239 623 226.55 631.75 217.75 640.55 209 653 209 665.45 209 674.2 217.75 683 226.55 683 239" fill="var(--svg-fill-color)" stroke="var(--svg-stroke-color)"/><path d="M655.85 236.2 Q654.65 235 653 235 651.35 235 650.2 236.2 649 237.35 649 239 649 240.65 650.2 241.85 651.35 243 653 243 654.65 243 655.85 241.85 657 240.65 657 239 657 237.35 655.85 236.2 M661 239 Q661 242.3 658.65 244.65 656.3 247 653 247 649.7 247 647.35 244.65 645 242.3 645 239 645 235.7 647.35 233.35 649.7 231 653 231 656.3 231 658.65 233.35 661 235.7 661 239" fill="var(--svg-fill-color)" stroke="var(--svg-stroke-color)"/><path d="M772.6 50.4 Q775.1 52.9 778 54.6 L776 58.05 Q772.65 56.1 769.75 53.2 766.9 50.35 764.95 47.05 761 40.35 761 32 761 23.65 764.95 16.95 766.85 13.65 769.75 10.75 772.65 7.85 775.95 5.95 L777.95 9.45 Q775.1 11.1 772.6 13.6 770.1 16.1 768.45 19 765 24.75 765 32 765 39.25 768.45 45.05 770.1 47.9 772.6 50.4 M809.4 13.6 Q806.9 11.1 804.05 9.45 L806.05 5.95 Q809.3 7.85 812.2 10.75 815.1 13.65 817.05 17 821 23.65 821 32 821 40.35 817.05 47.05 815.1 50.3 812.2 53.2 809.3 56.1 806.05 58.05 L804.05 54.6 Q806.9 52.9 809.4 50.4 811.9 47.9 813.6 45.05 817 39.25 817 32 817 24.75 813.6 19 811.9 16.1 809.4 13.6 M793 32 Q793 32.8 792.35 33.35 791.8 34 791 34 790.2 34 789.55 33.35 789 32.8 789 32 789 31.2 789.55 30.55 790.2 30 791 30 791.8 30 792.35 30.55 793 31.2 793 32" fill="var(--svg-fill-color)" stroke="var(--svg-stroke-color)"/><path d="M772.6 82.6 Q766.45 88.75 765.3 97 L761.25 97 Q762.45 87.1 769.75 79.75 777.1 72.45 787 71.25 L787 75.3 Q778.75 76.45 772.6 82.6 M809.4 119.4 Q815.55 113.25 816.75 105 L820.75 105 Q819.55 114.9 812.2 122.2 804.9 129.55 795 130.75 L795 126.75 Q803.25 125.55 809.4 119.4 M809.4 82.6 Q803.25 76.45 795 75.3 L795 71.25 Q804.9 72.45 812.2 79.75 819.55 87.1 820.75 97 L816.75 97 Q815.55 88.75 809.4 82.6 M785 95 L789 95 789 99 785 99 785 95 M793 95 L797 95 797 99 793 99 793 95 M793 103 L797 103 797 107 793 107 793 103 M785 103 L789 103 789 107 785 107 785 103 M772.6 119.4 Q778.75 125.55 787 126.75 L787 130.75 Q777.1 129.55 769.75 122.2 762.45 114.9 761.25 105 L765.3 105 Q766.45 113.25 772.6 119.4" fill="var(--svg-fill-color)" stroke="var(--svg-stroke-color)"/><path d="M791 144 Q783.15 144 777 148 L774.15 145.15 Q781.5 140 791 140 800.5 140 807.9 145.15 L805 148 Q798.85 144 791 144 M817 170 Q817 162.15 813 156 L815.9 153.15 Q821 160.5 821 170 821 179.5 815.9 186.9 L813 184 Q817 177.85 817 170 M821 144 L809 156 805 156 805 152 817 140 821 144 M765 140 L777 152 777 156 773 156 761 144 765 140 M765 170 Q765 177.85 769 184 L766.15 186.9 Q761 179.5 761 170 761 160.5 766.15 153.15 L769 156 Q765 162.15 765 170 M789 170 L791 168 793 170 791 172 789 170 M791 196 Q798.85 196 805 192 L807.9 194.9 Q800.5 200 791 200 781.5 200 774.15 194.9 L777 192 Q783.15 196 791 196 M765 200 L761 196 773 184 777 184 777 188 765 200 M817 200 L805 188 805 184 809 184 821 196 817 200" fill="var(--svg-fill-color)" stroke="var(--svg-stroke-color)"/><path d="M752 239 Q752 251.45 743.2 260.2 734.45 269 722 269 709.55 269 700.75 260.2 692 251.45 692 239 692 226.55 700.75 217.75 709.55 209 722 209 734.45 209 743.2 217.75 752 226.55 752 239 M730.5 233.3 L727.65 230.45 738.9 219.2 Q731.75 213 722 213 712.25 213 705.1 219.2 L716.35 230.45 713.5 233.3 702.25 222.05 Q696 229.2 696 239 696 248.75 702.2 255.9 L713.5 244.6 716.35 247.45 705.05 258.75 Q712.2 265 722 265 731.8 265 738.95 258.75 L727.65 247.45 730.5 244.6 741.8 255.9 Q748 248.75 748 239 748 229.2 741.75 222.05 L730.5 233.3" fill="var(--svg-fill-color)" stroke="var(--svg-stroke-color)"/><path d="M803.75 248.95 L810.8 256 Q817 248.8 817.05 239.05 817 229.3 810.75 222.15 L803.75 229.15 800.9 226.3 807.9 219.3 Q800.75 213.05 791 213 781.25 213.05 774.1 219.3 L781.1 226.3 778.25 229.15 771.25 222.15 Q765 229.3 764.95 239.05 765 248.8 771.2 256 L778.25 248.95 781.1 251.8 774.05 258.85 Q781.25 265.05 791 265.1 800.75 265.05 807.95 258.85 L800.9 251.8 803.75 248.95 M815.05 260.25 L812.2 263.1 810.75 261.65 Q802.4 269.1 791 269 779.6 269.1 771.25 261.65 L769.8 263.1 766.95 260.25 768.4 258.8 Q761 250.5 761 239 760.95 227.65 768.4 219.3 L766.95 217.85 769.8 215 771.25 216.45 Q779.55 209.05 791 209 802.45 209.05 810.75 216.45 L812.2 215 815.05 217.85 813.6 219.3 Q821.05 227.65 821 239 821 250.5 813.6 258.8 L815.05 260.25 M793 239 Q793 239.85 792.4 240.4 791.85 241 791 241 790.15 241 789.55 240.4 789 239.85 789 239 789 238.15 789.55 237.55 790.15 237 791 237 791.85 237 792.4 237.55 793 238.15 793 239" fill="var(--svg-fill-color)" stroke="var(--svg-stroke-color)"/><path d="M841.6 13.6 Q837.8 17.4 835.9 22 835.1 23.95 834.65 26 L828 26 828 22 831.6 22 Q833.75 15.8 838.75 10.75 843.8 5.75 850 3.6 L850 0 854 0 854 6.65 Q851.95 7.1 850 7.9 845.4 9.8 841.6 13.6" fill="var(--svg-fill-color)" stroke="var(--svg-stroke-color)"/><path d="M878.4 13.6 Q874.6 9.8 870 7.9 868.05 7.1 866 6.65 L866 0 870 0 870 3.6 Q876.2 5.75 881.25 10.75 886.25 15.8 888.4 22 L892 22 892 26 885.35 26 Q884.9 23.95 884.1 22 882.2 17.4 878.4 13.6" fill="var(--svg-fill-color)" stroke="var(--svg-stroke-color)"/><path d="M841.6 50.4 Q845.4 54.2 850 56.1 851.95 56.9 854 57.35 L854 64 850 64 850 60.4 Q843.8 58.25 838.75 53.25 833.75 48.2 831.6 42 L828 42 828 38 834.65 38 Q835.1 40.05 835.9 42 837.8 46.6 841.6 50.4" fill="var(--svg-fill-color)" stroke="var(--svg-stroke-color)"/><path d="M878.4 50.4 Q882.2 46.6 884.1 42 L885.35 38 892 38 892 42 888.4 42 Q886.25 48.2 881.25 53.25 876.2 58.25 870 60.4 L870 64 866 64 866 57.35 Q868.05 56.9 870 56.1 874.6 54.2 878.4 50.4" fill="var(--svg-fill-color)" stroke="var(--svg-stroke-color)"/><path d="M860 127 Q867.25 127 873.05 123.6 L875.05 127.05 Q868.35 131 860 131 851.7 131 845 127.1 L847 123.6 Q852.8 127 860 127 M886 101 Q886 93.75 882.6 88 L886.05 86 Q890 92.65 890 101 890 109.4 886 116.1 L882.55 114.1 Q886 108.25 886 101 M834 101 Q834 108.3 837.45 114.1 L834 116.1 Q830 109.4 830 101 830 92.65 833.95 86 L837.4 88 Q834 93.8 834 101 M860 75 Q852.75 75 846.95 78.45 L844.95 74.95 Q851.65 71 860 71 868.35 71 875.05 74.95 L873.05 78.45 Q867.25 75 860 75" fill="var(--svg-fill-color)" stroke="var(--svg-stroke-color)"/><path d="M860 93 Q856.7 93 854.35 95.3 L854.3 95.35 Q852 97.7 852 101 852 104.3 854.35 106.65 856.7 109 860 109 863.3 109 865.6 106.65 L865.65 106.6 Q868 104.3 868 101 868 97.7 865.65 95.35 863.3 93 860 93 M872 101 Q872 105.95 868.45 109.45 864.95 113 860 113 855.05 113 851.5 109.45 848 105.95 848 101 848 96.05 851.5 92.5 855.05 89 860 89 864.95 89 868.45 92.5 872 96.05 872 101" fill="var(--svg-fill-color)" stroke="var(--svg-stroke-color)"/><path d="M884 170 Q884 179.95 876.95 186.95 869.95 194 860 194 850.05 194 843 186.95 836 179.95 836 170 836 160.05 843 153 850.05 146 860 146 869.95 146 876.95 153 884 160.05 884 170 M874.15 155.85 Q868.3 150 860 150 851.7 150 845.85 155.85 840 161.7 840 170 840 178.3 845.85 184.15 851.7 190 860 190 868.3 190 874.1 184.15 L874.15 184.1 Q880 178.3 880 170 880 161.7 874.15 155.85" fill="var(--svg-fill-color)" stroke="var(--svg-stroke-color)"/><path d="M948.8 12.2 Q940.6 4 929 4 917.4 4 909.2 12.15 L909.15 12.2 Q901 20.4 901 32 901 43.6 909.2 51.8 917.4 60 929 60 940.6 60 948.8 51.8 957 43.6 957 32 957 20.4 948.8 12.2 M959 32 Q959 44.45 950.2 53.2 941.45 62 929 62 916.55 62 907.75 53.2 899 44.45 899 32 899 19.55 907.75 10.75 916.55 2 929 2 941.45 2 950.2 10.75 959 19.55 959 32" fill="var(--svg-fill-color)" stroke="var(--svg-stroke-color)"/><path d="M938.9 22.1 Q934.8 18 929 18 923.2 18 919.1 22.05 L919.05 22.1 Q915 26.2 915 32 915 37.8 919.1 41.9 923.2 46 929 46 934.8 46 938.9 41.9 943 37.8 943 32 943 26.2 938.9 22.1 M945 32 Q945 38.65 940.3 43.3 935.65 48 929 48 922.35 48 917.65 43.3 913 38.65 913 32 913 25.35 917.65 20.65 922.35 16 929 16 935.65 16 940.3 20.65 945 25.35 945 32" fill="var(--svg-fill-color)" stroke="var(--svg-stroke-color)"/><path d="M907.75 79.75 Q915.85 71.7 927 71.05 L929 71 931 71.05 Q942.15 71.7 950.2 79.75 958.3 87.85 958.95 99 L956.95 99 Q956.3 88.65 948.8 81.2 941.35 73.7 931 73.1 L929 73 927 73.05 Q916.65 73.7 909.2 81.15 L909.15 81.2 Q906.7 83.65 905 86.4 901.5 92.05 901.05 99 L899.05 99 Q899.6 89.9 905 82.9 906.25 81.25 907.75 79.75 M940.3 89.65 Q944.3 93.65 944.9 99 L942.9 99 Q942.25 94.45 938.9 91.1 935.55 87.7 931 87.15 L931 85.1 Q936.35 85.7 940.3 89.65 M917.65 89.65 Q921.65 85.7 927 85.1 L927 87.15 Q922.45 87.7 919.1 91.05 L919.05 91.1 Q915.7 94.45 915.15 99 L913.1 99 Q913.7 93.65 917.65 89.65 M940.3 112.3 Q936.35 116.3 931 116.9 L931 114.9 Q935.55 114.3 938.9 110.9 942.3 107.55 942.9 103 L944.9 103 Q944.3 108.35 940.3 112.3 M950.2 122.2 Q942.15 130.3 931 130.95 L929 131 927 130.95 Q915.85 130.3 907.75 122.2 L905 119.1 Q899.6 112.05 899.05 103 L901.1 103 Q901.5 109.9 905 115.55 906.7 118.3 909.2 120.8 916.65 128.3 927 128.95 L929 129 931 128.95 Q941.35 128.3 948.8 120.8 956.3 113.35 956.95 103 L958.95 103 Q958.3 114.15 950.2 122.2 M931 101.05 Q931 101.85 930.4 102.4 929.85 103 929.05 103 L928.95 103 Q928.15 103 927.55 102.4 927 101.85 927 101.05 L927 100.95 Q927 100.15 927.55 99.55 928.15 99 928.95 99 L929.05 99 Q929.85 99 930.4 99.55 931 100.15 931 100.95 L931 101.05 M917.65 112.3 Q913.7 108.35 913.1 103 L915.15 103 Q915.7 107.55 919.1 110.9 922.45 114.25 927 114.9 L927 116.9 Q921.65 116.3 917.65 112.3" fill="var(--svg-fill-color)" stroke="var(--svg-stroke-color)"/></svg>