<svg xmlns="http://www.w3.org/2000/svg" xmlns:xlink="http://www.w3.org/1999/xlink" width="64" height="64" viewBox="70 276 62 64"><path d="M56 280 Q57.65 280 58.85 281.2 60 282.35 60 284 L60 304 56 304 56 284 36 284 36 280 56 280 M8 280 L28 280 28 284 8 284 8 304 4 304 4 284 Q4 282.35 5.15 281.2 6.35 280 8 280 M60 332 Q60 333.65 58.85 334.8 57.65 336 56 336 L36 336 36 332 56 332 56 312 60 312 60 332 M8 336 Q6.35 336 5.15 334.8 4 333.65 4 332 L4 312 8 312 8 332 28 332 28 336 8 336" fill="var(--svg-fill-color)" stroke="var(--svg-stroke-color)"/><path d="M77 280 L93 280 93 284 77 284 77 300 73 300 73 284 Q73 282.35 74.15 281.2 75.35 280 77 280 M125 280 Q126.65 280 127.85 281.2 129 282.35 129 284 L129 300 125 300 125 284 109 284 109 280 125 280 M77 336 Q75.35 336 74.15 334.8 73 333.65 73 332 L73 316 77 316 77 332 93 332 93 336 77 336 M129 332 Q129 333.65 127.85 334.8 126.65 336 125 336 L109 336 109 332 125 332 125 316 129 316 129 332" fill="var(--svg-fill-color)" stroke="var(--svg-stroke-color)"/><path d="M85 357 L91 357 91 353 95 353 95 361 85 361 85 371 77 371 77 367 81 367 81 361 Q81 359.35 82.15 358.2 83.35 357 85 357 M85 397 Q83.35 397 82.15 395.8 81 394.65 81 393 L81 387 77 387 77 383 85 383 85 393 95 393 95 401 91 401 91 397 85 397 M117 357 Q118.65 357 119.85 358.2 121 359.35 121 361 L121 367 125 367 125 371 117 371 117 361 107 361 107 353 111 353 111 357 117 357 M99 375 L99 371 103 371 103 375 107 375 107 379 103 379 103 383 99 383 99 379 95 379 95 375 99 375 M121 393 Q121 394.65 119.85 395.8 118.65 397 117 397 L111 397 111 401 107 401 107 393 117 393 117 383 125 383 125 387 121 387 121 393" fill="var(--svg-fill-color)" stroke="var(--svg-stroke-color)"/><path d="M150 353 L164 353 164 345 168 345 168 357 150 357 150 375 138 375 138 371 146 371 146 357 Q146 355.35 147.15 354.2 148.35 353 150 353 M150 401 Q148.35 401 147.15 399.8 146 398.65 146 397 L146 383 138 383 138 379 150 379 150 397 168 397 168 409 164 409 164 401 150 401 M190 353 Q191.65 353 192.85 354.2 194 355.35 194 357 L194 371 202 371 202 375 190 375 190 357 172 357 172 345 176 345 176 353 190 353 M194 397 Q194 398.65 192.85 399.8 191.65 401 190 401 L176 401 176 409 172 409 172 397 190 397 190 379 202 379 202 383 194 383 194 397" fill="var(--svg-fill-color)" stroke="var(--svg-stroke-color)"/><path d="M85 440 L85 436 91 430 95 430 95 434 93 434 89 438 89 440 85 440 M103 446 Q103 446.85 102.4 447.4 101.85 448 101 448 100.15 448 99.55 447.4 99 446.85 99 446 99 445.15 99.55 444.55 100.15 444 101 444 101.85 444 102.4 444.55 103 445.15 103 446 M117 440 L113 440 113 438 109 434 107 434 107 430 111 430 117 436 117 440 M117 452 L117 456 111 462 107 462 107 458 109 458 113 454 113 452 117 452 M85 452 L89 452 89 454 93 458 95 458 95 462 91 462 85 456 85 452" fill="var(--svg-fill-color)" stroke="var(--svg-stroke-color)"/><path d="M10.75 562.75 Q18.85 554.7 30 554.05 L32 554 34 554.05 Q45.15 554.7 53.2 562.75 61.3 570.85 61.95 582 L59.95 582 Q59.3 571.65 51.8 564.2 44.35 556.7 34 556.1 L32 556 30 556.05 Q19.65 556.7 12.2 564.15 L12.15 564.2 Q9.7 566.65 8 569.4 4.5 575.05 4.05 582 L2.05 582 Q2.6 572.9 8 565.9 L10.75 562.75 M2 554 L10 554 10 558 6 558 6 562 2 562 2 554 M53.2 605.2 Q45.15 613.3 34 613.95 L32 614 30 613.95 Q18.85 613.3 10.75 605.2 L8 602.1 Q2.6 595.05 2.05 586 L4.1 586 Q4.5 592.9 8 598.55 9.7 601.3 12.2 603.8 19.65 611.3 30 611.95 L32 612 34 611.95 Q44.35 611.3 51.8 603.8 59.3 596.35 59.95 586 L61.95 586 Q61.3 597.15 53.2 605.2 M20.65 595.3 Q16.7 591.35 16.1 586 L18.15 586 Q18.7 590.55 22.1 593.9 25.45 597.25 30 597.9 L30 599.9 Q24.65 599.3 20.65 595.3 M20.65 572.65 Q24.65 568.7 30 568.1 L30 570.15 Q25.45 570.7 22.1 574.05 L22.05 574.1 Q18.7 577.45 18.15 582 L16.1 582 Q16.7 576.65 20.65 572.65 M34 584.05 Q34 584.85 33.4 585.4 32.85 586 32.05 586 L31.95 586 Q31.15 586 30.55 585.4 30 584.85 30 584.05 L30 583.95 Q30 583.15 30.55 582.55 31.15 582 31.95 582 L32.05 582 Q32.85 582 33.4 582.55 34 583.15 34 583.95 L34 584.05 M43.3 572.65 Q47.3 576.65 47.9 582 L45.9 582 Q45.25 577.45 41.9 574.1 38.55 570.7 34 570.15 L34 568.1 Q39.35 568.7 43.3 572.65 M62 554 L62 562 58 562 58 558 54 558 54 554 62 554 M43.3 595.3 Q39.35 599.3 34 599.9 L34 597.9 Q38.55 597.3 41.9 593.9 45.3 590.55 45.9 586 L47.9 586 Q47.3 591.35 43.3 595.3 M62 614 L54 614 54 610 58 610 58 606 62 606 62 614 M2 614 L2 606 6 606 6 610 10 610 10 614 2 614" fill="var(--svg-fill-color)" stroke="var(--svg-stroke-color)"/><path d="M103 515 Q103 515.85 102.4 516.4 101.85 517 101 517 100.15 517 99.55 516.4 99 515.85 99 515 99 514.15 99.55 513.55 100.15 513 101 513 101.85 513 102.4 513.55 103 514.15 103 515 M100.95 493.85 L97.4 497.4 96 496 101 491 106 496 104.55 497.45 100.95 493.85 M122.15 515.05 L118.55 511.45 120 510 125 515 120 520 118.6 518.6 122.15 515.05 M113 511 L115 511 115 519 113 519 113 511 M87 511 L89 511 89 519 87 519 87 511 M101 536.2 L104.6 532.6 106 534 101 539 96 534 97.4 532.6 101 536.2 M79.8 515 L83.4 518.6 82 520 77 515 82 510 83.4 511.4 79.8 515" fill="var(--svg-fill-color)" stroke="var(--svg-stroke-color)"/></svg>