<svg xmlns="http://www.w3.org/2000/svg" xmlns:xlink="http://www.w3.org/1999/xlink" width="64" height="64" viewBox="277 345 62 64"><path d="M476 239 Q476 251.45 467.2 260.2 458.45 269 446 269 433.55 269 424.75 260.2 416 251.45 416 239 416 226.55 424.75 217.75 433.55 209 446 209 458.45 209 467.2 217.75 476 226.55 476 239 M464.4 220.6 Q456.8 213 446 213 435.2 213 427.6 220.6 420 228.2 420 239 420 249.8 427.6 257.4 435.2 265 446 265 456.8 265 464.4 257.4 472 249.8 472 239 472 228.2 464.4 220.6" fill="var(--svg-fill-color)" stroke="var(--svg-stroke-color)"/><path d="M379 345 L379 367 375 367 375 345 379 345 M345 375 L367 375 367 379 345 379 345 375 M387 375 L409 375 409 379 387 379 387 375 M379 387 L379 409 375 409 375 387 379 387" fill="var(--svg-fill-color)" stroke="var(--svg-stroke-color)"/><path d="M150 353 L164 353 164 345 168 345 168 357 150 357 150 375 138 375 138 371 146 371 146 357 Q146 355.35 147.15 354.2 148.35 353 150 353 M150 401 Q148.35 401 147.15 399.8 146 398.65 146 397 L146 383 138 383 138 379 150 379 150 397 168 397 168 409 164 409 164 401 150 401 M190 353 Q191.65 353 192.85 354.2 194 355.35 194 357 L194 371 202 371 202 375 190 375 190 357 172 357 172 345 176 345 176 353 190 353 M194 397 Q194 398.65 192.85 399.8 191.65 401 190 401 L176 401 176 409 172 409 172 397 190 397 190 379 202 379 202 383 194 383 194 397" fill="var(--svg-fill-color)" stroke="var(--svg-stroke-color)"/><path d="M219 353 L233 353 233 345 237 345 237 357 219 357 219 375 207 375 207 371 215 371 215 357 Q215 355.35 216.15 354.2 217.35 353 219 353 M241 361 L241 373 237 373 237 361 241 361 M219 401 Q217.35 401 216.15 399.8 215 398.65 215 397 L215 383 207 383 207 379 219 379 219 397 237 397 237 409 233 409 233 401 219 401 M241 381 L241 393 237 393 237 381 241 381 M223 375 L235 375 235 379 223 379 223 375 M259 353 Q260.65 353 261.85 354.2 263 355.35 263 357 L263 371 271 371 271 375 259 375 259 357 241 357 241 345 245 345 245 353 259 353 M243 375 L255 375 255 379 243 379 243 375 M263 397 Q263 398.65 261.85 399.8 260.65 401 259 401 L245 401 245 409 241 409 241 397 259 397 259 379 271 379 271 383 263 383 263 397" fill="var(--svg-fill-color)" stroke="var(--svg-stroke-color)"/><path d="M322 375 L340 375 340 379 322 379 322 375 M310 345 L310 363 306 363 306 345 310 345 M276 375 L294 375 294 379 276 379 276 375 M310 391 L310 409 306 409 306 391 310 391" fill="var(--svg-fill-color)" stroke="var(--svg-stroke-color)"/><path d="M284 349 L332 349 Q333.65 349 334.85 350.2 336 351.35 336 353 L336 401 Q336 402.65 334.85 403.8 333.65 405 332 405 L284 405 Q282.35 405 281.15 403.8 280 402.65 280 401 L280 353 Q280 351.35 281.15 350.2 282.35 349 284 349 M284 401 L332 401 332 353 284 353 284 401" fill="var(--svg-fill-color)" stroke="var(--svg-stroke-color)"/><path d="M302 367 L314 367 Q315.65 367 316.85 368.2 318 369.35 318 371 L318 383 Q318 384.65 316.85 385.8 315.65 387 314 387 L302 387 Q300.35 387 299.15 385.8 298 384.65 298 383 L298 371 Q298 369.35 299.15 368.2 300.35 367 302 367 M302 383 L314 383 314 371 302 371 302 383" fill="var(--svg-fill-color)" stroke="var(--svg-stroke-color)"/><path d="M353 288 L365 288 365 292 353 292 353 304 349 304 349 292 Q349 290.35 350.15 289.2 351.35 288 353 288 M401 288 Q402.65 288 403.85 289.2 405 290.35 405 292 L405 304 401 304 401 292 389 292 389 288 401 288 M353 328 Q351.35 328 350.15 326.8 349 325.65 349 324 L349 312 353 312 353 324 365 324 365 328 353 328 M405 324 Q405 325.65 403.85 326.8 402.65 328 401 328 L389 328 389 324 401 324 401 312 405 312 405 324" fill="var(--svg-fill-color)" stroke="var(--svg-stroke-color)"/><path d="M251 430 Q252.65 430 253.85 431.2 255 432.35 255 434 L255 442 251 442 251 434 243 434 243 430 251 430 M249 444 L257 444 257 448 249 448 249 444 M251 462 L243 462 243 458 251 458 251 450 255 450 255 458 Q255 459.65 253.85 460.8 252.65 462 251 462 M237 436 L237 428 241 428 241 436 237 436 M227 430 L235 430 235 434 227 434 227 442 223 442 223 434 Q223 432.35 224.15 431.2 225.35 430 227 430 M221 444 L229 444 229 448 221 448 221 444 M227 462 Q225.35 462 224.15 460.8 223 459.65 223 458 L223 450 227 450 227 458 235 458 235 462 227 462 M237 456 L241 456 241 464 237 464 237 456" fill="var(--svg-fill-color)" stroke="var(--svg-stroke-color)"/><path d="M292 426 L300 426 300 430 292 430 292 438 288 438 288 430 Q288 428.35 289.15 427.2 290.35 426 292 426 M284 444 L292 444 292 448 284 448 284 444 M306 430 L306 422 310 422 310 430 306 430 M324 426 Q325.65 426 326.85 427.2 328 428.35 328 430 L328 438 324 438 324 430 316 430 316 426 324 426 M324 466 L316 466 316 462 324 462 324 454 328 454 328 462 Q328 463.65 326.85 464.8 325.65 466 324 466 M292 466 Q290.35 466 289.15 464.8 288 463.65 288 462 L288 454 292 454 292 462 300 462 300 466 292 466 M306 462 L310 462 310 470 306 470 306 462 M324 444 L332 444 332 448 324 448 324 444" fill="var(--svg-fill-color)" stroke="var(--svg-stroke-color)"/><path d="M182 430 Q183.65 430 184.85 431.2 186 432.35 186 434 L186 438 182 438 182 434 178 434 178 430 182 430 M168 434 L168 426 172 426 172 434 168 434 M158 430 L162 430 162 434 158 434 158 438 154 438 154 434 Q154 432.35 155.15 431.2 156.35 430 158 430 M182 444 L190 444 190 448 182 448 182 444 M182 462 L178 462 178 458 182 458 182 454 186 454 186 458 Q186 459.65 184.85 460.8 183.65 462 182 462 M168 458 L172 458 172 466 168 466 168 458 M158 462 Q156.35 462 155.15 460.8 154 459.65 154 458 L154 454 158 454 158 458 162 458 162 462 158 462 M150 444 L158 444 158 448 150 448 150 444" fill="var(--svg-fill-color)" stroke="var(--svg-stroke-color)"/><path d="M38 629 L43 634 40 637 36 633 28 633 24 637 21 634 26 629 38 629 M32 655 Q31.15 655 30.6 654.4 30 653.85 30 653 30 652.15 30.55 651.6 L30.6 651.55 Q31.15 651 32 651 32.85 651 33.45 651.55 34 652.15 34 653 34 653.85 33.45 654.4 L33.4 654.45 Q32.85 655 32 655 M38 677 L26 677 21 672 24 669 28 673 36 673 40 669 43 672 38 677 M2 653 L8 647 10 649 6 653 10 657 8 659 2 653 M62 653 L56 659 54 657 58 653 54 649 56 647 62 653" fill="var(--svg-fill-color)" stroke="var(--svg-stroke-color)"/><path d="M10.75 562.75 Q18.85 554.7 30 554.05 L32 554 34 554.05 Q45.15 554.7 53.2 562.75 61.3 570.85 61.95 582 L59.95 582 Q59.3 571.65 51.8 564.2 44.35 556.7 34 556.1 L32 556 30 556.05 Q19.65 556.7 12.2 564.15 L12.15 564.2 Q9.7 566.65 8 569.4 4.5 575.05 4.05 582 L2.05 582 Q2.6 572.9 8 565.9 L10.75 562.75 M2 554 L10 554 10 558 6 558 6 562 2 562 2 554 M53.2 605.2 Q45.15 613.3 34 613.95 L32 614 30 613.95 Q18.85 613.3 10.75 605.2 L8 602.1 Q2.6 595.05 2.05 586 L4.1 586 Q4.5 592.9 8 598.55 9.7 601.3 12.2 603.8 19.65 611.3 30 611.95 L32 612 34 611.95 Q44.35 611.3 51.8 603.8 59.3 596.35 59.95 586 L61.95 586 Q61.3 597.15 53.2 605.2 M20.65 595.3 Q16.7 591.35 16.1 586 L18.15 586 Q18.7 590.55 22.1 593.9 25.45 597.25 30 597.9 L30 599.9 Q24.65 599.3 20.65 595.3 M20.65 572.65 Q24.65 568.7 30 568.1 L30 570.15 Q25.45 570.7 22.1 574.05 L22.05 574.1 Q18.7 577.45 18.15 582 L16.1 582 Q16.7 576.65 20.65 572.65 M34 584.05 Q34 584.85 33.4 585.4 32.85 586 32.05 586 L31.95 586 Q31.15 586 30.55 585.4 30 584.85 30 584.05 L30 583.95 Q30 583.15 30.55 582.55 31.15 582 31.95 582 L32.05 582 Q32.85 582 33.4 582.55 34 583.15 34 583.95 L34 584.05 M43.3 572.65 Q47.3 576.65 47.9 582 L45.9 582 Q45.25 577.45 41.9 574.1 38.55 570.7 34 570.15 L34 568.1 Q39.35 568.7 43.3 572.65 M62 554 L62 562 58 562 58 558 54 558 54 554 62 554 M43.3 595.3 Q39.35 599.3 34 599.9 L34 597.9 Q38.55 597.3 41.9 593.9 45.3 590.55 45.9 586 L47.9 586 Q47.3 591.35 43.3 595.3 M62 614 L54 614 54 610 58 610 58 606 62 606 62 614 M2 614 L2 606 6 606 6 610 10 610 10 614 2 614" fill="var(--svg-fill-color)" stroke="var(--svg-stroke-color)"/><path d="M71 554 L79 554 79 558 75 558 75 562 71 562 71 554 M79.75 562.75 Q87.85 554.7 99 554.05 L101 554 103 554.05 Q114.15 554.7 122.2 562.75 130.3 570.85 130.95 582 L128.95 582 Q128.3 571.65 120.8 564.2 113.35 556.7 103 556.1 L101 556 99 556.05 Q88.65 556.7 81.2 564.15 L81.15 564.2 Q78.7 566.65 77 569.4 73.5 575.05 73.05 582 L71.05 582 Q71.6 572.9 77 565.9 78.25 564.25 79.75 562.75 M122.2 605.2 Q114.15 613.3 103 613.95 L101 614 99 613.95 Q87.85 613.3 79.75 605.2 L77 602.1 Q71.6 595.05 71.05 586 L73.1 586 Q73.5 592.9 77 598.55 78.7 601.3 81.2 603.8 88.65 611.3 99 611.95 L101 612 103 611.95 Q113.35 611.3 120.8 603.8 128.3 596.35 128.95 586 L130.95 586 Q130.3 597.15 122.2 605.2 M101 566 L107 572 105 574 101 570 97 574 95 572 101 566 M83 584 L89 578 91 580 87 584 91 588 89 590 83 584 M103 584.05 Q103 584.85 102.4 585.4 101.85 586 101.05 586 L100.95 586 Q100.15 586 99.55 585.4 99 584.85 99 584.05 L99 583.95 Q99 583.15 99.55 582.55 100.15 582 100.95 582 L101.05 582 Q101.85 582 102.4 582.55 103 583.15 103 583.95 L103 584.05 M119 584 L113 590 111 588 115 584 111 580 113 578 119 584 M131 554 L131 562 127 562 127 558 123 558 123 554 131 554 M131 614 L123 614 123 610 127 610 127 606 131 606 131 614 M71 614 L71 606 75 606 75 610 79 610 79 614 71 614 M101 602 L95 596 97 594 101 598 105 594 107 596 101 602" fill="var(--svg-fill-color)" stroke="var(--svg-stroke-color)"/><path d="M103 515 Q103 515.85 102.4 516.4 101.85 517 101 517 100.15 517 99.55 516.4 99 515.85 99 515 99 514.15 99.55 513.55 100.15 513 101 513 101.85 513 102.4 513.55 103 514.15 103 515 M100.95 493.85 L97.4 497.4 96 496 101 491 106 496 104.55 497.45 100.95 493.85 M122.15 515.05 L118.55 511.45 120 510 125 515 120 520 118.6 518.6 122.15 515.05 M113 511 L115 511 115 519 113 519 113 511 M87 511 L89 511 89 519 87 519 87 511 M101 536.2 L104.6 532.6 106 534 101 539 96 534 97.4 532.6 101 536.2 M79.8 515 L83.4 518.6 82 520 77 515 82 510 83.4 511.4 79.8 515" fill="var(--svg-fill-color)" stroke="var(--svg-stroke-color)"/><path d="M175 496 L189 510 187.55 511.45 173.55 497.45 175 496 M171 503 L171 509 169 509 169 503 171 503 M151 510 L165 496 166.4 497.4 152.4 511.4 151 510 M172 515 Q172 515.85 171.4 516.4 170.85 517 170 517 169.15 517 168.55 516.4 168 515.85 168 515 168 514.15 168.55 513.55 169.15 513 170 513 170.85 513 171.4 513.55 172 514.15 172 515 M158 514 L164 514 164 516 158 516 158 514 M176 514 L182 514 182 516 176 516 176 514 M171 521 L171 527 169 527 169 521 171 521 M189 520 L175 534 173.6 532.6 187.6 518.6 189 520 M165 534 L151 520 152.4 518.6 166.4 532.6 165 534" fill="var(--svg-fill-color)" stroke="var(--svg-stroke-color)"/><path d="M103 653 Q103 653.85 102.4 654.4 101.85 655 101 655 100.15 655 99.55 654.4 99 653.85 99 653 99 652.15 99.55 651.55 100.15 651 101 651 101.85 651 102.4 651.55 103 652.15 103 653 M89 661 L69 661 69 657 91 657 101 667 111 657 133 657 133 661 113 661 101 673 89 661 M89 645 L101 633 113 645 133 645 133 649 111 649 101 639 91 649 69 649 69 645 89 645" fill="var(--svg-fill-color)" stroke="var(--svg-stroke-color)"/></svg>