<svg xmlns="http://www.w3.org/2000/svg" xmlns:xlink="http://www.w3.org/1999/xlink" width="64" height="64" viewBox="415 345 62 64"><path d="M602.4 151.6 Q594.8 144 584 144 573.2 144 565.6 151.6 558 159.2 558 170 558 180.8 565.6 188.4 573.2 196 584 196 594.8 196 602.4 188.4 610 180.8 610 170 610 159.2 602.4 151.6 M614 170 Q614 182.45 605.2 191.2 596.45 200 584 200 571.55 200 562.75 191.2 554 182.45 554 170 554 157.55 562.75 148.75 571.55 140 584 140 596.45 140 605.2 148.75 614 157.55 614 170" fill="var(--svg-fill-color)" stroke="var(--svg-stroke-color)"/><path d="M602.4 220.6 Q594.8 213 584 213 573.2 213 565.6 220.6 558 228.2 558 239 558 249.8 565.6 257.4 573.2 265 584 265 594.8 265 602.4 257.4 610 249.8 610 239 610 228.2 602.4 220.6 M614 239 Q614 251.45 605.2 260.2 596.45 269 584 269 571.55 269 562.75 260.2 554 251.45 554 239 554 226.55 562.75 217.75 571.55 209 584 209 596.45 209 605.2 217.75 614 226.55 614 239" fill="var(--svg-fill-color)" stroke="var(--svg-stroke-color)"/><path d="M574.1 229.1 Q570 233.2 570 239 570 244.8 574.1 248.9 578.2 253 584 253 589.75 253 593.85 248.9 L593.9 248.85 Q598 244.75 598 239 598 233.2 593.9 229.1 589.8 225 584 225 578.2 225 574.1 229.1 M596.7 226.25 Q602 231.55 602 239 602 246.4 596.7 251.7 591.4 257 584 257 576.55 257 571.25 251.7 566 246.45 566 239 566 231.55 571.25 226.3 L571.3 226.25 Q576.55 221 584 221 591.45 221 596.7 226.25" fill="var(--svg-fill-color)" stroke="var(--svg-stroke-color)"/><path d="M476 239 Q476 251.45 467.2 260.2 458.45 269 446 269 433.55 269 424.75 260.2 416 251.45 416 239 416 226.55 424.75 217.75 433.55 209 446 209 458.45 209 467.2 217.75 476 226.55 476 239 M464.4 220.6 Q456.8 213 446 213 435.2 213 427.6 220.6 420 228.2 420 239 420 249.8 427.6 257.4 435.2 265 446 265 456.8 265 464.4 257.4 472 249.8 472 239 472 228.2 464.4 220.6" fill="var(--svg-fill-color)" stroke="var(--svg-stroke-color)"/><path d="M703.6 50.4 Q709 55.8 716 57.35 L720 57.95 720 64 716 64 716 61.45 Q707.35 59.8 700.75 53.2 694.2 46.65 692.55 38 L690 38 690 34 696.1 34 Q696.2 36.05 696.65 38 698.2 45 703.6 50.4 M703.6 13.6 Q698.2 19 696.65 26 696.2 27.95 696.1 30 L690 30 690 26 692.55 26 Q694.2 17.35 700.75 10.75 707.35 4.2 716 2.55 L716 0 720 0 720 6.1 716 6.65 Q709 8.2 703.6 13.6 M740.4 13.6 Q735 8.2 728 6.65 L724 6.1 724 0 728 0 728 2.55 Q736.65 4.2 743.2 10.75 749.8 17.35 751.45 26 L754 26 754 30 747.95 30 747.35 26 Q745.8 19 740.4 13.6 M740.4 50.4 Q745.85 44.95 747.4 37.9 L747.95 34 754 34 754 37.9 751.5 37.9 Q749.85 46.6 743.2 53.2 736.65 59.8 728 61.45 L728 64 724 64 724 57.95 728 57.35 Q735 55.8 740.4 50.4" fill="var(--svg-fill-color)" stroke="var(--svg-stroke-color)"/><path d="M740.4 119.4 Q745.5 114.3 747.2 107.75 L751.05 108.75 Q749.1 116.3 743.2 122.2 737.3 128.1 729.75 130.05 726.1 131 722 131 717.85 131 714.15 130.05 706.65 128.1 700.8 122.25 L700.75 122.2 Q694.9 116.35 692.95 108.8 L696.85 107.75 Q698.5 114.3 703.6 119.4 708.65 124.45 715.2 126.15 L722 127 Q725.55 127 728.7 126.2 735.3 124.5 740.4 119.4 M740.4 82.6 Q735.3 77.5 728.7 75.8 L722 75 Q718.45 75 715.25 75.85 708.7 77.5 703.6 82.6 698.5 87.7 696.8 94.3 L692.95 93.25 Q694.85 85.65 700.75 79.75 706.65 73.9 714.2 71.95 717.9 71 722 71 726.05 71 729.75 71.95 737.3 73.85 743.2 79.75 L743.25 79.8 Q749.1 85.65 751.05 93.2 L747.2 94.25 Q745.5 87.7 740.4 82.6" fill="var(--svg-fill-color)" stroke="var(--svg-stroke-color)"/><path d="M714.9 162.9 L714.85 162.95 Q712 165.9 712 170 L712 170.05 Q712 174.15 714.9 177.1 717.85 180 722 180 726.15 180 729.05 177.1 L729.1 177.05 Q732 174.15 732 170 732 165.85 729.1 162.9 726.15 160 722.05 160 L722 160 Q717.9 160 714.95 162.85 L714.9 162.9 M731.9 160.05 Q736 164.15 736 170 736 175.8 731.9 179.9 727.8 184 722 184 716.15 184 712.05 179.9 708 175.8 708 170 708 164.2 712.05 160.1 L712.1 160.05 Q716.2 156 722 156 727.8 156 731.9 160.05 M724 170 Q724 170.85 723.4 171.4 722.85 172 722 172 721.15 172 720.55 171.4 720 170.85 720 170 720 169.15 720.55 168.55 721.15 168 722 168 722.85 168 723.4 168.55 724 169.15 724 170" fill="var(--svg-fill-color)" stroke="var(--svg-stroke-color)"/><path d="M752 170 Q752 182.45 743.2 191.2 734.45 200 722 200 709.55 200 700.75 191.2 692 182.45 692 170 692 157.55 700.75 148.75 709.55 140 722 140 734.45 140 743.2 148.75 752 157.55 752 170 M740.4 151.6 Q732.8 144 722 144 711.2 144 703.6 151.6 696 159.2 696 170 696 180.8 703.6 188.4 711.2 196 722 196 732.8 196 740.4 188.4 748 180.8 748 170 748 159.2 740.4 151.6" fill="var(--svg-fill-color)" stroke="var(--svg-stroke-color)"/><path d="M533.4 220.6 Q525.8 213 515 213 504.2 213 496.6 220.6 489 228.2 489 239 489 249.8 496.6 257.4 504.2 265 515 265 525.8 265 533.4 257.4 541 249.8 541 239 541 228.2 533.4 220.6 M545 239 Q545 251.45 536.2 260.2 527.45 269 515 269 502.55 269 493.75 260.2 485 251.45 485 239 485 226.55 493.75 217.75 502.55 209 515 209 527.45 209 536.2 217.75 545 226.55 545 239" fill="var(--svg-fill-color)" stroke="var(--svg-stroke-color)"/><path d="M683 101 Q683 113.45 674.2 122.2 665.45 131 653 131 640.55 131 631.75 122.2 623 113.45 623 101 623 88.55 631.75 79.75 640.55 71 653 71 665.45 71 674.2 79.75 683 88.55 683 101 M671.4 82.6 Q663.8 75 653 75 642.2 75 634.6 82.6 627 90.2 627 101 627 111.8 634.6 119.4 642.2 127 653 127 663.8 127 671.4 119.4 679 111.8 679 101 679 90.2 671.4 82.6" fill="var(--svg-fill-color)" stroke="var(--svg-stroke-color)"/><path d="M665.7 88.25 Q671 93.55 671 101 671 108.4 665.7 113.7 660.4 119 653 119 645.55 119 640.25 113.7 635 108.45 635 101 635 93.55 640.25 88.3 L640.3 88.25 Q645.55 83 653 83 660.45 83 665.7 88.25 M643.1 91.1 Q639 95.2 639 101 639 106.8 643.1 110.9 647.2 115 653 115 658.75 115 662.85 110.9 L662.9 110.85 Q667 106.75 667 101 667 95.2 662.9 91.1 658.8 87 653 87 647.2 87 643.1 91.1" fill="var(--svg-fill-color)" stroke="var(--svg-stroke-color)"/><path d="M671.4 151.6 Q663.8 144 653 144 642.2 144 634.6 151.6 627 159.2 627 170 627 180.8 634.6 188.4 642.2 196 653 196 663.8 196 671.4 188.4 679 180.8 679 170 679 159.2 671.4 151.6 M683 170 Q683 182.45 674.2 191.2 665.45 200 653 200 640.55 200 631.75 191.2 623 182.45 623 170 623 157.55 631.75 148.75 640.55 140 653 140 665.45 140 674.2 148.75 683 157.55 683 170" fill="var(--svg-fill-color)" stroke="var(--svg-stroke-color)"/><path d="M671.4 220.6 Q663.8 213 653 213 642.2 213 634.6 220.6 627 228.2 627 239 627 249.8 634.6 257.4 642.2 265 653 265 663.8 265 671.4 257.4 679 249.8 679 239 679 228.2 671.4 220.6 M683 239 Q683 251.45 674.2 260.2 665.45 269 653 269 640.55 269 631.75 260.2 623 251.45 623 239 623 226.55 631.75 217.75 640.55 209 653 209 665.45 209 674.2 217.75 683 226.55 683 239" fill="var(--svg-fill-color)" stroke="var(--svg-stroke-color)"/><path d="M655.85 236.2 Q654.65 235 653 235 651.35 235 650.2 236.2 649 237.35 649 239 649 240.65 650.2 241.85 651.35 243 653 243 654.65 243 655.85 241.85 657 240.65 657 239 657 237.35 655.85 236.2 M661 239 Q661 242.3 658.65 244.65 656.3 247 653 247 649.7 247 647.35 244.65 645 242.3 645 239 645 235.7 647.35 233.35 649.7 231 653 231 656.3 231 658.65 233.35 661 235.7 661 239" fill="var(--svg-fill-color)" stroke="var(--svg-stroke-color)"/><path d="M772.6 50.4 Q775.1 52.9 778 54.6 L776 58.05 Q772.65 56.1 769.75 53.2 766.9 50.35 764.95 47.05 761 40.35 761 32 761 23.65 764.95 16.95 766.85 13.65 769.75 10.75 772.65 7.85 775.95 5.95 L777.95 9.45 Q775.1 11.1 772.6 13.6 770.1 16.1 768.45 19 765 24.75 765 32 765 39.25 768.45 45.05 770.1 47.9 772.6 50.4 M809.4 13.6 Q806.9 11.1 804.05 9.45 L806.05 5.95 Q809.3 7.85 812.2 10.75 815.1 13.65 817.05 17 821 23.65 821 32 821 40.35 817.05 47.05 815.1 50.3 812.2 53.2 809.3 56.1 806.05 58.05 L804.05 54.6 Q806.9 52.9 809.4 50.4 811.9 47.9 813.6 45.05 817 39.25 817 32 817 24.75 813.6 19 811.9 16.1 809.4 13.6 M793 32 Q793 32.8 792.35 33.35 791.8 34 791 34 790.2 34 789.55 33.35 789 32.8 789 32 789 31.2 789.55 30.55 790.2 30 791 30 791.8 30 792.35 30.55 793 31.2 793 32" fill="var(--svg-fill-color)" stroke="var(--svg-stroke-color)"/><path d="M772.6 82.6 Q766.45 88.75 765.3 97 L761.25 97 Q762.45 87.1 769.75 79.75 777.1 72.45 787 71.25 L787 75.3 Q778.75 76.45 772.6 82.6 M809.4 119.4 Q815.55 113.25 816.75 105 L820.75 105 Q819.55 114.9 812.2 122.2 804.9 129.55 795 130.75 L795 126.75 Q803.25 125.55 809.4 119.4 M809.4 82.6 Q803.25 76.45 795 75.3 L795 71.25 Q804.9 72.45 812.2 79.75 819.55 87.1 820.75 97 L816.75 97 Q815.55 88.75 809.4 82.6 M785 95 L789 95 789 99 785 99 785 95 M793 95 L797 95 797 99 793 99 793 95 M793 103 L797 103 797 107 793 107 793 103 M785 103 L789 103 789 107 785 107 785 103 M772.6 119.4 Q778.75 125.55 787 126.75 L787 130.75 Q777.1 129.55 769.75 122.2 762.45 114.9 761.25 105 L765.3 105 Q766.45 113.25 772.6 119.4" fill="var(--svg-fill-color)" stroke="var(--svg-stroke-color)"/><path d="M841.6 13.6 Q837.8 17.4 835.9 22 835.1 23.95 834.65 26 L828 26 828 22 831.6 22 Q833.75 15.8 838.75 10.75 843.8 5.75 850 3.6 L850 0 854 0 854 6.65 Q851.95 7.1 850 7.9 845.4 9.8 841.6 13.6" fill="var(--svg-fill-color)" stroke="var(--svg-stroke-color)"/><path d="M841.6 50.4 Q845.4 54.2 850 56.1 851.95 56.9 854 57.35 L854 64 850 64 850 60.4 Q843.8 58.25 838.75 53.25 833.75 48.2 831.6 42 L828 42 828 38 834.65 38 Q835.1 40.05 835.9 42 837.8 46.6 841.6 50.4" fill="var(--svg-fill-color)" stroke="var(--svg-stroke-color)"/><path d="M533.4 289.6 Q525.8 282 515 282 504.2 282 496.6 289.6 489 297.2 489 308 489 318.8 496.6 326.4 504.2 334 515 334 525.8 334 533.4 326.4 541 318.8 541 308 541 297.2 533.4 289.6 M545 308 Q545 320.45 536.2 329.2 527.45 338 515 338 502.55 338 493.75 329.2 485 320.45 485 308 485 295.55 493.75 286.75 502.55 278 515 278 527.45 278 536.2 286.75 545 295.55 545 308" fill="var(--svg-fill-color)" stroke="var(--svg-stroke-color)"/><path d="M517 308 Q517 308.85 516.4 309.4 515.85 310 515 310 514.15 310 513.55 309.4 513 308.85 513 308 513 307.15 513.55 306.55 514.15 306 515 306 515.85 306 516.4 306.55 517 307.15 517 308" fill="var(--svg-fill-color)" stroke="var(--svg-stroke-color)"/><path d="M602.4 289.6 Q594.8 282 584 282 573.2 282 565.6 289.6 558 297.2 558 308 558 318.8 565.6 326.4 573.2 334 584 334 594.8 334 602.4 326.4 610 318.8 610 308 610 297.2 602.4 289.6 M614 308 Q614 320.45 605.2 329.2 596.45 338 584 338 571.55 338 562.75 329.2 554 320.45 554 308 554 295.55 562.75 286.75 571.55 278 584 278 596.45 278 605.2 286.75 614 295.55 614 308" fill="var(--svg-fill-color)" stroke="var(--svg-stroke-color)"/><path d="M634.6 326.4 Q637.15 328.95 640 330.65 L638 334.1 Q634.7 332.15 631.8 329.25 L631.75 329.2 Q628.9 326.35 626.95 323.05 L630.45 321.05 Q632.1 323.9 634.6 326.4 M627 308 Q627 311.55 627.85 314.8 L623.95 315.85 Q623 312.1 623 308 623 303.9 623.95 300.2 L627.85 301.25 Q627 304.45 627 308 M634.6 289.6 Q632.1 292.1 630.45 294.95 L626.95 292.95 Q628.9 289.65 631.75 286.75 634.65 283.85 638 281.95 L640 285.4 Q637.1 287.1 634.6 289.6 M671.4 326.4 Q673.9 323.9 675.6 321 L679.05 323 Q677.1 326.3 674.2 329.2 671.35 332.1 668.05 334.05 L666.05 330.6 Q668.9 328.9 671.4 326.4 M653 334 Q656.6 334 659.8 333.2 L660.85 337.05 Q657.1 338 653 338 648.95 338 645.25 337.05 L646.3 333.2 Q649.45 334 653 334 M679 308 Q679 304.45 678.2 301.3 L682.05 300.25 Q683 303.9 683 308 683 312.1 682.05 315.75 L678.2 314.75 Q679 311.55 679 308 M671.4 289.6 Q668.9 287.1 666.1 285.45 L668.1 282 Q671.35 283.9 674.2 286.75 L674.25 286.8 Q677.1 289.65 679.05 292.95 L675.6 294.95 Q673.9 292.1 671.4 289.6 M653 282 Q649.5 282 646.35 282.8 L645.3 278.95 Q648.95 278 653 278 657.1 278 660.8 278.95 L659.75 282.85 Q656.55 282 653 282" fill="var(--svg-fill-color)" stroke="var(--svg-stroke-color)"/><path d="M460.15 293.85 Q454.3 288 446 288 437.7 288 431.85 293.85 426 299.7 426 308 426 316.3 431.85 322.15 437.7 328 446 328 454.3 328 460.1 322.15 L460.15 322.1 Q466 316.3 466 308 466 299.7 460.15 293.85 M470 308 Q470 317.95 462.95 324.95 455.95 332 446 332 436.05 332 429 324.95 422 317.95 422 308 422 298.05 429 291 436.05 284 446 284 455.95 284 462.95 291 470 298.05 470 308" fill="var(--svg-fill-color)" stroke="var(--svg-stroke-color)"/><path d="M401 418 Q402.65 418 403.85 419.2 405 420.35 405 422 L405 442 401 442 401 422 381 422 381 418 401 418 M405 470 Q405 471.65 403.85 472.8 402.65 474 401 474 L381 474 381 470 401 470 401 450 405 450 405 470 M405 448 L395 448 395 444 405 444 405 448 M379 418 L379 428 375 428 375 418 379 418 M353 418 L373 418 373 422 353 422 353 442 349 442 349 422 Q349 420.35 350.15 419.2 351.35 418 353 418 M359 448 L349 448 349 444 359 444 359 448 M353 474 Q351.35 474 350.15 472.8 349 471.65 349 470 L349 450 353 450 353 470 373 470 373 474 353 474 M379 464 L379 474 375 474 375 464 379 464" fill="var(--svg-fill-color)" stroke="var(--svg-stroke-color)"/><path d="M465.8 357.2 Q458.95 350.35 449.8 349.25 L446 353 442.25 349.25 Q433.05 350.35 426.2 357.15 L426.15 357.2 Q419.35 364.05 418.25 373.25 L422 377 418.25 380.8 Q419.35 389.95 426.2 396.8 433.05 403.65 442.25 404.8 L446 401 449.8 404.8 Q458.95 403.65 465.8 396.8 472.65 389.95 473.8 380.8 L470 377 473.8 373.25 Q472.65 364.05 465.8 357.2 M476 377 Q476 379.85 475.55 382.55 474 391.45 467.2 398.2 460.45 405 451.55 406.55 L446 407 440.5 406.55 Q431.55 405 424.75 398.2 418 391.45 416.5 382.55 416 379.85 416 377 416 374.15 416.5 371.5 418 362.55 424.75 355.75 431.55 349 440.5 347.5 L446 347 451.55 347.5 Q460.45 349 467.2 355.75 474 362.55 475.55 371.5 476 374.15 476 377" fill="var(--svg-fill-color)" stroke="var(--svg-stroke-color)"/><path d="M545 377 Q545 379.85 544.55 382.55 543 391.45 536.2 398.2 529.45 405 520.55 406.55 L515 407 509.5 406.55 Q500.55 405 493.75 398.2 487 391.45 485.5 382.55 485 379.85 485 377 485 374.15 485.5 371.5 487 362.55 493.75 355.75 500.55 349 509.5 347.5 L515 347 520.55 347.5 Q529.45 349 536.2 355.75 543 362.55 544.55 371.5 545 374.15 545 377 M534.8 357.2 Q527.95 350.35 518.8 349.25 L515 353 511.25 349.25 Q502.05 350.35 495.2 357.15 L495.15 357.2 Q488.35 364.05 487.25 373.25 L491 377 487.25 380.8 Q488.35 389.95 495.2 396.8 502.05 403.65 511.25 404.8 L515 401 518.8 404.8 Q527.95 403.65 534.8 396.8 541.65 389.95 542.8 380.8 L539 377 542.8 373.25 Q541.65 364.05 534.8 357.2" fill="var(--svg-fill-color)" stroke="var(--svg-stroke-color)"/><path d="M603.8 357.2 Q596.95 350.35 587.8 349.25 L584 353 580.25 349.25 Q571.05 350.35 564.2 357.15 L564.15 357.2 Q557.35 364.05 556.25 373.25 L560 377 556.25 380.8 Q557.35 389.95 564.2 396.8 571.05 403.65 580.25 404.8 L584 401 587.8 404.8 Q596.95 403.65 603.8 396.8 610.65 389.95 611.8 380.8 L608 377 611.8 373.25 Q610.65 364.05 603.8 357.2 M614 377 Q614 379.85 613.55 382.55 612 391.45 605.2 398.2 598.45 405 589.55 406.55 L584 407 578.5 406.55 Q569.55 405 562.75 398.2 556 391.45 554.5 382.55 554 379.85 554 377 554 374.15 554.5 371.5 556 362.55 562.75 355.75 569.55 349 578.5 347.5 L584 347 589.55 347.5 Q598.45 349 605.2 355.75 612 362.55 613.55 371.5 614 374.15 614 377" fill="var(--svg-fill-color)" stroke="var(--svg-stroke-color)"/><path d="M600 377 Q600 383.65 595.3 388.3 590.65 393 584 393 577.35 393 572.65 388.3 568 383.65 568 377 568 370.35 572.65 365.65 577.35 361 584 361 590.65 361 595.3 365.65 600 370.35 600 377 M593.9 367.1 Q589.8 363 584 363 578.2 363 574.1 367.05 L574.05 367.1 Q570 371.2 570 377 570 382.8 574.1 386.9 578.2 391 584 391 589.8 391 593.9 386.9 598 382.8 598 377 598 371.2 593.9 367.1" fill="var(--svg-fill-color)" stroke="var(--svg-stroke-color)"/></svg>