<svg xmlns="http://www.w3.org/2000/svg" xmlns:xlink="http://www.w3.org/1999/xlink" width="64" height="64" viewBox="208 414 62 64"><path d="M251 430 Q252.65 430 253.85 431.2 255 432.35 255 434 L255 442 251 442 251 434 243 434 243 430 251 430 M249 444 L257 444 257 448 249 448 249 444 M251 462 L243 462 243 458 251 458 251 450 255 450 255 458 Q255 459.65 253.85 460.8 252.65 462 251 462 M237 436 L237 428 241 428 241 436 237 436 M227 430 L235 430 235 434 227 434 227 442 223 442 223 434 Q223 432.35 224.15 431.2 225.35 430 227 430 M221 444 L229 444 229 448 221 448 221 444 M227 462 Q225.35 462 224.15 460.8 223 459.65 223 458 L223 450 227 450 227 458 235 458 235 462 227 462 M237 456 L241 456 241 464 237 464 237 456" fill="var(--svg-fill-color)" stroke="var(--svg-stroke-color)"/><path d="M182 430 Q183.65 430 184.85 431.2 186 432.35 186 434 L186 438 182 438 182 434 178 434 178 430 182 430 M168 434 L168 426 172 426 172 434 168 434 M158 430 L162 430 162 434 158 434 158 438 154 438 154 434 Q154 432.35 155.15 431.2 156.35 430 158 430 M182 444 L190 444 190 448 182 448 182 444 M182 462 L178 462 178 458 182 458 182 454 186 454 186 458 Q186 459.65 184.85 460.8 183.65 462 182 462 M168 458 L172 458 172 466 168 466 168 458 M158 462 Q156.35 462 155.15 460.8 154 459.65 154 458 L154 454 158 454 158 458 162 458 162 462 158 462 M150 444 L158 444 158 448 150 448 150 444" fill="var(--svg-fill-color)" stroke="var(--svg-stroke-color)"/><path d="M38 629 L43 634 40 637 36 633 28 633 24 637 21 634 26 629 38 629 M32 655 Q31.15 655 30.6 654.4 30 653.85 30 653 30 652.15 30.55 651.6 L30.6 651.55 Q31.15 651 32 651 32.85 651 33.45 651.55 34 652.15 34 653 34 653.85 33.45 654.4 L33.4 654.45 Q32.85 655 32 655 M38 677 L26 677 21 672 24 669 28 673 36 673 40 669 43 672 38 677 M2 653 L8 647 10 649 6 653 10 657 8 659 2 653 M62 653 L56 659 54 657 58 653 54 649 56 647 62 653" fill="var(--svg-fill-color)" stroke="var(--svg-stroke-color)"/><path d="M85 440 L85 436 91 430 95 430 95 434 93 434 89 438 89 440 85 440 M103 446 Q103 446.85 102.4 447.4 101.85 448 101 448 100.15 448 99.55 447.4 99 446.85 99 446 99 445.15 99.55 444.55 100.15 444 101 444 101.85 444 102.4 444.55 103 445.15 103 446 M117 440 L113 440 113 438 109 434 107 434 107 430 111 430 117 436 117 440 M117 452 L117 456 111 462 107 462 107 458 109 458 113 454 113 452 117 452 M85 452 L89 452 89 454 93 458 95 458 95 462 91 462 85 456 85 452" fill="var(--svg-fill-color)" stroke="var(--svg-stroke-color)"/><path d="M10.75 562.75 Q18.85 554.7 30 554.05 L32 554 34 554.05 Q45.15 554.7 53.2 562.75 61.3 570.85 61.95 582 L59.95 582 Q59.3 571.65 51.8 564.2 44.35 556.7 34 556.1 L32 556 30 556.05 Q19.65 556.7 12.2 564.15 L12.15 564.2 Q9.7 566.65 8 569.4 4.5 575.05 4.05 582 L2.05 582 Q2.6 572.9 8 565.9 L10.75 562.75 M2 554 L10 554 10 558 6 558 6 562 2 562 2 554 M53.2 605.2 Q45.15 613.3 34 613.95 L32 614 30 613.95 Q18.85 613.3 10.75 605.2 L8 602.1 Q2.6 595.05 2.05 586 L4.1 586 Q4.5 592.9 8 598.55 9.7 601.3 12.2 603.8 19.65 611.3 30 611.95 L32 612 34 611.95 Q44.35 611.3 51.8 603.8 59.3 596.35 59.95 586 L61.95 586 Q61.3 597.15 53.2 605.2 M20.65 595.3 Q16.7 591.35 16.1 586 L18.15 586 Q18.7 590.55 22.1 593.9 25.45 597.25 30 597.9 L30 599.9 Q24.65 599.3 20.65 595.3 M20.65 572.65 Q24.65 568.7 30 568.1 L30 570.15 Q25.45 570.7 22.1 574.05 L22.05 574.1 Q18.7 577.45 18.15 582 L16.1 582 Q16.7 576.65 20.65 572.65 M34 584.05 Q34 584.85 33.4 585.4 32.85 586 32.05 586 L31.95 586 Q31.15 586 30.55 585.4 30 584.85 30 584.05 L30 583.95 Q30 583.15 30.55 582.55 31.15 582 31.95 582 L32.05 582 Q32.85 582 33.4 582.55 34 583.15 34 583.95 L34 584.05 M43.3 572.65 Q47.3 576.65 47.9 582 L45.9 582 Q45.25 577.45 41.9 574.1 38.55 570.7 34 570.15 L34 568.1 Q39.35 568.7 43.3 572.65 M62 554 L62 562 58 562 58 558 54 558 54 554 62 554 M43.3 595.3 Q39.35 599.3 34 599.9 L34 597.9 Q38.55 597.3 41.9 593.9 45.3 590.55 45.9 586 L47.9 586 Q47.3 591.35 43.3 595.3 M62 614 L54 614 54 610 58 610 58 606 62 606 62 614 M2 614 L2 606 6 606 6 610 10 610 10 614 2 614" fill="var(--svg-fill-color)" stroke="var(--svg-stroke-color)"/><path d="M71 554 L79 554 79 558 75 558 75 562 71 562 71 554 M79.75 562.75 Q87.85 554.7 99 554.05 L101 554 103 554.05 Q114.15 554.7 122.2 562.75 130.3 570.85 130.95 582 L128.95 582 Q128.3 571.65 120.8 564.2 113.35 556.7 103 556.1 L101 556 99 556.05 Q88.65 556.7 81.2 564.15 L81.15 564.2 Q78.7 566.65 77 569.4 73.5 575.05 73.05 582 L71.05 582 Q71.6 572.9 77 565.9 78.25 564.25 79.75 562.75 M122.2 605.2 Q114.15 613.3 103 613.95 L101 614 99 613.95 Q87.85 613.3 79.75 605.2 L77 602.1 Q71.6 595.05 71.05 586 L73.1 586 Q73.5 592.9 77 598.55 78.7 601.3 81.2 603.8 88.65 611.3 99 611.95 L101 612 103 611.95 Q113.35 611.3 120.8 603.8 128.3 596.35 128.95 586 L130.95 586 Q130.3 597.15 122.2 605.2 M101 566 L107 572 105 574 101 570 97 574 95 572 101 566 M83 584 L89 578 91 580 87 584 91 588 89 590 83 584 M103 584.05 Q103 584.85 102.4 585.4 101.85 586 101.05 586 L100.95 586 Q100.15 586 99.55 585.4 99 584.85 99 584.05 L99 583.95 Q99 583.15 99.55 582.55 100.15 582 100.95 582 L101.05 582 Q101.85 582 102.4 582.55 103 583.15 103 583.95 L103 584.05 M119 584 L113 590 111 588 115 584 111 580 113 578 119 584 M131 554 L131 562 127 562 127 558 123 558 123 554 131 554 M131 614 L123 614 123 610 127 610 127 606 131 606 131 614 M71 614 L71 606 75 606 75 610 79 610 79 614 71 614 M101 602 L95 596 97 594 101 598 105 594 107 596 101 602" fill="var(--svg-fill-color)" stroke="var(--svg-stroke-color)"/><path d="M227 570 L225 572 215 562 215 560 217 560 227 570 M227.65 595.3 Q223.7 591.35 223.1 586 L225.15 586 Q225.7 590.55 229.1 593.9 232.45 597.25 237 597.9 L237 599.9 Q231.65 599.3 227.65 595.3 M227.65 572.65 Q231.65 568.7 237 568.1 L237 570.15 Q232.45 570.7 229.1 574.05 L229.05 574.1 Q225.7 577.45 225.15 582 L223.1 582 Q223.7 576.65 227.65 572.65 M250.3 572.65 Q254.3 576.65 254.9 582 L252.9 582 Q252.25 577.45 248.9 574.1 245.55 570.7 241 570.15 L241 568.1 Q246.35 568.7 250.3 572.65 M251 570 L261 560 263 560 263 562 253 572 251 570 M250.3 595.3 Q246.35 599.3 241 599.9 L241 597.9 Q245.55 597.3 248.9 593.9 252.3 590.55 252.9 586 L254.9 586 Q254.3 591.35 250.3 595.3 M251 598 L253 596 263 606 263 608 261 608 251 598 M227 598 L217 608 215 608 215 606 225 596 227 598" fill="var(--svg-fill-color)" stroke="var(--svg-stroke-color)"/><path d="M291 567 Q296.6 561.45 304 560.3 L304 564.4 Q298.25 565.45 293.85 569.85 291.05 572.65 289.6 576 288.75 577.9 288.4 580 L276 580 276 576 285.3 576 Q287 571.05 291 567 M291 600.95 Q287 596.95 285.3 592 L276 592 276 588 288.4 588 Q288.75 590.1 289.6 592 291.05 595.35 293.85 598.15 298.25 602.55 304 603.65 L304 607.7 Q296.6 606.55 291 600.95 M324.95 567 Q329 571.05 330.7 576 L340 576 340 580 327.65 580 Q327.25 577.9 326.4 576 324.95 572.65 322.15 569.85 317.75 565.45 312 564.4 L312 560.3 Q319.4 561.45 324.95 567 M324.95 600.95 Q319.4 606.55 312 607.7 L312 603.65 Q317.75 602.5 322.1 598.15 L322.15 598.1 Q324.9 595.35 326.4 592 327.2 590.1 327.65 588 L340 588 340 592 330.7 592 Q328.95 596.95 324.95 600.95" fill="var(--svg-fill-color)" stroke="var(--svg-stroke-color)"/><path d="M255 647 L251 643 247 643 247 639 253 639 257 643 271 643 271 647 255 647 M255 659 L271 659 271 663 257 663 253 667 247 667 247 663 251 663 255 659 M245 653 Q245 655.45 243.2 657.2 241.45 659 239 659 236.55 659 234.75 657.2 233 655.45 233 653 233 650.55 234.75 648.75 236.55 647 239 647 241.45 647 243.2 648.75 245 650.55 245 653 M240.4 651.6 Q239.8 651 239 651 238.2 651 237.65 651.55 L237.55 651.65 Q237 652.2 237 653 237 653.8 237.6 654.4 238.2 655 239 655 239.75 655 240.35 654.4 L240.4 654.35 Q241 653.75 241 653 241 652.2 240.4 651.6 M207 647 L207 643 221 643 225 639 231 639 231 643 227 643 223 647 207 647 M207 659 L223 659 227 663 231 663 231 667 225 667 221 663 207 663 207 659" fill="var(--svg-fill-color)" stroke="var(--svg-stroke-color)"/><path d="M103 515 Q103 515.85 102.4 516.4 101.85 517 101 517 100.15 517 99.55 516.4 99 515.85 99 515 99 514.15 99.55 513.55 100.15 513 101 513 101.85 513 102.4 513.55 103 514.15 103 515 M100.95 493.85 L97.4 497.4 96 496 101 491 106 496 104.55 497.45 100.95 493.85 M122.15 515.05 L118.55 511.45 120 510 125 515 120 520 118.6 518.6 122.15 515.05 M113 511 L115 511 115 519 113 519 113 511 M87 511 L89 511 89 519 87 519 87 511 M101 536.2 L104.6 532.6 106 534 101 539 96 534 97.4 532.6 101 536.2 M79.8 515 L83.4 518.6 82 520 77 515 82 510 83.4 511.4 79.8 515" fill="var(--svg-fill-color)" stroke="var(--svg-stroke-color)"/><path d="M175 496 L189 510 187.55 511.45 173.55 497.45 175 496 M171 503 L171 509 169 509 169 503 171 503 M151 510 L165 496 166.4 497.4 152.4 511.4 151 510 M172 515 Q172 515.85 171.4 516.4 170.85 517 170 517 169.15 517 168.55 516.4 168 515.85 168 515 168 514.15 168.55 513.55 169.15 513 170 513 170.85 513 171.4 513.55 172 514.15 172 515 M158 514 L164 514 164 516 158 516 158 514 M176 514 L182 514 182 516 176 516 176 514 M171 521 L171 527 169 527 169 521 171 521 M189 520 L175 534 173.6 532.6 187.6 518.6 189 520 M165 534 L151 520 152.4 518.6 166.4 532.6 165 534" fill="var(--svg-fill-color)" stroke="var(--svg-stroke-color)"/><path d="M103 653 Q103 653.85 102.4 654.4 101.85 655 101 655 100.15 655 99.55 654.4 99 653.85 99 653 99 652.15 99.55 651.55 100.15 651 101 651 101.85 651 102.4 651.55 103 652.15 103 653 M89 661 L69 661 69 657 91 657 101 667 111 657 133 657 133 661 113 661 101 673 89 661 M89 645 L101 633 113 645 133 645 133 649 111 649 101 639 91 649 69 649 69 645 89 645" fill="var(--svg-fill-color)" stroke="var(--svg-stroke-color)"/><path d="M202 657 L202 659 182 659 170 671 158 659 138 659 138 657 160 657 170 667 180 657 202 657 M202 649 L180 649 170 639 160 649 138 649 138 647 158 647 170 635 182 647 202 647 202 649 M172 653 Q172 653.85 171.4 654.4 170.85 655 170 655 169.15 655 168.55 654.4 168 653.85 168 653 168 652.15 168.55 651.55 169.15 651 170 651 170.85 651 171.4 651.55 172 652.15 172 653" fill="var(--svg-fill-color)" stroke="var(--svg-stroke-color)"/></svg>