<svg xmlns="http://www.w3.org/2000/svg" xmlns:xlink="http://www.w3.org/1999/xlink" width="64" height="64" viewBox="484 414 62 64"><path d="M714.9 162.9 L714.85 162.95 Q712 165.9 712 170 L712 170.05 Q712 174.15 714.9 177.1 717.85 180 722 180 726.15 180 729.05 177.1 L729.1 177.05 Q732 174.15 732 170 732 165.85 729.1 162.9 726.15 160 722.05 160 L722 160 Q717.9 160 714.95 162.85 L714.9 162.9 M731.9 160.05 Q736 164.15 736 170 736 175.8 731.9 179.9 727.8 184 722 184 716.15 184 712.05 179.9 708 175.8 708 170 708 164.2 712.05 160.1 L712.1 160.05 Q716.2 156 722 156 727.8 156 731.9 160.05 M724 170 Q724 170.85 723.4 171.4 722.85 172 722 172 721.15 172 720.55 171.4 720 170.85 720 170 720 169.15 720.55 168.55 721.15 168 722 168 722.85 168 723.4 168.55 724 169.15 724 170" fill="var(--svg-fill-color)" stroke="var(--svg-stroke-color)"/><path d="M752 170 Q752 182.45 743.2 191.2 734.45 200 722 200 709.55 200 700.75 191.2 692 182.45 692 170 692 157.55 700.75 148.75 709.55 140 722 140 734.45 140 743.2 148.75 752 157.55 752 170 M740.4 151.6 Q732.8 144 722 144 711.2 144 703.6 151.6 696 159.2 696 170 696 180.8 703.6 188.4 711.2 196 722 196 732.8 196 740.4 188.4 748 180.8 748 170 748 159.2 740.4 151.6" fill="var(--svg-fill-color)" stroke="var(--svg-stroke-color)"/><path d="M671.4 220.6 Q663.8 213 653 213 642.2 213 634.6 220.6 627 228.2 627 239 627 249.8 634.6 257.4 642.2 265 653 265 663.8 265 671.4 257.4 679 249.8 679 239 679 228.2 671.4 220.6 M683 239 Q683 251.45 674.2 260.2 665.45 269 653 269 640.55 269 631.75 260.2 623 251.45 623 239 623 226.55 631.75 217.75 640.55 209 653 209 665.45 209 674.2 217.75 683 226.55 683 239" fill="var(--svg-fill-color)" stroke="var(--svg-stroke-color)"/><path d="M655.85 236.2 Q654.65 235 653 235 651.35 235 650.2 236.2 649 237.35 649 239 649 240.65 650.2 241.85 651.35 243 653 243 654.65 243 655.85 241.85 657 240.65 657 239 657 237.35 655.85 236.2 M661 239 Q661 242.3 658.65 244.65 656.3 247 653 247 649.7 247 647.35 244.65 645 242.3 645 239 645 235.7 647.35 233.35 649.7 231 653 231 656.3 231 658.65 233.35 661 235.7 661 239" fill="var(--svg-fill-color)" stroke="var(--svg-stroke-color)"/><path d="M772.6 82.6 Q766.45 88.75 765.3 97 L761.25 97 Q762.45 87.1 769.75 79.75 777.1 72.45 787 71.25 L787 75.3 Q778.75 76.45 772.6 82.6 M809.4 119.4 Q815.55 113.25 816.75 105 L820.75 105 Q819.55 114.9 812.2 122.2 804.9 129.55 795 130.75 L795 126.75 Q803.25 125.55 809.4 119.4 M809.4 82.6 Q803.25 76.45 795 75.3 L795 71.25 Q804.9 72.45 812.2 79.75 819.55 87.1 820.75 97 L816.75 97 Q815.55 88.75 809.4 82.6 M785 95 L789 95 789 99 785 99 785 95 M793 95 L797 95 797 99 793 99 793 95 M793 103 L797 103 797 107 793 107 793 103 M785 103 L789 103 789 107 785 107 785 103 M772.6 119.4 Q778.75 125.55 787 126.75 L787 130.75 Q777.1 129.55 769.75 122.2 762.45 114.9 761.25 105 L765.3 105 Q766.45 113.25 772.6 119.4" fill="var(--svg-fill-color)" stroke="var(--svg-stroke-color)"/><path d="M791 144 Q783.15 144 777 148 L774.15 145.15 Q781.5 140 791 140 800.5 140 807.9 145.15 L805 148 Q798.85 144 791 144 M817 170 Q817 162.15 813 156 L815.9 153.15 Q821 160.5 821 170 821 179.5 815.9 186.9 L813 184 Q817 177.85 817 170 M821 144 L809 156 805 156 805 152 817 140 821 144 M765 140 L777 152 777 156 773 156 761 144 765 140 M765 170 Q765 177.85 769 184 L766.15 186.9 Q761 179.5 761 170 761 160.5 766.15 153.15 L769 156 Q765 162.15 765 170 M789 170 L791 168 793 170 791 172 789 170 M791 196 Q798.85 196 805 192 L807.9 194.9 Q800.5 200 791 200 781.5 200 774.15 194.9 L777 192 Q783.15 196 791 196 M765 200 L761 196 773 184 777 184 777 188 765 200 M817 200 L805 188 805 184 809 184 821 196 817 200" fill="var(--svg-fill-color)" stroke="var(--svg-stroke-color)"/><path d="M752 239 Q752 251.45 743.2 260.2 734.45 269 722 269 709.55 269 700.75 260.2 692 251.45 692 239 692 226.55 700.75 217.75 709.55 209 722 209 734.45 209 743.2 217.75 752 226.55 752 239 M730.5 233.3 L727.65 230.45 738.9 219.2 Q731.75 213 722 213 712.25 213 705.1 219.2 L716.35 230.45 713.5 233.3 702.25 222.05 Q696 229.2 696 239 696 248.75 702.2 255.9 L713.5 244.6 716.35 247.45 705.05 258.75 Q712.2 265 722 265 731.8 265 738.95 258.75 L727.65 247.45 730.5 244.6 741.8 255.9 Q748 248.75 748 239 748 229.2 741.75 222.05 L730.5 233.3" fill="var(--svg-fill-color)" stroke="var(--svg-stroke-color)"/><path d="M533 434 L531 434 531 430 527 430 527 428 533 428 533 434 M529 432 L529 442 527 442 527 434 519 434 519 432 529 432 M497 434 L497 428 503 428 503 430 499 430 499 434 497 434 M529 460 L519 460 519 458 527 458 527 450 529 450 529 460 M501 432 L511 432 511 434 503 434 503 442 501 442 501 432 M501 460 L501 450 503 450 503 458 511 458 511 460 501 460 M497 458 L499 458 499 462 503 462 503 464 497 464 497 458 M533 458 L533 464 527 464 527 462 531 462 531 458 533 458" fill="var(--svg-fill-color)" stroke="var(--svg-stroke-color)"/><path d="M803.75 248.95 L810.8 256 Q817 248.8 817.05 239.05 817 229.3 810.75 222.15 L803.75 229.15 800.9 226.3 807.9 219.3 Q800.75 213.05 791 213 781.25 213.05 774.1 219.3 L781.1 226.3 778.25 229.15 771.25 222.15 Q765 229.3 764.95 239.05 765 248.8 771.2 256 L778.25 248.95 781.1 251.8 774.05 258.85 Q781.25 265.05 791 265.1 800.75 265.05 807.95 258.85 L800.9 251.8 803.75 248.95 M815.05 260.25 L812.2 263.1 810.75 261.65 Q802.4 269.1 791 269 779.6 269.1 771.25 261.65 L769.8 263.1 766.95 260.25 768.4 258.8 Q761 250.5 761 239 760.95 227.65 768.4 219.3 L766.95 217.85 769.8 215 771.25 216.45 Q779.55 209.05 791 209 802.45 209.05 810.75 216.45 L812.2 215 815.05 217.85 813.6 219.3 Q821.05 227.65 821 239 821 250.5 813.6 258.8 L815.05 260.25 M793 239 Q793 239.85 792.4 240.4 791.85 241 791 241 790.15 241 789.55 240.4 789 239.85 789 239 789 238.15 789.55 237.55 790.15 237 791 237 791.85 237 792.4 237.55 793 238.15 793 239" fill="var(--svg-fill-color)" stroke="var(--svg-stroke-color)"/><path d="M878.4 50.4 Q882.2 46.6 884.1 42 L885.35 38 892 38 892 42 888.4 42 Q886.25 48.2 881.25 53.25 876.2 58.25 870 60.4 L870 64 866 64 866 57.35 Q868.05 56.9 870 56.1 874.6 54.2 878.4 50.4" fill="var(--svg-fill-color)" stroke="var(--svg-stroke-color)"/><path d="M860 127 Q867.25 127 873.05 123.6 L875.05 127.05 Q868.35 131 860 131 851.7 131 845 127.1 L847 123.6 Q852.8 127 860 127 M886 101 Q886 93.75 882.6 88 L886.05 86 Q890 92.65 890 101 890 109.4 886 116.1 L882.55 114.1 Q886 108.25 886 101 M834 101 Q834 108.3 837.45 114.1 L834 116.1 Q830 109.4 830 101 830 92.65 833.95 86 L837.4 88 Q834 93.8 834 101 M860 75 Q852.75 75 846.95 78.45 L844.95 74.95 Q851.65 71 860 71 868.35 71 875.05 74.95 L873.05 78.45 Q867.25 75 860 75" fill="var(--svg-fill-color)" stroke="var(--svg-stroke-color)"/><path d="M860 93 Q856.7 93 854.35 95.3 L854.3 95.35 Q852 97.7 852 101 852 104.3 854.35 106.65 856.7 109 860 109 863.3 109 865.6 106.65 L865.65 106.6 Q868 104.3 868 101 868 97.7 865.65 95.35 863.3 93 860 93 M872 101 Q872 105.95 868.45 109.45 864.95 113 860 113 855.05 113 851.5 109.45 848 105.95 848 101 848 96.05 851.5 92.5 855.05 89 860 89 864.95 89 868.45 92.5 872 96.05 872 101" fill="var(--svg-fill-color)" stroke="var(--svg-stroke-color)"/><path d="M884 170 Q884 179.95 876.95 186.95 869.95 194 860 194 850.05 194 843 186.95 836 179.95 836 170 836 160.05 843 153 850.05 146 860 146 869.95 146 876.95 153 884 160.05 884 170 M874.15 155.85 Q868.3 150 860 150 851.7 150 845.85 155.85 840 161.7 840 170 840 178.3 845.85 184.15 851.7 190 860 190 868.3 190 874.1 184.15 L874.15 184.1 Q880 178.3 880 170 880 161.7 874.15 155.85" fill="var(--svg-fill-color)" stroke="var(--svg-stroke-color)"/><path d="M948.8 12.2 Q940.6 4 929 4 917.4 4 909.2 12.15 L909.15 12.2 Q901 20.4 901 32 901 43.6 909.2 51.8 917.4 60 929 60 940.6 60 948.8 51.8 957 43.6 957 32 957 20.4 948.8 12.2 M959 32 Q959 44.45 950.2 53.2 941.45 62 929 62 916.55 62 907.75 53.2 899 44.45 899 32 899 19.55 907.75 10.75 916.55 2 929 2 941.45 2 950.2 10.75 959 19.55 959 32" fill="var(--svg-fill-color)" stroke="var(--svg-stroke-color)"/><path d="M938.9 22.1 Q934.8 18 929 18 923.2 18 919.1 22.05 L919.05 22.1 Q915 26.2 915 32 915 37.8 919.1 41.9 923.2 46 929 46 934.8 46 938.9 41.9 943 37.8 943 32 943 26.2 938.9 22.1 M945 32 Q945 38.65 940.3 43.3 935.65 48 929 48 922.35 48 917.65 43.3 913 38.65 913 32 913 25.35 917.65 20.65 922.35 16 929 16 935.65 16 940.3 20.65 945 25.35 945 32" fill="var(--svg-fill-color)" stroke="var(--svg-stroke-color)"/><path d="M907.75 79.75 Q915.85 71.7 927 71.05 L929 71 931 71.05 Q942.15 71.7 950.2 79.75 958.3 87.85 958.95 99 L956.95 99 Q956.3 88.65 948.8 81.2 941.35 73.7 931 73.1 L929 73 927 73.05 Q916.65 73.7 909.2 81.15 L909.15 81.2 Q906.7 83.65 905 86.4 901.5 92.05 901.05 99 L899.05 99 Q899.6 89.9 905 82.9 906.25 81.25 907.75 79.75 M940.3 89.65 Q944.3 93.65 944.9 99 L942.9 99 Q942.25 94.45 938.9 91.1 935.55 87.7 931 87.15 L931 85.1 Q936.35 85.7 940.3 89.65 M917.65 89.65 Q921.65 85.7 927 85.1 L927 87.15 Q922.45 87.7 919.1 91.05 L919.05 91.1 Q915.7 94.45 915.15 99 L913.1 99 Q913.7 93.65 917.65 89.65 M940.3 112.3 Q936.35 116.3 931 116.9 L931 114.9 Q935.55 114.3 938.9 110.9 942.3 107.55 942.9 103 L944.9 103 Q944.3 108.35 940.3 112.3 M950.2 122.2 Q942.15 130.3 931 130.95 L929 131 927 130.95 Q915.85 130.3 907.75 122.2 L905 119.1 Q899.6 112.05 899.05 103 L901.1 103 Q901.5 109.9 905 115.55 906.7 118.3 909.2 120.8 916.65 128.3 927 128.95 L929 129 931 128.95 Q941.35 128.3 948.8 120.8 956.3 113.35 956.95 103 L958.95 103 Q958.3 114.15 950.2 122.2 M931 101.05 Q931 101.85 930.4 102.4 929.85 103 929.05 103 L928.95 103 Q928.15 103 927.55 102.4 927 101.85 927 101.05 L927 100.95 Q927 100.15 927.55 99.55 928.15 99 928.95 99 L929.05 99 Q929.85 99 930.4 99.55 931 100.15 931 100.95 L931 101.05 M917.65 112.3 Q913.7 108.35 913.1 103 L915.15 103 Q915.7 107.55 919.1 110.9 922.45 114.25 927 114.9 L927 116.9 Q921.65 116.3 917.65 112.3" fill="var(--svg-fill-color)" stroke="var(--svg-stroke-color)"/><path d="M533.4 289.6 Q525.8 282 515 282 504.2 282 496.6 289.6 489 297.2 489 308 489 318.8 496.6 326.4 504.2 334 515 334 525.8 334 533.4 326.4 541 318.8 541 308 541 297.2 533.4 289.6 M545 308 Q545 320.45 536.2 329.2 527.45 338 515 338 502.55 338 493.75 329.2 485 320.45 485 308 485 295.55 493.75 286.75 502.55 278 515 278 527.45 278 536.2 286.75 545 295.55 545 308" fill="var(--svg-fill-color)" stroke="var(--svg-stroke-color)"/><path d="M602.4 289.6 Q594.8 282 584 282 573.2 282 565.6 289.6 558 297.2 558 308 558 318.8 565.6 326.4 573.2 334 584 334 594.8 334 602.4 326.4 610 318.8 610 308 610 297.2 602.4 289.6 M614 308 Q614 320.45 605.2 329.2 596.45 338 584 338 571.55 338 562.75 329.2 554 320.45 554 308 554 295.55 562.75 286.75 571.55 278 584 278 596.45 278 605.2 286.75 614 295.55 614 308" fill="var(--svg-fill-color)" stroke="var(--svg-stroke-color)"/><path d="M634.6 326.4 Q637.15 328.95 640 330.65 L638 334.1 Q634.7 332.15 631.8 329.25 L631.75 329.2 Q628.9 326.35 626.95 323.05 L630.45 321.05 Q632.1 323.9 634.6 326.4 M627 308 Q627 311.55 627.85 314.8 L623.95 315.85 Q623 312.1 623 308 623 303.9 623.95 300.2 L627.85 301.25 Q627 304.45 627 308 M634.6 289.6 Q632.1 292.1 630.45 294.95 L626.95 292.95 Q628.9 289.65 631.75 286.75 634.65 283.85 638 281.95 L640 285.4 Q637.1 287.1 634.6 289.6 M671.4 326.4 Q673.9 323.9 675.6 321 L679.05 323 Q677.1 326.3 674.2 329.2 671.35 332.1 668.05 334.05 L666.05 330.6 Q668.9 328.9 671.4 326.4 M653 334 Q656.6 334 659.8 333.2 L660.85 337.05 Q657.1 338 653 338 648.95 338 645.25 337.05 L646.3 333.2 Q649.45 334 653 334 M679 308 Q679 304.45 678.2 301.3 L682.05 300.25 Q683 303.9 683 308 683 312.1 682.05 315.75 L678.2 314.75 Q679 311.55 679 308 M671.4 289.6 Q668.9 287.1 666.1 285.45 L668.1 282 Q671.35 283.9 674.2 286.75 L674.25 286.8 Q677.1 289.65 679.05 292.95 L675.6 294.95 Q673.9 292.1 671.4 289.6 M653 282 Q649.5 282 646.35 282.8 L645.3 278.95 Q648.95 278 653 278 657.1 278 660.8 278.95 L659.75 282.85 Q656.55 282 653 282" fill="var(--svg-fill-color)" stroke="var(--svg-stroke-color)"/><path d="M722 334 L728.8 333.2 Q732.1 332.3 735.05 330.6 L737.05 334.05 Q733.65 336.05 729.85 337.05 726.1 338 722 338 717.95 338 714.25 337.05 710.4 336.05 707 334.1 L709 330.65 Q711.95 332.35 715.3 333.2 L722 334 M696 308 Q696 311.55 696.85 314.8 697.7 318.1 699.45 321.05 L695.95 323.05 Q693.95 319.65 692.95 315.85 692 312.1 692 308 692 303.9 692.95 300.2 693.95 296.35 695.95 292.95 L699.45 294.95 Q697.7 297.9 696.85 301.25 696 304.45 696 308 M748 308 Q748 304.45 747.2 301.3 746.35 297.95 744.6 294.95 L748.05 292.95 Q750.05 296.4 751.05 300.25 752 303.9 752 308 752 312.1 751.05 315.75 750.05 319.6 748.05 323 L744.6 321 Q746.35 318.05 747.2 314.75 748 311.55 748 308 M722 282 Q718.5 282 715.35 282.8 711.95 283.65 709 285.4 L707 281.95 Q710.4 279.9 714.3 278.95 717.95 278 722 278 726.1 278 729.8 278.95 733.65 279.95 737.1 282 L735.1 285.45 Q732.1 283.7 728.75 282.85 725.55 282 722 282" fill="var(--svg-fill-color)" stroke="var(--svg-stroke-color)"/><path d="M545 377 Q545 379.85 544.55 382.55 543 391.45 536.2 398.2 529.45 405 520.55 406.55 L515 407 509.5 406.55 Q500.55 405 493.75 398.2 487 391.45 485.5 382.55 485 379.85 485 377 485 374.15 485.5 371.5 487 362.55 493.75 355.75 500.55 349 509.5 347.5 L515 347 520.55 347.5 Q529.45 349 536.2 355.75 543 362.55 544.55 371.5 545 374.15 545 377 M534.8 357.2 Q527.95 350.35 518.8 349.25 L515 353 511.25 349.25 Q502.05 350.35 495.2 357.15 L495.15 357.2 Q488.35 364.05 487.25 373.25 L491 377 487.25 380.8 Q488.35 389.95 495.2 396.8 502.05 403.65 511.25 404.8 L515 401 518.8 404.8 Q527.95 403.65 534.8 396.8 541.65 389.95 542.8 380.8 L539 377 542.8 373.25 Q541.65 364.05 534.8 357.2" fill="var(--svg-fill-color)" stroke="var(--svg-stroke-color)"/><path d="M603.8 357.2 Q596.95 350.35 587.8 349.25 L584 353 580.25 349.25 Q571.05 350.35 564.2 357.15 L564.15 357.2 Q557.35 364.05 556.25 373.25 L560 377 556.25 380.8 Q557.35 389.95 564.2 396.8 571.05 403.65 580.25 404.8 L584 401 587.8 404.8 Q596.95 403.65 603.8 396.8 610.65 389.95 611.8 380.8 L608 377 611.8 373.25 Q610.65 364.05 603.8 357.2 M614 377 Q614 379.85 613.55 382.55 612 391.45 605.2 398.2 598.45 405 589.55 406.55 L584 407 578.5 406.55 Q569.55 405 562.75 398.2 556 391.45 554.5 382.55 554 379.85 554 377 554 374.15 554.5 371.5 556 362.55 562.75 355.75 569.55 349 578.5 347.5 L584 347 589.55 347.5 Q598.45 349 605.2 355.75 612 362.55 613.55 371.5 614 374.15 614 377" fill="var(--svg-fill-color)" stroke="var(--svg-stroke-color)"/><path d="M600 377 Q600 383.65 595.3 388.3 590.65 393 584 393 577.35 393 572.65 388.3 568 383.65 568 377 568 370.35 572.65 365.65 577.35 361 584 361 590.65 361 595.3 365.65 600 370.35 600 377 M593.9 367.1 Q589.8 363 584 363 578.2 363 574.1 367.05 L574.05 367.1 Q570 371.2 570 377 570 382.8 574.1 386.9 578.2 391 584 391 589.8 391 593.9 386.9 598 382.8 598 377 598 371.2 593.9 367.1" fill="var(--svg-fill-color)" stroke="var(--svg-stroke-color)"/><path d="M662.9 367.1 Q659.15 363.35 654 363.05 L653 363 652 363.05 Q646.85 363.35 643.1 367.05 L643.05 367.1 Q639.35 370.85 639.05 376 L639 377 639.05 378 Q639.35 383.15 643.1 386.9 646.85 390.65 652 391 L653 391 654 391 Q659.15 390.65 662.9 386.9 666.65 383.15 667 378 L667 377 667 376 Q666.65 370.85 662.9 367.1 M633.15 357.2 Q626.35 364.05 625.25 373.25 L628 376 637.05 376 Q637.35 370 641.65 365.65 646 361.35 652 361.05 L652 352 649.25 349.25 Q640.05 350.35 633.2 357.15 L633.15 357.2 M672.8 357.2 Q665.95 350.35 656.8 349.25 L654 352 654 361.05 Q660 361.35 664.3 365.65 668.65 370 669 376 L678 376 680.8 373.25 Q679.65 364.05 672.8 357.2 M683 377 Q683 379.85 682.55 382.55 681 391.45 674.2 398.2 667.45 405 658.55 406.55 L653 407 647.5 406.55 Q638.55 405 631.75 398.2 625 391.45 623.5 382.55 623 379.85 623 377 623 374.15 623.5 371.5 625 362.55 631.75 355.75 638.55 349 647.5 347.5 L653 347 658.55 347.5 Q667.45 349 674.2 355.75 681 362.55 682.55 371.5 683 374.15 683 377 M655 377 Q655 377.85 654.4 378.4 653.85 379 653 379 652.15 379 651.55 378.4 651 377.85 651 377 651 376.15 651.55 375.55 652.15 375 653 375 653.85 375 654.4 375.55 655 376.15 655 377 M633.2 396.8 Q640.05 403.65 649.25 404.8 L652 402 652 393 Q646 392.65 641.65 388.3 637.35 384 637.05 378 L628 378 625.25 380.8 Q626.35 389.95 633.2 396.8 M672.8 396.8 Q679.65 389.95 680.8 380.8 L678 378 669 378 Q668.65 384 664.3 388.3 660 392.65 654 393 L654 402 656.8 404.8 Q665.95 403.65 672.8 396.8" fill="var(--svg-fill-color)" stroke="var(--svg-stroke-color)"/><path d="M740.4 358.6 Q734.15 352.35 725.75 351.25 L722 355 718.25 351.25 Q709.85 352.35 703.6 358.6 697.35 364.85 696.25 373.25 L700 377 696.25 380.75 Q697.35 389.15 703.6 395.4 709.85 401.65 718.25 402.75 L722 399 725.75 402.75 Q734.15 401.65 740.4 395.4 746.65 389.15 747.75 380.75 L744 377 747.75 373.25 Q746.65 364.85 740.4 358.6 M752 377 Q752 380.75 751.2 384.2 749.35 392.1 743.2 398.2 737.1 404.35 729.2 406.2 725.75 407 722 407 L714.8 406.2 Q706.9 404.35 700.75 398.2 694.65 392.1 692.8 384.2 692 380.75 692 377 692 373.25 692.8 369.8 694.65 361.9 700.75 355.75 706.9 349.65 714.8 347.8 L722 347 Q725.75 347 729.2 347.8 737.1 349.65 743.2 355.75 749.35 361.9 751.2 369.8 752 373.25 752 377" fill="var(--svg-fill-color)" stroke="var(--svg-stroke-color)"/></svg>