<svg xmlns="http://www.w3.org/2000/svg" xmlns:xlink="http://www.w3.org/1999/xlink" width="64" height="64" viewBox="1243 483 62 64"><path d="M1298 26 L1298 38 1274 62 1250 38 1250 26 1274 2 1298 26 M1276 32 Q1276 32.85 1275.4 33.4 1274.85 34 1274 34 1273.15 34 1272.55 33.4 1272 32.85 1272 32 1272 31.15 1272.55 30.55 1273.15 30 1274 30 1274.85 30 1275.4 30.55 1276 31.15 1276 32 M1274 8 L1254 28 1254 36 1274 56 1294 36 1294 28 1274 8" fill="var(--svg-fill-color)" stroke="var(--svg-stroke-color)"/><path d="M1367 26 L1367 38 1362 43 1359 40 1363 36 1363 28 1359 24 1362 21 1367 26 M1343 2 L1349 8 1347 10 1343 6 1339 10 1337 8 1343 2 M1345 32 Q1345 32.85 1344.4 33.4 1343.85 34 1343 34 1342.15 34 1341.6 33.45 L1341.55 33.4 Q1341 32.85 1341 32 1341 31.15 1341.55 30.55 1342.15 30 1343 30 1343.85 30 1344.4 30.55 L1344.45 30.6 Q1345 31.15 1345 32 M1343 62 L1337 56 1339 54 1343 58 1347 54 1349 56 1343 62 M1319 26 L1324 21 1327 24 1323 28 1323 36 1327 40 1324 43 1319 38 1319 26" fill="var(--svg-fill-color)" stroke="var(--svg-stroke-color)"/><path d="M1266.9 162.9 L1266.85 162.95 Q1264 165.9 1264 170 L1264 170.05 Q1264 172.1 1264.7 173.85 1265.45 175.6 1266.9 177.1 L1267.15 177.35 Q1270 180 1274 180 1278 180 1280.85 177.3 L1281.05 177.1 1281.1 177.05 Q1282.55 175.6 1283.3 173.8 1284 172.05 1284 170 1284 165.85 1281.1 162.9 1278.9 160.7 1276 160.2 L1274.05 160 1274 160 1272 160.2 Q1269.15 160.7 1266.95 162.85 L1266.9 162.9 M1272 146 L1276 146 1276 156.15 Q1280.55 156.7 1283.9 160.05 1288 164.15 1288 170 1288 173.5 1286.5 176.4 L1294.9 183.1 1292 186 1284 179.8 1283.9 179.9 Q1279.8 184 1274 184 1268.15 184 1264.05 179.9 L1263.95 179.8 1256 186 1253.1 183.1 1261.5 176.4 Q1260 173.5 1260 170 1260 164.2 1264.05 160.1 L1264.1 160.05 Q1267.45 156.7 1272 156.15 L1272 146 M1276 170 Q1276 170.85 1275.4 171.4 1274.85 172 1274 172 1273.15 172 1272.55 171.4 1272 170.85 1272 170 1272 169.15 1272.55 168.55 1273.15 168 1274 168 1274.85 168 1275.4 168.55 1276 169.15 1276 170" fill="var(--svg-fill-color)" stroke="var(--svg-stroke-color)"/><path d="M1322.1 183.1 L1330.5 176.4 Q1331.4 178.2 1332.95 179.8 L1325 186 1322.1 183.1 M1343 156 L1341 156.15 1341 146 1345 146 1345 156.15 1343 156 M1345 170 Q1345 170.85 1344.4 171.4 1343.85 172 1343 172 1342.15 172 1341.55 171.4 1341 170.85 1341 170 1341 169.15 1341.55 168.55 1342.15 168 1343 168 1343.85 168 1344.4 168.55 1345 169.15 1345 170 M1361 186 L1353 179.8 Q1354.55 178.2 1355.5 176.4 L1363.9 183.1 1361 186" fill="var(--svg-fill-color)" stroke="var(--svg-stroke-color)"/><path d="M1255.6 220.6 Q1253.1 223.1 1251.4 226 1249.7 228.9 1248.85 232.25 L1244.95 231.15 Q1245.95 227.35 1247.9 224 1249.85 220.65 1252.75 217.75 1255.65 214.85 1259 212.9 1262.4 210.9 1266.2 209.9 L1267.3 213.8 Q1263.95 214.65 1261 216.4 1258.15 218.05 1255.6 220.6 M1292.4 220.6 Q1289.9 218.1 1287.15 216.4 1284.1 214.6 1280.8 213.8 L1281.8 209.9 Q1285.65 210.85 1289.1 213 1292.35 214.85 1295.25 217.75 1298.15 220.65 1300.05 223.95 1302.05 227.35 1303.05 231.25 L1299.2 232.3 Q1298.3 228.9 1296.55 225.95 1294.9 223.1 1292.4 220.6 M1292.35 257.35 Q1294.9 254.8 1296.55 252.05 1298.35 249.05 1299.2 245.7 L1303.05 246.75 Q1302.05 250.55 1300 254 1298.1 257.3 1295.2 260.2 1292.3 263.1 1289.05 264.95 1285.6 267 1281.8 268 L1280.8 264.1 Q1284.1 263.3 1287.05 261.55 1289.85 259.85 1292.35 257.35 M1272 242 L1271.7 242.7 1271 243 Q1270.6 243 1270.3 242.7 1270 242.4 1270 242 1270 241.6 1270.3 241.3 1270.6 241 1271 241 1271.4 241 1271.7 241.3 L1272 242 M1272 236 L1271.7 236.7 1271 237 Q1270.6 237 1270.3 236.7 1270 236.4 1270 236 1270 235.6 1270.3 235.3 1270.6 235 1271 235 1271.4 235 1271.7 235.3 L1272 236 M1278 236 L1277.7 236.7 1277 237 Q1276.6 237 1276.3 236.7 1276 236.4 1276 236 1276 235.6 1276.3 235.3 1276.6 235 1277 235 L1277.7 235.3 1278 236 M1278 242 L1277.7 242.7 1277 243 Q1276.6 243 1276.3 242.7 1276 242.4 1276 242 1276 241.6 1276.3 241.3 1276.6 241 1277 241 L1277.7 241.3 1278 242 M1255.65 257.35 Q1258.15 259.85 1261 261.6 1263.95 263.25 1267.25 264.15 L1266.2 268 Q1262.4 267 1259.05 265.05 1255.7 263.1 1252.8 260.2 1249.9 257.3 1248 254 1245.95 250.55 1244.9 246.8 L1248.8 245.8 Q1249.65 249.05 1251.45 252.05 1253.1 254.8 1255.65 257.35" fill="var(--svg-fill-color)" stroke="var(--svg-stroke-color)"/><path d="M1347 236 L1346.7 236.7 1346 237 Q1345.6 237 1345.3 236.7 1345 236.4 1345 236 1345 235.6 1345.3 235.3 1345.6 235 1346 235 1346.4 235 1346.7 235.3 L1347 236 M1347 242 L1346.7 242.7 1346 243 Q1345.6 243 1345.3 242.7 1345 242.4 1345 242 1345 241.6 1345.3 241.3 1345.6 241 1346 241 1346.4 241 1346.7 241.3 L1347 242 M1341 242 L1340.7 242.7 1340 243 Q1339.6 243 1339.3 242.7 1339 242.4 1339 242 1339 241.6 1339.3 241.3 1339.6 241 1340 241 L1340.7 241.3 1341 242 M1341 236 L1340.7 236.7 1340 237 Q1339.6 237 1339.3 236.7 1339 236.4 1339 236 1339 235.6 1339.3 235.3 1339.6 235 1340 235 L1340.7 235.3 1341 236 M1363 239 L1367 239 Q1367 248.95 1359.95 255.95 1352.95 263 1343 263 1333.05 263 1326 255.95 1319 248.95 1319 239 L1323 239 Q1323 247.3 1328.85 253.15 1334.7 259 1343 259 1351.3 259 1357.1 253.15 L1357.15 253.1 Q1363 247.3 1363 239" fill="var(--svg-fill-color)" stroke="var(--svg-stroke-color)"/><path d="M1269.35 373.4 L1269.35 373.45 1269.25 373.45 1267.45 374.55 1267.4 374.6 Q1267.25 374.65 1265.45 375.95 L1264.55 376.55 1264.7 376.85 1264.75 376.9 1266.15 378.45 1266.15 378.5 Q1268.55 380.5 1272.6 380.9 L1272.65 380.95 1277.45 380.6 1277.4 380.6 Q1280.1 379.95 1281.9 378.45 L1283.25 376.85 1283.4 376.5 1282.6 376.05 1282.5 375.95 1280.25 374.35 Q1279.05 373.55 1278.05 373.15 L1277.25 373 1277.1 373 1276.3 373.15 1276.2 373.2 1275.95 373.4 1276.05 373.35 Q1275.1 374.2 1274.35 374.25 L1273.9 374.3 1273.6 374.2 1272.5 373.8 1272.35 373.7 1272.25 373.6 1271.8 373.2 1270.7 373 1270.6 373 1270.15 373.05 1270.05 373.1 1269.35 373.4 M1268.9 369.25 L1268.95 369.25 1270.95 369 Q1272.9 369.1 1274 369.9 L1274.7 369.5 Q1275.8 369 1277.1 369 L1279.45 369.4 1279.55 369.45 1282.4 371 1284.8 372.7 Q1285.55 373.2 1286.3 373.35 L1288.5 373.75 1287.95 375.8 Q1287.5 377.4 1286.7 378.85 1285.8 380.35 1284.5 381.5 1282.1 383.55 1278.35 384.5 L1278.3 384.5 1272.15 384.9 Q1266.75 384.35 1263.6 381.55 L1263.55 381.55 Q1262.2 380.4 1261.3 378.95 L1261.3 378.9 Q1260.4 377.45 1260.05 375.75 L1259.6 373.8 1261.65 373.35 Q1262.4 373.2 1263.15 372.65 L1263.15 372.7 1265.2 371.25 1265.15 371.25 1267.45 369.9 1267.55 369.85 1268.9 369.25" fill="var(--svg-fill-color)" stroke="var(--svg-stroke-color)"/><path d="M1343 380.85 Q1348.8 380.85 1355 379 L1355 381 Q1349.9 384.85 1343 384.85 1336.1 384.85 1331 381 L1331 379 Q1337.2 380.85 1343 380.85 M1331 377 L1331 373 1337 369.1 1337.6 369.3 1343 371 1348.4 369.3 1349 369.1 1355 373 1355 377 Q1351.45 376.55 1348.4 373.55 1346 374.45 1344.3 375.9 L1343 377 1341.7 375.9 Q1340 374.45 1337.6 373.55 1334.55 376.55 1331 377" fill="var(--svg-fill-color)" stroke="var(--svg-stroke-color)"/><path d="M1276.85 443.2 Q1275.65 442 1274 442 1272.35 442 1271.2 443.2 1270 444.35 1270 446 1270 447.65 1271.2 448.85 1272.35 450 1274 450 1275.65 450 1276.85 448.85 1278 447.65 1278 446 1278 444.35 1276.85 443.2 M1302 446 Q1302 436.05 1295.6 428.85 L1298.4 426 Q1306 434.4 1306 446 1306 457.6 1298.35 466 L1295.55 463.2 Q1302 455.95 1302 446 M1282 446 Q1282 449.3 1279.65 451.65 1277.3 454 1274 454 1270.7 454 1268.35 451.65 1266 449.3 1266 446 1266 442.7 1268.35 440.35 1270.7 438 1274 438 1277.3 438 1279.65 440.35 1282 442.7 1282 446 M1246 446 Q1246 455.95 1252.45 463.2 L1249.6 466 Q1242 457.6 1242 446 1242 434.4 1249.6 426 L1252.45 428.85 Q1246 436.05 1246 446" fill="var(--svg-fill-color)" stroke="var(--svg-stroke-color)"/><path d="M1345 446 Q1345 446.85 1344.45 447.45 1343.85 448 1343 448 1342.15 448 1341.6 447.45 1341 446.85 1341 446 1341 445.15 1341.6 444.6 1342.15 444 1343 444 1343.85 444 1344.45 444.6 1345 445.15 1345 446 M1315 446 Q1315 453.05 1318.25 458.75 L1321 456 1324.85 459.85 1318.6 466 Q1316.75 463.95 1315.35 461.7 1311 454.75 1311 446 1311 434.4 1318.6 426 L1325 432.4 1321 436.4 1318.1 433.5 Q1315 439.1 1315 446 M1371 446 Q1371 439.1 1367.95 433.55 L1365.45 436 1361.45 432 1367.4 426 Q1369.4 428.2 1370.85 430.6 1375 437.45 1375 446 1375 454.6 1370.8 461.45 L1367.35 466 1361 459.65 1365 455.65 1367.9 458.55 Q1371 452.9 1371 446" fill="var(--svg-fill-color)" stroke="var(--svg-stroke-color)"/><path d="M1284 495 L1290 495 1290 497 1286 497 1286 535 1284 535 1284 495 M1266 523 L1266 521 1282 521 1282 523 1266 523 M1262 497 L1258 497 1258 495 1264 495 1264 535 1262 535 1262 497 M1266 509 L1266 507 1282 507 1282 509 1266 509" fill="var(--svg-fill-color)" stroke="var(--svg-stroke-color)"/><path d="M1347 516 L1347 514 1357 514 1357 516 1347 516 M1359 508 L1375 508 1375 510 1359 510 1359 508 M1375 496 L1375 498 1355 498 1355 496 1375 496 M1342 519 L1344 519 1344 525 1342 525 1342 519 M1329 514 L1339 514 1339 516 1329 516 1329 514 M1342 505 L1344 505 1344 511 1342 511 1342 505 M1375 532 L1375 534 1367 534 1367 532 1375 532 M1375 520 L1375 522 1363 522 1363 520 1375 520 M1311 496 L1331 496 1331 498 1311 498 1311 496 M1327 508 L1327 510 1311 510 1311 508 1327 508 M1311 532 L1319 532 1319 534 1311 534 1311 532 M1311 520 L1323 520 1323 522 1311 522 1311 520" fill="var(--svg-fill-color)" stroke="var(--svg-stroke-color)"/></svg>