<svg xmlns="http://www.w3.org/2000/svg" xmlns:xlink="http://www.w3.org/1999/xlink" width="64" height="64" viewBox="346 483 62 64"><path d="M227 570 L225 572 215 562 215 560 217 560 227 570 M227.65 595.3 Q223.7 591.35 223.1 586 L225.15 586 Q225.7 590.55 229.1 593.9 232.45 597.25 237 597.9 L237 599.9 Q231.65 599.3 227.65 595.3 M227.65 572.65 Q231.65 568.7 237 568.1 L237 570.15 Q232.45 570.7 229.1 574.05 L229.05 574.1 Q225.7 577.45 225.15 582 L223.1 582 Q223.7 576.65 227.65 572.65 M250.3 572.65 Q254.3 576.65 254.9 582 L252.9 582 Q252.25 577.45 248.9 574.1 245.55 570.7 241 570.15 L241 568.1 Q246.35 568.7 250.3 572.65 M251 570 L261 560 263 560 263 562 253 572 251 570 M250.3 595.3 Q246.35 599.3 241 599.9 L241 597.9 Q245.55 597.3 248.9 593.9 252.3 590.55 252.9 586 L254.9 586 Q254.3 591.35 250.3 595.3 M251 598 L253 596 263 606 263 608 261 608 251 598 M227 598 L217 608 215 608 215 606 225 596 227 598" fill="var(--svg-fill-color)" stroke="var(--svg-stroke-color)"/><path d="M291 567 Q296.6 561.45 304 560.3 L304 564.4 Q298.25 565.45 293.85 569.85 291.05 572.65 289.6 576 288.75 577.9 288.4 580 L276 580 276 576 285.3 576 Q287 571.05 291 567 M291 600.95 Q287 596.95 285.3 592 L276 592 276 588 288.4 588 Q288.75 590.1 289.6 592 291.05 595.35 293.85 598.15 298.25 602.55 304 603.65 L304 607.7 Q296.6 606.55 291 600.95 M324.95 567 Q329 571.05 330.7 576 L340 576 340 580 327.65 580 Q327.25 577.9 326.4 576 324.95 572.65 322.15 569.85 317.75 565.45 312 564.4 L312 560.3 Q319.4 561.45 324.95 567 M324.95 600.95 Q319.4 606.55 312 607.7 L312 603.65 Q317.75 602.5 322.1 598.15 L322.15 598.1 Q324.9 595.35 326.4 592 327.2 590.1 327.65 588 L340 588 340 592 330.7 592 Q328.95 596.95 324.95 600.95" fill="var(--svg-fill-color)" stroke="var(--svg-stroke-color)"/><path d="M360.05 600.95 Q353 593.9 353 584 353 574.1 360.05 567.05 L365.7 572.7 365.7 572.75 Q361 577.4 361 584 361 590.6 365.7 595.3 L360.05 600.95 M379 584 Q379 584.85 378.4 585.4 377.85 586 377 586 376.15 586 375.55 585.4 375 584.85 375 584 375 583.15 375.55 582.55 376.15 582 377 582 377.85 582 378.4 582.55 379 583.15 379 584 M401 584 Q401 593.9 393.95 600.95 L388.3 595.3 Q393 590.6 393 584 393 577.4 388.3 572.7 L393.95 567.05 Q401 574.1 401 584" fill="var(--svg-fill-color)" stroke="var(--svg-stroke-color)"/><path d="M310.85 512.2 Q309.65 511 308 511 306.35 511 305.2 512.2 304 513.35 304 515 304 516.65 305.2 517.85 306.35 519 308 519 309.65 519 310.85 517.85 312 516.65 312 515 312 513.35 310.85 512.2 M308 507 L302 501 304 499 308 503 312 499 314 501 308 507 M314 515 Q314 517.5 312.25 519.25 310.5 521 308 521 305.5 521 303.75 519.25 302 517.5 302 515 302 512.5 303.75 510.75 305.5 509 308 509 310.5 509 312.25 510.75 314 512.5 314 515 M316 515 L322 509 324 511 320 515 324 519 322 521 316 515 M300 515 L294 521 292 519 296 515 292 511 294 509 300 515 M308 523 L314 529 312 531 308 527 304 531 302 529 308 523" fill="var(--svg-fill-color)" stroke="var(--svg-stroke-color)"/><path d="M255 647 L251 643 247 643 247 639 253 639 257 643 271 643 271 647 255 647 M255 659 L271 659 271 663 257 663 253 667 247 667 247 663 251 663 255 659 M245 653 Q245 655.45 243.2 657.2 241.45 659 239 659 236.55 659 234.75 657.2 233 655.45 233 653 233 650.55 234.75 648.75 236.55 647 239 647 241.45 647 243.2 648.75 245 650.55 245 653 M240.4 651.6 Q239.8 651 239 651 238.2 651 237.65 651.55 L237.55 651.65 Q237 652.2 237 653 237 653.8 237.6 654.4 238.2 655 239 655 239.75 655 240.35 654.4 L240.4 654.35 Q241 653.75 241 653 241 652.2 240.4 651.6 M207 647 L207 643 221 643 225 639 231 639 231 643 227 643 223 647 207 647 M207 659 L223 659 227 663 231 663 231 667 225 667 221 663 207 663 207 659" fill="var(--svg-fill-color)" stroke="var(--svg-stroke-color)"/><path d="M399 497 L395 501 391 497 395 493 399 497 M383 505 L389 499 393 503 387 509 383 509 383 505 M371 505 L371 509 367 509 361 503 365 499 371 505 M371 525 L365 531 361 527 367 521 371 521 371 525 M383 525 L383 521 387 521 393 527 389 531 383 525 M399 533 L395 537 391 533 395 529 399 533 M355 533 L359 529 363 533 359 537 355 533 M355 497 L359 493 363 497 359 501 355 497" fill="var(--svg-fill-color)" stroke="var(--svg-stroke-color)"/><path d="M103 653 Q103 653.85 102.4 654.4 101.85 655 101 655 100.15 655 99.55 654.4 99 653.85 99 653 99 652.15 99.55 651.55 100.15 651 101 651 101.85 651 102.4 651.55 103 652.15 103 653 M89 661 L69 661 69 657 91 657 101 667 111 657 133 657 133 661 113 661 101 673 89 661 M89 645 L101 633 113 645 133 645 133 649 111 649 101 639 91 649 69 649 69 645 89 645" fill="var(--svg-fill-color)" stroke="var(--svg-stroke-color)"/><path d="M202 657 L202 659 182 659 170 671 158 659 138 659 138 657 160 657 170 667 180 657 202 657 M202 649 L180 649 170 639 160 649 138 649 138 647 158 647 170 635 182 647 202 647 202 649 M172 653 Q172 653.85 171.4 654.4 170.85 655 170 655 169.15 655 168.55 654.4 168 653.85 168 653 168 652.15 168.55 651.55 169.15 651 170 651 170.85 651 171.4 651.55 172 652.15 172 653" fill="var(--svg-fill-color)" stroke="var(--svg-stroke-color)"/></svg>