<svg xmlns="http://www.w3.org/2000/svg" xmlns:xlink="http://www.w3.org/1999/xlink" width="64" height="64" viewBox="484 483 62 64"><path d="M803.75 248.95 L810.8 256 Q817 248.8 817.05 239.05 817 229.3 810.75 222.15 L803.75 229.15 800.9 226.3 807.9 219.3 Q800.75 213.05 791 213 781.25 213.05 774.1 219.3 L781.1 226.3 778.25 229.15 771.25 222.15 Q765 229.3 764.95 239.05 765 248.8 771.2 256 L778.25 248.95 781.1 251.8 774.05 258.85 Q781.25 265.05 791 265.1 800.75 265.05 807.95 258.85 L800.9 251.8 803.75 248.95 M815.05 260.25 L812.2 263.1 810.75 261.65 Q802.4 269.1 791 269 779.6 269.1 771.25 261.65 L769.8 263.1 766.95 260.25 768.4 258.8 Q761 250.5 761 239 760.95 227.65 768.4 219.3 L766.95 217.85 769.8 215 771.25 216.45 Q779.55 209.05 791 209 802.45 209.05 810.75 216.45 L812.2 215 815.05 217.85 813.6 219.3 Q821.05 227.65 821 239 821 250.5 813.6 258.8 L815.05 260.25 M793 239 Q793 239.85 792.4 240.4 791.85 241 791 241 790.15 241 789.55 240.4 789 239.85 789 239 789 238.15 789.55 237.55 790.15 237 791 237 791.85 237 792.4 237.55 793 238.15 793 239" fill="var(--svg-fill-color)" stroke="var(--svg-stroke-color)"/><path d="M884 170 Q884 179.95 876.95 186.95 869.95 194 860 194 850.05 194 843 186.95 836 179.95 836 170 836 160.05 843 153 850.05 146 860 146 869.95 146 876.95 153 884 160.05 884 170 M874.15 155.85 Q868.3 150 860 150 851.7 150 845.85 155.85 840 161.7 840 170 840 178.3 845.85 184.15 851.7 190 860 190 868.3 190 874.1 184.15 L874.15 184.1 Q880 178.3 880 170 880 161.7 874.15 155.85" fill="var(--svg-fill-color)" stroke="var(--svg-stroke-color)"/><path d="M907.75 79.75 Q915.85 71.7 927 71.05 L929 71 931 71.05 Q942.15 71.7 950.2 79.75 958.3 87.85 958.95 99 L956.95 99 Q956.3 88.65 948.8 81.2 941.35 73.7 931 73.1 L929 73 927 73.05 Q916.65 73.7 909.2 81.15 L909.15 81.2 Q906.7 83.65 905 86.4 901.5 92.05 901.05 99 L899.05 99 Q899.6 89.9 905 82.9 906.25 81.25 907.75 79.75 M940.3 89.65 Q944.3 93.65 944.9 99 L942.9 99 Q942.25 94.45 938.9 91.1 935.55 87.7 931 87.15 L931 85.1 Q936.35 85.7 940.3 89.65 M917.65 89.65 Q921.65 85.7 927 85.1 L927 87.15 Q922.45 87.7 919.1 91.05 L919.05 91.1 Q915.7 94.45 915.15 99 L913.1 99 Q913.7 93.65 917.65 89.65 M940.3 112.3 Q936.35 116.3 931 116.9 L931 114.9 Q935.55 114.3 938.9 110.9 942.3 107.55 942.9 103 L944.9 103 Q944.3 108.35 940.3 112.3 M950.2 122.2 Q942.15 130.3 931 130.95 L929 131 927 130.95 Q915.85 130.3 907.75 122.2 L905 119.1 Q899.6 112.05 899.05 103 L901.1 103 Q901.5 109.9 905 115.55 906.7 118.3 909.2 120.8 916.65 128.3 927 128.95 L929 129 931 128.95 Q941.35 128.3 948.8 120.8 956.3 113.35 956.95 103 L958.95 103 Q958.3 114.15 950.2 122.2 M931 101.05 Q931 101.85 930.4 102.4 929.85 103 929.05 103 L928.95 103 Q928.15 103 927.55 102.4 927 101.85 927 101.05 L927 100.95 Q927 100.15 927.55 99.55 928.15 99 928.95 99 L929.05 99 Q929.85 99 930.4 99.55 931 100.15 931 100.95 L931 101.05 M917.65 112.3 Q913.7 108.35 913.1 103 L915.15 103 Q915.7 107.55 919.1 110.9 922.45 114.25 927 114.9 L927 116.9 Q921.65 116.3 917.65 112.3" fill="var(--svg-fill-color)" stroke="var(--svg-stroke-color)"/><path d="M722 334 L728.8 333.2 Q732.1 332.3 735.05 330.6 L737.05 334.05 Q733.65 336.05 729.85 337.05 726.1 338 722 338 717.95 338 714.25 337.05 710.4 336.05 707 334.1 L709 330.65 Q711.95 332.35 715.3 333.2 L722 334 M696 308 Q696 311.55 696.85 314.8 697.7 318.1 699.45 321.05 L695.95 323.05 Q693.95 319.65 692.95 315.85 692 312.1 692 308 692 303.9 692.95 300.2 693.95 296.35 695.95 292.95 L699.45 294.95 Q697.7 297.9 696.85 301.25 696 304.45 696 308 M748 308 Q748 304.45 747.2 301.3 746.35 297.95 744.6 294.95 L748.05 292.95 Q750.05 296.4 751.05 300.25 752 303.9 752 308 752 312.1 751.05 315.75 750.05 319.6 748.05 323 L744.6 321 Q746.35 318.05 747.2 314.75 748 311.55 748 308 M722 282 Q718.5 282 715.35 282.8 711.95 283.65 709 285.4 L707 281.95 Q710.4 279.9 714.3 278.95 717.95 278 722 278 726.1 278 729.8 278.95 733.65 279.95 737.1 282 L735.1 285.45 Q732.1 283.7 728.75 282.85 725.55 282 722 282" fill="var(--svg-fill-color)" stroke="var(--svg-stroke-color)"/><path d="M603.8 357.2 Q596.95 350.35 587.8 349.25 L584 353 580.25 349.25 Q571.05 350.35 564.2 357.15 L564.15 357.2 Q557.35 364.05 556.25 373.25 L560 377 556.25 380.8 Q557.35 389.95 564.2 396.8 571.05 403.65 580.25 404.8 L584 401 587.8 404.8 Q596.95 403.65 603.8 396.8 610.65 389.95 611.8 380.8 L608 377 611.8 373.25 Q610.65 364.05 603.8 357.2 M614 377 Q614 379.85 613.55 382.55 612 391.45 605.2 398.2 598.45 405 589.55 406.55 L584 407 578.5 406.55 Q569.55 405 562.75 398.2 556 391.45 554.5 382.55 554 379.85 554 377 554 374.15 554.5 371.5 556 362.55 562.75 355.75 569.55 349 578.5 347.5 L584 347 589.55 347.5 Q598.45 349 605.2 355.75 612 362.55 613.55 371.5 614 374.15 614 377" fill="var(--svg-fill-color)" stroke="var(--svg-stroke-color)"/><path d="M662.9 367.1 Q659.15 363.35 654 363.05 L653 363 652 363.05 Q646.85 363.35 643.1 367.05 L643.05 367.1 Q639.35 370.85 639.05 376 L639 377 639.05 378 Q639.35 383.15 643.1 386.9 646.85 390.65 652 391 L653 391 654 391 Q659.15 390.65 662.9 386.9 666.65 383.15 667 378 L667 377 667 376 Q666.65 370.85 662.9 367.1 M633.15 357.2 Q626.35 364.05 625.25 373.25 L628 376 637.05 376 Q637.35 370 641.65 365.65 646 361.35 652 361.05 L652 352 649.25 349.25 Q640.05 350.35 633.2 357.15 L633.15 357.2 M672.8 357.2 Q665.95 350.35 656.8 349.25 L654 352 654 361.05 Q660 361.35 664.3 365.65 668.65 370 669 376 L678 376 680.8 373.25 Q679.65 364.05 672.8 357.2 M683 377 Q683 379.85 682.55 382.55 681 391.45 674.2 398.2 667.45 405 658.55 406.55 L653 407 647.5 406.55 Q638.55 405 631.75 398.2 625 391.45 623.5 382.55 623 379.85 623 377 623 374.15 623.5 371.5 625 362.55 631.75 355.75 638.55 349 647.5 347.5 L653 347 658.55 347.5 Q667.45 349 674.2 355.75 681 362.55 682.55 371.5 683 374.15 683 377 M655 377 Q655 377.85 654.4 378.4 653.85 379 653 379 652.15 379 651.55 378.4 651 377.85 651 377 651 376.15 651.55 375.55 652.15 375 653 375 653.85 375 654.4 375.55 655 376.15 655 377 M633.2 396.8 Q640.05 403.65 649.25 404.8 L652 402 652 393 Q646 392.65 641.65 388.3 637.35 384 637.05 378 L628 378 625.25 380.8 Q626.35 389.95 633.2 396.8 M672.8 396.8 Q679.65 389.95 680.8 380.8 L678 378 669 378 Q668.65 384 664.3 388.3 660 392.65 654 393 L654 402 656.8 404.8 Q665.95 403.65 672.8 396.8" fill="var(--svg-fill-color)" stroke="var(--svg-stroke-color)"/><path d="M740.4 358.6 Q734.15 352.35 725.75 351.25 L722 355 718.25 351.25 Q709.85 352.35 703.6 358.6 697.35 364.85 696.25 373.25 L700 377 696.25 380.75 Q697.35 389.15 703.6 395.4 709.85 401.65 718.25 402.75 L722 399 725.75 402.75 Q734.15 401.65 740.4 395.4 746.65 389.15 747.75 380.75 L744 377 747.75 373.25 Q746.65 364.85 740.4 358.6 M752 377 Q752 380.75 751.2 384.2 749.35 392.1 743.2 398.2 737.1 404.35 729.2 406.2 725.75 407 722 407 L714.8 406.2 Q706.9 404.35 700.75 398.2 694.65 392.1 692.8 384.2 692 380.75 692 377 692 373.25 692.8 369.8 694.65 361.9 700.75 355.75 706.9 349.65 714.8 347.8 L722 347 Q725.75 347 729.2 347.8 737.1 349.65 743.2 355.75 749.35 361.9 751.2 369.8 752 373.25 752 377" fill="var(--svg-fill-color)" stroke="var(--svg-stroke-color)"/><path d="M545 487 L520 512 518 510 543 485 545 487 M517 515 Q517 515.85 516.4 516.4 515.85 517 515 517 514.15 517 513.55 516.4 513 515.85 513 515 513 514.15 513.55 513.55 514.15 513 515 513 515.85 513 516.4 513.55 517 514.15 517 515 M543 545 L518 520 520 518 545 543 543 545 M485 487 L487 485 512 510 510 512 485 487 M487 545 L485 543 510 518 512 520 487 545" fill="var(--svg-fill-color)" stroke="var(--svg-stroke-color)"/><path d="M592 505 L594 507 590 511 588 509 592 505 M574 507 L576 505 580 509 578 511 574 507 M586 515 Q586 515.85 585.4 516.4 584.85 517 584 517 583.15 517 582.55 516.4 582 515.85 582 515 582 514.15 582.55 513.55 583.15 513 584 513 584.85 513 585.4 513.55 586 514.15 586 515 M576 525 L574 523 578 519 580 521 576 525 M594 523 L592 525 588 521 590 519 594 523" fill="var(--svg-fill-color)" stroke="var(--svg-stroke-color)"/><path d="M458 584 Q458 580.5 456.3 577.75 L454 580 450 576 452.3 573.75 Q449.5 572 446 572 442.5 572 439.75 573.75 L442 576 438 580 435.75 577.75 Q434 580.5 434 584 434 587.5 435.75 590.3 L438 588 442 592 439.75 594.3 Q442.5 596 446 596 449.5 596 452.3 594.3 L450 592 454 588 456.3 590.3 Q458 587.5 458 584 M462 584 Q462 589.15 459.15 593.15 L462 596 458 600 455.15 597.15 454 597.9 Q450.45 600 446 600 440.85 600 436.85 597.15 L434 600 430 596 432.85 593.15 Q430 589.15 430 584 430 578.8 432.85 574.85 L430 572 434 568 436.85 570.85 Q440.8 568 446 568 450.45 568 454 570.1 L455.15 570.85 458 568 462 572 459.15 574.85 Q462 578.85 462 584" fill="var(--svg-fill-color)" stroke="var(--svg-stroke-color)"/><path d="M517 556 L517 564 513 564 513 556 517 556 M499 584 Q499 578.8 501.85 574.85 L504.75 577.75 Q503 580.5 503 584 503 587.5 504.75 590.3 L501.85 593.15 Q499 589.15 499 584 M487 582 L495 582 495 586 487 586 487 582 M515 568 Q519.45 568 523 570.1 L524.15 570.85 521.3 573.75 Q518.5 572 515 572 511.5 572 508.75 573.75 L505.85 570.85 Q509.8 568 515 568 M531 584 Q531 589.15 528.15 593.15 L525.3 590.3 Q527 587.5 527 584 527 580.5 525.3 577.75 L528.15 574.85 Q531 578.85 531 584 M535 582 L543 582 543 586 535 586 535 582 M523 597.9 Q519.45 600 515 600 509.85 600 505.85 597.15 L508.75 594.3 Q511.5 596 515 596 518.5 596 521.3 594.3 L524.15 597.15 523 597.9 M513 604 L517 604 517 612 513 612 513 604" fill="var(--svg-fill-color)" stroke="var(--svg-stroke-color)"/></svg>