<svg xmlns="http://www.w3.org/2000/svg" xmlns:xlink="http://www.w3.org/1999/xlink" width="64" height="64" viewBox="622 483 62 64"><path d="M803.75 248.95 L810.8 256 Q817 248.8 817.05 239.05 817 229.3 810.75 222.15 L803.75 229.15 800.9 226.3 807.9 219.3 Q800.75 213.05 791 213 781.25 213.05 774.1 219.3 L781.1 226.3 778.25 229.15 771.25 222.15 Q765 229.3 764.95 239.05 765 248.8 771.2 256 L778.25 248.95 781.1 251.8 774.05 258.85 Q781.25 265.05 791 265.1 800.75 265.05 807.95 258.85 L800.9 251.8 803.75 248.95 M815.05 260.25 L812.2 263.1 810.75 261.65 Q802.4 269.1 791 269 779.6 269.1 771.25 261.65 L769.8 263.1 766.95 260.25 768.4 258.8 Q761 250.5 761 239 760.95 227.65 768.4 219.3 L766.95 217.85 769.8 215 771.25 216.45 Q779.55 209.05 791 209 802.45 209.05 810.75 216.45 L812.2 215 815.05 217.85 813.6 219.3 Q821.05 227.65 821 239 821 250.5 813.6 258.8 L815.05 260.25 M793 239 Q793 239.85 792.4 240.4 791.85 241 791 241 790.15 241 789.55 240.4 789 239.85 789 239 789 238.15 789.55 237.55 790.15 237 791 237 791.85 237 792.4 237.55 793 238.15 793 239" fill="var(--svg-fill-color)" stroke="var(--svg-stroke-color)"/><path d="M860 265 Q867.25 265 873.05 261.6 L875.05 265.05 Q868.35 269 860 269 851.7 269 845 265.1 L847 261.6 Q852.8 265 860 265 M834 239 Q834 246.3 837.45 252.1 L834 254.1 Q830 247.4 830 239 830 230.65 833.95 224 L837.4 226 Q834 231.8 834 239 M886 239 Q886 231.75 882.6 226 L886.05 224 Q890 230.65 890 239 890 247.4 886 254.1 L882.55 252.1 Q886 246.25 886 239 M860 213 Q852.75 213 846.95 216.45 L844.95 212.95 Q851.65 209 860 209 868.35 209 875.05 212.95 L873.05 216.45 Q867.25 213 860 213" fill="var(--svg-fill-color)" stroke="var(--svg-stroke-color)"/><path d="M852.9 231.9 L852.85 231.95 Q850 234.9 850 239 L850 239.05 Q850 243.15 852.9 246.1 855.85 249 860 249 864.15 249 867.05 246.1 L867.1 246.05 Q870 243.15 870 239 870 234.85 867.1 231.9 864.15 229 860.05 229 L860 229 Q855.9 229 852.95 231.85 L852.9 231.9 M862 239 Q862 239.85 861.4 240.4 860.85 241 860 241 859.15 241 858.55 240.4 858 239.85 858 239 858 238.15 858.55 237.55 859.15 237 860 237 860.85 237 861.4 237.55 862 238.15 862 239 M869.9 229.05 Q874 233.15 874 239 874 244.8 869.9 248.9 865.8 253 860 253 854.15 253 850.05 248.9 846 244.8 846 239 846 233.2 850.05 229.1 L850.1 229.05 Q854.2 225 860 225 865.8 225 869.9 229.05" fill="var(--svg-fill-color)" stroke="var(--svg-stroke-color)"/><path d="M884 170 Q884 179.95 876.95 186.95 869.95 194 860 194 850.05 194 843 186.95 836 179.95 836 170 836 160.05 843 153 850.05 146 860 146 869.95 146 876.95 153 884 160.05 884 170 M874.15 155.85 Q868.3 150 860 150 851.7 150 845.85 155.85 840 161.7 840 170 840 178.3 845.85 184.15 851.7 190 860 190 868.3 190 874.1 184.15 L874.15 184.1 Q880 178.3 880 170 880 161.7 874.15 155.85" fill="var(--svg-fill-color)" stroke="var(--svg-stroke-color)"/><path d="M948.8 219.2 Q940.6 211 929 211 917.4 211 909.2 219.15 L909.15 219.2 Q901 227.4 901 239 901 250.6 909.2 258.8 917.4 267 929 267 940.6 267 948.8 258.8 957 250.6 957 239 957 227.4 948.8 219.2 M959 239 Q959 251.45 950.2 260.2 941.45 269 929 269 916.55 269 907.75 260.2 899 251.45 899 239 899 226.55 907.75 217.75 916.55 209 929 209 941.45 209 950.2 217.75 959 226.55 959 239" fill="var(--svg-fill-color)" stroke="var(--svg-stroke-color)"/><path d="M907.75 79.75 Q915.85 71.7 927 71.05 L929 71 931 71.05 Q942.15 71.7 950.2 79.75 958.3 87.85 958.95 99 L956.95 99 Q956.3 88.65 948.8 81.2 941.35 73.7 931 73.1 L929 73 927 73.05 Q916.65 73.7 909.2 81.15 L909.15 81.2 Q906.7 83.65 905 86.4 901.5 92.05 901.05 99 L899.05 99 Q899.6 89.9 905 82.9 906.25 81.25 907.75 79.75 M940.3 89.65 Q944.3 93.65 944.9 99 L942.9 99 Q942.25 94.45 938.9 91.1 935.55 87.7 931 87.15 L931 85.1 Q936.35 85.7 940.3 89.65 M917.65 89.65 Q921.65 85.7 927 85.1 L927 87.15 Q922.45 87.7 919.1 91.05 L919.05 91.1 Q915.7 94.45 915.15 99 L913.1 99 Q913.7 93.65 917.65 89.65 M940.3 112.3 Q936.35 116.3 931 116.9 L931 114.9 Q935.55 114.3 938.9 110.9 942.3 107.55 942.9 103 L944.9 103 Q944.3 108.35 940.3 112.3 M950.2 122.2 Q942.15 130.3 931 130.95 L929 131 927 130.95 Q915.85 130.3 907.75 122.2 L905 119.1 Q899.6 112.05 899.05 103 L901.1 103 Q901.5 109.9 905 115.55 906.7 118.3 909.2 120.8 916.65 128.3 927 128.95 L929 129 931 128.95 Q941.35 128.3 948.8 120.8 956.3 113.35 956.95 103 L958.95 103 Q958.3 114.15 950.2 122.2 M931 101.05 Q931 101.85 930.4 102.4 929.85 103 929.05 103 L928.95 103 Q928.15 103 927.55 102.4 927 101.85 927 101.05 L927 100.95 Q927 100.15 927.55 99.55 928.15 99 928.95 99 L929.05 99 Q929.85 99 930.4 99.55 931 100.15 931 100.95 L931 101.05 M917.65 112.3 Q913.7 108.35 913.1 103 L915.15 103 Q915.7 107.55 919.1 110.9 922.45 114.25 927 114.9 L927 116.9 Q921.65 116.3 917.65 112.3" fill="var(--svg-fill-color)" stroke="var(--svg-stroke-color)"/><path d="M937 168 L961 168 961 172 937 172 937 168 M927 202 L927 199.95 Q915.85 199.3 907.75 191.2 900.45 183.9 899.25 174 L901.25 174 Q902.45 183.05 909.2 189.8 917.05 197.65 928 198 L930 198 Q940.95 197.65 948.8 189.8 955.55 183.05 956.75 174 L958.75 174 Q957.55 183.9 950.2 191.2 942.15 199.3 931 199.95 L931 202 927 202 M897 168 L921 168 921 172 897 172 897 168 M927 168 L931 168 931 172 927 172 927 168 M931 138 L931 140.05 Q942.15 140.7 950.2 148.75 957.55 156.1 958.75 166 L956.75 166 Q955.55 156.95 948.8 150.2 940.95 142.35 930 142 L928 142 Q917.05 142.35 909.2 150.15 L909.15 150.2 Q902.45 156.95 901.25 166 L899.25 166 Q900.45 156.1 907.75 148.75 915.85 140.7 927 140.05 L927 138 931 138" fill="var(--svg-fill-color)" stroke="var(--svg-stroke-color)"/><path d="M988.1 91.1 Q984 95.2 984 101 984 106.8 988.1 110.9 992.2 115 998 115 1003.75 115 1007.85 110.9 L1007.9 110.85 Q1012 106.75 1012 101 1012 95.2 1007.9 91.1 1003.8 87 998 87 992.2 87 988.1 91.1 M1010.7 88.25 Q1016 93.55 1016 101 1016 108.4 1010.7 113.7 1005.4 119 998 119 990.55 119 985.25 113.7 980 108.45 980 101 980 93.55 985.25 88.3 L985.3 88.25 Q990.55 83 998 83 1005.45 83 1010.7 88.25" fill="var(--svg-fill-color)" stroke="var(--svg-stroke-color)"/><path d="M991.3 195.2 L996 195.95 996 182 1000 182 1000 195.95 1004.8 195.2 1005.85 199.05 998 200 Q993.95 200 990.25 199.05 L991.3 195.2 M972.85 163.25 Q972.25 165.55 972.1 168 L986 168 986 172 972.1 172 Q972.25 174.5 972.85 176.8 L968.95 177.85 Q968 174.1 968 170 968 165.9 968.95 162.2 L972.85 163.25 M1023.2 176.75 Q1023.75 174.45 1023.95 172 L1010 172 1010 168 1023.95 168 Q1023.75 165.55 1023.2 163.3 L1027.05 162.25 Q1028 165.9 1028 170 1028 174.1 1027.05 177.75 L1023.2 176.75 M1004.75 144.85 L1000 144.1 1000 158 996 158 996 144.1 991.35 144.8 990.3 140.95 Q993.95 140 998 140 1002.1 140 1005.8 140.95 L1004.75 144.85" fill="var(--svg-fill-color)" stroke="var(--svg-stroke-color)"/><path d="M722 334 L728.8 333.2 Q732.1 332.3 735.05 330.6 L737.05 334.05 Q733.65 336.05 729.85 337.05 726.1 338 722 338 717.95 338 714.25 337.05 710.4 336.05 707 334.1 L709 330.65 Q711.95 332.35 715.3 333.2 L722 334 M696 308 Q696 311.55 696.85 314.8 697.7 318.1 699.45 321.05 L695.95 323.05 Q693.95 319.65 692.95 315.85 692 312.1 692 308 692 303.9 692.95 300.2 693.95 296.35 695.95 292.95 L699.45 294.95 Q697.7 297.9 696.85 301.25 696 304.45 696 308 M748 308 Q748 304.45 747.2 301.3 746.35 297.95 744.6 294.95 L748.05 292.95 Q750.05 296.4 751.05 300.25 752 303.9 752 308 752 312.1 751.05 315.75 750.05 319.6 748.05 323 L744.6 321 Q746.35 318.05 747.2 314.75 748 311.55 748 308 M722 282 Q718.5 282 715.35 282.8 711.95 283.65 709 285.4 L707 281.95 Q710.4 279.9 714.3 278.95 717.95 278 722 278 726.1 278 729.8 278.95 733.65 279.95 737.1 282 L735.1 285.45 Q732.1 283.7 728.75 282.85 725.55 282 722 282" fill="var(--svg-fill-color)" stroke="var(--svg-stroke-color)"/><path d="M809.4 326.4 Q815.55 320.25 816.75 312 L820.75 312 Q819.55 321.9 812.2 329.2 804.9 336.55 795 337.75 L795 333.75 Q803.25 332.55 809.4 326.4 M772.6 326.4 Q778.75 332.55 787 333.75 L787 337.75 Q777.1 336.55 769.75 329.2 762.45 321.9 761.25 312 L765.3 312 Q766.45 320.25 772.6 326.4 M809.4 289.6 Q803.25 283.45 795 282.3 L795 278.25 Q804.9 279.45 812.2 286.75 819.55 294.1 820.75 304 L816.75 304 Q815.55 295.75 809.4 289.6 M772.6 289.6 Q766.45 295.75 765.3 304 L761.25 304 Q762.45 294.1 769.75 286.75 777.1 279.45 787 278.25 L787 282.3 Q778.75 283.45 772.6 289.6" fill="var(--svg-fill-color)" stroke="var(--svg-stroke-color)"/><path d="M875.55 292.45 Q869.1 286 860 286 850.9 286 844.45 292.4 L844.4 292.45 Q838 298.9 838 308 838 317.1 844.45 323.55 850.9 330 860 330 869.1 330 875.55 323.55 882 317.1 882 308 882 298.9 875.55 292.45 M884 308 Q884 317.95 876.95 324.95 869.95 332 860 332 850.05 332 843 324.95 836 317.95 836 308 836 298.05 843 291 850.05 284 860 284 869.95 284 876.95 291 884 298.05 884 308" fill="var(--svg-fill-color)" stroke="var(--svg-stroke-color)"/><path d="M1231 32 L1211 12 1199 12 1179 32 1199 52 1211 52 1231 32 M1213 56 L1197 56 1173 32 1197 8 1213 8 1237 32 1213 56 M1205 34 Q1204.15 34 1203.6 33.4 1203 32.85 1203 32 1203 31.15 1203.6 30.55 1204.15 30 1205 30 1205.85 30 1206.45 30.55 1207 31.15 1207 32 1207 32.85 1206.45 33.4 1205.85 34 1205 34" fill="var(--svg-fill-color)" stroke="var(--svg-stroke-color)"/><path d="M1231 32 L1211 12 1199 12 1179 32 1199 52 1211 52 1231 32 M1213 56 L1197 56 1173 32 1197 8 1213 8 1237 32 1213 56 M1205 34 Q1204.15 34 1203.6 33.4 1203 32.85 1203 32 1203 31.15 1203.6 30.55 1204.15 30 1205 30 1205.85 30 1206.45 30.55 1207 31.15 1207 32 1207 32.85 1206.45 33.4 1205.85 34 1205 34" fill="var(--svg-fill-color)" stroke="var(--svg-stroke-color)"/><path d="M1231 32 L1211 12 1199 12 1179 32 1199 52 1211 52 1231 32 M1213 56 L1197 56 1173 32 1197 8 1213 8 1237 32 1213 56 M1205 34 Q1204.15 34 1203.6 33.4 1203 32.85 1203 32 1203 31.15 1203.6 30.55 1204.15 30 1205 30 1205.85 30 1206.45 30.55 1207 31.15 1207 32 1207 32.85 1206.45 33.4 1205.85 34 1205 34" fill="var(--svg-fill-color)" stroke="var(--svg-stroke-color)"/><path d="M1069 170 Q1069 170.65 1068.65 171.15 L1068.4 171.4 Q1067.85 172 1067 172 1066.15 172 1065.55 171.4 L1065.35 171.15 Q1065 170.65 1065 170 1065 169.15 1065.55 168.55 1066.15 168 1067 168 1067.85 168 1068.4 168.55 1069 169.15 1069 170 M1047 182 L1087 182 1067 148 1047 182 M1067 140 L1095 186 1039 186 1067 140" fill="var(--svg-fill-color)" stroke="var(--svg-stroke-color)"/><path d="M662.9 367.1 Q659.15 363.35 654 363.05 L653 363 652 363.05 Q646.85 363.35 643.1 367.05 L643.05 367.1 Q639.35 370.85 639.05 376 L639 377 639.05 378 Q639.35 383.15 643.1 386.9 646.85 390.65 652 391 L653 391 654 391 Q659.15 390.65 662.9 386.9 666.65 383.15 667 378 L667 377 667 376 Q666.65 370.85 662.9 367.1 M633.15 357.2 Q626.35 364.05 625.25 373.25 L628 376 637.05 376 Q637.35 370 641.65 365.65 646 361.35 652 361.05 L652 352 649.25 349.25 Q640.05 350.35 633.2 357.15 L633.15 357.2 M672.8 357.2 Q665.95 350.35 656.8 349.25 L654 352 654 361.05 Q660 361.35 664.3 365.65 668.65 370 669 376 L678 376 680.8 373.25 Q679.65 364.05 672.8 357.2 M683 377 Q683 379.85 682.55 382.55 681 391.45 674.2 398.2 667.45 405 658.55 406.55 L653 407 647.5 406.55 Q638.55 405 631.75 398.2 625 391.45 623.5 382.55 623 379.85 623 377 623 374.15 623.5 371.5 625 362.55 631.75 355.75 638.55 349 647.5 347.5 L653 347 658.55 347.5 Q667.45 349 674.2 355.75 681 362.55 682.55 371.5 683 374.15 683 377 M655 377 Q655 377.85 654.4 378.4 653.85 379 653 379 652.15 379 651.55 378.4 651 377.85 651 377 651 376.15 651.55 375.55 652.15 375 653 375 653.85 375 654.4 375.55 655 376.15 655 377 M633.2 396.8 Q640.05 403.65 649.25 404.8 L652 402 652 393 Q646 392.65 641.65 388.3 637.35 384 637.05 378 L628 378 625.25 380.8 Q626.35 389.95 633.2 396.8 M672.8 396.8 Q679.65 389.95 680.8 380.8 L678 378 669 378 Q668.65 384 664.3 388.3 660 392.65 654 393 L654 402 656.8 404.8 Q665.95 403.65 672.8 396.8" fill="var(--svg-fill-color)" stroke="var(--svg-stroke-color)"/><path d="M740.4 358.6 Q734.15 352.35 725.75 351.25 L722 355 718.25 351.25 Q709.85 352.35 703.6 358.6 697.35 364.85 696.25 373.25 L700 377 696.25 380.75 Q697.35 389.15 703.6 395.4 709.85 401.65 718.25 402.75 L722 399 725.75 402.75 Q734.15 401.65 740.4 395.4 746.65 389.15 747.75 380.75 L744 377 747.75 373.25 Q746.65 364.85 740.4 358.6 M752 377 Q752 380.75 751.2 384.2 749.35 392.1 743.2 398.2 737.1 404.35 729.2 406.2 725.75 407 722 407 L714.8 406.2 Q706.9 404.35 700.75 398.2 694.65 392.1 692.8 384.2 692 380.75 692 377 692 373.25 692.8 369.8 694.65 361.9 700.75 355.75 706.9 349.65 714.8 347.8 L722 347 Q725.75 347 729.2 347.8 737.1 349.65 743.2 355.75 749.35 361.9 751.2 369.8 752 373.25 752 377" fill="var(--svg-fill-color)" stroke="var(--svg-stroke-color)"/><path d="M821 377 Q821 380.75 820.2 384.2 818.35 392.1 812.2 398.2 806.1 404.35 798.2 406.2 L791 407 783.8 406.2 Q775.9 404.35 769.75 398.2 763.65 392.1 761.8 384.2 761 380.75 761 377 761 373.25 761.8 369.8 763.65 361.9 769.75 355.75 775.9 349.65 783.8 347.8 L791 347 798.2 347.8 Q806.1 349.65 812.2 355.75 818.35 361.9 820.2 369.8 821 373.25 821 377 M809.4 358.6 Q803.15 352.35 794.75 351.25 L791 355 787.25 351.25 Q778.85 352.35 772.6 358.6 766.35 364.85 765.25 373.25 L769 377 765.25 380.75 Q766.35 389.15 772.6 395.4 778.85 401.65 787.25 402.75 L791 399 794.75 402.75 Q803.15 401.65 809.4 395.4 815.65 389.15 816.75 380.75 L813 377 816.75 373.25 Q815.65 364.85 809.4 358.6" fill="var(--svg-fill-color)" stroke="var(--svg-stroke-color)"/><path d="M862 377 Q862 377.85 861.4 378.4 860.85 379 860 379 859.15 379 858.55 378.4 858 377.85 858 377 858 376.15 858.55 375.55 859.15 375 860 375 860.85 375 861.4 375.55 862 376.15 862 377" fill="var(--svg-fill-color)" stroke="var(--svg-stroke-color)"/><path d="M878.4 358.6 Q872.15 352.35 863.75 351.25 L860 355 856.25 351.25 Q847.85 352.35 841.6 358.6 835.35 364.85 834.25 373.25 L838 377 834.25 380.75 Q835.35 389.15 841.6 395.4 847.85 401.65 856.25 402.75 L860 399 863.75 402.75 Q872.15 401.65 878.4 395.4 884.65 389.15 885.75 380.75 L882 377 885.75 373.25 Q884.65 364.85 878.4 358.6 M890 377 Q890 380.75 889.2 384.2 887.35 392.1 881.2 398.2 875.1 404.35 867.2 406.2 L860 407 852.8 406.2 Q844.9 404.35 838.75 398.2 832.65 392.1 830.8 384.2 830 380.75 830 377 830 373.25 830.8 369.8 832.65 361.9 838.75 355.75 844.9 349.65 852.8 347.8 L860 347 867.2 347.8 Q875.1 349.65 881.2 355.75 887.35 361.9 889.2 369.8 890 373.25 890 377" fill="var(--svg-fill-color)" stroke="var(--svg-stroke-color)"/><path d="M947.4 358.6 Q941.15 352.35 932.75 351.25 L929 355 925.25 351.25 Q916.85 352.35 910.6 358.6 904.35 364.85 903.25 373.25 L907 377 903.25 380.75 Q904.35 389.15 910.6 395.4 916.85 401.65 925.25 402.75 L929 399 932.75 402.75 Q941.15 401.65 947.4 395.4 953.65 389.15 954.75 380.75 L951 377 954.75 373.25 Q953.65 364.85 947.4 358.6 M959 377 Q959 380.75 958.2 384.2 956.35 392.1 950.2 398.2 944.1 404.35 936.2 406.2 L929 407 Q925.25 407 921.8 406.2 913.9 404.35 907.75 398.2 901.65 392.1 899.8 384.2 899 380.75 899 377 899 373.25 899.8 369.8 901.65 361.9 907.75 355.75 913.9 349.65 921.8 347.8 925.25 347 929 347 L936.2 347.8 Q944.1 349.65 950.2 355.75 956.35 361.9 958.2 369.8 959 373.25 959 377" fill="var(--svg-fill-color)" stroke="var(--svg-stroke-color)"/><path d="M1091 239 Q1091 248.95 1083.95 255.95 1076.95 263 1067 263 1057.05 263 1050 255.95 1043 248.95 1043 239 1043 229.05 1050 222 1057.05 215 1067 215 1076.95 215 1083.95 222 1091 229.05 1091 239 M1067 259 Q1074.3 259 1079.65 254.5 L1051.5 226.35 Q1047 231.75 1047 239 1047 247.3 1052.85 253.15 1058.7 259 1067 259 M1081.15 224.85 Q1075.3 219 1067 219 1059.75 219 1054.35 223.5 L1082.5 251.65 Q1087 246.3 1087 239 1087 230.7 1081.15 224.85" fill="var(--svg-fill-color)" stroke="var(--svg-stroke-color)"/><path d="M663 507 L659 511 657 509 661 505 663 507 M671 499 L667 503 665 501 669 497 671 499 M679 491 L675 495 673 493 677 489 679 491 M655 515 Q655 515.85 654.4 516.4 653.85 517 653 517 652.15 517 651.55 516.4 651 515.85 651 515 651 514.15 651.55 513.55 652.15 513 653 513 653.85 513 654.4 513.55 655 514.15 655 515 M671 531 L669 533 665 529 667 527 671 531 M663 523 L661 525 657 521 659 519 663 523 M679 539 L677 541 673 537 675 535 679 539 M627 491 L629 489 633 493 631 495 627 491 M635 499 L637 497 641 501 639 503 635 499 M643 507 L645 505 649 509 647 511 643 507 M627 539 L631 535 633 537 629 541 627 539 M635 531 L639 527 641 529 637 533 635 531 M643 523 L647 519 649 521 645 525 643 523" fill="var(--svg-fill-color)" stroke="var(--svg-stroke-color)"/><path d="M793 515 Q793 515.85 792.4 516.4 791.85 517 791 517 790.15 517 789.55 516.4 789 515.85 789 515 789 514.15 789.55 513.55 790.15 513 791 513 791.85 513 792.4 513.55 793 514.15 793 515" fill="var(--svg-fill-color)" stroke="var(--svg-stroke-color)"/></svg>