<svg xmlns="http://www.w3.org/2000/svg" xmlns:xlink="http://www.w3.org/1999/xlink" width="64" height="64" viewBox="1036 552 62 64"><path d="M1302 584 L1296 590 1294 588 1298 584 1294 580 1296 578 1302 584 M1246 584 L1252 578 1254 580 1250 584 1254 588 1252 590 1246 584 M1274 556 L1280 562 1278 564 1274 560 1270 564 1268 562 1274 556 M1264.1 574.1 Q1260 578.2 1260 584 1260 589.8 1264.1 593.9 1268.2 598 1274 598 1279.75 598 1283.85 593.9 L1283.9 593.85 Q1288 589.75 1288 584 1288 578.2 1283.9 574.1 1279.8 570 1274 570 1268.2 570 1264.1 574.1 M1286.7 571.25 Q1292 576.55 1292 584 1292 591.4 1286.7 596.7 1281.4 602 1274 602 1266.55 602 1261.25 596.7 1256 591.45 1256 584 1256 576.55 1261.25 571.3 L1261.3 571.25 Q1266.55 566 1274 566 1281.45 566 1286.7 571.25 M1274 612 L1268 606 1270 604 1274 608 1278 604 1280 606 1274 612" fill="var(--svg-fill-color)" stroke="var(--svg-stroke-color)"/><path d="M1076.9 574.05 Q1080.3 577.45 1080.9 582 L1085 582 1085 586 1080.9 586 Q1080.25 590.55 1076.9 593.9 1073.55 597.25 1069 597.9 L1069 602 1065 602 1065 597.9 Q1060.45 597.3 1057.05 593.9 1053.7 590.55 1053.15 586 L1049 586 1049 582 1053.15 582 Q1053.7 577.45 1057.05 574.1 L1057.1 574.05 Q1060.45 570.7 1065 570.15 L1065 566 1069 566 1069 570.15 Q1073.55 570.7 1076.9 574.05 M1069.85 581.2 Q1068.65 580 1067 580 1065.35 580 1064.2 581.2 1063 582.35 1063 584 1063 585.65 1064.2 586.85 1065.35 588 1067 588 1068.65 588 1069.85 586.85 1071 585.65 1071 584 1071 582.35 1069.85 581.2 M1073 584 Q1073 586.5 1071.25 588.25 1069.5 590 1067 590 1064.5 590 1062.75 588.25 1061 586.5 1061 584 1061 581.5 1062.75 579.75 1064.5 578 1067 578 1069.5 578 1071.25 579.75 1073 581.5 1073 584 M1059.9 576.9 L1059.85 576.95 Q1057 579.9 1057 584 L1057 584.05 Q1057 588.15 1059.9 591.1 1062.85 594 1067 594 1071.15 594 1074.05 591.1 L1074.1 591.05 Q1077 588.15 1077 584 1077 579.85 1074.1 576.9 1071.15 574 1067.05 574 L1067 574 Q1062.9 574 1059.95 576.85 L1059.9 576.9" fill="var(--svg-fill-color)" stroke="var(--svg-stroke-color)"/><path d="M1128.9 576.9 L1128.85 576.95 Q1126.7 579.15 1126.2 582 L1130 582 1130 586 1126.2 586 Q1126.7 588.9 1128.9 591.1 1131.1 593.3 1134 593.85 L1134 590 1138 590 1138 593.85 Q1140.9 593.25 1143.05 591.1 L1143.1 591.05 Q1145.25 588.9 1145.85 586 L1142 586 1142 582 1145.85 582 Q1145.3 579.1 1143.1 576.9 1140.9 574.7 1138 574.2 L1138 578 1134 578 1134 574.2 Q1131.15 574.7 1128.95 576.85 L1128.9 576.9 M1138 584 Q1138 584.85 1137.4 585.4 1136.85 586 1136 586 1135.15 586 1134.55 585.4 1134 584.85 1134 584 1134 583.15 1134.55 582.55 1135.15 582 1136 582 1136.85 582 1137.4 582.55 1138 583.15 1138 584 M1145.9 574.05 Q1150 578.15 1150 584 1150 589.8 1145.9 593.9 1141.8 598 1136 598 1130.15 598 1126.05 593.9 1122.7 590.55 1122.15 586 1122 585.05 1122 584 1122 582.95 1122.15 582 1122.7 577.45 1126.05 574.1 L1126.1 574.05 Q1130.2 570 1136 570 1141.8 570 1145.9 574.05" fill="var(--svg-fill-color)" stroke="var(--svg-stroke-color)"/><path d="M1203 566 L1207 566 1207 578 1203 578 1203 566 M1199 582 L1199 586 1187 586 1187 582 1199 582 M1214.9 574.05 Q1217.5 576.65 1218.5 580 L1214.2 580 Q1213.5 578.3 1212.1 576.9 1210.7 575.5 1209 574.8 L1209 570.55 Q1212.3 571.5 1214.9 574.05 M1195.05 574.1 L1195.1 574.05 Q1197.7 571.5 1201 570.55 L1201 574.8 Q1199.35 575.5 1197.95 576.85 L1197.9 576.9 1197.85 576.95 Q1196.5 578.35 1195.8 580 L1191.55 580 Q1192.5 576.7 1195.05 574.1 M1195.05 593.9 Q1192.5 591.3 1191.55 588 L1195.8 588 Q1196.5 589.7 1197.9 591.1 1199.3 592.5 1201 593.2 L1201 597.5 Q1197.65 596.5 1195.05 593.9 M1207 584 Q1207 584.85 1206.4 585.4 1205.85 586 1205 586 1204.15 586 1203.55 585.4 1203 584.85 1203 584 1203 583.15 1203.55 582.55 1204.15 582 1205 582 1205.85 582 1206.4 582.55 1207 583.15 1207 584 M1211 586 L1211 582 1223 582 1223 586 1211 586 M1214.9 593.9 Q1212.3 596.5 1209 597.45 L1209 593.2 Q1210.65 592.5 1212.05 591.1 L1212.1 591.05 Q1213.5 589.65 1214.2 588 L1218.45 588 Q1217.5 591.3 1214.9 593.9 M1203 590 L1207 590 1207 602 1203 602 1203 590" fill="var(--svg-fill-color)" stroke="var(--svg-stroke-color)"/><path d="M1298 26 L1298 38 1274 62 1250 38 1250 26 1274 2 1298 26 M1276 32 Q1276 32.85 1275.4 33.4 1274.85 34 1274 34 1273.15 34 1272.55 33.4 1272 32.85 1272 32 1272 31.15 1272.55 30.55 1273.15 30 1274 30 1274.85 30 1275.4 30.55 1276 31.15 1276 32 M1274 8 L1254 28 1254 36 1274 56 1294 36 1294 28 1274 8" fill="var(--svg-fill-color)" stroke="var(--svg-stroke-color)"/><path d="M1231 32 L1211 12 1199 12 1179 32 1199 52 1211 52 1231 32 M1213 56 L1197 56 1173 32 1197 8 1213 8 1237 32 1213 56 M1205 34 Q1204.15 34 1203.6 33.4 1203 32.85 1203 32 1203 31.15 1203.6 30.55 1204.15 30 1205 30 1205.85 30 1206.45 30.55 1207 31.15 1207 32 1207 32.85 1206.45 33.4 1205.85 34 1205 34" fill="var(--svg-fill-color)" stroke="var(--svg-stroke-color)"/><path d="M1231 32 L1211 12 1199 12 1179 32 1199 52 1211 52 1231 32 M1213 56 L1197 56 1173 32 1197 8 1213 8 1237 32 1213 56 M1205 34 Q1204.15 34 1203.6 33.4 1203 32.85 1203 32 1203 31.15 1203.6 30.55 1204.15 30 1205 30 1205.85 30 1206.45 30.55 1207 31.15 1207 32 1207 32.85 1206.45 33.4 1205.85 34 1205 34" fill="var(--svg-fill-color)" stroke="var(--svg-stroke-color)"/><path d="M1231 32 L1211 12 1199 12 1179 32 1199 52 1211 52 1231 32 M1213 56 L1197 56 1173 32 1197 8 1213 8 1237 32 1213 56 M1205 34 Q1204.15 34 1203.6 33.4 1203 32.85 1203 32 1203 31.15 1203.6 30.55 1204.15 30 1205 30 1205.85 30 1206.45 30.55 1207 31.15 1207 32 1207 32.85 1206.45 33.4 1205.85 34 1205 34" fill="var(--svg-fill-color)" stroke="var(--svg-stroke-color)"/><path d="M1367 26 L1367 38 1362 43 1359 40 1363 36 1363 28 1359 24 1362 21 1367 26 M1343 2 L1349 8 1347 10 1343 6 1339 10 1337 8 1343 2 M1345 32 Q1345 32.85 1344.4 33.4 1343.85 34 1343 34 1342.15 34 1341.6 33.45 L1341.55 33.4 Q1341 32.85 1341 32 1341 31.15 1341.55 30.55 1342.15 30 1343 30 1343.85 30 1344.4 30.55 L1344.45 30.6 Q1345 31.15 1345 32 M1343 62 L1337 56 1339 54 1343 58 1347 54 1349 56 1343 62 M1319 26 L1324 21 1327 24 1323 28 1323 36 1327 40 1324 43 1319 38 1319 26" fill="var(--svg-fill-color)" stroke="var(--svg-stroke-color)"/><path d="M1069 170 Q1069 170.65 1068.65 171.15 L1068.4 171.4 Q1067.85 172 1067 172 1066.15 172 1065.55 171.4 L1065.35 171.15 Q1065 170.65 1065 170 1065 169.15 1065.55 168.55 1066.15 168 1067 168 1067.85 168 1068.4 168.55 1069 169.15 1069 170 M1047 182 L1087 182 1067 148 1047 182 M1067 140 L1095 186 1039 186 1067 140" fill="var(--svg-fill-color)" stroke="var(--svg-stroke-color)"/><path d="M1185 182 L1195.75 173.85 Q1196.45 175.55 1197.9 177 L1198.2 177.3 1192.15 182 1217.85 182 1211.75 177.25 1212 177 Q1213.5 175.55 1214.25 173.8 L1225 182 1207 151.4 1207 160.2 1205 160 1203 160.2 1203 151.4 1185 182 M1207 170 Q1207 170.65 1206.65 171.15 L1206.4 171.4 Q1205.85 172 1205 172 1204.15 172 1203.55 171.4 L1203.35 171.15 Q1203 170.65 1203 170 1203 169.15 1203.55 168.55 1204.15 168 1205 168 1205.85 168 1206.4 168.55 1207 169.15 1207 170 M1205 140 L1233 186 1177 186 1205 140" fill="var(--svg-fill-color)" stroke="var(--svg-stroke-color)"/><path d="M1266.9 162.9 L1266.85 162.95 Q1264 165.9 1264 170 L1264 170.05 Q1264 172.1 1264.7 173.85 1265.45 175.6 1266.9 177.1 L1267.15 177.35 Q1270 180 1274 180 1278 180 1280.85 177.3 L1281.05 177.1 1281.1 177.05 Q1282.55 175.6 1283.3 173.8 1284 172.05 1284 170 1284 165.85 1281.1 162.9 1278.9 160.7 1276 160.2 L1274.05 160 1274 160 1272 160.2 Q1269.15 160.7 1266.95 162.85 L1266.9 162.9 M1272 146 L1276 146 1276 156.15 Q1280.55 156.7 1283.9 160.05 1288 164.15 1288 170 1288 173.5 1286.5 176.4 L1294.9 183.1 1292 186 1284 179.8 1283.9 179.9 Q1279.8 184 1274 184 1268.15 184 1264.05 179.9 L1263.95 179.8 1256 186 1253.1 183.1 1261.5 176.4 Q1260 173.5 1260 170 1260 164.2 1264.05 160.1 L1264.1 160.05 Q1267.45 156.7 1272 156.15 L1272 146 M1276 170 Q1276 170.85 1275.4 171.4 1274.85 172 1274 172 1273.15 172 1272.55 171.4 1272 170.85 1272 170 1272 169.15 1272.55 168.55 1273.15 168 1274 168 1274.85 168 1275.4 168.55 1276 169.15 1276 170" fill="var(--svg-fill-color)" stroke="var(--svg-stroke-color)"/><path d="M1322.1 183.1 L1330.5 176.4 Q1331.4 178.2 1332.95 179.8 L1325 186 1322.1 183.1 M1343 156 L1341 156.15 1341 146 1345 146 1345 156.15 1343 156 M1345 170 Q1345 170.85 1344.4 171.4 1343.85 172 1343 172 1342.15 172 1341.55 171.4 1341 170.85 1341 170 1341 169.15 1341.55 168.55 1342.15 168 1343 168 1343.85 168 1344.4 168.55 1345 169.15 1345 170 M1361 186 L1353 179.8 Q1354.55 178.2 1355.5 176.4 L1363.9 183.1 1361 186" fill="var(--svg-fill-color)" stroke="var(--svg-stroke-color)"/><path d="M1091 239 Q1091 248.95 1083.95 255.95 1076.95 263 1067 263 1057.05 263 1050 255.95 1043 248.95 1043 239 1043 229.05 1050 222 1057.05 215 1067 215 1076.95 215 1083.95 222 1091 229.05 1091 239 M1067 259 Q1074.3 259 1079.65 254.5 L1051.5 226.35 Q1047 231.75 1047 239 1047 247.3 1052.85 253.15 1058.7 259 1067 259 M1081.15 224.85 Q1075.3 219 1067 219 1059.75 219 1054.35 223.5 L1082.5 251.65 Q1087 246.3 1087 239 1087 230.7 1081.15 224.85" fill="var(--svg-fill-color)" stroke="var(--svg-stroke-color)"/><path d="M1154.4 220.6 Q1162 228.2 1162 239 1162 249.75 1154.4 257.35 L1154.35 257.4 Q1146.75 265 1136 265 1125.2 265 1117.6 257.4 1110 249.8 1110 239 1110 228.25 1117.6 220.6 1125.25 213 1136 213 1146.8 213 1154.4 220.6 M1120.7 229.4 Q1118 233.65 1118 239 1118 246.45 1123.3 251.75 1128.55 257 1136 257 1141.4 257 1145.6 254.3 L1120.7 229.4 M1154 239 Q1154 231.55 1148.75 226.3 1143.45 221 1136 221 1130.65 221 1126.4 223.7 L1151.3 248.6 Q1154 244.4 1154 239" fill="var(--svg-fill-color)" stroke="var(--svg-stroke-color)"/><path d="M1235 239 Q1235 251.45 1226.2 260.2 1217.45 269 1205 269 1192.55 269 1183.75 260.2 1175 251.45 1175 239 1175 226.55 1183.75 217.75 1192.55 209 1205 209 1217.45 209 1226.2 217.75 1235 226.55 1235 239 M1205 265 Q1214.75 265 1221.95 258.8 L1185.25 222.1 Q1179 229.25 1179 239 1179 249.8 1186.6 257.4 1194.2 265 1205 265 M1223.4 220.6 Q1215.8 213 1205 213 1195.25 213 1188.1 219.25 L1224.8 255.95 Q1231 248.75 1231 239 1231 228.2 1223.4 220.6" fill="var(--svg-fill-color)" stroke="var(--svg-stroke-color)"/><path d="M1255.6 220.6 Q1253.1 223.1 1251.4 226 1249.7 228.9 1248.85 232.25 L1244.95 231.15 Q1245.95 227.35 1247.9 224 1249.85 220.65 1252.75 217.75 1255.65 214.85 1259 212.9 1262.4 210.9 1266.2 209.9 L1267.3 213.8 Q1263.95 214.65 1261 216.4 1258.15 218.05 1255.6 220.6 M1292.4 220.6 Q1289.9 218.1 1287.15 216.4 1284.1 214.6 1280.8 213.8 L1281.8 209.9 Q1285.65 210.85 1289.1 213 1292.35 214.85 1295.25 217.75 1298.15 220.65 1300.05 223.95 1302.05 227.35 1303.05 231.25 L1299.2 232.3 Q1298.3 228.9 1296.55 225.95 1294.9 223.1 1292.4 220.6 M1292.35 257.35 Q1294.9 254.8 1296.55 252.05 1298.35 249.05 1299.2 245.7 L1303.05 246.75 Q1302.05 250.55 1300 254 1298.1 257.3 1295.2 260.2 1292.3 263.1 1289.05 264.95 1285.6 267 1281.8 268 L1280.8 264.1 Q1284.1 263.3 1287.05 261.55 1289.85 259.85 1292.35 257.35 M1272 242 L1271.7 242.7 1271 243 Q1270.6 243 1270.3 242.7 1270 242.4 1270 242 1270 241.6 1270.3 241.3 1270.6 241 1271 241 1271.4 241 1271.7 241.3 L1272 242 M1272 236 L1271.7 236.7 1271 237 Q1270.6 237 1270.3 236.7 1270 236.4 1270 236 1270 235.6 1270.3 235.3 1270.6 235 1271 235 1271.4 235 1271.7 235.3 L1272 236 M1278 236 L1277.7 236.7 1277 237 Q1276.6 237 1276.3 236.7 1276 236.4 1276 236 1276 235.6 1276.3 235.3 1276.6 235 1277 235 L1277.7 235.3 1278 236 M1278 242 L1277.7 242.7 1277 243 Q1276.6 243 1276.3 242.7 1276 242.4 1276 242 1276 241.6 1276.3 241.3 1276.6 241 1277 241 L1277.7 241.3 1278 242 M1255.65 257.35 Q1258.15 259.85 1261 261.6 1263.95 263.25 1267.25 264.15 L1266.2 268 Q1262.4 267 1259.05 265.05 1255.7 263.1 1252.8 260.2 1249.9 257.3 1248 254 1245.95 250.55 1244.9 246.8 L1248.8 245.8 Q1249.65 249.05 1251.45 252.05 1253.1 254.8 1255.65 257.35" fill="var(--svg-fill-color)" stroke="var(--svg-stroke-color)"/><path d="M1347 236 L1346.7 236.7 1346 237 Q1345.6 237 1345.3 236.7 1345 236.4 1345 236 1345 235.6 1345.3 235.3 1345.6 235 1346 235 1346.4 235 1346.7 235.3 L1347 236 M1347 242 L1346.7 242.7 1346 243 Q1345.6 243 1345.3 242.7 1345 242.4 1345 242 1345 241.6 1345.3 241.3 1345.6 241 1346 241 1346.4 241 1346.7 241.3 L1347 242 M1341 242 L1340.7 242.7 1340 243 Q1339.6 243 1339.3 242.7 1339 242.4 1339 242 1339 241.6 1339.3 241.3 1339.6 241 1340 241 L1340.7 241.3 1341 242 M1341 236 L1340.7 236.7 1340 237 Q1339.6 237 1339.3 236.7 1339 236.4 1339 236 1339 235.6 1339.3 235.3 1339.6 235 1340 235 L1340.7 235.3 1341 236 M1363 239 L1367 239 Q1367 248.95 1359.95 255.95 1352.95 263 1343 263 1333.05 263 1326 255.95 1319 248.95 1319 239 L1323 239 Q1323 247.3 1328.85 253.15 1334.7 259 1343 259 1351.3 259 1357.1 253.15 L1357.15 253.1 Q1363 247.3 1363 239" fill="var(--svg-fill-color)" stroke="var(--svg-stroke-color)"/><path d="M1066.9 369.05 Q1059.55 369.15 1052.3 377 1059.55 384.85 1066.9 385 1074.2 384.85 1081.7 377 1074.2 369.15 1066.9 369.05 M1069 376.9 Q1069 376.1 1068.4 375.5 1067.8 374.9 1067 374.9 1066.2 374.9 1065.6 375.45 L1065.55 375.5 Q1065 376.1 1065 376.9 1065 377.7 1065.6 378.3 1066.2 378.9 1067 378.9 1067.8 378.9 1068.35 378.35 L1068.45 378.25 Q1069 377.7 1069 376.9 M1071.2 381.15 Q1069.45 382.9 1067 382.9 1064.5 382.9 1062.75 381.15 1061 379.4 1061 376.9 1061 374.45 1062.7 372.7 L1062.75 372.65 1062.8 372.6 Q1064.55 370.9 1067 370.9 1069.5 370.9 1071.25 372.65 1073 374.4 1073 376.9 1073 379.35 1071.25 381.1 L1071.2 381.15 M1066.9 365.05 Q1076.3 364.95 1085.8 375.65 L1087 377 1085.8 378.35 Q1076.3 389.1 1066.9 389 1057.45 389.1 1048.2 378.35 L1047.05 377 1048.2 375.7 Q1057.45 364.95 1066.9 365.05" fill="var(--svg-fill-color)" stroke="var(--svg-stroke-color)"/><path d="M1135.9 365.05 Q1145.3 364.95 1154.8 375.65 L1156 377 1154.8 378.35 Q1145.3 389.1 1135.9 389 1126.45 389.1 1117.2 378.35 L1116.05 377 1117.2 375.7 Q1126.45 364.95 1135.9 365.05 M1138 377 Q1138 377.85 1137.4 378.4 1136.85 379 1136 379 1135.15 379 1134.55 378.4 1134 377.85 1134 377 1134 376.15 1134.55 375.55 1135.15 375 1136 375 1136.85 375 1137.4 375.55 1138 376.15 1138 377 M1135.9 369.05 Q1128.55 369.15 1121.3 377 1128.55 384.85 1135.9 385 1143.2 384.85 1150.7 377 1143.2 369.15 1135.9 369.05" fill="var(--svg-fill-color)" stroke="var(--svg-stroke-color)"/><path d="M1185.9 375.8 L1188.1 372.45 Q1204.8 383.25 1221.95 372.4 L1224.1 375.8 Q1204.8 388.05 1185.9 375.8" fill="var(--svg-fill-color)" stroke="var(--svg-stroke-color)"/><path d="M1269.35 373.4 L1269.35 373.45 1269.25 373.45 1267.45 374.55 1267.4 374.6 Q1267.25 374.65 1265.45 375.95 L1264.55 376.55 1264.7 376.85 1264.75 376.9 1266.15 378.45 1266.15 378.5 Q1268.55 380.5 1272.6 380.9 L1272.65 380.95 1277.45 380.6 1277.4 380.6 Q1280.1 379.95 1281.9 378.45 L1283.25 376.85 1283.4 376.5 1282.6 376.05 1282.5 375.95 1280.25 374.35 Q1279.05 373.55 1278.05 373.15 L1277.25 373 1277.1 373 1276.3 373.15 1276.2 373.2 1275.95 373.4 1276.05 373.35 Q1275.1 374.2 1274.35 374.25 L1273.9 374.3 1273.6 374.2 1272.5 373.8 1272.35 373.7 1272.25 373.6 1271.8 373.2 1270.7 373 1270.6 373 1270.15 373.05 1270.05 373.1 1269.35 373.4 M1268.9 369.25 L1268.95 369.25 1270.95 369 Q1272.9 369.1 1274 369.9 L1274.7 369.5 Q1275.8 369 1277.1 369 L1279.45 369.4 1279.55 369.45 1282.4 371 1284.8 372.7 Q1285.55 373.2 1286.3 373.35 L1288.5 373.75 1287.95 375.8 Q1287.5 377.4 1286.7 378.85 1285.8 380.35 1284.5 381.5 1282.1 383.55 1278.35 384.5 L1278.3 384.5 1272.15 384.9 Q1266.75 384.35 1263.6 381.55 L1263.55 381.55 Q1262.2 380.4 1261.3 378.95 L1261.3 378.9 Q1260.4 377.45 1260.05 375.75 L1259.6 373.8 1261.65 373.35 Q1262.4 373.2 1263.15 372.65 L1263.15 372.7 1265.2 371.25 1265.15 371.25 1267.45 369.9 1267.55 369.85 1268.9 369.25" fill="var(--svg-fill-color)" stroke="var(--svg-stroke-color)"/><path d="M1343 380.85 Q1348.8 380.85 1355 379 L1355 381 Q1349.9 384.85 1343 384.85 1336.1 384.85 1331 381 L1331 379 Q1337.2 380.85 1343 380.85 M1331 377 L1331 373 1337 369.1 1337.6 369.3 1343 371 1348.4 369.3 1349 369.1 1355 373 1355 377 Q1351.45 376.55 1348.4 373.55 1346 374.45 1344.3 375.9 L1343 377 1341.7 375.9 Q1340 374.45 1337.6 373.55 1334.55 376.55 1331 377" fill="var(--svg-fill-color)" stroke="var(--svg-stroke-color)"/><path d="M1138 446 Q1138 446.85 1137.4 447.4 1136.85 448 1136 448 1135.15 448 1134.55 447.4 1134 446.85 1134 446 1134 445.15 1134.55 444.55 1135.15 444 1136 444 1136.85 444 1137.4 444.55 1138 445.15 1138 446 M1142 446 L1162 438 1164 442 1154 446 1164 450 1162 454 1142 446 M1130 446 L1110 454 1108 450 1118 446 1108 442 1110 438 1130 446" fill="var(--svg-fill-color)" stroke="var(--svg-stroke-color)"/><path d="M1235 432 L1237 434 1225 446 1237 458 1235 460 1221 446 1235 432 M1207 446 Q1207 446.85 1206.4 447.4 1205.85 448 1205 448 1204.15 448 1203.55 447.4 1203 446.85 1203 446 1203 445.15 1203.55 444.55 1204.15 444 1205 444 1205.85 444 1206.4 444.55 1207 445.15 1207 446 M1201 446 Q1201 446.85 1200.4 447.4 1199.85 448 1199 448 1198.15 448 1197.55 447.4 1197 446.85 1197 446 1197 445.15 1197.55 444.55 1198.15 444 1199 444 1199.85 444 1200.4 444.55 1201 445.15 1201 446 M1213 446 Q1213 446.85 1212.4 447.4 1211.85 448 1211 448 1210.15 448 1209.55 447.4 1209 446.85 1209 446 1209 445.15 1209.55 444.55 1210.15 444 1211 444 1211.85 444 1212.4 444.55 1213 445.15 1213 446 M1175 432 L1189 446 1175 460 1173 458 1185 446 1173 434 1175 432" fill="var(--svg-fill-color)" stroke="var(--svg-stroke-color)"/><path d="M1276.85 443.2 Q1275.65 442 1274 442 1272.35 442 1271.2 443.2 1270 444.35 1270 446 1270 447.65 1271.2 448.85 1272.35 450 1274 450 1275.65 450 1276.85 448.85 1278 447.65 1278 446 1278 444.35 1276.85 443.2 M1302 446 Q1302 436.05 1295.6 428.85 L1298.4 426 Q1306 434.4 1306 446 1306 457.6 1298.35 466 L1295.55 463.2 Q1302 455.95 1302 446 M1282 446 Q1282 449.3 1279.65 451.65 1277.3 454 1274 454 1270.7 454 1268.35 451.65 1266 449.3 1266 446 1266 442.7 1268.35 440.35 1270.7 438 1274 438 1277.3 438 1279.65 440.35 1282 442.7 1282 446 M1246 446 Q1246 455.95 1252.45 463.2 L1249.6 466 Q1242 457.6 1242 446 1242 434.4 1249.6 426 L1252.45 428.85 Q1246 436.05 1246 446" fill="var(--svg-fill-color)" stroke="var(--svg-stroke-color)"/><path d="M1345 446 Q1345 446.85 1344.45 447.45 1343.85 448 1343 448 1342.15 448 1341.6 447.45 1341 446.85 1341 446 1341 445.15 1341.6 444.6 1342.15 444 1343 444 1343.85 444 1344.45 444.6 1345 445.15 1345 446 M1315 446 Q1315 453.05 1318.25 458.75 L1321 456 1324.85 459.85 1318.6 466 Q1316.75 463.95 1315.35 461.7 1311 454.75 1311 446 1311 434.4 1318.6 426 L1325 432.4 1321 436.4 1318.1 433.5 Q1315 439.1 1315 446 M1371 446 Q1371 439.1 1367.95 433.55 L1365.45 436 1361.45 432 1367.4 426 Q1369.4 428.2 1370.85 430.6 1375 437.45 1375 446 1375 454.6 1370.8 461.45 L1367.35 466 1361 459.65 1365 455.65 1367.9 458.55 Q1371 452.9 1371 446" fill="var(--svg-fill-color)" stroke="var(--svg-stroke-color)"/><path d="M1069 515 Q1069 515.85 1068.4 516.4 1067.85 517 1067 517 1066.15 517 1065.55 516.4 1065 515.85 1065 515 1065 514.15 1065.55 513.55 1066.15 513 1067 513 1067.85 513 1068.4 513.55 1069 514.15 1069 515" fill="var(--svg-fill-color)" stroke="var(--svg-stroke-color)"/><path d="M1138 515 Q1138 515.85 1137.4 516.4 1136.85 517 1136 517 1135.15 517 1134.55 516.4 1134 515.85 1134 515 1134 514.15 1134.55 513.55 1135.15 513 1136 513 1136.85 513 1137.4 513.55 1138 514.15 1138 515" fill="var(--svg-fill-color)" stroke="var(--svg-stroke-color)"/><path d="M1207 515 Q1207 515.85 1206.4 516.4 1205.85 517 1205 517 1204.15 517 1203.55 516.4 1203 515.85 1203 515 1203 514.15 1203.55 513.55 1204.15 513 1205 513 1205.85 513 1206.4 513.55 1207 514.15 1207 515 M1199 523 L1199 521 1211 521 1211 523 1199 523 M1199 509 L1199 507 1211 507 1211 509 1199 509 M1195 511 L1195 497 1185 497 1185 495 1197 495 1197 535 1195 535 1195 529 1193 529 1193 527 1195 527 1195 513 1189 513 1189 511 1195 511 M1213 495 L1225 495 1225 497 1215 497 1215 511 1221 511 1221 513 1215 513 1215 527 1217 527 1217 529 1215 529 1215 535 1213 535 1213 495" fill="var(--svg-fill-color)" stroke="var(--svg-stroke-color)"/></svg>