<svg xmlns="http://www.w3.org/2000/svg" xmlns:xlink="http://www.w3.org/1999/xlink" width="64" height="64" viewBox="1312 552 62 64"><path d="M1315 584 L1321 578 1323 580 1319 584 1323 588 1321 590 1315 584 M1371 584 L1365 590 1363 588 1367 584 1363 580 1365 578 1371 584 M1343 582 L1345 584 1343 586 1341 584 1343 582 M1343 556 L1349 562 1347 564 1343 560 1339 564 1337 562 1343 556 M1343 612 L1337 606 1339 604 1343 608 1347 604 1349 606 1343 612" fill="var(--svg-fill-color)" stroke="var(--svg-stroke-color)"/><path d="M1367 26 L1367 38 1362 43 1359 40 1363 36 1363 28 1359 24 1362 21 1367 26 M1343 2 L1349 8 1347 10 1343 6 1339 10 1337 8 1343 2 M1345 32 Q1345 32.85 1344.4 33.4 1343.85 34 1343 34 1342.15 34 1341.6 33.45 L1341.55 33.4 Q1341 32.85 1341 32 1341 31.15 1341.55 30.55 1342.15 30 1343 30 1343.85 30 1344.4 30.55 L1344.45 30.6 Q1345 31.15 1345 32 M1343 62 L1337 56 1339 54 1343 58 1347 54 1349 56 1343 62 M1319 26 L1324 21 1327 24 1323 28 1323 36 1327 40 1324 43 1319 38 1319 26" fill="var(--svg-fill-color)" stroke="var(--svg-stroke-color)"/><path d="M1322.1 183.1 L1330.5 176.4 Q1331.4 178.2 1332.95 179.8 L1325 186 1322.1 183.1 M1343 156 L1341 156.15 1341 146 1345 146 1345 156.15 1343 156 M1345 170 Q1345 170.85 1344.4 171.4 1343.85 172 1343 172 1342.15 172 1341.55 171.4 1341 170.85 1341 170 1341 169.15 1341.55 168.55 1342.15 168 1343 168 1343.85 168 1344.4 168.55 1345 169.15 1345 170 M1361 186 L1353 179.8 Q1354.55 178.2 1355.5 176.4 L1363.9 183.1 1361 186" fill="var(--svg-fill-color)" stroke="var(--svg-stroke-color)"/><path d="M1347 236 L1346.7 236.7 1346 237 Q1345.6 237 1345.3 236.7 1345 236.4 1345 236 1345 235.6 1345.3 235.3 1345.6 235 1346 235 1346.4 235 1346.7 235.3 L1347 236 M1347 242 L1346.7 242.7 1346 243 Q1345.6 243 1345.3 242.7 1345 242.4 1345 242 1345 241.6 1345.3 241.3 1345.6 241 1346 241 1346.4 241 1346.7 241.3 L1347 242 M1341 242 L1340.7 242.7 1340 243 Q1339.6 243 1339.3 242.7 1339 242.4 1339 242 1339 241.6 1339.3 241.3 1339.6 241 1340 241 L1340.7 241.3 1341 242 M1341 236 L1340.7 236.7 1340 237 Q1339.6 237 1339.3 236.7 1339 236.4 1339 236 1339 235.6 1339.3 235.3 1339.6 235 1340 235 L1340.7 235.3 1341 236 M1363 239 L1367 239 Q1367 248.95 1359.95 255.95 1352.95 263 1343 263 1333.05 263 1326 255.95 1319 248.95 1319 239 L1323 239 Q1323 247.3 1328.85 253.15 1334.7 259 1343 259 1351.3 259 1357.1 253.15 L1357.15 253.1 Q1363 247.3 1363 239" fill="var(--svg-fill-color)" stroke="var(--svg-stroke-color)"/><path d="M1343 380.85 Q1348.8 380.85 1355 379 L1355 381 Q1349.9 384.85 1343 384.85 1336.1 384.85 1331 381 L1331 379 Q1337.2 380.85 1343 380.85 M1331 377 L1331 373 1337 369.1 1337.6 369.3 1343 371 1348.4 369.3 1349 369.1 1355 373 1355 377 Q1351.45 376.55 1348.4 373.55 1346 374.45 1344.3 375.9 L1343 377 1341.7 375.9 Q1340 374.45 1337.6 373.55 1334.55 376.55 1331 377" fill="var(--svg-fill-color)" stroke="var(--svg-stroke-color)"/><path d="M1345 446 Q1345 446.85 1344.45 447.45 1343.85 448 1343 448 1342.15 448 1341.6 447.45 1341 446.85 1341 446 1341 445.15 1341.6 444.6 1342.15 444 1343 444 1343.85 444 1344.45 444.6 1345 445.15 1345 446 M1315 446 Q1315 453.05 1318.25 458.75 L1321 456 1324.85 459.85 1318.6 466 Q1316.75 463.95 1315.35 461.7 1311 454.75 1311 446 1311 434.4 1318.6 426 L1325 432.4 1321 436.4 1318.1 433.5 Q1315 439.1 1315 446 M1371 446 Q1371 439.1 1367.95 433.55 L1365.45 436 1361.45 432 1367.4 426 Q1369.4 428.2 1370.85 430.6 1375 437.45 1375 446 1375 454.6 1370.8 461.45 L1367.35 466 1361 459.65 1365 455.65 1367.9 458.55 Q1371 452.9 1371 446" fill="var(--svg-fill-color)" stroke="var(--svg-stroke-color)"/></svg>