<svg xmlns="http://www.w3.org/2000/svg" xmlns:xlink="http://www.w3.org/1999/xlink" width="64" height="64" viewBox="484 552 62 64"><path d="M454 653 Q454 656.3 451.65 658.65 449.3 661 446 661 442.65 661 440.3 658.65 438 656.3 438 653 438 649.65 440.3 647.3 442.6 645.05 445.8 645 L446.2 645 Q449.35 645.05 451.65 647.3 454 649.65 454 653 M448 653 Q448 653.85 447.4 654.4 446.85 655 446 655 445.15 655 444.55 654.4 444 653.85 444 653 444 652.15 444.55 651.55 445.15 651 446 651 446.85 651 447.4 651.55 448 652.15 448 653 M450.25 648.75 Q448.5 647 446 647 443.5 647 441.75 648.7 L441.7 648.75 Q440 650.5 440 653 440 655.5 441.75 657.25 443.5 659 446 659 448.45 659 450.25 657.25 452 655.45 452 653 452 650.5 450.25 648.75 M414 653 L424 643 426 645 418 653 426 661 424 663 414 653 M478 653 L468 663 466 661 474 653 466 645 468 643 478 653" fill="var(--svg-fill-color)" stroke="var(--svg-stroke-color)"/><path d="M616 653 L604 665 598 665 598 661 602 661 610 653 602 645 598 645 598 641 604 641 616 653 M588 655 Q587.15 655 586.6 654.4 586 653.85 586 653 586 652.15 586.6 651.55 587.15 651 588 651 588.85 651 589.45 651.55 590 652.15 590 653 590 653.85 589.45 654.4 588.85 655 588 655 M580 655 Q579.15 655 578.6 654.4 578 653.85 578 653 578 652.15 578.6 651.55 579.15 651 580 651 580.85 651 581.45 651.55 582 652.15 582 653 582 653.85 581.45 654.4 580.85 655 580 655 M552 653 L564 641 570 641 570 645 566 645 558 653 566 661 570 661 570 665 564 665 552 653" fill="var(--svg-fill-color)" stroke="var(--svg-stroke-color)"/><path d="M458 584 Q458 580.5 456.3 577.75 L454 580 450 576 452.3 573.75 Q449.5 572 446 572 442.5 572 439.75 573.75 L442 576 438 580 435.75 577.75 Q434 580.5 434 584 434 587.5 435.75 590.3 L438 588 442 592 439.75 594.3 Q442.5 596 446 596 449.5 596 452.3 594.3 L450 592 454 588 456.3 590.3 Q458 587.5 458 584 M462 584 Q462 589.15 459.15 593.15 L462 596 458 600 455.15 597.15 454 597.9 Q450.45 600 446 600 440.85 600 436.85 597.15 L434 600 430 596 432.85 593.15 Q430 589.15 430 584 430 578.8 432.85 574.85 L430 572 434 568 436.85 570.85 Q440.8 568 446 568 450.45 568 454 570.1 L455.15 570.85 458 568 462 572 459.15 574.85 Q462 578.85 462 584" fill="var(--svg-fill-color)" stroke="var(--svg-stroke-color)"/><path d="M517 556 L517 564 513 564 513 556 517 556 M499 584 Q499 578.8 501.85 574.85 L504.75 577.75 Q503 580.5 503 584 503 587.5 504.75 590.3 L501.85 593.15 Q499 589.15 499 584 M487 582 L495 582 495 586 487 586 487 582 M515 568 Q519.45 568 523 570.1 L524.15 570.85 521.3 573.75 Q518.5 572 515 572 511.5 572 508.75 573.75 L505.85 570.85 Q509.8 568 515 568 M531 584 Q531 589.15 528.15 593.15 L525.3 590.3 Q527 587.5 527 584 527 580.5 525.3 577.75 L528.15 574.85 Q531 578.85 531 584 M535 582 L543 582 543 586 535 586 535 582 M523 597.9 Q519.45 600 515 600 509.85 600 505.85 597.15 L508.75 594.3 Q511.5 596 515 596 518.5 596 521.3 594.3 L524.15 597.15 523 597.9 M513 604 L517 604 517 612 513 612 513 604" fill="var(--svg-fill-color)" stroke="var(--svg-stroke-color)"/></svg>