<svg xmlns="http://www.w3.org/2000/svg" xmlns:xlink="http://www.w3.org/1999/xlink" width="64" height="64" viewBox="553 552 62 64"><path d="M948.8 219.2 Q940.6 211 929 211 917.4 211 909.2 219.15 L909.15 219.2 Q901 227.4 901 239 901 250.6 909.2 258.8 917.4 267 929 267 940.6 267 948.8 258.8 957 250.6 957 239 957 227.4 948.8 219.2 M959 239 Q959 251.45 950.2 260.2 941.45 269 929 269 916.55 269 907.75 260.2 899 251.45 899 239 899 226.55 907.75 217.75 916.55 209 929 209 941.45 209 950.2 217.75 959 226.55 959 239" fill="var(--svg-fill-color)" stroke="var(--svg-stroke-color)"/><path d="M991.3 195.2 L996 195.95 996 182 1000 182 1000 195.95 1004.8 195.2 1005.85 199.05 998 200 Q993.95 200 990.25 199.05 L991.3 195.2 M972.85 163.25 Q972.25 165.55 972.1 168 L986 168 986 172 972.1 172 Q972.25 174.5 972.85 176.8 L968.95 177.85 Q968 174.1 968 170 968 165.9 968.95 162.2 L972.85 163.25 M1023.2 176.75 Q1023.75 174.45 1023.95 172 L1010 172 1010 168 1023.95 168 Q1023.75 165.55 1023.2 163.3 L1027.05 162.25 Q1028 165.9 1028 170 1028 174.1 1027.05 177.75 L1023.2 176.75 M1004.75 144.85 L1000 144.1 1000 158 996 158 996 144.1 991.35 144.8 990.3 140.95 Q993.95 140 998 140 1002.1 140 1005.8 140.95 L1004.75 144.85" fill="var(--svg-fill-color)" stroke="var(--svg-stroke-color)"/><path d="M875.55 292.45 Q869.1 286 860 286 850.9 286 844.45 292.4 L844.4 292.45 Q838 298.9 838 308 838 317.1 844.45 323.55 850.9 330 860 330 869.1 330 875.55 323.55 882 317.1 882 308 882 298.9 875.55 292.45 M884 308 Q884 317.95 876.95 324.95 869.95 332 860 332 850.05 332 843 324.95 836 317.95 836 308 836 298.05 843 291 850.05 284 860 284 869.95 284 876.95 291 884 298.05 884 308" fill="var(--svg-fill-color)" stroke="var(--svg-stroke-color)"/><path d="M616 653 L604 665 598 665 598 661 602 661 610 653 602 645 598 645 598 641 604 641 616 653 M588 655 Q587.15 655 586.6 654.4 586 653.85 586 653 586 652.15 586.6 651.55 587.15 651 588 651 588.85 651 589.45 651.55 590 652.15 590 653 590 653.85 589.45 654.4 588.85 655 588 655 M580 655 Q579.15 655 578.6 654.4 578 653.85 578 653 578 652.15 578.6 651.55 579.15 651 580 651 580.85 651 581.45 651.55 582 652.15 582 653 582 653.85 581.45 654.4 580.85 655 580 655 M552 653 L564 641 570 641 570 645 566 645 558 653 566 661 570 661 570 665 564 665 552 653" fill="var(--svg-fill-color)" stroke="var(--svg-stroke-color)"/><path d="M821 377 Q821 380.75 820.2 384.2 818.35 392.1 812.2 398.2 806.1 404.35 798.2 406.2 L791 407 783.8 406.2 Q775.9 404.35 769.75 398.2 763.65 392.1 761.8 384.2 761 380.75 761 377 761 373.25 761.8 369.8 763.65 361.9 769.75 355.75 775.9 349.65 783.8 347.8 L791 347 798.2 347.8 Q806.1 349.65 812.2 355.75 818.35 361.9 820.2 369.8 821 373.25 821 377 M809.4 358.6 Q803.15 352.35 794.75 351.25 L791 355 787.25 351.25 Q778.85 352.35 772.6 358.6 766.35 364.85 765.25 373.25 L769 377 765.25 380.75 Q766.35 389.15 772.6 395.4 778.85 401.65 787.25 402.75 L791 399 794.75 402.75 Q803.15 401.65 809.4 395.4 815.65 389.15 816.75 380.75 L813 377 816.75 373.25 Q815.65 364.85 809.4 358.6" fill="var(--svg-fill-color)" stroke="var(--svg-stroke-color)"/><path d="M663 507 L659 511 657 509 661 505 663 507 M671 499 L667 503 665 501 669 497 671 499 M679 491 L675 495 673 493 677 489 679 491 M655 515 Q655 515.85 654.4 516.4 653.85 517 653 517 652.15 517 651.55 516.4 651 515.85 651 515 651 514.15 651.55 513.55 652.15 513 653 513 653.85 513 654.4 513.55 655 514.15 655 515 M671 531 L669 533 665 529 667 527 671 531 M663 523 L661 525 657 521 659 519 663 523 M679 539 L677 541 673 537 675 535 679 539 M627 491 L629 489 633 493 631 495 627 491 M635 499 L637 497 641 501 639 503 635 499 M643 507 L645 505 649 509 647 511 643 507 M627 539 L631 535 633 537 629 541 627 539 M635 531 L639 527 641 529 637 533 635 531 M643 523 L647 519 649 521 645 525 643 523" fill="var(--svg-fill-color)" stroke="var(--svg-stroke-color)"/><path d="M517 556 L517 564 513 564 513 556 517 556 M499 584 Q499 578.8 501.85 574.85 L504.75 577.75 Q503 580.5 503 584 503 587.5 504.75 590.3 L501.85 593.15 Q499 589.15 499 584 M487 582 L495 582 495 586 487 586 487 582 M515 568 Q519.45 568 523 570.1 L524.15 570.85 521.3 573.75 Q518.5 572 515 572 511.5 572 508.75 573.75 L505.85 570.85 Q509.8 568 515 568 M531 584 Q531 589.15 528.15 593.15 L525.3 590.3 Q527 587.5 527 584 527 580.5 525.3 577.75 L528.15 574.85 Q531 578.85 531 584 M535 582 L543 582 543 586 535 586 535 582 M523 597.9 Q519.45 600 515 600 509.85 600 505.85 597.15 L508.75 594.3 Q511.5 596 515 596 518.5 596 521.3 594.3 L524.15 597.15 523 597.9 M513 604 L517 604 517 612 513 612 513 604" fill="var(--svg-fill-color)" stroke="var(--svg-stroke-color)"/><path d="M564 584 Q564 584.85 563.4 585.4 562.85 586 562 586 561.15 586 560.55 585.4 560 584.85 560 584 560 583.15 560.55 582.55 561.15 582 562 582 562.85 582 563.4 582.55 564 583.15 564 584 M595.3 572.65 Q598.5 575.85 599.55 580 L595.35 580 Q594.5 577.5 592.5 575.5 590.5 573.5 588 572.65 L586 572 586 552 588 552 588 568.5 Q592.1 569.5 595.3 572.65 M572.65 572.65 Q575.85 569.45 580 568.5 L580 552 582 552 582 572 580 572.65 Q577.5 573.5 575.5 575.5 573.5 577.5 572.65 580 L568.5 580 Q569.45 575.85 572.65 572.65 M595.3 595.35 Q592.1 598.5 588 599.5 L588 616 586 616 586 596 588 595.35 Q590.5 594.5 592.5 592.5 594.5 590.5 595.35 588 L599.55 588 Q598.5 592.15 595.3 595.35 M572.65 595.35 Q569.45 592.15 568.5 588 L572.65 588 Q573.5 590.5 575.5 592.5 577.5 594.5 580 595.35 L582 596 582 616 580 616 580 599.5 Q575.85 598.55 572.65 595.35 M608 584 Q608 584.85 607.4 585.4 606.85 586 606 586 605.15 586 604.55 585.4 604 584.85 604 584 604 583.15 604.55 582.55 605.15 582 606 582 606.85 582 607.4 582.55 608 583.15 608 584" fill="var(--svg-fill-color)" stroke="var(--svg-stroke-color)"/><path d="M669 584 Q669 588.3 667 591.8 L667 596 663.55 596 Q659.1 600 653 600 646.85 600 642.4 596 L639 596 639 591.85 Q637 588.35 637 584 637 579.65 639 576.15 L639 572 642.35 572 Q646.85 568 653 568 659.1 568 663.6 572 L667 572 667 576.15 Q669 579.65 669 584 M661.5 575.5 Q658.05 572.1 653.3 572 L652.7 572 Q647.9 572.1 644.5 575.5 641 579 641 584 641 588.95 644.5 592.5 647.9 595.9 652.7 596 L653.3 596 Q658.05 595.9 661.5 592.5 665 588.95 665 584 665 579 661.5 575.5 M655 584 Q655 584.85 654.4 585.4 653.85 586 653 586 652.15 586 651.55 585.4 651 584.85 651 584 651 583.15 651.55 582.55 652.15 582 653 582 653.85 582 654.4 582.55 655 583.15 655 584" fill="var(--svg-fill-color)" stroke="var(--svg-stroke-color)"/></svg>