<svg xmlns="http://www.w3.org/2000/svg" xmlns:xlink="http://www.w3.org/1999/xlink" width="64" height="64" viewBox="622 552 62 64"><path d="M948.8 219.2 Q940.6 211 929 211 917.4 211 909.2 219.15 L909.15 219.2 Q901 227.4 901 239 901 250.6 909.2 258.8 917.4 267 929 267 940.6 267 948.8 258.8 957 250.6 957 239 957 227.4 948.8 219.2 M959 239 Q959 251.45 950.2 260.2 941.45 269 929 269 916.55 269 907.75 260.2 899 251.45 899 239 899 226.55 907.75 217.75 916.55 209 929 209 941.45 209 950.2 217.75 959 226.55 959 239" fill="var(--svg-fill-color)" stroke="var(--svg-stroke-color)"/><path d="M991.3 195.2 L996 195.95 996 182 1000 182 1000 195.95 1004.8 195.2 1005.85 199.05 998 200 Q993.95 200 990.25 199.05 L991.3 195.2 M972.85 163.25 Q972.25 165.55 972.1 168 L986 168 986 172 972.1 172 Q972.25 174.5 972.85 176.8 L968.95 177.85 Q968 174.1 968 170 968 165.9 968.95 162.2 L972.85 163.25 M1023.2 176.75 Q1023.75 174.45 1023.95 172 L1010 172 1010 168 1023.95 168 Q1023.75 165.55 1023.2 163.3 L1027.05 162.25 Q1028 165.9 1028 170 1028 174.1 1027.05 177.75 L1023.2 176.75 M1004.75 144.85 L1000 144.1 1000 158 996 158 996 144.1 991.35 144.8 990.3 140.95 Q993.95 140 998 140 1002.1 140 1005.8 140.95 L1004.75 144.85" fill="var(--svg-fill-color)" stroke="var(--svg-stroke-color)"/><path d="M875.55 292.45 Q869.1 286 860 286 850.9 286 844.45 292.4 L844.4 292.45 Q838 298.9 838 308 838 317.1 844.45 323.55 850.9 330 860 330 869.1 330 875.55 323.55 882 317.1 882 308 882 298.9 875.55 292.45 M884 308 Q884 317.95 876.95 324.95 869.95 332 860 332 850.05 332 843 324.95 836 317.95 836 308 836 298.05 843 291 850.05 284 860 284 869.95 284 876.95 291 884 298.05 884 308" fill="var(--svg-fill-color)" stroke="var(--svg-stroke-color)"/><path d="M799.5 575.5 Q795.95 572 791 572 786 572 782.5 575.5 779 579 779 584 L803 584 Q803 579 799.5 575.5 M807 584 Q807 590.6 802.3 595.3 797.6 600 791 600 784.35 600 779.65 595.3 775 590.6 775 584 775 577.35 779.65 572.65 784.35 568 791 568 797.6 568 802.3 572.65 807 577.35 807 584" fill="var(--svg-fill-color)" stroke="var(--svg-stroke-color)"/><path d="M1231 32 L1211 12 1199 12 1179 32 1199 52 1211 52 1231 32 M1213 56 L1197 56 1173 32 1197 8 1213 8 1237 32 1213 56 M1205 34 Q1204.15 34 1203.6 33.4 1203 32.85 1203 32 1203 31.15 1203.6 30.55 1204.15 30 1205 30 1205.85 30 1206.45 30.55 1207 31.15 1207 32 1207 32.85 1206.45 33.4 1205.85 34 1205 34" fill="var(--svg-fill-color)" stroke="var(--svg-stroke-color)"/><path d="M1231 32 L1211 12 1199 12 1179 32 1199 52 1211 52 1231 32 M1213 56 L1197 56 1173 32 1197 8 1213 8 1237 32 1213 56 M1205 34 Q1204.15 34 1203.6 33.4 1203 32.85 1203 32 1203 31.15 1203.6 30.55 1204.15 30 1205 30 1205.85 30 1206.45 30.55 1207 31.15 1207 32 1207 32.85 1206.45 33.4 1205.85 34 1205 34" fill="var(--svg-fill-color)" stroke="var(--svg-stroke-color)"/><path d="M1231 32 L1211 12 1199 12 1179 32 1199 52 1211 52 1231 32 M1213 56 L1197 56 1173 32 1197 8 1213 8 1237 32 1213 56 M1205 34 Q1204.15 34 1203.6 33.4 1203 32.85 1203 32 1203 31.15 1203.6 30.55 1204.15 30 1205 30 1205.85 30 1206.45 30.55 1207 31.15 1207 32 1207 32.85 1206.45 33.4 1205.85 34 1205 34" fill="var(--svg-fill-color)" stroke="var(--svg-stroke-color)"/><path d="M1069 170 Q1069 170.65 1068.65 171.15 L1068.4 171.4 Q1067.85 172 1067 172 1066.15 172 1065.55 171.4 L1065.35 171.15 Q1065 170.65 1065 170 1065 169.15 1065.55 168.55 1066.15 168 1067 168 1067.85 168 1068.4 168.55 1069 169.15 1069 170 M1047 182 L1087 182 1067 148 1047 182 M1067 140 L1095 186 1039 186 1067 140" fill="var(--svg-fill-color)" stroke="var(--svg-stroke-color)"/><path d="M821 377 Q821 380.75 820.2 384.2 818.35 392.1 812.2 398.2 806.1 404.35 798.2 406.2 L791 407 783.8 406.2 Q775.9 404.35 769.75 398.2 763.65 392.1 761.8 384.2 761 380.75 761 377 761 373.25 761.8 369.8 763.65 361.9 769.75 355.75 775.9 349.65 783.8 347.8 L791 347 798.2 347.8 Q806.1 349.65 812.2 355.75 818.35 361.9 820.2 369.8 821 373.25 821 377 M809.4 358.6 Q803.15 352.35 794.75 351.25 L791 355 787.25 351.25 Q778.85 352.35 772.6 358.6 766.35 364.85 765.25 373.25 L769 377 765.25 380.75 Q766.35 389.15 772.6 395.4 778.85 401.65 787.25 402.75 L791 399 794.75 402.75 Q803.15 401.65 809.4 395.4 815.65 389.15 816.75 380.75 L813 377 816.75 373.25 Q815.65 364.85 809.4 358.6" fill="var(--svg-fill-color)" stroke="var(--svg-stroke-color)"/><path d="M862 377 Q862 377.85 861.4 378.4 860.85 379 860 379 859.15 379 858.55 378.4 858 377.85 858 377 858 376.15 858.55 375.55 859.15 375 860 375 860.85 375 861.4 375.55 862 376.15 862 377" fill="var(--svg-fill-color)" stroke="var(--svg-stroke-color)"/><path d="M878.4 358.6 Q872.15 352.35 863.75 351.25 L860 355 856.25 351.25 Q847.85 352.35 841.6 358.6 835.35 364.85 834.25 373.25 L838 377 834.25 380.75 Q835.35 389.15 841.6 395.4 847.85 401.65 856.25 402.75 L860 399 863.75 402.75 Q872.15 401.65 878.4 395.4 884.65 389.15 885.75 380.75 L882 377 885.75 373.25 Q884.65 364.85 878.4 358.6 M890 377 Q890 380.75 889.2 384.2 887.35 392.1 881.2 398.2 875.1 404.35 867.2 406.2 L860 407 852.8 406.2 Q844.9 404.35 838.75 398.2 832.65 392.1 830.8 384.2 830 380.75 830 377 830 373.25 830.8 369.8 832.65 361.9 838.75 355.75 844.9 349.65 852.8 347.8 L860 347 867.2 347.8 Q875.1 349.65 881.2 355.75 887.35 361.9 889.2 369.8 890 373.25 890 377" fill="var(--svg-fill-color)" stroke="var(--svg-stroke-color)"/><path d="M947.4 358.6 Q941.15 352.35 932.75 351.25 L929 355 925.25 351.25 Q916.85 352.35 910.6 358.6 904.35 364.85 903.25 373.25 L907 377 903.25 380.75 Q904.35 389.15 910.6 395.4 916.85 401.65 925.25 402.75 L929 399 932.75 402.75 Q941.15 401.65 947.4 395.4 953.65 389.15 954.75 380.75 L951 377 954.75 373.25 Q953.65 364.85 947.4 358.6 M959 377 Q959 380.75 958.2 384.2 956.35 392.1 950.2 398.2 944.1 404.35 936.2 406.2 L929 407 Q925.25 407 921.8 406.2 913.9 404.35 907.75 398.2 901.65 392.1 899.8 384.2 899 380.75 899 377 899 373.25 899.8 369.8 901.65 361.9 907.75 355.75 913.9 349.65 921.8 347.8 925.25 347 929 347 L936.2 347.8 Q944.1 349.65 950.2 355.75 956.35 361.9 958.2 369.8 959 373.25 959 377" fill="var(--svg-fill-color)" stroke="var(--svg-stroke-color)"/><path d="M1091 239 Q1091 248.95 1083.95 255.95 1076.95 263 1067 263 1057.05 263 1050 255.95 1043 248.95 1043 239 1043 229.05 1050 222 1057.05 215 1067 215 1076.95 215 1083.95 222 1091 229.05 1091 239 M1067 259 Q1074.3 259 1079.65 254.5 L1051.5 226.35 Q1047 231.75 1047 239 1047 247.3 1052.85 253.15 1058.7 259 1067 259 M1081.15 224.85 Q1075.3 219 1067 219 1059.75 219 1054.35 223.5 L1082.5 251.65 Q1087 246.3 1087 239 1087 230.7 1081.15 224.85" fill="var(--svg-fill-color)" stroke="var(--svg-stroke-color)"/><path d="M694 600 L701.1 589 704.55 591.05 702 596 708 596 708 600 694 600 M722 554 L728.55 565 725.1 567.05 722 561.9 718.95 567.05 715.5 565 722 554 M724 584 Q724 584.65 723.65 585.15 L723.4 585.4 Q722.85 586 722 586 721.15 586 720.55 585.4 L720.35 585.15 Q720 584.65 720 584 720 583.15 720.55 582.55 721.15 582 722 582 722.85 582 723.4 582.55 724 583.15 724 584 M750 600 L736 600 736 596 742 596 739.5 591.05 742.95 589 750 600" fill="var(--svg-fill-color)" stroke="var(--svg-stroke-color)"/><path d="M663 507 L659 511 657 509 661 505 663 507 M671 499 L667 503 665 501 669 497 671 499 M679 491 L675 495 673 493 677 489 679 491 M655 515 Q655 515.85 654.4 516.4 653.85 517 653 517 652.15 517 651.55 516.4 651 515.85 651 515 651 514.15 651.55 513.55 652.15 513 653 513 653.85 513 654.4 513.55 655 514.15 655 515 M671 531 L669 533 665 529 667 527 671 531 M663 523 L661 525 657 521 659 519 663 523 M679 539 L677 541 673 537 675 535 679 539 M627 491 L629 489 633 493 631 495 627 491 M635 499 L637 497 641 501 639 503 635 499 M643 507 L645 505 649 509 647 511 643 507 M627 539 L631 535 633 537 629 541 627 539 M635 531 L639 527 641 529 637 533 635 531 M643 523 L647 519 649 521 645 525 643 523" fill="var(--svg-fill-color)" stroke="var(--svg-stroke-color)"/><path d="M669 584 Q669 588.3 667 591.8 L667 596 663.55 596 Q659.1 600 653 600 646.85 600 642.4 596 L639 596 639 591.85 Q637 588.35 637 584 637 579.65 639 576.15 L639 572 642.35 572 Q646.85 568 653 568 659.1 568 663.6 572 L667 572 667 576.15 Q669 579.65 669 584 M661.5 575.5 Q658.05 572.1 653.3 572 L652.7 572 Q647.9 572.1 644.5 575.5 641 579 641 584 641 588.95 644.5 592.5 647.9 595.9 652.7 596 L653.3 596 Q658.05 595.9 661.5 592.5 665 588.95 665 584 665 579 661.5 575.5 M655 584 Q655 584.85 654.4 585.4 653.85 586 653 586 652.15 586 651.55 585.4 651 584.85 651 584 651 583.15 651.55 582.55 652.15 582 653 582 653.85 582 654.4 582.55 655 583.15 655 584" fill="var(--svg-fill-color)" stroke="var(--svg-stroke-color)"/><path d="M793 515 Q793 515.85 792.4 516.4 791.85 517 791 517 790.15 517 789.55 516.4 789 515.85 789 515 789 514.15 789.55 513.55 790.15 513 791 513 791.85 513 792.4 513.55 793 514.15 793 515" fill="var(--svg-fill-color)" stroke="var(--svg-stroke-color)"/></svg>