<svg xmlns="http://www.w3.org/2000/svg" xmlns:xlink="http://www.w3.org/1999/xlink" width="64" height="64" viewBox="70 621 62 64"><path d="M38 629 L43 634 40 637 36 633 28 633 24 637 21 634 26 629 38 629 M32 655 Q31.15 655 30.6 654.4 30 653.85 30 653 30 652.15 30.55 651.6 L30.6 651.55 Q31.15 651 32 651 32.85 651 33.45 651.55 34 652.15 34 653 34 653.85 33.45 654.4 L33.4 654.45 Q32.85 655 32 655 M38 677 L26 677 21 672 24 669 28 673 36 673 40 669 43 672 38 677 M2 653 L8 647 10 649 6 653 10 657 8 659 2 653 M62 653 L56 659 54 657 58 653 54 649 56 647 62 653" fill="var(--svg-fill-color)" stroke="var(--svg-stroke-color)"/><path d="M103 653 Q103 653.85 102.4 654.4 101.85 655 101 655 100.15 655 99.55 654.4 99 653.85 99 653 99 652.15 99.55 651.55 100.15 651 101 651 101.85 651 102.4 651.55 103 652.15 103 653 M89 661 L69 661 69 657 91 657 101 667 111 657 133 657 133 661 113 661 101 673 89 661 M89 645 L101 633 113 645 133 645 133 649 111 649 101 639 91 649 69 649 69 645 89 645" fill="var(--svg-fill-color)" stroke="var(--svg-stroke-color)"/><path d="M202 657 L202 659 182 659 170 671 158 659 138 659 138 657 160 657 170 667 180 657 202 657 M202 649 L180 649 170 639 160 649 138 649 138 647 158 647 170 635 182 647 202 647 202 649 M172 653 Q172 653.85 171.4 654.4 170.85 655 170 655 169.15 655 168.55 654.4 168 653.85 168 653 168 652.15 168.55 651.55 169.15 651 170 651 170.85 651 171.4 651.55 172 652.15 172 653" fill="var(--svg-fill-color)" stroke="var(--svg-stroke-color)"/></svg>