<svg xmlns="http://www.w3.org/2000/svg" xmlns:xlink="http://www.w3.org/1999/xlink" width="64" height="64" viewBox="691 621 62 64"><path d="M862.85 581.2 Q861.65 580 860 580 858.35 580 857.2 581.2 856 582.35 856 584 856 585.65 857.2 586.85 858.35 588 860 588 861.65 588 862.85 586.85 864 585.65 864 584 864 582.35 862.85 581.2 M866 584 Q866 586.5 864.25 588.25 862.5 590 860 590 857.5 590 855.75 588.25 854 586.5 854 584 854 581.5 855.75 579.75 857.5 578 860 578 862.5 578 864.25 579.75 866 581.5 866 584" fill="var(--svg-fill-color)" stroke="var(--svg-stroke-color)"/><path d="M799.5 575.5 Q795.95 572 791 572 786 572 782.5 575.5 779 579 779 584 L803 584 Q803 579 799.5 575.5 M807 584 Q807 590.6 802.3 595.3 797.6 600 791 600 784.35 600 779.65 595.3 775 590.6 775 584 775 577.35 779.65 572.65 784.35 568 791 568 797.6 568 802.3 572.65 807 577.35 807 584" fill="var(--svg-fill-color)" stroke="var(--svg-stroke-color)"/><path d="M1185 182 L1195.75 173.85 Q1196.45 175.55 1197.9 177 L1198.2 177.3 1192.15 182 1217.85 182 1211.75 177.25 1212 177 Q1213.5 175.55 1214.25 173.8 L1225 182 1207 151.4 1207 160.2 1205 160 1203 160.2 1203 151.4 1185 182 M1207 170 Q1207 170.65 1206.65 171.15 L1206.4 171.4 Q1205.85 172 1205 172 1204.15 172 1203.55 171.4 L1203.35 171.15 Q1203 170.65 1203 170 1203 169.15 1203.55 168.55 1204.15 168 1205 168 1205.85 168 1206.4 168.55 1207 169.15 1207 170 M1205 140 L1233 186 1177 186 1205 140" fill="var(--svg-fill-color)" stroke="var(--svg-stroke-color)"/><path d="M947.4 358.6 Q941.15 352.35 932.75 351.25 L929 355 925.25 351.25 Q916.85 352.35 910.6 358.6 904.35 364.85 903.25 373.25 L907 377 903.25 380.75 Q904.35 389.15 910.6 395.4 916.85 401.65 925.25 402.75 L929 399 932.75 402.75 Q941.15 401.65 947.4 395.4 953.65 389.15 954.75 380.75 L951 377 954.75 373.25 Q953.65 364.85 947.4 358.6 M959 377 Q959 380.75 958.2 384.2 956.35 392.1 950.2 398.2 944.1 404.35 936.2 406.2 L929 407 Q925.25 407 921.8 406.2 913.9 404.35 907.75 398.2 901.65 392.1 899.8 384.2 899 380.75 899 377 899 373.25 899.8 369.8 901.65 361.9 907.75 355.75 913.9 349.65 921.8 347.8 925.25 347 929 347 L936.2 347.8 Q944.1 349.65 950.2 355.75 956.35 361.9 958.2 369.8 959 373.25 959 377" fill="var(--svg-fill-color)" stroke="var(--svg-stroke-color)"/><path d="M1091 239 Q1091 248.95 1083.95 255.95 1076.95 263 1067 263 1057.05 263 1050 255.95 1043 248.95 1043 239 1043 229.05 1050 222 1057.05 215 1067 215 1076.95 215 1083.95 222 1091 229.05 1091 239 M1067 259 Q1074.3 259 1079.65 254.5 L1051.5 226.35 Q1047 231.75 1047 239 1047 247.3 1052.85 253.15 1058.7 259 1067 259 M1081.15 224.85 Q1075.3 219 1067 219 1059.75 219 1054.35 223.5 L1082.5 251.65 Q1087 246.3 1087 239 1087 230.7 1081.15 224.85" fill="var(--svg-fill-color)" stroke="var(--svg-stroke-color)"/><path d="M1154.4 220.6 Q1162 228.2 1162 239 1162 249.75 1154.4 257.35 L1154.35 257.4 Q1146.75 265 1136 265 1125.2 265 1117.6 257.4 1110 249.8 1110 239 1110 228.25 1117.6 220.6 1125.25 213 1136 213 1146.8 213 1154.4 220.6 M1120.7 229.4 Q1118 233.65 1118 239 1118 246.45 1123.3 251.75 1128.55 257 1136 257 1141.4 257 1145.6 254.3 L1120.7 229.4 M1154 239 Q1154 231.55 1148.75 226.3 1143.45 221 1136 221 1130.65 221 1126.4 223.7 L1151.3 248.6 Q1154 244.4 1154 239" fill="var(--svg-fill-color)" stroke="var(--svg-stroke-color)"/><path d="M1235 239 Q1235 251.45 1226.2 260.2 1217.45 269 1205 269 1192.55 269 1183.75 260.2 1175 251.45 1175 239 1175 226.55 1183.75 217.75 1192.55 209 1205 209 1217.45 209 1226.2 217.75 1235 226.55 1235 239 M1205 265 Q1214.75 265 1221.95 258.8 L1185.25 222.1 Q1179 229.25 1179 239 1179 249.8 1186.6 257.4 1194.2 265 1205 265 M1223.4 220.6 Q1215.8 213 1205 213 1195.25 213 1188.1 219.25 L1224.8 255.95 Q1231 248.75 1231 239 1231 228.2 1223.4 220.6" fill="var(--svg-fill-color)" stroke="var(--svg-stroke-color)"/><path d="M694 600 L701.1 589 704.55 591.05 702 596 708 596 708 600 694 600 M722 554 L728.55 565 725.1 567.05 722 561.9 718.95 567.05 715.5 565 722 554 M724 584 Q724 584.65 723.65 585.15 L723.4 585.4 Q722.85 586 722 586 721.15 586 720.55 585.4 L720.35 585.15 Q720 584.65 720 584 720 583.15 720.55 582.55 721.15 582 722 582 722.85 582 723.4 582.55 724 583.15 724 584 M750 600 L736 600 736 596 742 596 739.5 591.05 742.95 589 750 600" fill="var(--svg-fill-color)" stroke="var(--svg-stroke-color)"/><path d="M732 659 L744 647 746 649 734 661 732 659 M724 653 Q724 653.85 723.4 654.4 722.85 655 722 655 721.15 655 720.55 654.4 720 653.85 720 653 720 652.15 720.55 651.55 721.15 651 722 651 722.85 651 723.4 651.55 724 652.15 724 653 M712 659 L710 661 698 649 700 647 712 659" fill="var(--svg-fill-color)" stroke="var(--svg-stroke-color)"/><path d="M759 645 L763 645 771 653 763 661 759 661 759 645 M823 645 L823 661 819 661 811 653 819 645 823 645" fill="var(--svg-fill-color)" stroke="var(--svg-stroke-color)"/><path d="M931 446 Q931 446.85 930.4 447.4 929.85 448 929 448 928.15 448 927.55 447.4 927 446.85 927 446 927 445.15 927.55 444.55 928.15 444 929 444 929.85 444 930.4 444.55 931 445.15 931 446" fill="var(--svg-fill-color)" stroke="var(--svg-stroke-color)"/><path d="M1066.9 369.05 Q1059.55 369.15 1052.3 377 1059.55 384.85 1066.9 385 1074.2 384.85 1081.7 377 1074.2 369.15 1066.9 369.05 M1069 376.9 Q1069 376.1 1068.4 375.5 1067.8 374.9 1067 374.9 1066.2 374.9 1065.6 375.45 L1065.55 375.5 Q1065 376.1 1065 376.9 1065 377.7 1065.6 378.3 1066.2 378.9 1067 378.9 1067.8 378.9 1068.35 378.35 L1068.45 378.25 Q1069 377.7 1069 376.9 M1071.2 381.15 Q1069.45 382.9 1067 382.9 1064.5 382.9 1062.75 381.15 1061 379.4 1061 376.9 1061 374.45 1062.7 372.7 L1062.75 372.65 1062.8 372.6 Q1064.55 370.9 1067 370.9 1069.5 370.9 1071.25 372.65 1073 374.4 1073 376.9 1073 379.35 1071.25 381.1 L1071.2 381.15 M1066.9 365.05 Q1076.3 364.95 1085.8 375.65 L1087 377 1085.8 378.35 Q1076.3 389.1 1066.9 389 1057.45 389.1 1048.2 378.35 L1047.05 377 1048.2 375.7 Q1057.45 364.95 1066.9 365.05" fill="var(--svg-fill-color)" stroke="var(--svg-stroke-color)"/><path d="M793 515 Q793 515.85 792.4 516.4 791.85 517 791 517 790.15 517 789.55 516.4 789 515.85 789 515 789 514.15 789.55 513.55 790.15 513 791 513 791.85 513 792.4 513.55 793 514.15 793 515" fill="var(--svg-fill-color)" stroke="var(--svg-stroke-color)"/><path d="M848 491 L848 539 844 539 844 531 840 531 840 527 844 527 844 519 836 519 836 515 844 515 844 507 832 507 832 503 844 503 844 495 828 495 828 491 848 491 M872 491 L892 491 892 495 876 495 876 503 888 503 888 507 876 507 876 515 884 515 884 519 876 519 876 527 880 527 880 531 876 531 876 539 872 539 872 491 M862 515 Q862 515.85 861.4 516.4 860.85 517 860 517 859.15 517 858.55 516.4 858 515.85 858 515 858 514.15 858.55 513.55 859.15 513 860 513 860.85 513 861.4 513.55 862 514.15 862 515 M859 499 L861 499 861 509 859 509 859 499 M859 521 L861 521 861 531 859 531 859 521" fill="var(--svg-fill-color)" stroke="var(--svg-stroke-color)"/></svg>