<svg xmlns="http://www.w3.org/2000/svg" xmlns:xlink="http://www.w3.org/1999/xlink" width="64" height="64" viewBox="760 621 62 64"><path d="M1014 584 Q1014 590.6 1009.3 595.3 1004.6 600 998 600 991.35 600 986.65 595.3 982 590.6 982 584 982 577.35 986.65 572.65 991.35 568 998 568 1004.6 568 1009.3 572.65 1014 577.35 1014 584 M1006.5 575.5 Q1002.95 572 998 572 993 572 989.5 575.5 986 579 986 584 986 588.95 989.5 592.5 993 596 998 596 1002.95 596 1006.5 592.5 1010 588.95 1010 584 1010 579 1006.5 575.5 M1006 584 Q1006 587.3 1003.65 589.65 1001.3 592 998 592 994.7 592 992.35 589.65 990 587.3 990 584 990 580.7 992.35 578.35 994.7 576 998 576 1001.3 576 1003.65 578.35 1006 580.7 1006 584 M1002.25 579.75 Q1000.5 578 998 578 995.5 578 993.75 579.75 992 581.5 992 584 992 586.5 993.75 588.25 995.5 590 998 590 1000.5 590 1002.25 588.25 1004 586.5 1004 584 1004 581.5 1002.25 579.75" fill="var(--svg-fill-color)" stroke="var(--svg-stroke-color)"/><path d="M862.85 581.2 Q861.65 580 860 580 858.35 580 857.2 581.2 856 582.35 856 584 856 585.65 857.2 586.85 858.35 588 860 588 861.65 588 862.85 586.85 864 585.65 864 584 864 582.35 862.85 581.2 M866 584 Q866 586.5 864.25 588.25 862.5 590 860 590 857.5 590 855.75 588.25 854 586.5 854 584 854 581.5 855.75 579.75 857.5 578 860 578 862.5 578 864.25 579.75 866 581.5 866 584" fill="var(--svg-fill-color)" stroke="var(--svg-stroke-color)"/><path d="M799.5 575.5 Q795.95 572 791 572 786 572 782.5 575.5 779 579 779 584 L803 584 Q803 579 799.5 575.5 M807 584 Q807 590.6 802.3 595.3 797.6 600 791 600 784.35 600 779.65 595.3 775 590.6 775 584 775 577.35 779.65 572.65 784.35 568 791 568 797.6 568 802.3 572.65 807 577.35 807 584" fill="var(--svg-fill-color)" stroke="var(--svg-stroke-color)"/><path d="M937.5 575.5 Q933.95 572 929 572 924 572 920.5 575.5 917 579 917 584 917 588.95 920.5 592.5 924 596 929 596 933.95 596 937.5 592.5 941 588.95 941 584 941 579 937.5 575.5 M945 584 Q945 590.6 940.3 595.3 935.6 600 929 600 922.35 600 917.65 595.3 913 590.6 913 584 913 577.35 917.65 572.65 922.35 568 929 568 935.6 568 940.3 572.65 945 577.35 945 584" fill="var(--svg-fill-color)" stroke="var(--svg-stroke-color)"/><path d="M1185 182 L1195.75 173.85 Q1196.45 175.55 1197.9 177 L1198.2 177.3 1192.15 182 1217.85 182 1211.75 177.25 1212 177 Q1213.5 175.55 1214.25 173.8 L1225 182 1207 151.4 1207 160.2 1205 160 1203 160.2 1203 151.4 1185 182 M1207 170 Q1207 170.65 1206.65 171.15 L1206.4 171.4 Q1205.85 172 1205 172 1204.15 172 1203.55 171.4 L1203.35 171.15 Q1203 170.65 1203 170 1203 169.15 1203.55 168.55 1204.15 168 1205 168 1205.85 168 1206.4 168.55 1207 169.15 1207 170 M1205 140 L1233 186 1177 186 1205 140" fill="var(--svg-fill-color)" stroke="var(--svg-stroke-color)"/><path d="M1266.9 162.9 L1266.85 162.95 Q1264 165.9 1264 170 L1264 170.05 Q1264 172.1 1264.7 173.85 1265.45 175.6 1266.9 177.1 L1267.15 177.35 Q1270 180 1274 180 1278 180 1280.85 177.3 L1281.05 177.1 1281.1 177.05 Q1282.55 175.6 1283.3 173.8 1284 172.05 1284 170 1284 165.85 1281.1 162.9 1278.9 160.7 1276 160.2 L1274.05 160 1274 160 1272 160.2 Q1269.15 160.7 1266.95 162.85 L1266.9 162.9 M1272 146 L1276 146 1276 156.15 Q1280.55 156.7 1283.9 160.05 1288 164.15 1288 170 1288 173.5 1286.5 176.4 L1294.9 183.1 1292 186 1284 179.8 1283.9 179.9 Q1279.8 184 1274 184 1268.15 184 1264.05 179.9 L1263.95 179.8 1256 186 1253.1 183.1 1261.5 176.4 Q1260 173.5 1260 170 1260 164.2 1264.05 160.1 L1264.1 160.05 Q1267.45 156.7 1272 156.15 L1272 146 M1276 170 Q1276 170.85 1275.4 171.4 1274.85 172 1274 172 1273.15 172 1272.55 171.4 1272 170.85 1272 170 1272 169.15 1272.55 168.55 1273.15 168 1274 168 1274.85 168 1275.4 168.55 1276 169.15 1276 170" fill="var(--svg-fill-color)" stroke="var(--svg-stroke-color)"/><path d="M1322.1 183.1 L1330.5 176.4 Q1331.4 178.2 1332.95 179.8 L1325 186 1322.1 183.1 M1343 156 L1341 156.15 1341 146 1345 146 1345 156.15 1343 156 M1345 170 Q1345 170.85 1344.4 171.4 1343.85 172 1343 172 1342.15 172 1341.55 171.4 1341 170.85 1341 170 1341 169.15 1341.55 168.55 1342.15 168 1343 168 1343.85 168 1344.4 168.55 1345 169.15 1345 170 M1361 186 L1353 179.8 Q1354.55 178.2 1355.5 176.4 L1363.9 183.1 1361 186" fill="var(--svg-fill-color)" stroke="var(--svg-stroke-color)"/><path d="M947.4 358.6 Q941.15 352.35 932.75 351.25 L929 355 925.25 351.25 Q916.85 352.35 910.6 358.6 904.35 364.85 903.25 373.25 L907 377 903.25 380.75 Q904.35 389.15 910.6 395.4 916.85 401.65 925.25 402.75 L929 399 932.75 402.75 Q941.15 401.65 947.4 395.4 953.65 389.15 954.75 380.75 L951 377 954.75 373.25 Q953.65 364.85 947.4 358.6 M959 377 Q959 380.75 958.2 384.2 956.35 392.1 950.2 398.2 944.1 404.35 936.2 406.2 L929 407 Q925.25 407 921.8 406.2 913.9 404.35 907.75 398.2 901.65 392.1 899.8 384.2 899 380.75 899 377 899 373.25 899.8 369.8 901.65 361.9 907.75 355.75 913.9 349.65 921.8 347.8 925.25 347 929 347 L936.2 347.8 Q944.1 349.65 950.2 355.75 956.35 361.9 958.2 369.8 959 373.25 959 377" fill="var(--svg-fill-color)" stroke="var(--svg-stroke-color)"/><path d="M1091 239 Q1091 248.95 1083.95 255.95 1076.95 263 1067 263 1057.05 263 1050 255.95 1043 248.95 1043 239 1043 229.05 1050 222 1057.05 215 1067 215 1076.95 215 1083.95 222 1091 229.05 1091 239 M1067 259 Q1074.3 259 1079.65 254.5 L1051.5 226.35 Q1047 231.75 1047 239 1047 247.3 1052.85 253.15 1058.7 259 1067 259 M1081.15 224.85 Q1075.3 219 1067 219 1059.75 219 1054.35 223.5 L1082.5 251.65 Q1087 246.3 1087 239 1087 230.7 1081.15 224.85" fill="var(--svg-fill-color)" stroke="var(--svg-stroke-color)"/><path d="M1154.4 220.6 Q1162 228.2 1162 239 1162 249.75 1154.4 257.35 L1154.35 257.4 Q1146.75 265 1136 265 1125.2 265 1117.6 257.4 1110 249.8 1110 239 1110 228.25 1117.6 220.6 1125.25 213 1136 213 1146.8 213 1154.4 220.6 M1120.7 229.4 Q1118 233.65 1118 239 1118 246.45 1123.3 251.75 1128.55 257 1136 257 1141.4 257 1145.6 254.3 L1120.7 229.4 M1154 239 Q1154 231.55 1148.75 226.3 1143.45 221 1136 221 1130.65 221 1126.4 223.7 L1151.3 248.6 Q1154 244.4 1154 239" fill="var(--svg-fill-color)" stroke="var(--svg-stroke-color)"/><path d="M1235 239 Q1235 251.45 1226.2 260.2 1217.45 269 1205 269 1192.55 269 1183.75 260.2 1175 251.45 1175 239 1175 226.55 1183.75 217.75 1192.55 209 1205 209 1217.45 209 1226.2 217.75 1235 226.55 1235 239 M1205 265 Q1214.75 265 1221.95 258.8 L1185.25 222.1 Q1179 229.25 1179 239 1179 249.8 1186.6 257.4 1194.2 265 1205 265 M1223.4 220.6 Q1215.8 213 1205 213 1195.25 213 1188.1 219.25 L1224.8 255.95 Q1231 248.75 1231 239 1231 228.2 1223.4 220.6" fill="var(--svg-fill-color)" stroke="var(--svg-stroke-color)"/><path d="M1255.6 220.6 Q1253.1 223.1 1251.4 226 1249.7 228.9 1248.85 232.25 L1244.95 231.15 Q1245.95 227.35 1247.9 224 1249.85 220.65 1252.75 217.75 1255.65 214.85 1259 212.9 1262.4 210.9 1266.2 209.9 L1267.3 213.8 Q1263.95 214.65 1261 216.4 1258.15 218.05 1255.6 220.6 M1292.4 220.6 Q1289.9 218.1 1287.15 216.4 1284.1 214.6 1280.8 213.8 L1281.8 209.9 Q1285.65 210.85 1289.1 213 1292.35 214.85 1295.25 217.75 1298.15 220.65 1300.05 223.95 1302.05 227.35 1303.05 231.25 L1299.2 232.3 Q1298.3 228.9 1296.55 225.95 1294.9 223.1 1292.4 220.6 M1292.35 257.35 Q1294.9 254.8 1296.55 252.05 1298.35 249.05 1299.2 245.7 L1303.05 246.75 Q1302.05 250.55 1300 254 1298.1 257.3 1295.2 260.2 1292.3 263.1 1289.05 264.95 1285.6 267 1281.8 268 L1280.8 264.1 Q1284.1 263.3 1287.05 261.55 1289.85 259.85 1292.35 257.35 M1272 242 L1271.7 242.7 1271 243 Q1270.6 243 1270.3 242.7 1270 242.4 1270 242 1270 241.6 1270.3 241.3 1270.6 241 1271 241 1271.4 241 1271.7 241.3 L1272 242 M1272 236 L1271.7 236.7 1271 237 Q1270.6 237 1270.3 236.7 1270 236.4 1270 236 1270 235.6 1270.3 235.3 1270.6 235 1271 235 1271.4 235 1271.7 235.3 L1272 236 M1278 236 L1277.7 236.7 1277 237 Q1276.6 237 1276.3 236.7 1276 236.4 1276 236 1276 235.6 1276.3 235.3 1276.6 235 1277 235 L1277.7 235.3 1278 236 M1278 242 L1277.7 242.7 1277 243 Q1276.6 243 1276.3 242.7 1276 242.4 1276 242 1276 241.6 1276.3 241.3 1276.6 241 1277 241 L1277.7 241.3 1278 242 M1255.65 257.35 Q1258.15 259.85 1261 261.6 1263.95 263.25 1267.25 264.15 L1266.2 268 Q1262.4 267 1259.05 265.05 1255.7 263.1 1252.8 260.2 1249.9 257.3 1248 254 1245.95 250.55 1244.9 246.8 L1248.8 245.8 Q1249.65 249.05 1251.45 252.05 1253.1 254.8 1255.65 257.35" fill="var(--svg-fill-color)" stroke="var(--svg-stroke-color)"/><path d="M759 645 L763 645 771 653 763 661 759 661 759 645 M823 645 L823 661 819 661 811 653 819 645 823 645" fill="var(--svg-fill-color)" stroke="var(--svg-stroke-color)"/><path d="M931 446 Q931 446.85 930.4 447.4 929.85 448 929 448 928.15 448 927.55 447.4 927 446.85 927 446 927 445.15 927.55 444.55 928.15 444 929 444 929.85 444 930.4 444.55 931 445.15 931 446" fill="var(--svg-fill-color)" stroke="var(--svg-stroke-color)"/><path d="M1066.9 369.05 Q1059.55 369.15 1052.3 377 1059.55 384.85 1066.9 385 1074.2 384.85 1081.7 377 1074.2 369.15 1066.9 369.05 M1069 376.9 Q1069 376.1 1068.4 375.5 1067.8 374.9 1067 374.9 1066.2 374.9 1065.6 375.45 L1065.55 375.5 Q1065 376.1 1065 376.9 1065 377.7 1065.6 378.3 1066.2 378.9 1067 378.9 1067.8 378.9 1068.35 378.35 L1068.45 378.25 Q1069 377.7 1069 376.9 M1071.2 381.15 Q1069.45 382.9 1067 382.9 1064.5 382.9 1062.75 381.15 1061 379.4 1061 376.9 1061 374.45 1062.7 372.7 L1062.75 372.65 1062.8 372.6 Q1064.55 370.9 1067 370.9 1069.5 370.9 1071.25 372.65 1073 374.4 1073 376.9 1073 379.35 1071.25 381.1 L1071.2 381.15 M1066.9 365.05 Q1076.3 364.95 1085.8 375.65 L1087 377 1085.8 378.35 Q1076.3 389.1 1066.9 389 1057.45 389.1 1048.2 378.35 L1047.05 377 1048.2 375.7 Q1057.45 364.95 1066.9 365.05" fill="var(--svg-fill-color)" stroke="var(--svg-stroke-color)"/><path d="M1135.9 365.05 Q1145.3 364.95 1154.8 375.65 L1156 377 1154.8 378.35 Q1145.3 389.1 1135.9 389 1126.45 389.1 1117.2 378.35 L1116.05 377 1117.2 375.7 Q1126.45 364.95 1135.9 365.05 M1138 377 Q1138 377.85 1137.4 378.4 1136.85 379 1136 379 1135.15 379 1134.55 378.4 1134 377.85 1134 377 1134 376.15 1134.55 375.55 1135.15 375 1136 375 1136.85 375 1137.4 375.55 1138 376.15 1138 377 M1135.9 369.05 Q1128.55 369.15 1121.3 377 1128.55 384.85 1135.9 385 1143.2 384.85 1150.7 377 1143.2 369.15 1135.9 369.05" fill="var(--svg-fill-color)" stroke="var(--svg-stroke-color)"/><path d="M1138 446 Q1138 446.85 1137.4 447.4 1136.85 448 1136 448 1135.15 448 1134.55 447.4 1134 446.85 1134 446 1134 445.15 1134.55 444.55 1135.15 444 1136 444 1136.85 444 1137.4 444.55 1138 445.15 1138 446 M1142 446 L1162 438 1164 442 1154 446 1164 450 1162 454 1142 446 M1130 446 L1110 454 1108 450 1118 446 1108 442 1110 438 1130 446" fill="var(--svg-fill-color)" stroke="var(--svg-stroke-color)"/><path d="M793 515 Q793 515.85 792.4 516.4 791.85 517 791 517 790.15 517 789.55 516.4 789 515.85 789 515 789 514.15 789.55 513.55 790.15 513 791 513 791.85 513 792.4 513.55 793 514.15 793 515" fill="var(--svg-fill-color)" stroke="var(--svg-stroke-color)"/><path d="M848 491 L848 539 844 539 844 531 840 531 840 527 844 527 844 519 836 519 836 515 844 515 844 507 832 507 832 503 844 503 844 495 828 495 828 491 848 491 M872 491 L892 491 892 495 876 495 876 503 888 503 888 507 876 507 876 515 884 515 884 519 876 519 876 527 880 527 880 531 876 531 876 539 872 539 872 491 M862 515 Q862 515.85 861.4 516.4 860.85 517 860 517 859.15 517 858.55 516.4 858 515.85 858 515 858 514.15 858.55 513.55 859.15 513 860 513 860.85 513 861.4 513.55 862 514.15 862 515 M859 499 L861 499 861 509 859 509 859 499 M859 521 L861 521 861 531 859 531 859 521" fill="var(--svg-fill-color)" stroke="var(--svg-stroke-color)"/><path d="M1069 515 Q1069 515.85 1068.4 516.4 1067.85 517 1067 517 1066.15 517 1065.55 516.4 1065 515.85 1065 515 1065 514.15 1065.55 513.55 1066.15 513 1067 513 1067.85 513 1068.4 513.55 1069 514.15 1069 515" fill="var(--svg-fill-color)" stroke="var(--svg-stroke-color)"/></svg>