<svg xmlns="http://www.w3.org/2000/svg" xmlns:xlink="http://www.w3.org/1999/xlink" width="64" height="64" viewBox="484 621 62 64"><path d="M454 653 Q454 656.3 451.65 658.65 449.3 661 446 661 442.65 661 440.3 658.65 438 656.3 438 653 438 649.65 440.3 647.3 442.6 645.05 445.8 645 L446.2 645 Q449.35 645.05 451.65 647.3 454 649.65 454 653 M448 653 Q448 653.85 447.4 654.4 446.85 655 446 655 445.15 655 444.55 654.4 444 653.85 444 653 444 652.15 444.55 651.55 445.15 651 446 651 446.85 651 447.4 651.55 448 652.15 448 653 M450.25 648.75 Q448.5 647 446 647 443.5 647 441.75 648.7 L441.7 648.75 Q440 650.5 440 653 440 655.5 441.75 657.25 443.5 659 446 659 448.45 659 450.25 657.25 452 655.45 452 653 452 650.5 450.25 648.75 M414 653 L424 643 426 645 418 653 426 661 424 663 414 653 M478 653 L468 663 466 661 474 653 466 645 468 643 478 653" fill="var(--svg-fill-color)" stroke="var(--svg-stroke-color)"/><path d="M513 651 L517 651 517 655 513 655 513 651 M539 647 L539 659 534 664 531 661 535 657 535 649 531 645 534 642 539 647 M491 647 L496 642 499 645 495 649 495 657 499 661 496 664 491 659 491 647" fill="var(--svg-fill-color)" stroke="var(--svg-stroke-color)"/><path d="M616 653 L604 665 598 665 598 661 602 661 610 653 602 645 598 645 598 641 604 641 616 653 M588 655 Q587.15 655 586.6 654.4 586 653.85 586 653 586 652.15 586.6 651.55 587.15 651 588 651 588.85 651 589.45 651.55 590 652.15 590 653 590 653.85 589.45 654.4 588.85 655 588 655 M580 655 Q579.15 655 578.6 654.4 578 653.85 578 653 578 652.15 578.6 651.55 579.15 651 580 651 580.85 651 581.45 651.55 582 652.15 582 653 582 653.85 581.45 654.4 580.85 655 580 655 M552 653 L564 641 570 641 570 645 566 645 558 653 566 661 570 661 570 665 564 665 552 653" fill="var(--svg-fill-color)" stroke="var(--svg-stroke-color)"/></svg>