<svg xmlns="http://www.w3.org/2000/svg" xmlns:xlink="http://www.w3.org/1999/xlink" width="64" height="64" viewBox="553 621 62 64"><path d="M669 669 L669 665 Q674 665 677.5 661.5 681 658 681 653 681 648.05 677.5 644.55 674 641 669 641 L669 637 Q675.65 637 680.35 641.7 685 646.4 685 653 685 659.65 680.35 664.3 675.65 669 669 669 M655 653 Q655 653.85 654.45 654.45 653.85 655 653 655 652.15 655 651.6 654.45 651 653.85 651 653 651 652.15 651.6 651.6 652.15 651 653 651 653.85 651 654.45 651.6 655 652.15 655 653 M637 669 Q630.35 669 625.65 664.3 621 659.65 621 653 621 646.4 625.65 641.7 630.35 637 637 637 L637 641 Q632 641 628.5 644.55 625 648.05 625 653 625 658 628.5 661.5 632 665 637 665 L637 669" fill="var(--svg-fill-color)" stroke="var(--svg-stroke-color)"/><path d="M616 653 L604 665 598 665 598 661 602 661 610 653 602 645 598 645 598 641 604 641 616 653 M588 655 Q587.15 655 586.6 654.4 586 653.85 586 653 586 652.15 586.6 651.55 587.15 651 588 651 588.85 651 589.45 651.55 590 652.15 590 653 590 653.85 589.45 654.4 588.85 655 588 655 M580 655 Q579.15 655 578.6 654.4 578 653.85 578 653 578 652.15 578.6 651.55 579.15 651 580 651 580.85 651 581.45 651.55 582 652.15 582 653 582 653.85 581.45 654.4 580.85 655 580 655 M552 653 L564 641 570 641 570 645 566 645 558 653 566 661 570 661 570 665 564 665 552 653" fill="var(--svg-fill-color)" stroke="var(--svg-stroke-color)"/><path d="M669 584 Q669 588.3 667 591.8 L667 596 663.55 596 Q659.1 600 653 600 646.85 600 642.4 596 L639 596 639 591.85 Q637 588.35 637 584 637 579.65 639 576.15 L639 572 642.35 572 Q646.85 568 653 568 659.1 568 663.6 572 L667 572 667 576.15 Q669 579.65 669 584 M661.5 575.5 Q658.05 572.1 653.3 572 L652.7 572 Q647.9 572.1 644.5 575.5 641 579 641 584 641 588.95 644.5 592.5 647.9 595.9 652.7 596 L653.3 596 Q658.05 595.9 661.5 592.5 665 588.95 665 584 665 579 661.5 575.5 M655 584 Q655 584.85 654.4 585.4 653.85 586 653 586 652.15 586 651.55 585.4 651 584.85 651 584 651 583.15 651.55 582.55 652.15 582 653 582 653.85 582 654.4 582.55 655 583.15 655 584" fill="var(--svg-fill-color)" stroke="var(--svg-stroke-color)"/></svg>