<svg xmlns="http://www.w3.org/2000/svg" xmlns:xlink="http://www.w3.org/1999/xlink" width="64" height="64" viewBox="277 0 62 64"><path d="M476 32 Q476 44.45 467.2 53.2 458.45 62 446 62 433.55 62 424.75 53.2 416 44.45 416 32 416 19.55 424.75 10.75 433.55 2 446 2 458.45 2 467.2 10.75 476 19.55 476 32 M464.4 13.6 Q456.8 6 446 6 435.2 6 427.6 13.6 420 21.2 420 32 420 42.8 427.6 50.4 435.2 58 446 58 456.8 58 464.4 50.4 472 42.8 472 32 472 21.2 464.4 13.6" fill="var(--svg-fill-color)" stroke="var(--svg-stroke-color)"/><path d="M602.4 13.6 Q594.8 6 584 6 573.2 6 565.6 13.6 558 21.2 558 32 558 42.8 565.6 50.4 573.2 58 584 58 594.8 58 602.4 50.4 610 42.8 610 32 610 21.2 602.4 13.6 M614 32 Q614 44.45 605.2 53.2 596.45 62 584 62 571.55 62 562.75 53.2 554 44.45 554 32 554 19.55 562.75 10.75 571.55 2 584 2 596.45 2 605.2 10.75 614 19.55 614 32" fill="var(--svg-fill-color)" stroke="var(--svg-stroke-color)"/><path d="M533.4 13.6 Q525.8 6 515 6 504.2 6 496.6 13.6 489 21.2 489 32 489 42.8 496.6 50.4 504.2 58 515 58 525.8 58 533.4 50.4 541 42.8 541 32 541 21.2 533.4 13.6 M545 32 Q545 44.45 536.2 53.2 527.45 62 515 62 502.55 62 493.75 53.2 485 44.45 485 32 485 19.55 493.75 10.75 502.55 2 515 2 527.45 2 536.2 10.75 545 19.55 545 32" fill="var(--svg-fill-color)" stroke="var(--svg-stroke-color)"/><path d="M527.7 19.25 Q533 24.55 533 32 533 39.4 527.7 44.7 522.4 50 515 50 507.55 50 502.25 44.7 497 39.45 497 32 497 24.55 502.25 19.3 L502.3 19.25 Q507.55 14 515 14 522.45 14 527.7 19.25 M505.1 22.1 Q501 26.2 501 32 501 37.8 505.1 41.9 509.2 46 515 46 520.75 46 524.85 41.9 L524.9 41.85 Q529 37.75 529 32 529 26.2 524.9 22.1 520.8 18 515 18 509.2 18 505.1 22.1" fill="var(--svg-fill-color)" stroke="var(--svg-stroke-color)"/><path d="M340 103 L332 103 332 99 340 99 340 103 M310 69 L310 77 306 77 306 69 310 69 M284 103 L276 103 276 99 284 99 284 103 M310 125 L310 133 306 133 306 125 310 125" fill="var(--svg-fill-color)" stroke="var(--svg-stroke-color)"/><path d="M302 28.4 L304.4 26 308 29.6 311.6 26 314 28.4 310.4 32 314 35.6 311.6 38 308 34.4 304.4 38 302 35.6 305.6 32 302 28.4" fill="var(--svg-fill-color)" stroke="var(--svg-stroke-color)"/></svg>