<svg xmlns="http://www.w3.org/2000/svg" xmlns:xlink="http://www.w3.org/1999/xlink" width="64" height="64" viewBox="415 0 62 64"><path d="M448 0 L448 16 444 16 444 0 448 0 M462 30 L478 30 478 34 462 34 462 30 M414 30 L430 30 430 34 414 34 414 30 M448 48 L448 64 444 64 444 48 448 48" fill="var(--svg-fill-color)" stroke="var(--svg-stroke-color)"/><path d="M476 32 Q476 44.45 467.2 53.2 458.45 62 446 62 433.55 62 424.75 53.2 416 44.45 416 32 416 19.55 424.75 10.75 433.55 2 446 2 458.45 2 467.2 10.75 476 19.55 476 32 M464.4 13.6 Q456.8 6 446 6 435.2 6 427.6 13.6 420 21.2 420 32 420 42.8 427.6 50.4 435.2 58 446 58 456.8 58 464.4 50.4 472 42.8 472 32 472 21.2 464.4 13.6" fill="var(--svg-fill-color)" stroke="var(--svg-stroke-color)"/><path d="M448 69 L448 97 444 97 444 69 448 69 M448 105 L448 133 444 133 444 105 448 105 M450 99 L478 99 478 103 450 103 450 99 M414 99 L442 99 442 103 414 103 414 99" fill="var(--svg-fill-color)" stroke="var(--svg-stroke-color)"/><path d="M602.4 13.6 Q594.8 6 584 6 573.2 6 565.6 13.6 558 21.2 558 32 558 42.8 565.6 50.4 573.2 58 584 58 594.8 58 602.4 50.4 610 42.8 610 32 610 21.2 602.4 13.6 M614 32 Q614 44.45 605.2 53.2 596.45 62 584 62 571.55 62 562.75 53.2 554 44.45 554 32 554 19.55 562.75 10.75 571.55 2 584 2 596.45 2 605.2 10.75 614 19.55 614 32" fill="var(--svg-fill-color)" stroke="var(--svg-stroke-color)"/><path d="M662.9 22.05 Q667 26.15 667 32 667 37.8 662.9 41.9 658.8 46 653 46 647.15 46 643.05 41.9 639 37.8 639 32 639 26.2 643.05 22.1 L643.1 22.05 Q647.2 18 653 18 658.8 18 662.9 22.05 M645.9 24.9 L645.85 24.95 Q643 27.9 643 32 L643 32.05 Q643 36.15 645.9 39.1 648.85 42 653 42 657.15 42 660.05 39.1 L660.1 39.05 Q663 36.15 663 32 663 27.85 660.1 24.9 657.15 22 653.05 22 L653 22 Q648.9 22 645.95 24.85 L645.9 24.9 M683 32 Q683 44.45 674.2 53.2 665.45 62 653 62 640.55 62 631.75 53.2 623 44.45 623 32 623 19.55 631.75 10.75 640.55 2 653 2 665.45 2 674.2 10.75 683 19.55 683 32 M671.4 13.6 Q663.8 6 653 6 642.2 6 634.6 13.6 627 21.2 627 32 627 42.8 634.6 50.4 642.2 58 653 58 663.8 58 671.4 50.4 679 42.8 679 32 679 21.2 671.4 13.6" fill="var(--svg-fill-color)" stroke="var(--svg-stroke-color)"/><path d="M703.6 50.4 Q709 55.8 716 57.35 L720 57.95 720 64 716 64 716 61.45 Q707.35 59.8 700.75 53.2 694.2 46.65 692.55 38 L690 38 690 34 696.1 34 Q696.2 36.05 696.65 38 698.2 45 703.6 50.4 M703.6 13.6 Q698.2 19 696.65 26 696.2 27.95 696.1 30 L690 30 690 26 692.55 26 Q694.2 17.35 700.75 10.75 707.35 4.2 716 2.55 L716 0 720 0 720 6.1 716 6.65 Q709 8.2 703.6 13.6 M740.4 13.6 Q735 8.2 728 6.65 L724 6.1 724 0 728 0 728 2.55 Q736.65 4.2 743.2 10.75 749.8 17.35 751.45 26 L754 26 754 30 747.95 30 747.35 26 Q745.8 19 740.4 13.6 M740.4 50.4 Q745.85 44.95 747.4 37.9 L747.95 34 754 34 754 37.9 751.5 37.9 Q749.85 46.6 743.2 53.2 736.65 59.8 728 61.45 L728 64 724 64 724 57.95 728 57.35 Q735 55.8 740.4 50.4" fill="var(--svg-fill-color)" stroke="var(--svg-stroke-color)"/><path d="M533.4 13.6 Q525.8 6 515 6 504.2 6 496.6 13.6 489 21.2 489 32 489 42.8 496.6 50.4 504.2 58 515 58 525.8 58 533.4 50.4 541 42.8 541 32 541 21.2 533.4 13.6 M545 32 Q545 44.45 536.2 53.2 527.45 62 515 62 502.55 62 493.75 53.2 485 44.45 485 32 485 19.55 493.75 10.75 502.55 2 515 2 527.45 2 536.2 10.75 545 19.55 545 32" fill="var(--svg-fill-color)" stroke="var(--svg-stroke-color)"/><path d="M527.7 19.25 Q533 24.55 533 32 533 39.4 527.7 44.7 522.4 50 515 50 507.55 50 502.25 44.7 497 39.45 497 32 497 24.55 502.25 19.3 L502.3 19.25 Q507.55 14 515 14 522.45 14 527.7 19.25 M505.1 22.1 Q501 26.2 501 32 501 37.8 505.1 41.9 509.2 46 515 46 520.75 46 524.85 41.9 L524.9 41.85 Q529 37.75 529 32 529 26.2 524.9 22.1 520.8 18 515 18 509.2 18 505.1 22.1" fill="var(--svg-fill-color)" stroke="var(--svg-stroke-color)"/><path d="M523 30 L547 30 547 34 523 34 523 30 M517 0 L517 24 513 24 513 0 517 0 M517 40 L517 64 513 64 513 40 517 40 M483 30 L507 30 507 34 483 34 483 30" fill="var(--svg-fill-color)" stroke="var(--svg-stroke-color)"/><path d="M772.6 50.4 Q775.1 52.9 778 54.6 L776 58.05 Q772.65 56.1 769.75 53.2 766.9 50.35 764.95 47.05 761 40.35 761 32 761 23.65 764.95 16.95 766.85 13.65 769.75 10.75 772.65 7.85 775.95 5.95 L777.95 9.45 Q775.1 11.1 772.6 13.6 770.1 16.1 768.45 19 765 24.75 765 32 765 39.25 768.45 45.05 770.1 47.9 772.6 50.4 M809.4 13.6 Q806.9 11.1 804.05 9.45 L806.05 5.95 Q809.3 7.85 812.2 10.75 815.1 13.65 817.05 17 821 23.65 821 32 821 40.35 817.05 47.05 815.1 50.3 812.2 53.2 809.3 56.1 806.05 58.05 L804.05 54.6 Q806.9 52.9 809.4 50.4 811.9 47.9 813.6 45.05 817 39.25 817 32 817 24.75 813.6 19 811.9 16.1 809.4 13.6 M793 32 Q793 32.8 792.35 33.35 791.8 34 791 34 790.2 34 789.55 33.35 789 32.8 789 32 789 31.2 789.55 30.55 790.2 30 791 30 791.8 30 792.35 30.55 793 31.2 793 32" fill="var(--svg-fill-color)" stroke="var(--svg-stroke-color)"/><path d="M841.6 13.6 Q837.8 17.4 835.9 22 835.1 23.95 834.65 26 L828 26 828 22 831.6 22 Q833.75 15.8 838.75 10.75 843.8 5.75 850 3.6 L850 0 854 0 854 6.65 Q851.95 7.1 850 7.9 845.4 9.8 841.6 13.6" fill="var(--svg-fill-color)" stroke="var(--svg-stroke-color)"/><path d="M841.6 50.4 Q845.4 54.2 850 56.1 851.95 56.9 854 57.35 L854 64 850 64 850 60.4 Q843.8 58.25 838.75 53.25 833.75 48.2 831.6 42 L828 42 828 38 834.65 38 Q835.1 40.05 835.9 42 837.8 46.6 841.6 50.4" fill="var(--svg-fill-color)" stroke="var(--svg-stroke-color)"/></svg>