<svg xmlns="http://www.w3.org/2000/svg" xmlns:xlink="http://www.w3.org/1999/xlink" width="64" height="64" viewBox="70 69 62 64"><path d="M16 170 L22 164 24 166 20 170 24 174 22 176 16 170 M34 170 Q34 170.85 33.4 171.4 32.85 172 32 172 31.15 172 30.55 171.4 30 170.85 30 170 30 169.15 30.55 168.55 31.15 168 32 168 32.85 168 33.4 168.55 34 169.15 34 170 M48 170 L42 176 40 174 44 170 40 166 42 164 48 170" fill="var(--svg-fill-color)" stroke="var(--svg-stroke-color)"/><path d="M172 69 L172 85 168 85 168 69 172 69 M172 117 L172 133 168 133 168 117 172 117 M186 99 L202 99 202 103 186 103 186 99 M138 99 L154 99 154 103 138 103 138 99" fill="var(--svg-fill-color)" stroke="var(--svg-stroke-color)"/><path d="M103 101 Q103 101.85 102.4 102.4 101.85 103 101 103 100.15 103 99.55 102.4 99 101.85 99 101 99 100.15 99.55 99.55 100.15 99 101 99 101.85 99 102.4 99.55 103 100.15 103 101" fill="var(--svg-fill-color)" stroke="var(--svg-stroke-color)"/><path d="M103 91 Q103 91.85 102.4 92.4 101.85 93 101 93 100.15 93 99.55 92.4 99 91.85 99 91 99 90.15 99.55 89.55 100.15 89 101 89 101.85 89 102.4 89.55 103 90.15 103 91" fill="var(--svg-fill-color)" stroke="var(--svg-stroke-color)"/><path d="M93 101 Q93 101.85 92.4 102.4 91.85 103 91 103 90.15 103 89.55 102.4 89 101.85 89 101 89 100.15 89.55 99.55 90.15 99 91 99 91.85 99 92.4 99.55 93 100.15 93 101" fill="var(--svg-fill-color)" stroke="var(--svg-stroke-color)"/><path d="M113 101 Q113 101.85 112.4 102.4 111.85 103 111 103 110.15 103 109.55 102.4 109 101.85 109 101 109 100.15 109.55 99.55 110.15 99 111 99 111.85 99 112.4 99.55 113 100.15 113 101" fill="var(--svg-fill-color)" stroke="var(--svg-stroke-color)"/><path d="M103 111 Q103 111.85 102.4 112.4 101.85 113 101 113 100.15 113 99.55 112.4 99 111.85 99 111 99 110.15 99.55 109.55 100.15 109 101 109 101.85 109 102.4 109.55 103 110.15 103 111" fill="var(--svg-fill-color)" stroke="var(--svg-stroke-color)"/></svg>