<svg xmlns="http://www.w3.org/2000/svg" xmlns:xlink="http://www.w3.org/1999/xlink" width="64" height="64" viewBox="760 69 62 64"><path d="M772.6 50.4 Q775.1 52.9 778 54.6 L776 58.05 Q772.65 56.1 769.75 53.2 766.9 50.35 764.95 47.05 761 40.35 761 32 761 23.65 764.95 16.95 766.85 13.65 769.75 10.75 772.65 7.85 775.95 5.95 L777.95 9.45 Q775.1 11.1 772.6 13.6 770.1 16.1 768.45 19 765 24.75 765 32 765 39.25 768.45 45.05 770.1 47.9 772.6 50.4 M809.4 13.6 Q806.9 11.1 804.05 9.45 L806.05 5.95 Q809.3 7.85 812.2 10.75 815.1 13.65 817.05 17 821 23.65 821 32 821 40.35 817.05 47.05 815.1 50.3 812.2 53.2 809.3 56.1 806.05 58.05 L804.05 54.6 Q806.9 52.9 809.4 50.4 811.9 47.9 813.6 45.05 817 39.25 817 32 817 24.75 813.6 19 811.9 16.1 809.4 13.6 M793 32 Q793 32.8 792.35 33.35 791.8 34 791 34 790.2 34 789.55 33.35 789 32.8 789 32 789 31.2 789.55 30.55 790.2 30 791 30 791.8 30 792.35 30.55 793 31.2 793 32" fill="var(--svg-fill-color)" stroke="var(--svg-stroke-color)"/><path d="M772.6 82.6 Q766.45 88.75 765.3 97 L761.25 97 Q762.45 87.1 769.75 79.75 777.1 72.45 787 71.25 L787 75.3 Q778.75 76.45 772.6 82.6 M809.4 119.4 Q815.55 113.25 816.75 105 L820.75 105 Q819.55 114.9 812.2 122.2 804.9 129.55 795 130.75 L795 126.75 Q803.25 125.55 809.4 119.4 M809.4 82.6 Q803.25 76.45 795 75.3 L795 71.25 Q804.9 72.45 812.2 79.75 819.55 87.1 820.75 97 L816.75 97 Q815.55 88.75 809.4 82.6 M785 95 L789 95 789 99 785 99 785 95 M793 95 L797 95 797 99 793 99 793 95 M793 103 L797 103 797 107 793 107 793 103 M785 103 L789 103 789 107 785 107 785 103 M772.6 119.4 Q778.75 125.55 787 126.75 L787 130.75 Q777.1 129.55 769.75 122.2 762.45 114.9 761.25 105 L765.3 105 Q766.45 113.25 772.6 119.4" fill="var(--svg-fill-color)" stroke="var(--svg-stroke-color)"/><path d="M841.6 13.6 Q837.8 17.4 835.9 22 835.1 23.95 834.65 26 L828 26 828 22 831.6 22 Q833.75 15.8 838.75 10.75 843.8 5.75 850 3.6 L850 0 854 0 854 6.65 Q851.95 7.1 850 7.9 845.4 9.8 841.6 13.6" fill="var(--svg-fill-color)" stroke="var(--svg-stroke-color)"/><path d="M878.4 13.6 Q874.6 9.8 870 7.9 868.05 7.1 866 6.65 L866 0 870 0 870 3.6 Q876.2 5.75 881.25 10.75 886.25 15.8 888.4 22 L892 22 892 26 885.35 26 Q884.9 23.95 884.1 22 882.2 17.4 878.4 13.6" fill="var(--svg-fill-color)" stroke="var(--svg-stroke-color)"/><path d="M841.6 50.4 Q845.4 54.2 850 56.1 851.95 56.9 854 57.35 L854 64 850 64 850 60.4 Q843.8 58.25 838.75 53.25 833.75 48.2 831.6 42 L828 42 828 38 834.65 38 Q835.1 40.05 835.9 42 837.8 46.6 841.6 50.4" fill="var(--svg-fill-color)" stroke="var(--svg-stroke-color)"/><path d="M878.4 50.4 Q882.2 46.6 884.1 42 L885.35 38 892 38 892 42 888.4 42 Q886.25 48.2 881.25 53.25 876.2 58.25 870 60.4 L870 64 866 64 866 57.35 Q868.05 56.9 870 56.1 874.6 54.2 878.4 50.4" fill="var(--svg-fill-color)" stroke="var(--svg-stroke-color)"/><path d="M860 127 Q867.25 127 873.05 123.6 L875.05 127.05 Q868.35 131 860 131 851.7 131 845 127.1 L847 123.6 Q852.8 127 860 127 M886 101 Q886 93.75 882.6 88 L886.05 86 Q890 92.65 890 101 890 109.4 886 116.1 L882.55 114.1 Q886 108.25 886 101 M834 101 Q834 108.3 837.45 114.1 L834 116.1 Q830 109.4 830 101 830 92.65 833.95 86 L837.4 88 Q834 93.8 834 101 M860 75 Q852.75 75 846.95 78.45 L844.95 74.95 Q851.65 71 860 71 868.35 71 875.05 74.95 L873.05 78.45 Q867.25 75 860 75" fill="var(--svg-fill-color)" stroke="var(--svg-stroke-color)"/><path d="M860 93 Q856.7 93 854.35 95.3 L854.3 95.35 Q852 97.7 852 101 852 104.3 854.35 106.65 856.7 109 860 109 863.3 109 865.6 106.65 L865.65 106.6 Q868 104.3 868 101 868 97.7 865.65 95.35 863.3 93 860 93 M872 101 Q872 105.95 868.45 109.45 864.95 113 860 113 855.05 113 851.5 109.45 848 105.95 848 101 848 96.05 851.5 92.5 855.05 89 860 89 864.95 89 868.45 92.5 872 96.05 872 101" fill="var(--svg-fill-color)" stroke="var(--svg-stroke-color)"/><path d="M998 58 L998 62 Q985.55 62 976.75 53.2 968 44.45 968 32 L972 32 Q972 42.8 979.6 50.4 987.2 58 998 58 M1016.4 13.6 Q1008.8 6 998 6 L998 2 Q1010.45 2 1019.2 10.75 1028 19.55 1028 32 L1024 32 Q1024 21.2 1016.4 13.6" fill="var(--svg-fill-color)" stroke="var(--svg-stroke-color)"/><path d="M862 142 L862 148 858 148 858 142 854 142 854 138 866 138 866 142 862 142 M832 172 L832 176 828 176 828 164 832 164 832 168 838 168 838 172 832 172 M888 172 L882 172 882 168 888 168 888 164 892 164 892 176 888 176 888 172 M862 198 L866 198 866 202 854 202 854 198 858 198 858 192 862 192 862 198" fill="var(--svg-fill-color)" stroke="var(--svg-stroke-color)"/><path d="M948.8 12.2 Q940.6 4 929 4 917.4 4 909.2 12.15 L909.15 12.2 Q901 20.4 901 32 901 43.6 909.2 51.8 917.4 60 929 60 940.6 60 948.8 51.8 957 43.6 957 32 957 20.4 948.8 12.2 M959 32 Q959 44.45 950.2 53.2 941.45 62 929 62 916.55 62 907.75 53.2 899 44.45 899 32 899 19.55 907.75 10.75 916.55 2 929 2 941.45 2 950.2 10.75 959 19.55 959 32" fill="var(--svg-fill-color)" stroke="var(--svg-stroke-color)"/><path d="M938.9 22.1 Q934.8 18 929 18 923.2 18 919.1 22.05 L919.05 22.1 Q915 26.2 915 32 915 37.8 919.1 41.9 923.2 46 929 46 934.8 46 938.9 41.9 943 37.8 943 32 943 26.2 938.9 22.1 M945 32 Q945 38.65 940.3 43.3 935.65 48 929 48 922.35 48 917.65 43.3 913 38.65 913 32 913 25.35 917.65 20.65 922.35 16 929 16 935.65 16 940.3 20.65 945 25.35 945 32" fill="var(--svg-fill-color)" stroke="var(--svg-stroke-color)"/><path d="M907.75 79.75 Q915.85 71.7 927 71.05 L929 71 931 71.05 Q942.15 71.7 950.2 79.75 958.3 87.85 958.95 99 L956.95 99 Q956.3 88.65 948.8 81.2 941.35 73.7 931 73.1 L929 73 927 73.05 Q916.65 73.7 909.2 81.15 L909.15 81.2 Q906.7 83.65 905 86.4 901.5 92.05 901.05 99 L899.05 99 Q899.6 89.9 905 82.9 906.25 81.25 907.75 79.75 M940.3 89.65 Q944.3 93.65 944.9 99 L942.9 99 Q942.25 94.45 938.9 91.1 935.55 87.7 931 87.15 L931 85.1 Q936.35 85.7 940.3 89.65 M917.65 89.65 Q921.65 85.7 927 85.1 L927 87.15 Q922.45 87.7 919.1 91.05 L919.05 91.1 Q915.7 94.45 915.15 99 L913.1 99 Q913.7 93.65 917.65 89.65 M940.3 112.3 Q936.35 116.3 931 116.9 L931 114.9 Q935.55 114.3 938.9 110.9 942.3 107.55 942.9 103 L944.9 103 Q944.3 108.35 940.3 112.3 M950.2 122.2 Q942.15 130.3 931 130.95 L929 131 927 130.95 Q915.85 130.3 907.75 122.2 L905 119.1 Q899.6 112.05 899.05 103 L901.1 103 Q901.5 109.9 905 115.55 906.7 118.3 909.2 120.8 916.65 128.3 927 128.95 L929 129 931 128.95 Q941.35 128.3 948.8 120.8 956.3 113.35 956.95 103 L958.95 103 Q958.3 114.15 950.2 122.2 M931 101.05 Q931 101.85 930.4 102.4 929.85 103 929.05 103 L928.95 103 Q928.15 103 927.55 102.4 927 101.85 927 101.05 L927 100.95 Q927 100.15 927.55 99.55 928.15 99 928.95 99 L929.05 99 Q929.85 99 930.4 99.55 931 100.15 931 100.95 L931 101.05 M917.65 112.3 Q913.7 108.35 913.1 103 L915.15 103 Q915.7 107.55 919.1 110.9 922.45 114.25 927 114.9 L927 116.9 Q921.65 116.3 917.65 112.3" fill="var(--svg-fill-color)" stroke="var(--svg-stroke-color)"/><path d="M937 168 L961 168 961 172 937 172 937 168 M927 202 L927 199.95 Q915.85 199.3 907.75 191.2 900.45 183.9 899.25 174 L901.25 174 Q902.45 183.05 909.2 189.8 917.05 197.65 928 198 L930 198 Q940.95 197.65 948.8 189.8 955.55 183.05 956.75 174 L958.75 174 Q957.55 183.9 950.2 191.2 942.15 199.3 931 199.95 L931 202 927 202 M897 168 L921 168 921 172 897 172 897 168 M927 168 L931 168 931 172 927 172 927 168 M931 138 L931 140.05 Q942.15 140.7 950.2 148.75 957.55 156.1 958.75 166 L956.75 166 Q955.55 156.95 948.8 150.2 940.95 142.35 930 142 L928 142 Q917.05 142.35 909.2 150.15 L909.15 150.2 Q902.45 156.95 901.25 166 L899.25 166 Q900.45 156.1 907.75 148.75 915.85 140.7 927 140.05 L927 138 931 138" fill="var(--svg-fill-color)" stroke="var(--svg-stroke-color)"/><path d="M988.1 91.1 Q984 95.2 984 101 984 106.8 988.1 110.9 992.2 115 998 115 1003.75 115 1007.85 110.9 L1007.9 110.85 Q1012 106.75 1012 101 1012 95.2 1007.9 91.1 1003.8 87 998 87 992.2 87 988.1 91.1 M1010.7 88.25 Q1016 93.55 1016 101 1016 108.4 1010.7 113.7 1005.4 119 998 119 990.55 119 985.25 113.7 980 108.45 980 101 980 93.55 985.25 88.3 L985.3 88.25 Q990.55 83 998 83 1005.45 83 1010.7 88.25" fill="var(--svg-fill-color)" stroke="var(--svg-stroke-color)"/><path d="M1298 26 L1298 38 1274 62 1250 38 1250 26 1274 2 1298 26 M1276 32 Q1276 32.85 1275.4 33.4 1274.85 34 1274 34 1273.15 34 1272.55 33.4 1272 32.85 1272 32 1272 31.15 1272.55 30.55 1273.15 30 1274 30 1274.85 30 1275.4 30.55 1276 31.15 1276 32 M1274 8 L1254 28 1254 36 1274 56 1294 36 1294 28 1274 8" fill="var(--svg-fill-color)" stroke="var(--svg-stroke-color)"/><path d="M1231 32 L1211 12 1199 12 1179 32 1199 52 1211 52 1231 32 M1213 56 L1197 56 1173 32 1197 8 1213 8 1237 32 1213 56 M1205 34 Q1204.15 34 1203.6 33.4 1203 32.85 1203 32 1203 31.15 1203.6 30.55 1204.15 30 1205 30 1205.85 30 1206.45 30.55 1207 31.15 1207 32 1207 32.85 1206.45 33.4 1205.85 34 1205 34" fill="var(--svg-fill-color)" stroke="var(--svg-stroke-color)"/><path d="M1231 32 L1211 12 1199 12 1179 32 1199 52 1211 52 1231 32 M1213 56 L1197 56 1173 32 1197 8 1213 8 1237 32 1213 56 M1205 34 Q1204.15 34 1203.6 33.4 1203 32.85 1203 32 1203 31.15 1203.6 30.55 1204.15 30 1205 30 1205.85 30 1206.45 30.55 1207 31.15 1207 32 1207 32.85 1206.45 33.4 1205.85 34 1205 34" fill="var(--svg-fill-color)" stroke="var(--svg-stroke-color)"/><path d="M1231 32 L1211 12 1199 12 1179 32 1199 52 1211 52 1231 32 M1213 56 L1197 56 1173 32 1197 8 1213 8 1237 32 1213 56 M1205 34 Q1204.15 34 1203.6 33.4 1203 32.85 1203 32 1203 31.15 1203.6 30.55 1204.15 30 1205 30 1205.85 30 1206.45 30.55 1207 31.15 1207 32 1207 32.85 1206.45 33.4 1205.85 34 1205 34" fill="var(--svg-fill-color)" stroke="var(--svg-stroke-color)"/><path d="M1367 26 L1367 38 1362 43 1359 40 1363 36 1363 28 1359 24 1362 21 1367 26 M1343 2 L1349 8 1347 10 1343 6 1339 10 1337 8 1343 2 M1345 32 Q1345 32.85 1344.4 33.4 1343.85 34 1343 34 1342.15 34 1341.6 33.45 L1341.55 33.4 Q1341 32.85 1341 32 1341 31.15 1341.55 30.55 1342.15 30 1343 30 1343.85 30 1344.4 30.55 L1344.45 30.6 Q1345 31.15 1345 32 M1343 62 L1337 56 1339 54 1343 58 1347 54 1349 56 1343 62 M1319 26 L1324 21 1327 24 1323 28 1323 36 1327 40 1324 43 1319 38 1319 26" fill="var(--svg-fill-color)" stroke="var(--svg-stroke-color)"/></svg>