<svg xmlns="http://www.w3.org/2000/svg" xmlns:xlink="http://www.w3.org/1999/xlink" width="64" height="64" viewBox="967 69 62 64"><path d="M998 58 L998 62 Q985.55 62 976.75 53.2 968 44.45 968 32 L972 32 Q972 42.8 979.6 50.4 987.2 58 998 58 M1016.4 13.6 Q1008.8 6 998 6 L998 2 Q1010.45 2 1019.2 10.75 1028 19.55 1028 32 L1024 32 Q1024 21.2 1016.4 13.6" fill="var(--svg-fill-color)" stroke="var(--svg-stroke-color)"/><path d="M988.1 91.1 Q984 95.2 984 101 984 106.8 988.1 110.9 992.2 115 998 115 1003.75 115 1007.85 110.9 L1007.9 110.85 Q1012 106.75 1012 101 1012 95.2 1007.9 91.1 1003.8 87 998 87 992.2 87 988.1 91.1 M1010.7 88.25 Q1016 93.55 1016 101 1016 108.4 1010.7 113.7 1005.4 119 998 119 990.55 119 985.25 113.7 980 108.45 980 101 980 93.55 985.25 88.3 L985.3 88.25 Q990.55 83 998 83 1005.45 83 1010.7 88.25" fill="var(--svg-fill-color)" stroke="var(--svg-stroke-color)"/><path d="M966 99 L1030 99 1030 103 966 103 966 99" fill="var(--svg-fill-color)" stroke="var(--svg-stroke-color)"/><path d="M1000 69 L1000 133 996 133 996 69 1000 69" fill="var(--svg-fill-color)" stroke="var(--svg-stroke-color)"/><path d="M966 95 L970 95 970 107 966 107 966 95" fill="var(--svg-fill-color)" stroke="var(--svg-stroke-color)"/><path d="M1026 95 L1030 95 1030 107 1026 107 1026 95" fill="var(--svg-fill-color)" stroke="var(--svg-stroke-color)"/><path d="M1004 69 L1004 73 992 73 992 69 1004 69" fill="var(--svg-fill-color)" stroke="var(--svg-stroke-color)"/><path d="M1004 129 L1004 133 992 133 992 129 1004 129" fill="var(--svg-fill-color)" stroke="var(--svg-stroke-color)"/><path d="M1018 91 L1022 91 1022 111 1018 111 1018 91" fill="var(--svg-fill-color)" stroke="var(--svg-stroke-color)"/><path d="M974 91 L978 91 978 111 974 111 974 91" fill="var(--svg-fill-color)" stroke="var(--svg-stroke-color)"/><path d="M1298 26 L1298 38 1274 62 1250 38 1250 26 1274 2 1298 26 M1276 32 Q1276 32.85 1275.4 33.4 1274.85 34 1274 34 1273.15 34 1272.55 33.4 1272 32.85 1272 32 1272 31.15 1272.55 30.55 1273.15 30 1274 30 1274.85 30 1275.4 30.55 1276 31.15 1276 32 M1274 8 L1254 28 1254 36 1274 56 1294 36 1294 28 1274 8" fill="var(--svg-fill-color)" stroke="var(--svg-stroke-color)"/><path d="M1231 32 L1211 12 1199 12 1179 32 1199 52 1211 52 1231 32 M1213 56 L1197 56 1173 32 1197 8 1213 8 1237 32 1213 56 M1205 34 Q1204.15 34 1203.6 33.4 1203 32.85 1203 32 1203 31.15 1203.6 30.55 1204.15 30 1205 30 1205.85 30 1206.45 30.55 1207 31.15 1207 32 1207 32.85 1206.45 33.4 1205.85 34 1205 34" fill="var(--svg-fill-color)" stroke="var(--svg-stroke-color)"/><path d="M1231 32 L1211 12 1199 12 1179 32 1199 52 1211 52 1231 32 M1213 56 L1197 56 1173 32 1197 8 1213 8 1237 32 1213 56 M1205 34 Q1204.15 34 1203.6 33.4 1203 32.85 1203 32 1203 31.15 1203.6 30.55 1204.15 30 1205 30 1205.85 30 1206.45 30.55 1207 31.15 1207 32 1207 32.85 1206.45 33.4 1205.85 34 1205 34" fill="var(--svg-fill-color)" stroke="var(--svg-stroke-color)"/><path d="M1231 32 L1211 12 1199 12 1179 32 1199 52 1211 52 1231 32 M1213 56 L1197 56 1173 32 1197 8 1213 8 1237 32 1213 56 M1205 34 Q1204.15 34 1203.6 33.4 1203 32.85 1203 32 1203 31.15 1203.6 30.55 1204.15 30 1205 30 1205.85 30 1206.45 30.55 1207 31.15 1207 32 1207 32.85 1206.45 33.4 1205.85 34 1205 34" fill="var(--svg-fill-color)" stroke="var(--svg-stroke-color)"/><path d="M1367 26 L1367 38 1362 43 1359 40 1363 36 1363 28 1359 24 1362 21 1367 26 M1343 2 L1349 8 1347 10 1343 6 1339 10 1337 8 1343 2 M1345 32 Q1345 32.85 1344.4 33.4 1343.85 34 1343 34 1342.15 34 1341.6 33.45 L1341.55 33.4 Q1341 32.85 1341 32 1341 31.15 1341.55 30.55 1342.15 30 1343 30 1343.85 30 1344.4 30.55 L1344.45 30.6 Q1345 31.15 1345 32 M1343 62 L1337 56 1339 54 1343 58 1347 54 1349 56 1343 62 M1319 26 L1324 21 1327 24 1323 28 1323 36 1327 40 1324 43 1319 38 1319 26" fill="var(--svg-fill-color)" stroke="var(--svg-stroke-color)"/></svg>