<svg xmlns="http://www.w3.org/2000/svg" xmlns:xlink="http://www.w3.org/1999/xlink" width="64" height="64" viewBox="208 69 62 64"><path d="M476 32 Q476 44.45 467.2 53.2 458.45 62 446 62 433.55 62 424.75 53.2 416 44.45 416 32 416 19.55 424.75 10.75 433.55 2 446 2 458.45 2 467.2 10.75 476 19.55 476 32 M464.4 13.6 Q456.8 6 446 6 435.2 6 427.6 13.6 420 21.2 420 32 420 42.8 427.6 50.4 435.2 58 446 58 456.8 58 464.4 50.4 472 42.8 472 32 472 21.2 464.4 13.6" fill="var(--svg-fill-color)" stroke="var(--svg-stroke-color)"/><path d="M476 101 Q476 113.45 467.2 122.2 458.45 131 446 131 433.55 131 424.75 122.2 416 113.45 416 101 416 88.55 424.75 79.75 433.55 71 446 71 458.45 71 467.2 79.75 476 88.55 476 101 M464.4 82.6 Q456.8 75 446 75 435.2 75 427.6 82.6 420 90.2 420 101 420 111.8 427.6 119.4 435.2 127 446 127 456.8 127 464.4 119.4 472 111.8 472 101 472 90.2 464.4 82.6" fill="var(--svg-fill-color)" stroke="var(--svg-stroke-color)"/><path d="M241 69 L241 85 237 85 237 69 241 69 M241 117 L241 133 237 133 237 117 241 117 M207 99 L223 99 223 103 207 103 207 99 M255 99 L271 99 271 103 255 103 255 99" fill="var(--svg-fill-color)" stroke="var(--svg-stroke-color)"/><path d="M241 101 Q241 101.85 240.4 102.4 239.85 103 239 103 238.15 103 237.55 102.4 237 101.85 237 101 237 100.15 237.55 99.55 238.15 99 239 99 239.85 99 240.4 99.55 241 100.15 241 101" fill="var(--svg-fill-color)" stroke="var(--svg-stroke-color)"/><path d="M340 103 L332 103 332 99 340 99 340 103 M310 69 L310 77 306 77 306 69 310 69 M284 103 L276 103 276 99 284 99 284 103 M310 125 L310 133 306 133 306 125 310 125" fill="var(--svg-fill-color)" stroke="var(--svg-stroke-color)"/><path d="M247 28 Q247 28.85 246.4 29.4 245.85 30 245 30 244.15 30 243.55 29.4 243 28.85 243 28 243 27.15 243.55 26.55 244.15 26 245 26 245.85 26 246.4 26.55 247 27.15 247 28 M241 36 Q241 36.85 240.4 37.4 239.85 38 239 38 238.15 38 237.55 37.4 237 36.85 237 36 237 35.15 237.55 34.55 238.15 34 239 34 239.85 34 240.4 34.55 241 35.15 241 36 M235 28 Q235 28.85 234.4 29.4 233.85 30 233 30 232.15 30 231.55 29.4 231 28.85 231 28 231 27.15 231.55 26.55 232.15 26 233 26 233.85 26 234.4 26.55 235 27.15 235 28" fill="var(--svg-fill-color)" stroke="var(--svg-stroke-color)"/></svg>