<svg xmlns="http://www.w3.org/2000/svg" xmlns:xlink="http://www.w3.org/1999/xlink" width="64" height="64" viewBox="1174 138 62 64"><path d="M1298 26 L1298 38 1274 62 1250 38 1250 26 1274 2 1298 26 M1276 32 Q1276 32.85 1275.4 33.4 1274.85 34 1274 34 1273.15 34 1272.55 33.4 1272 32.85 1272 32 1272 31.15 1272.55 30.55 1273.15 30 1274 30 1274.85 30 1275.4 30.55 1276 31.15 1276 32 M1274 8 L1254 28 1254 36 1274 56 1294 36 1294 28 1274 8" fill="var(--svg-fill-color)" stroke="var(--svg-stroke-color)"/><path d="M1231 32 L1211 12 1199 12 1179 32 1199 52 1211 52 1231 32 M1213 56 L1197 56 1173 32 1197 8 1213 8 1237 32 1213 56 M1205 34 Q1204.15 34 1203.6 33.4 1203 32.85 1203 32 1203 31.15 1203.6 30.55 1204.15 30 1205 30 1205.85 30 1206.45 30.55 1207 31.15 1207 32 1207 32.85 1206.45 33.4 1205.85 34 1205 34" fill="var(--svg-fill-color)" stroke="var(--svg-stroke-color)"/><path d="M1231 32 L1211 12 1199 12 1179 32 1199 52 1211 52 1231 32 M1213 56 L1197 56 1173 32 1197 8 1213 8 1237 32 1213 56 M1205 34 Q1204.15 34 1203.6 33.4 1203 32.85 1203 32 1203 31.15 1203.6 30.55 1204.15 30 1205 30 1205.85 30 1206.45 30.55 1207 31.15 1207 32 1207 32.85 1206.45 33.4 1205.85 34 1205 34" fill="var(--svg-fill-color)" stroke="var(--svg-stroke-color)"/><path d="M1231 32 L1211 12 1199 12 1179 32 1199 52 1211 52 1231 32 M1213 56 L1197 56 1173 32 1197 8 1213 8 1237 32 1213 56 M1205 34 Q1204.15 34 1203.6 33.4 1203 32.85 1203 32 1203 31.15 1203.6 30.55 1204.15 30 1205 30 1205.85 30 1206.45 30.55 1207 31.15 1207 32 1207 32.85 1206.45 33.4 1205.85 34 1205 34" fill="var(--svg-fill-color)" stroke="var(--svg-stroke-color)"/><path d="M1367 26 L1367 38 1362 43 1359 40 1363 36 1363 28 1359 24 1362 21 1367 26 M1343 2 L1349 8 1347 10 1343 6 1339 10 1337 8 1343 2 M1345 32 Q1345 32.85 1344.4 33.4 1343.85 34 1343 34 1342.15 34 1341.6 33.45 L1341.55 33.4 Q1341 32.85 1341 32 1341 31.15 1341.55 30.55 1342.15 30 1343 30 1343.85 30 1344.4 30.55 L1344.45 30.6 Q1345 31.15 1345 32 M1343 62 L1337 56 1339 54 1343 58 1347 54 1349 56 1343 62 M1319 26 L1324 21 1327 24 1323 28 1323 36 1327 40 1324 43 1319 38 1319 26" fill="var(--svg-fill-color)" stroke="var(--svg-stroke-color)"/><path d="M1185 182 L1195.75 173.85 Q1196.45 175.55 1197.9 177 L1198.2 177.3 1192.15 182 1217.85 182 1211.75 177.25 1212 177 Q1213.5 175.55 1214.25 173.8 L1225 182 1207 151.4 1207 160.2 1205 160 1203 160.2 1203 151.4 1185 182 M1207 170 Q1207 170.65 1206.65 171.15 L1206.4 171.4 Q1205.85 172 1205 172 1204.15 172 1203.55 171.4 L1203.35 171.15 Q1203 170.65 1203 170 1203 169.15 1203.55 168.55 1204.15 168 1205 168 1205.85 168 1206.4 168.55 1207 169.15 1207 170 M1205 140 L1233 186 1177 186 1205 140" fill="var(--svg-fill-color)" stroke="var(--svg-stroke-color)"/><path d="M1266.9 162.9 L1266.85 162.95 Q1264 165.9 1264 170 L1264 170.05 Q1264 172.1 1264.7 173.85 1265.45 175.6 1266.9 177.1 L1267.15 177.35 Q1270 180 1274 180 1278 180 1280.85 177.3 L1281.05 177.1 1281.1 177.05 Q1282.55 175.6 1283.3 173.8 1284 172.05 1284 170 1284 165.85 1281.1 162.9 1278.9 160.7 1276 160.2 L1274.05 160 1274 160 1272 160.2 Q1269.15 160.7 1266.95 162.85 L1266.9 162.9 M1272 146 L1276 146 1276 156.15 Q1280.55 156.7 1283.9 160.05 1288 164.15 1288 170 1288 173.5 1286.5 176.4 L1294.9 183.1 1292 186 1284 179.8 1283.9 179.9 Q1279.8 184 1274 184 1268.15 184 1264.05 179.9 L1263.95 179.8 1256 186 1253.1 183.1 1261.5 176.4 Q1260 173.5 1260 170 1260 164.2 1264.05 160.1 L1264.1 160.05 Q1267.45 156.7 1272 156.15 L1272 146 M1276 170 Q1276 170.85 1275.4 171.4 1274.85 172 1274 172 1273.15 172 1272.55 171.4 1272 170.85 1272 170 1272 169.15 1272.55 168.55 1273.15 168 1274 168 1274.85 168 1275.4 168.55 1276 169.15 1276 170" fill="var(--svg-fill-color)" stroke="var(--svg-stroke-color)"/><path d="M1322.1 183.1 L1330.5 176.4 Q1331.4 178.2 1332.95 179.8 L1325 186 1322.1 183.1 M1343 156 L1341 156.15 1341 146 1345 146 1345 156.15 1343 156 M1345 170 Q1345 170.85 1344.4 171.4 1343.85 172 1343 172 1342.15 172 1341.55 171.4 1341 170.85 1341 170 1341 169.15 1341.55 168.55 1342.15 168 1343 168 1343.85 168 1344.4 168.55 1345 169.15 1345 170 M1361 186 L1353 179.8 Q1354.55 178.2 1355.5 176.4 L1363.9 183.1 1361 186" fill="var(--svg-fill-color)" stroke="var(--svg-stroke-color)"/></svg>