<svg xmlns="http://www.w3.org/2000/svg" xmlns:xlink="http://www.w3.org/1999/xlink" width="64" height="64" viewBox="139 207 62 64"><path d="M164 239 L158 245 156 243 160 239 156 235 158 233 164 239 M176 239 L182 233 184 235 180 239 184 243 182 245 176 239" fill="var(--svg-fill-color)" stroke="var(--svg-stroke-color)"/><path d="M56 280 Q57.65 280 58.85 281.2 60 282.35 60 284 L60 304 56 304 56 284 36 284 36 280 56 280 M8 280 L28 280 28 284 8 284 8 304 4 304 4 284 Q4 282.35 5.15 281.2 6.35 280 8 280 M60 332 Q60 333.65 58.85 334.8 57.65 336 56 336 L36 336 36 332 56 332 56 312 60 312 60 332 M8 336 Q6.35 336 5.15 334.8 4 333.65 4 332 L4 312 8 312 8 332 28 332 28 336 8 336" fill="var(--svg-fill-color)" stroke="var(--svg-stroke-color)"/><path d="M77 280 L93 280 93 284 77 284 77 300 73 300 73 284 Q73 282.35 74.15 281.2 75.35 280 77 280 M125 280 Q126.65 280 127.85 281.2 129 282.35 129 284 L129 300 125 300 125 284 109 284 109 280 125 280 M77 336 Q75.35 336 74.15 334.8 73 333.65 73 332 L73 316 77 316 77 332 93 332 93 336 77 336 M129 332 Q129 333.65 127.85 334.8 126.65 336 125 336 L109 336 109 332 125 332 125 316 129 316 129 332" fill="var(--svg-fill-color)" stroke="var(--svg-stroke-color)"/><path d="M146 280 L162 280 162 284 146 284 146 300 142 300 142 284 Q142 282.35 143.15 281.2 144.35 280 146 280 M146 336 Q144.35 336 143.15 334.8 142 333.65 142 332 L142 316 146 316 146 332 162 332 162 336 146 336 M194 280 Q195.65 280 196.85 281.2 198 282.35 198 284 L198 300 194 300 194 284 178 284 178 280 194 280 M198 332 Q198 333.65 196.85 334.8 195.65 336 194 336 L178 336 178 332 194 332 194 316 198 316 198 332" fill="var(--svg-fill-color)" stroke="var(--svg-stroke-color)"/><path d="M85 357 L91 357 91 353 95 353 95 361 85 361 85 371 77 371 77 367 81 367 81 361 Q81 359.35 82.15 358.2 83.35 357 85 357 M85 397 Q83.35 397 82.15 395.8 81 394.65 81 393 L81 387 77 387 77 383 85 383 85 393 95 393 95 401 91 401 91 397 85 397 M117 357 Q118.65 357 119.85 358.2 121 359.35 121 361 L121 367 125 367 125 371 117 371 117 361 107 361 107 353 111 353 111 357 117 357 M99 375 L99 371 103 371 103 375 107 375 107 379 103 379 103 383 99 383 99 379 95 379 95 375 99 375 M121 393 Q121 394.65 119.85 395.8 118.65 397 117 397 L111 397 111 401 107 401 107 393 117 393 117 383 125 383 125 387 121 387 121 393" fill="var(--svg-fill-color)" stroke="var(--svg-stroke-color)"/><path d="M150 353 L164 353 164 345 168 345 168 357 150 357 150 375 138 375 138 371 146 371 146 357 Q146 355.35 147.15 354.2 148.35 353 150 353 M150 401 Q148.35 401 147.15 399.8 146 398.65 146 397 L146 383 138 383 138 379 150 379 150 397 168 397 168 409 164 409 164 401 150 401 M190 353 Q191.65 353 192.85 354.2 194 355.35 194 357 L194 371 202 371 202 375 190 375 190 357 172 357 172 345 176 345 176 353 190 353 M194 397 Q194 398.65 192.85 399.8 191.65 401 190 401 L176 401 176 409 172 409 172 397 190 397 190 379 202 379 202 383 194 383 194 397" fill="var(--svg-fill-color)" stroke="var(--svg-stroke-color)"/></svg>