<svg xmlns="http://www.w3.org/2000/svg" xmlns:xlink="http://www.w3.org/1999/xlink" width="64" height="64" viewBox="208 276 62 64"><path d="M77 280 L93 280 93 284 77 284 77 300 73 300 73 284 Q73 282.35 74.15 281.2 75.35 280 77 280 M125 280 Q126.65 280 127.85 281.2 129 282.35 129 284 L129 300 125 300 125 284 109 284 109 280 125 280 M77 336 Q75.35 336 74.15 334.8 73 333.65 73 332 L73 316 77 316 77 332 93 332 93 336 77 336 M129 332 Q129 333.65 127.85 334.8 126.65 336 125 336 L109 336 109 332 125 332 125 316 129 316 129 332" fill="var(--svg-fill-color)" stroke="var(--svg-stroke-color)"/><path d="M146 280 L162 280 162 284 146 284 146 300 142 300 142 284 Q142 282.35 143.15 281.2 144.35 280 146 280 M146 336 Q144.35 336 143.15 334.8 142 333.65 142 332 L142 316 146 316 146 332 162 332 162 336 146 336 M194 280 Q195.65 280 196.85 281.2 198 282.35 198 284 L198 300 194 300 194 284 178 284 178 280 194 280 M198 332 Q198 333.65 196.85 334.8 195.65 336 194 336 L178 336 178 332 194 332 194 316 198 316 198 332" fill="var(--svg-fill-color)" stroke="var(--svg-stroke-color)"/><path d="M324 306 L340 306 340 310 324 310 324 306 M310 276 L310 292 306 292 306 276 310 276 M276 306 L292 306 292 310 276 310 276 306 M310 324 L310 340 306 340 306 324 310 324" fill="var(--svg-fill-color)" stroke="var(--svg-stroke-color)"/><path d="M85 357 L91 357 91 353 95 353 95 361 85 361 85 371 77 371 77 367 81 367 81 361 Q81 359.35 82.15 358.2 83.35 357 85 357 M85 397 Q83.35 397 82.15 395.8 81 394.65 81 393 L81 387 77 387 77 383 85 383 85 393 95 393 95 401 91 401 91 397 85 397 M117 357 Q118.65 357 119.85 358.2 121 359.35 121 361 L121 367 125 367 125 371 117 371 117 361 107 361 107 353 111 353 111 357 117 357 M99 375 L99 371 103 371 103 375 107 375 107 379 103 379 103 383 99 383 99 379 95 379 95 375 99 375 M121 393 Q121 394.65 119.85 395.8 118.65 397 117 397 L111 397 111 401 107 401 107 393 117 393 117 383 125 383 125 387 121 387 121 393" fill="var(--svg-fill-color)" stroke="var(--svg-stroke-color)"/><path d="M263 336 L215 336 Q213.35 336 212.15 334.8 211 333.65 211 332 L211 284 Q211 282.35 212.15 281.2 213.35 280 215 280 L263 280 Q264.65 280 265.85 281.2 267 282.35 267 284 L267 332 Q267 333.65 265.85 334.8 264.65 336 263 336 M225 306 L225 310 215 310 215 332 237 332 237 322 241 322 241 332 263 332 263 310 253 310 253 306 263 306 263 284 241 284 241 294 237 294 237 284 215 284 215 306 225 306 M241 308 Q241 308.85 240.4 309.4 239.85 310 239 310 238.15 310 237.55 309.4 237 308.85 237 308 237 307.15 237.55 306.55 238.15 306 239 306 239.85 306 240.4 306.55 241 307.15 241 308" fill="var(--svg-fill-color)" stroke="var(--svg-stroke-color)"/><path d="M150 353 L164 353 164 345 168 345 168 357 150 357 150 375 138 375 138 371 146 371 146 357 Q146 355.35 147.15 354.2 148.35 353 150 353 M150 401 Q148.35 401 147.15 399.8 146 398.65 146 397 L146 383 138 383 138 379 150 379 150 397 168 397 168 409 164 409 164 401 150 401 M190 353 Q191.65 353 192.85 354.2 194 355.35 194 357 L194 371 202 371 202 375 190 375 190 357 172 357 172 345 176 345 176 353 190 353 M194 397 Q194 398.65 192.85 399.8 191.65 401 190 401 L176 401 176 409 172 409 172 397 190 397 190 379 202 379 202 383 194 383 194 397" fill="var(--svg-fill-color)" stroke="var(--svg-stroke-color)"/><path d="M219 353 L233 353 233 345 237 345 237 357 219 357 219 375 207 375 207 371 215 371 215 357 Q215 355.35 216.15 354.2 217.35 353 219 353 M241 361 L241 373 237 373 237 361 241 361 M219 401 Q217.35 401 216.15 399.8 215 398.65 215 397 L215 383 207 383 207 379 219 379 219 397 237 397 237 409 233 409 233 401 219 401 M241 381 L241 393 237 393 237 381 241 381 M223 375 L235 375 235 379 223 379 223 375 M259 353 Q260.65 353 261.85 354.2 263 355.35 263 357 L263 371 271 371 271 375 259 375 259 357 241 357 241 345 245 345 245 353 259 353 M243 375 L255 375 255 379 243 379 243 375 M263 397 Q263 398.65 261.85 399.8 260.65 401 259 401 L245 401 245 409 241 409 241 397 259 397 259 379 271 379 271 383 263 383 263 397" fill="var(--svg-fill-color)" stroke="var(--svg-stroke-color)"/><path d="M322 375 L340 375 340 379 322 379 322 375 M310 345 L310 363 306 363 306 345 310 345 M276 375 L294 375 294 379 276 379 276 375 M310 391 L310 409 306 409 306 391 310 391" fill="var(--svg-fill-color)" stroke="var(--svg-stroke-color)"/><path d="M251 430 Q252.65 430 253.85 431.2 255 432.35 255 434 L255 442 251 442 251 434 243 434 243 430 251 430 M249 444 L257 444 257 448 249 448 249 444 M251 462 L243 462 243 458 251 458 251 450 255 450 255 458 Q255 459.65 253.85 460.8 252.65 462 251 462 M237 436 L237 428 241 428 241 436 237 436 M227 430 L235 430 235 434 227 434 227 442 223 442 223 434 Q223 432.35 224.15 431.2 225.35 430 227 430 M221 444 L229 444 229 448 221 448 221 444 M227 462 Q225.35 462 224.15 460.8 223 459.65 223 458 L223 450 227 450 227 458 235 458 235 462 227 462 M237 456 L241 456 241 464 237 464 237 456" fill="var(--svg-fill-color)" stroke="var(--svg-stroke-color)"/><path d="M182 430 Q183.65 430 184.85 431.2 186 432.35 186 434 L186 438 182 438 182 434 178 434 178 430 182 430 M168 434 L168 426 172 426 172 434 168 434 M158 430 L162 430 162 434 158 434 158 438 154 438 154 434 Q154 432.35 155.15 431.2 156.35 430 158 430 M182 444 L190 444 190 448 182 448 182 444 M182 462 L178 462 178 458 182 458 182 454 186 454 186 458 Q186 459.65 184.85 460.8 183.65 462 182 462 M168 458 L172 458 172 466 168 466 168 458 M158 462 Q156.35 462 155.15 460.8 154 459.65 154 458 L154 454 158 454 158 458 162 458 162 462 158 462 M150 444 L158 444 158 448 150 448 150 444" fill="var(--svg-fill-color)" stroke="var(--svg-stroke-color)"/><path d="M85 440 L85 436 91 430 95 430 95 434 93 434 89 438 89 440 85 440 M103 446 Q103 446.85 102.4 447.4 101.85 448 101 448 100.15 448 99.55 447.4 99 446.85 99 446 99 445.15 99.55 444.55 100.15 444 101 444 101.85 444 102.4 444.55 103 445.15 103 446 M117 440 L113 440 113 438 109 434 107 434 107 430 111 430 117 436 117 440 M117 452 L117 456 111 462 107 462 107 458 109 458 113 454 113 452 117 452 M85 452 L89 452 89 454 93 458 95 458 95 462 91 462 85 456 85 452" fill="var(--svg-fill-color)" stroke="var(--svg-stroke-color)"/><path d="M10.75 562.75 Q18.85 554.7 30 554.05 L32 554 34 554.05 Q45.15 554.7 53.2 562.75 61.3 570.85 61.95 582 L59.95 582 Q59.3 571.65 51.8 564.2 44.35 556.7 34 556.1 L32 556 30 556.05 Q19.65 556.7 12.2 564.15 L12.15 564.2 Q9.7 566.65 8 569.4 4.5 575.05 4.05 582 L2.05 582 Q2.6 572.9 8 565.9 L10.75 562.75 M2 554 L10 554 10 558 6 558 6 562 2 562 2 554 M53.2 605.2 Q45.15 613.3 34 613.95 L32 614 30 613.95 Q18.85 613.3 10.75 605.2 L8 602.1 Q2.6 595.05 2.05 586 L4.1 586 Q4.5 592.9 8 598.55 9.7 601.3 12.2 603.8 19.65 611.3 30 611.95 L32 612 34 611.95 Q44.35 611.3 51.8 603.8 59.3 596.35 59.95 586 L61.95 586 Q61.3 597.15 53.2 605.2 M20.65 595.3 Q16.7 591.35 16.1 586 L18.15 586 Q18.7 590.55 22.1 593.9 25.45 597.25 30 597.9 L30 599.9 Q24.65 599.3 20.65 595.3 M20.65 572.65 Q24.65 568.7 30 568.1 L30 570.15 Q25.45 570.7 22.1 574.05 L22.05 574.1 Q18.7 577.45 18.15 582 L16.1 582 Q16.7 576.65 20.65 572.65 M34 584.05 Q34 584.85 33.4 585.4 32.85 586 32.05 586 L31.95 586 Q31.15 586 30.55 585.4 30 584.85 30 584.05 L30 583.95 Q30 583.15 30.55 582.55 31.15 582 31.95 582 L32.05 582 Q32.85 582 33.4 582.55 34 583.15 34 583.95 L34 584.05 M43.3 572.65 Q47.3 576.65 47.9 582 L45.9 582 Q45.25 577.45 41.9 574.1 38.55 570.7 34 570.15 L34 568.1 Q39.35 568.7 43.3 572.65 M62 554 L62 562 58 562 58 558 54 558 54 554 62 554 M43.3 595.3 Q39.35 599.3 34 599.9 L34 597.9 Q38.55 597.3 41.9 593.9 45.3 590.55 45.9 586 L47.9 586 Q47.3 591.35 43.3 595.3 M62 614 L54 614 54 610 58 610 58 606 62 606 62 614 M2 614 L2 606 6 606 6 610 10 610 10 614 2 614" fill="var(--svg-fill-color)" stroke="var(--svg-stroke-color)"/><path d="M103 515 Q103 515.85 102.4 516.4 101.85 517 101 517 100.15 517 99.55 516.4 99 515.85 99 515 99 514.15 99.55 513.55 100.15 513 101 513 101.85 513 102.4 513.55 103 514.15 103 515 M100.95 493.85 L97.4 497.4 96 496 101 491 106 496 104.55 497.45 100.95 493.85 M122.15 515.05 L118.55 511.45 120 510 125 515 120 520 118.6 518.6 122.15 515.05 M113 511 L115 511 115 519 113 519 113 511 M87 511 L89 511 89 519 87 519 87 511 M101 536.2 L104.6 532.6 106 534 101 539 96 534 97.4 532.6 101 536.2 M79.8 515 L83.4 518.6 82 520 77 515 82 510 83.4 511.4 79.8 515" fill="var(--svg-fill-color)" stroke="var(--svg-stroke-color)"/></svg>