<svg xmlns="http://www.w3.org/2000/svg" xmlns:xlink="http://www.w3.org/1999/xlink" width="64" height="64" viewBox="346 276 62 64"><path d="M464.4 151.6 Q456.8 144 446 144 435.2 144 427.6 151.6 420 159.2 420 170 420 180.8 427.6 188.4 435.2 196 446 196 456.8 196 464.4 188.4 472 180.8 472 170 472 159.2 464.4 151.6 M476 170 Q476 182.45 467.2 191.2 458.45 200 446 200 433.55 200 424.75 191.2 416 182.45 416 170 416 157.55 424.75 148.75 433.55 140 446 140 458.45 140 467.2 148.75 476 157.55 476 170" fill="var(--svg-fill-color)" stroke="var(--svg-stroke-color)"/><path d="M602.4 13.6 Q594.8 6 584 6 573.2 6 565.6 13.6 558 21.2 558 32 558 42.8 565.6 50.4 573.2 58 584 58 594.8 58 602.4 50.4 610 42.8 610 32 610 21.2 602.4 13.6 M614 32 Q614 44.45 605.2 53.2 596.45 62 584 62 571.55 62 562.75 53.2 554 44.45 554 32 554 19.55 562.75 10.75 571.55 2 584 2 596.45 2 605.2 10.75 614 19.55 614 32" fill="var(--svg-fill-color)" stroke="var(--svg-stroke-color)"/><path d="M614 101 Q614 113.45 605.2 122.2 596.45 131 584 131 571.55 131 562.75 122.2 554 113.45 554 101 554 88.55 562.75 79.75 571.55 71 584 71 596.45 71 605.2 79.75 614 88.55 614 101 M602.4 82.6 Q594.8 75 584 75 573.2 75 565.6 82.6 558 90.2 558 101 558 111.8 565.6 119.4 573.2 127 584 127 594.8 127 602.4 119.4 610 111.8 610 101 610 90.2 602.4 82.6" fill="var(--svg-fill-color)" stroke="var(--svg-stroke-color)"/><path d="M602.4 151.6 Q594.8 144 584 144 573.2 144 565.6 151.6 558 159.2 558 170 558 180.8 565.6 188.4 573.2 196 584 196 594.8 196 602.4 188.4 610 180.8 610 170 610 159.2 602.4 151.6 M614 170 Q614 182.45 605.2 191.2 596.45 200 584 200 571.55 200 562.75 191.2 554 182.45 554 170 554 157.55 562.75 148.75 571.55 140 584 140 596.45 140 605.2 148.75 614 157.55 614 170" fill="var(--svg-fill-color)" stroke="var(--svg-stroke-color)"/><path d="M602.4 220.6 Q594.8 213 584 213 573.2 213 565.6 220.6 558 228.2 558 239 558 249.8 565.6 257.4 573.2 265 584 265 594.8 265 602.4 257.4 610 249.8 610 239 610 228.2 602.4 220.6 M614 239 Q614 251.45 605.2 260.2 596.45 269 584 269 571.55 269 562.75 260.2 554 251.45 554 239 554 226.55 562.75 217.75 571.55 209 584 209 596.45 209 605.2 217.75 614 226.55 614 239" fill="var(--svg-fill-color)" stroke="var(--svg-stroke-color)"/><path d="M662.9 22.05 Q667 26.15 667 32 667 37.8 662.9 41.9 658.8 46 653 46 647.15 46 643.05 41.9 639 37.8 639 32 639 26.2 643.05 22.1 L643.1 22.05 Q647.2 18 653 18 658.8 18 662.9 22.05 M645.9 24.9 L645.85 24.95 Q643 27.9 643 32 L643 32.05 Q643 36.15 645.9 39.1 648.85 42 653 42 657.15 42 660.05 39.1 L660.1 39.05 Q663 36.15 663 32 663 27.85 660.1 24.9 657.15 22 653.05 22 L653 22 Q648.9 22 645.95 24.85 L645.9 24.9 M683 32 Q683 44.45 674.2 53.2 665.45 62 653 62 640.55 62 631.75 53.2 623 44.45 623 32 623 19.55 631.75 10.75 640.55 2 653 2 665.45 2 674.2 10.75 683 19.55 683 32 M671.4 13.6 Q663.8 6 653 6 642.2 6 634.6 13.6 627 21.2 627 32 627 42.8 634.6 50.4 642.2 58 653 58 663.8 58 671.4 50.4 679 42.8 679 32 679 21.2 671.4 13.6" fill="var(--svg-fill-color)" stroke="var(--svg-stroke-color)"/><path d="M476 239 Q476 251.45 467.2 260.2 458.45 269 446 269 433.55 269 424.75 260.2 416 251.45 416 239 416 226.55 424.75 217.75 433.55 209 446 209 458.45 209 467.2 217.75 476 226.55 476 239 M464.4 220.6 Q456.8 213 446 213 435.2 213 427.6 220.6 420 228.2 420 239 420 249.8 427.6 257.4 435.2 265 446 265 456.8 265 464.4 257.4 472 249.8 472 239 472 228.2 464.4 220.6" fill="var(--svg-fill-color)" stroke="var(--svg-stroke-color)"/><path d="M703.6 50.4 Q709 55.8 716 57.35 L720 57.95 720 64 716 64 716 61.45 Q707.35 59.8 700.75 53.2 694.2 46.65 692.55 38 L690 38 690 34 696.1 34 Q696.2 36.05 696.65 38 698.2 45 703.6 50.4 M703.6 13.6 Q698.2 19 696.65 26 696.2 27.95 696.1 30 L690 30 690 26 692.55 26 Q694.2 17.35 700.75 10.75 707.35 4.2 716 2.55 L716 0 720 0 720 6.1 716 6.65 Q709 8.2 703.6 13.6 M740.4 13.6 Q735 8.2 728 6.65 L724 6.1 724 0 728 0 728 2.55 Q736.65 4.2 743.2 10.75 749.8 17.35 751.45 26 L754 26 754 30 747.95 30 747.35 26 Q745.8 19 740.4 13.6 M740.4 50.4 Q745.85 44.95 747.4 37.9 L747.95 34 754 34 754 37.9 751.5 37.9 Q749.85 46.6 743.2 53.2 736.65 59.8 728 61.45 L728 64 724 64 724 57.95 728 57.35 Q735 55.8 740.4 50.4" fill="var(--svg-fill-color)" stroke="var(--svg-stroke-color)"/><path d="M533.4 220.6 Q525.8 213 515 213 504.2 213 496.6 220.6 489 228.2 489 239 489 249.8 496.6 257.4 504.2 265 515 265 525.8 265 533.4 257.4 541 249.8 541 239 541 228.2 533.4 220.6 M545 239 Q545 251.45 536.2 260.2 527.45 269 515 269 502.55 269 493.75 260.2 485 251.45 485 239 485 226.55 493.75 217.75 502.55 209 515 209 527.45 209 536.2 217.75 545 226.55 545 239" fill="var(--svg-fill-color)" stroke="var(--svg-stroke-color)"/><path d="M545 101 Q545 113.45 536.2 122.2 527.45 131 515 131 502.55 131 493.75 122.2 485 113.45 485 101 485 88.55 493.75 79.75 502.55 71 515 71 527.45 71 536.2 79.75 545 88.55 545 101 M533.4 82.6 Q525.8 75 515 75 504.2 75 496.6 82.6 489 90.2 489 101 489 111.8 496.6 119.4 504.2 127 515 127 525.8 127 533.4 119.4 541 111.8 541 101 541 90.2 533.4 82.6" fill="var(--svg-fill-color)" stroke="var(--svg-stroke-color)"/><path d="M515 87 Q518.9 87 522.05 88.85 L520.05 92.3 Q517.8 91 515.05 91 L515 91 512.25 91.35 Q511.05 91.7 510 92.3 L508 88.85 Q509.95 87.65 512.25 87.25 L515 87 M501 101 Q501 97.1 502.85 94 L506.3 96 Q505 98.25 505 101 L505 101.05 Q505 103.75 506.3 106 L502.8 108 Q501 104.85 501 101 M529 101 Q529 104.9 527.15 108.05 L523.7 106.05 Q525 103.8 525 101 525 98.2 523.7 95.95 L527.15 93.95 Q529 97.05 529 101 M515 115 Q511.1 115 508 113.2 L510 109.7 Q512.2 111 515 111 517.8 111 520.05 109.7 L522.05 113.15 Q518.9 115 515 115" fill="var(--svg-fill-color)" stroke="var(--svg-stroke-color)"/><path d="M533.4 151.6 Q525.8 144 515 144 504.2 144 496.6 151.6 489 159.2 489 170 489 180.8 496.6 188.4 504.2 196 515 196 525.8 196 533.4 188.4 541 180.8 541 170 541 159.2 533.4 151.6 M545 170 Q545 182.45 536.2 191.2 527.45 200 515 200 502.55 200 493.75 191.2 485 182.45 485 170 485 157.55 493.75 148.75 502.55 140 515 140 527.45 140 536.2 148.75 545 157.55 545 170" fill="var(--svg-fill-color)" stroke="var(--svg-stroke-color)"/><path d="M683 101 Q683 113.45 674.2 122.2 665.45 131 653 131 640.55 131 631.75 122.2 623 113.45 623 101 623 88.55 631.75 79.75 640.55 71 653 71 665.45 71 674.2 79.75 683 88.55 683 101 M671.4 82.6 Q663.8 75 653 75 642.2 75 634.6 82.6 627 90.2 627 101 627 111.8 634.6 119.4 642.2 127 653 127 663.8 127 671.4 119.4 679 111.8 679 101 679 90.2 671.4 82.6" fill="var(--svg-fill-color)" stroke="var(--svg-stroke-color)"/><path d="M665.7 88.25 Q671 93.55 671 101 671 108.4 665.7 113.7 660.4 119 653 119 645.55 119 640.25 113.7 635 108.45 635 101 635 93.55 640.25 88.3 L640.3 88.25 Q645.55 83 653 83 660.45 83 665.7 88.25 M643.1 91.1 Q639 95.2 639 101 639 106.8 643.1 110.9 647.2 115 653 115 658.75 115 662.85 110.9 L662.9 110.85 Q667 106.75 667 101 667 95.2 662.9 91.1 658.8 87 653 87 647.2 87 643.1 91.1" fill="var(--svg-fill-color)" stroke="var(--svg-stroke-color)"/><path d="M379 345 L379 367 375 367 375 345 379 345 M345 375 L367 375 367 379 345 379 345 375 M387 375 L409 375 409 379 387 379 387 375 M379 387 L379 409 375 409 375 387 379 387" fill="var(--svg-fill-color)" stroke="var(--svg-stroke-color)"/><path d="M284 349 L332 349 Q333.65 349 334.85 350.2 336 351.35 336 353 L336 401 Q336 402.65 334.85 403.8 333.65 405 332 405 L284 405 Q282.35 405 281.15 403.8 280 402.65 280 401 L280 353 Q280 351.35 281.15 350.2 282.35 349 284 349 M284 401 L332 401 332 353 284 353 284 401" fill="var(--svg-fill-color)" stroke="var(--svg-stroke-color)"/><path d="M302 367 L314 367 Q315.65 367 316.85 368.2 318 369.35 318 371 L318 383 Q318 384.65 316.85 385.8 315.65 387 314 387 L302 387 Q300.35 387 299.15 385.8 298 384.65 298 383 L298 371 Q298 369.35 299.15 368.2 300.35 367 302 367 M302 383 L314 383 314 371 302 371 302 383" fill="var(--svg-fill-color)" stroke="var(--svg-stroke-color)"/><path d="M353 288 L365 288 365 292 353 292 353 304 349 304 349 292 Q349 290.35 350.15 289.2 351.35 288 353 288 M401 288 Q402.65 288 403.85 289.2 405 290.35 405 292 L405 304 401 304 401 292 389 292 389 288 401 288 M353 328 Q351.35 328 350.15 326.8 349 325.65 349 324 L349 312 353 312 353 324 365 324 365 328 353 328 M405 324 Q405 325.65 403.85 326.8 402.65 328 401 328 L389 328 389 324 401 324 401 312 405 312 405 324" fill="var(--svg-fill-color)" stroke="var(--svg-stroke-color)"/><path d="M533.4 289.6 Q525.8 282 515 282 504.2 282 496.6 289.6 489 297.2 489 308 489 318.8 496.6 326.4 504.2 334 515 334 525.8 334 533.4 326.4 541 318.8 541 308 541 297.2 533.4 289.6 M545 308 Q545 320.45 536.2 329.2 527.45 338 515 338 502.55 338 493.75 329.2 485 320.45 485 308 485 295.55 493.75 286.75 502.55 278 515 278 527.45 278 536.2 286.75 545 295.55 545 308" fill="var(--svg-fill-color)" stroke="var(--svg-stroke-color)"/><path d="M460.15 293.85 Q454.3 288 446 288 437.7 288 431.85 293.85 426 299.7 426 308 426 316.3 431.85 322.15 437.7 328 446 328 454.3 328 460.1 322.15 L460.15 322.1 Q466 316.3 466 308 466 299.7 460.15 293.85 M470 308 Q470 317.95 462.95 324.95 455.95 332 446 332 436.05 332 429 324.95 422 317.95 422 308 422 298.05 429 291 436.05 284 446 284 455.95 284 462.95 291 470 298.05 470 308" fill="var(--svg-fill-color)" stroke="var(--svg-stroke-color)"/></svg>