<svg xmlns="http://www.w3.org/2000/svg" xmlns:xlink="http://www.w3.org/1999/xlink" width="64" height="64" viewBox="1 345 62 64"><path d="M38 629 L43 634 40 637 36 633 28 633 24 637 21 634 26 629 38 629 M32 655 Q31.15 655 30.6 654.4 30 653.85 30 653 30 652.15 30.55 651.6 L30.6 651.55 Q31.15 651 32 651 32.85 651 33.45 651.55 34 652.15 34 653 34 653.85 33.45 654.4 L33.4 654.45 Q32.85 655 32 655 M38 677 L26 677 21 672 24 669 28 673 36 673 40 669 43 672 38 677 M2 653 L8 647 10 649 6 653 10 657 8 659 2 653 M62 653 L56 659 54 657 58 653 54 649 56 647 62 653" fill="var(--svg-fill-color)" stroke="var(--svg-stroke-color)"/><path d="M48 371 L52 371 52 375 44 375 44 369 40 365 34 365 34 357 38 357 38 361 42 361 48 367 48 371 M16 371 L16 367 22 361 26 361 26 357 30 357 30 365 24 365 20 369 20 375 12 375 12 371 16 371 M16 383 L12 383 12 379 20 379 20 385 24 389 30 389 30 397 26 397 26 393 22 393 16 387 16 383 M48 383 L48 387 42 393 38 393 38 397 34 397 34 389 40 389 44 385 44 379 52 379 52 383 48 383" fill="var(--svg-fill-color)" stroke="var(--svg-stroke-color)"/><path d="M10.75 562.75 Q18.85 554.7 30 554.05 L32 554 34 554.05 Q45.15 554.7 53.2 562.75 61.3 570.85 61.95 582 L59.95 582 Q59.3 571.65 51.8 564.2 44.35 556.7 34 556.1 L32 556 30 556.05 Q19.65 556.7 12.2 564.15 L12.15 564.2 Q9.7 566.65 8 569.4 4.5 575.05 4.05 582 L2.05 582 Q2.6 572.9 8 565.9 L10.75 562.75 M2 554 L10 554 10 558 6 558 6 562 2 562 2 554 M53.2 605.2 Q45.15 613.3 34 613.95 L32 614 30 613.95 Q18.85 613.3 10.75 605.2 L8 602.1 Q2.6 595.05 2.05 586 L4.1 586 Q4.5 592.9 8 598.55 9.7 601.3 12.2 603.8 19.65 611.3 30 611.95 L32 612 34 611.95 Q44.35 611.3 51.8 603.8 59.3 596.35 59.95 586 L61.95 586 Q61.3 597.15 53.2 605.2 M20.65 595.3 Q16.7 591.35 16.1 586 L18.15 586 Q18.7 590.55 22.1 593.9 25.45 597.25 30 597.9 L30 599.9 Q24.65 599.3 20.65 595.3 M20.65 572.65 Q24.65 568.7 30 568.1 L30 570.15 Q25.45 570.7 22.1 574.05 L22.05 574.1 Q18.7 577.45 18.15 582 L16.1 582 Q16.7 576.65 20.65 572.65 M34 584.05 Q34 584.85 33.4 585.4 32.85 586 32.05 586 L31.95 586 Q31.15 586 30.55 585.4 30 584.85 30 584.05 L30 583.95 Q30 583.15 30.55 582.55 31.15 582 31.95 582 L32.05 582 Q32.85 582 33.4 582.55 34 583.15 34 583.95 L34 584.05 M43.3 572.65 Q47.3 576.65 47.9 582 L45.9 582 Q45.25 577.45 41.9 574.1 38.55 570.7 34 570.15 L34 568.1 Q39.35 568.7 43.3 572.65 M62 554 L62 562 58 562 58 558 54 558 54 554 62 554 M43.3 595.3 Q39.35 599.3 34 599.9 L34 597.9 Q38.55 597.3 41.9 593.9 45.3 590.55 45.9 586 L47.9 586 Q47.3 591.35 43.3 595.3 M62 614 L54 614 54 610 58 610 58 606 62 606 62 614 M2 614 L2 606 6 606 6 610 10 610 10 614 2 614" fill="var(--svg-fill-color)" stroke="var(--svg-stroke-color)"/><path d="M103 653 Q103 653.85 102.4 654.4 101.85 655 101 655 100.15 655 99.55 654.4 99 653.85 99 653 99 652.15 99.55 651.55 100.15 651 101 651 101.85 651 102.4 651.55 103 652.15 103 653 M89 661 L69 661 69 657 91 657 101 667 111 657 133 657 133 661 113 661 101 673 89 661 M89 645 L101 633 113 645 133 645 133 649 111 649 101 639 91 649 69 649 69 645 89 645" fill="var(--svg-fill-color)" stroke="var(--svg-stroke-color)"/></svg>