<svg xmlns="http://www.w3.org/2000/svg" xmlns:xlink="http://www.w3.org/1999/xlink" width="64" height="64" viewBox="346 345 62 64"><path d="M602.4 151.6 Q594.8 144 584 144 573.2 144 565.6 151.6 558 159.2 558 170 558 180.8 565.6 188.4 573.2 196 584 196 594.8 196 602.4 188.4 610 180.8 610 170 610 159.2 602.4 151.6 M614 170 Q614 182.45 605.2 191.2 596.45 200 584 200 571.55 200 562.75 191.2 554 182.45 554 170 554 157.55 562.75 148.75 571.55 140 584 140 596.45 140 605.2 148.75 614 157.55 614 170" fill="var(--svg-fill-color)" stroke="var(--svg-stroke-color)"/><path d="M602.4 220.6 Q594.8 213 584 213 573.2 213 565.6 220.6 558 228.2 558 239 558 249.8 565.6 257.4 573.2 265 584 265 594.8 265 602.4 257.4 610 249.8 610 239 610 228.2 602.4 220.6 M614 239 Q614 251.45 605.2 260.2 596.45 269 584 269 571.55 269 562.75 260.2 554 251.45 554 239 554 226.55 562.75 217.75 571.55 209 584 209 596.45 209 605.2 217.75 614 226.55 614 239" fill="var(--svg-fill-color)" stroke="var(--svg-stroke-color)"/><path d="M476 239 Q476 251.45 467.2 260.2 458.45 269 446 269 433.55 269 424.75 260.2 416 251.45 416 239 416 226.55 424.75 217.75 433.55 209 446 209 458.45 209 467.2 217.75 476 226.55 476 239 M464.4 220.6 Q456.8 213 446 213 435.2 213 427.6 220.6 420 228.2 420 239 420 249.8 427.6 257.4 435.2 265 446 265 456.8 265 464.4 257.4 472 249.8 472 239 472 228.2 464.4 220.6" fill="var(--svg-fill-color)" stroke="var(--svg-stroke-color)"/><path d="M703.6 50.4 Q709 55.8 716 57.35 L720 57.95 720 64 716 64 716 61.45 Q707.35 59.8 700.75 53.2 694.2 46.65 692.55 38 L690 38 690 34 696.1 34 Q696.2 36.05 696.65 38 698.2 45 703.6 50.4 M703.6 13.6 Q698.2 19 696.65 26 696.2 27.95 696.1 30 L690 30 690 26 692.55 26 Q694.2 17.35 700.75 10.75 707.35 4.2 716 2.55 L716 0 720 0 720 6.1 716 6.65 Q709 8.2 703.6 13.6 M740.4 13.6 Q735 8.2 728 6.65 L724 6.1 724 0 728 0 728 2.55 Q736.65 4.2 743.2 10.75 749.8 17.35 751.45 26 L754 26 754 30 747.95 30 747.35 26 Q745.8 19 740.4 13.6 M740.4 50.4 Q745.85 44.95 747.4 37.9 L747.95 34 754 34 754 37.9 751.5 37.9 Q749.85 46.6 743.2 53.2 736.65 59.8 728 61.45 L728 64 724 64 724 57.95 728 57.35 Q735 55.8 740.4 50.4" fill="var(--svg-fill-color)" stroke="var(--svg-stroke-color)"/><path d="M533.4 220.6 Q525.8 213 515 213 504.2 213 496.6 220.6 489 228.2 489 239 489 249.8 496.6 257.4 504.2 265 515 265 525.8 265 533.4 257.4 541 249.8 541 239 541 228.2 533.4 220.6 M545 239 Q545 251.45 536.2 260.2 527.45 269 515 269 502.55 269 493.75 260.2 485 251.45 485 239 485 226.55 493.75 217.75 502.55 209 515 209 527.45 209 536.2 217.75 545 226.55 545 239" fill="var(--svg-fill-color)" stroke="var(--svg-stroke-color)"/><path d="M683 101 Q683 113.45 674.2 122.2 665.45 131 653 131 640.55 131 631.75 122.2 623 113.45 623 101 623 88.55 631.75 79.75 640.55 71 653 71 665.45 71 674.2 79.75 683 88.55 683 101 M671.4 82.6 Q663.8 75 653 75 642.2 75 634.6 82.6 627 90.2 627 101 627 111.8 634.6 119.4 642.2 127 653 127 663.8 127 671.4 119.4 679 111.8 679 101 679 90.2 671.4 82.6" fill="var(--svg-fill-color)" stroke="var(--svg-stroke-color)"/><path d="M665.7 88.25 Q671 93.55 671 101 671 108.4 665.7 113.7 660.4 119 653 119 645.55 119 640.25 113.7 635 108.45 635 101 635 93.55 640.25 88.3 L640.3 88.25 Q645.55 83 653 83 660.45 83 665.7 88.25 M643.1 91.1 Q639 95.2 639 101 639 106.8 643.1 110.9 647.2 115 653 115 658.75 115 662.85 110.9 L662.9 110.85 Q667 106.75 667 101 667 95.2 662.9 91.1 658.8 87 653 87 647.2 87 643.1 91.1" fill="var(--svg-fill-color)" stroke="var(--svg-stroke-color)"/><path d="M379 345 L379 367 375 367 375 345 379 345 M345 375 L367 375 367 379 345 379 345 375 M387 375 L409 375 409 379 387 379 387 375 M379 387 L379 409 375 409 375 387 379 387" fill="var(--svg-fill-color)" stroke="var(--svg-stroke-color)"/><path d="M353 349 L401 349 Q402.65 349 403.85 350.2 405 351.35 405 353 L405 401 Q405 402.65 403.85 403.8 402.65 405 401 405 L353 405 Q351.35 405 350.15 403.8 349 402.65 349 401 L349 353 Q349 351.35 350.15 350.2 351.35 349 353 349 M353 401 L401 401 401 353 353 353 353 401" fill="var(--svg-fill-color)" stroke="var(--svg-stroke-color)"/><path d="M389 377 Q389 381.95 385.45 385.45 381.95 389 377 389 372.05 389 368.5 385.45 365 381.95 365 377 365 372.05 368.5 368.5 372.05 365 377 365 381.95 365 385.45 368.5 389 372.05 389 377 M377 369 Q373.7 369 371.35 371.3 L371.3 371.35 Q369 373.7 369 377 369 380.3 371.35 382.65 373.7 385 377 385 380.3 385 382.6 382.65 L382.65 382.6 Q385 380.3 385 377 385 373.7 382.65 371.35 380.3 369 377 369" fill="var(--svg-fill-color)" stroke="var(--svg-stroke-color)"/><path d="M284 349 L332 349 Q333.65 349 334.85 350.2 336 351.35 336 353 L336 401 Q336 402.65 334.85 403.8 333.65 405 332 405 L284 405 Q282.35 405 281.15 403.8 280 402.65 280 401 L280 353 Q280 351.35 281.15 350.2 282.35 349 284 349 M284 401 L332 401 332 353 284 353 284 401" fill="var(--svg-fill-color)" stroke="var(--svg-stroke-color)"/><path d="M302 367 L314 367 Q315.65 367 316.85 368.2 318 369.35 318 371 L318 383 Q318 384.65 316.85 385.8 315.65 387 314 387 L302 387 Q300.35 387 299.15 385.8 298 384.65 298 383 L298 371 Q298 369.35 299.15 368.2 300.35 367 302 367 M302 383 L314 383 314 371 302 371 302 383" fill="var(--svg-fill-color)" stroke="var(--svg-stroke-color)"/><path d="M353 288 L365 288 365 292 353 292 353 304 349 304 349 292 Q349 290.35 350.15 289.2 351.35 288 353 288 M401 288 Q402.65 288 403.85 289.2 405 290.35 405 292 L405 304 401 304 401 292 389 292 389 288 401 288 M353 328 Q351.35 328 350.15 326.8 349 325.65 349 324 L349 312 353 312 353 324 365 324 365 328 353 328 M405 324 Q405 325.65 403.85 326.8 402.65 328 401 328 L389 328 389 324 401 324 401 312 405 312 405 324" fill="var(--svg-fill-color)" stroke="var(--svg-stroke-color)"/><path d="M533.4 289.6 Q525.8 282 515 282 504.2 282 496.6 289.6 489 297.2 489 308 489 318.8 496.6 326.4 504.2 334 515 334 525.8 334 533.4 326.4 541 318.8 541 308 541 297.2 533.4 289.6 M545 308 Q545 320.45 536.2 329.2 527.45 338 515 338 502.55 338 493.75 329.2 485 320.45 485 308 485 295.55 493.75 286.75 502.55 278 515 278 527.45 278 536.2 286.75 545 295.55 545 308" fill="var(--svg-fill-color)" stroke="var(--svg-stroke-color)"/><path d="M460.15 293.85 Q454.3 288 446 288 437.7 288 431.85 293.85 426 299.7 426 308 426 316.3 431.85 322.15 437.7 328 446 328 454.3 328 460.1 322.15 L460.15 322.1 Q466 316.3 466 308 466 299.7 460.15 293.85 M470 308 Q470 317.95 462.95 324.95 455.95 332 446 332 436.05 332 429 324.95 422 317.95 422 308 422 298.05 429 291 436.05 284 446 284 455.95 284 462.95 291 470 298.05 470 308" fill="var(--svg-fill-color)" stroke="var(--svg-stroke-color)"/><path d="M401 418 Q402.65 418 403.85 419.2 405 420.35 405 422 L405 442 401 442 401 422 381 422 381 418 401 418 M405 470 Q405 471.65 403.85 472.8 402.65 474 401 474 L381 474 381 470 401 470 401 450 405 450 405 470 M405 448 L395 448 395 444 405 444 405 448 M379 418 L379 428 375 428 375 418 379 418 M353 418 L373 418 373 422 353 422 353 442 349 442 349 422 Q349 420.35 350.15 419.2 351.35 418 353 418 M359 448 L349 448 349 444 359 444 359 448 M353 474 Q351.35 474 350.15 472.8 349 471.65 349 470 L349 450 353 450 353 470 373 470 373 474 353 474 M379 464 L379 474 375 474 375 464 379 464" fill="var(--svg-fill-color)" stroke="var(--svg-stroke-color)"/><path d="M292 426 L300 426 300 430 292 430 292 438 288 438 288 430 Q288 428.35 289.15 427.2 290.35 426 292 426 M284 444 L292 444 292 448 284 448 284 444 M306 430 L306 422 310 422 310 430 306 430 M324 426 Q325.65 426 326.85 427.2 328 428.35 328 430 L328 438 324 438 324 430 316 430 316 426 324 426 M324 466 L316 466 316 462 324 462 324 454 328 454 328 462 Q328 463.65 326.85 464.8 325.65 466 324 466 M292 466 Q290.35 466 289.15 464.8 288 463.65 288 462 L288 454 292 454 292 462 300 462 300 466 292 466 M306 462 L310 462 310 470 306 470 306 462 M324 444 L332 444 332 448 324 448 324 444" fill="var(--svg-fill-color)" stroke="var(--svg-stroke-color)"/><path d="M465.8 357.2 Q458.95 350.35 449.8 349.25 L446 353 442.25 349.25 Q433.05 350.35 426.2 357.15 L426.15 357.2 Q419.35 364.05 418.25 373.25 L422 377 418.25 380.8 Q419.35 389.95 426.2 396.8 433.05 403.65 442.25 404.8 L446 401 449.8 404.8 Q458.95 403.65 465.8 396.8 472.65 389.95 473.8 380.8 L470 377 473.8 373.25 Q472.65 364.05 465.8 357.2 M476 377 Q476 379.85 475.55 382.55 474 391.45 467.2 398.2 460.45 405 451.55 406.55 L446 407 440.5 406.55 Q431.55 405 424.75 398.2 418 391.45 416.5 382.55 416 379.85 416 377 416 374.15 416.5 371.5 418 362.55 424.75 355.75 431.55 349 440.5 347.5 L446 347 451.55 347.5 Q460.45 349 467.2 355.75 474 362.55 475.55 371.5 476 374.15 476 377" fill="var(--svg-fill-color)" stroke="var(--svg-stroke-color)"/><path d="M103 653 Q103 653.85 102.4 654.4 101.85 655 101 655 100.15 655 99.55 654.4 99 653.85 99 653 99 652.15 99.55 651.55 100.15 651 101 651 101.85 651 102.4 651.55 103 652.15 103 653 M89 661 L69 661 69 657 91 657 101 667 111 657 133 657 133 661 113 661 101 673 89 661 M89 645 L101 633 113 645 133 645 133 649 111 649 101 639 91 649 69 649 69 645 89 645" fill="var(--svg-fill-color)" stroke="var(--svg-stroke-color)"/></svg>