<svg xmlns="http://www.w3.org/2000/svg" xmlns:xlink="http://www.w3.org/1999/xlink" width="64" height="64" viewBox="553 345 62 64"><path d="M602.4 151.6 Q594.8 144 584 144 573.2 144 565.6 151.6 558 159.2 558 170 558 180.8 565.6 188.4 573.2 196 584 196 594.8 196 602.4 188.4 610 180.8 610 170 610 159.2 602.4 151.6 M614 170 Q614 182.45 605.2 191.2 596.45 200 584 200 571.55 200 562.75 191.2 554 182.45 554 170 554 157.55 562.75 148.75 571.55 140 584 140 596.45 140 605.2 148.75 614 157.55 614 170" fill="var(--svg-fill-color)" stroke="var(--svg-stroke-color)"/><path d="M602.4 220.6 Q594.8 213 584 213 573.2 213 565.6 220.6 558 228.2 558 239 558 249.8 565.6 257.4 573.2 265 584 265 594.8 265 602.4 257.4 610 249.8 610 239 610 228.2 602.4 220.6 M614 239 Q614 251.45 605.2 260.2 596.45 269 584 269 571.55 269 562.75 260.2 554 251.45 554 239 554 226.55 562.75 217.75 571.55 209 584 209 596.45 209 605.2 217.75 614 226.55 614 239" fill="var(--svg-fill-color)" stroke="var(--svg-stroke-color)"/><path d="M574.1 229.1 Q570 233.2 570 239 570 244.8 574.1 248.9 578.2 253 584 253 589.75 253 593.85 248.9 L593.9 248.85 Q598 244.75 598 239 598 233.2 593.9 229.1 589.8 225 584 225 578.2 225 574.1 229.1 M596.7 226.25 Q602 231.55 602 239 602 246.4 596.7 251.7 591.4 257 584 257 576.55 257 571.25 251.7 566 246.45 566 239 566 231.55 571.25 226.3 L571.3 226.25 Q576.55 221 584 221 591.45 221 596.7 226.25" fill="var(--svg-fill-color)" stroke="var(--svg-stroke-color)"/><path d="M703.6 50.4 Q709 55.8 716 57.35 L720 57.95 720 64 716 64 716 61.45 Q707.35 59.8 700.75 53.2 694.2 46.65 692.55 38 L690 38 690 34 696.1 34 Q696.2 36.05 696.65 38 698.2 45 703.6 50.4 M703.6 13.6 Q698.2 19 696.65 26 696.2 27.95 696.1 30 L690 30 690 26 692.55 26 Q694.2 17.35 700.75 10.75 707.35 4.2 716 2.55 L716 0 720 0 720 6.1 716 6.65 Q709 8.2 703.6 13.6 M740.4 13.6 Q735 8.2 728 6.65 L724 6.1 724 0 728 0 728 2.55 Q736.65 4.2 743.2 10.75 749.8 17.35 751.45 26 L754 26 754 30 747.95 30 747.35 26 Q745.8 19 740.4 13.6 M740.4 50.4 Q745.85 44.95 747.4 37.9 L747.95 34 754 34 754 37.9 751.5 37.9 Q749.85 46.6 743.2 53.2 736.65 59.8 728 61.45 L728 64 724 64 724 57.95 728 57.35 Q735 55.8 740.4 50.4" fill="var(--svg-fill-color)" stroke="var(--svg-stroke-color)"/><path d="M740.4 119.4 Q745.5 114.3 747.2 107.75 L751.05 108.75 Q749.1 116.3 743.2 122.2 737.3 128.1 729.75 130.05 726.1 131 722 131 717.85 131 714.15 130.05 706.65 128.1 700.8 122.25 L700.75 122.2 Q694.9 116.35 692.95 108.8 L696.85 107.75 Q698.5 114.3 703.6 119.4 708.65 124.45 715.2 126.15 L722 127 Q725.55 127 728.7 126.2 735.3 124.5 740.4 119.4 M740.4 82.6 Q735.3 77.5 728.7 75.8 L722 75 Q718.45 75 715.25 75.85 708.7 77.5 703.6 82.6 698.5 87.7 696.8 94.3 L692.95 93.25 Q694.85 85.65 700.75 79.75 706.65 73.9 714.2 71.95 717.9 71 722 71 726.05 71 729.75 71.95 737.3 73.85 743.2 79.75 L743.25 79.8 Q749.1 85.65 751.05 93.2 L747.2 94.25 Q745.5 87.7 740.4 82.6" fill="var(--svg-fill-color)" stroke="var(--svg-stroke-color)"/><path d="M714.9 162.9 L714.85 162.95 Q712 165.9 712 170 L712 170.05 Q712 174.15 714.9 177.1 717.85 180 722 180 726.15 180 729.05 177.1 L729.1 177.05 Q732 174.15 732 170 732 165.85 729.1 162.9 726.15 160 722.05 160 L722 160 Q717.9 160 714.95 162.85 L714.9 162.9 M731.9 160.05 Q736 164.15 736 170 736 175.8 731.9 179.9 727.8 184 722 184 716.15 184 712.05 179.9 708 175.8 708 170 708 164.2 712.05 160.1 L712.1 160.05 Q716.2 156 722 156 727.8 156 731.9 160.05 M724 170 Q724 170.85 723.4 171.4 722.85 172 722 172 721.15 172 720.55 171.4 720 170.85 720 170 720 169.15 720.55 168.55 721.15 168 722 168 722.85 168 723.4 168.55 724 169.15 724 170" fill="var(--svg-fill-color)" stroke="var(--svg-stroke-color)"/><path d="M752 170 Q752 182.45 743.2 191.2 734.45 200 722 200 709.55 200 700.75 191.2 692 182.45 692 170 692 157.55 700.75 148.75 709.55 140 722 140 734.45 140 743.2 148.75 752 157.55 752 170 M740.4 151.6 Q732.8 144 722 144 711.2 144 703.6 151.6 696 159.2 696 170 696 180.8 703.6 188.4 711.2 196 722 196 732.8 196 740.4 188.4 748 180.8 748 170 748 159.2 740.4 151.6" fill="var(--svg-fill-color)" stroke="var(--svg-stroke-color)"/><path d="M683 101 Q683 113.45 674.2 122.2 665.45 131 653 131 640.55 131 631.75 122.2 623 113.45 623 101 623 88.55 631.75 79.75 640.55 71 653 71 665.45 71 674.2 79.75 683 88.55 683 101 M671.4 82.6 Q663.8 75 653 75 642.2 75 634.6 82.6 627 90.2 627 101 627 111.8 634.6 119.4 642.2 127 653 127 663.8 127 671.4 119.4 679 111.8 679 101 679 90.2 671.4 82.6" fill="var(--svg-fill-color)" stroke="var(--svg-stroke-color)"/><path d="M665.7 88.25 Q671 93.55 671 101 671 108.4 665.7 113.7 660.4 119 653 119 645.55 119 640.25 113.7 635 108.45 635 101 635 93.55 640.25 88.3 L640.3 88.25 Q645.55 83 653 83 660.45 83 665.7 88.25 M643.1 91.1 Q639 95.2 639 101 639 106.8 643.1 110.9 647.2 115 653 115 658.75 115 662.85 110.9 L662.9 110.85 Q667 106.75 667 101 667 95.2 662.9 91.1 658.8 87 653 87 647.2 87 643.1 91.1" fill="var(--svg-fill-color)" stroke="var(--svg-stroke-color)"/><path d="M671.4 151.6 Q663.8 144 653 144 642.2 144 634.6 151.6 627 159.2 627 170 627 180.8 634.6 188.4 642.2 196 653 196 663.8 196 671.4 188.4 679 180.8 679 170 679 159.2 671.4 151.6 M683 170 Q683 182.45 674.2 191.2 665.45 200 653 200 640.55 200 631.75 191.2 623 182.45 623 170 623 157.55 631.75 148.75 640.55 140 653 140 665.45 140 674.2 148.75 683 157.55 683 170" fill="var(--svg-fill-color)" stroke="var(--svg-stroke-color)"/><path d="M671.4 220.6 Q663.8 213 653 213 642.2 213 634.6 220.6 627 228.2 627 239 627 249.8 634.6 257.4 642.2 265 653 265 663.8 265 671.4 257.4 679 249.8 679 239 679 228.2 671.4 220.6 M683 239 Q683 251.45 674.2 260.2 665.45 269 653 269 640.55 269 631.75 260.2 623 251.45 623 239 623 226.55 631.75 217.75 640.55 209 653 209 665.45 209 674.2 217.75 683 226.55 683 239" fill="var(--svg-fill-color)" stroke="var(--svg-stroke-color)"/><path d="M655.85 236.2 Q654.65 235 653 235 651.35 235 650.2 236.2 649 237.35 649 239 649 240.65 650.2 241.85 651.35 243 653 243 654.65 243 655.85 241.85 657 240.65 657 239 657 237.35 655.85 236.2 M661 239 Q661 242.3 658.65 244.65 656.3 247 653 247 649.7 247 647.35 244.65 645 242.3 645 239 645 235.7 647.35 233.35 649.7 231 653 231 656.3 231 658.65 233.35 661 235.7 661 239" fill="var(--svg-fill-color)" stroke="var(--svg-stroke-color)"/><path d="M772.6 50.4 Q775.1 52.9 778 54.6 L776 58.05 Q772.65 56.1 769.75 53.2 766.9 50.35 764.95 47.05 761 40.35 761 32 761 23.65 764.95 16.95 766.85 13.65 769.75 10.75 772.65 7.85 775.95 5.95 L777.95 9.45 Q775.1 11.1 772.6 13.6 770.1 16.1 768.45 19 765 24.75 765 32 765 39.25 768.45 45.05 770.1 47.9 772.6 50.4 M809.4 13.6 Q806.9 11.1 804.05 9.45 L806.05 5.95 Q809.3 7.85 812.2 10.75 815.1 13.65 817.05 17 821 23.65 821 32 821 40.35 817.05 47.05 815.1 50.3 812.2 53.2 809.3 56.1 806.05 58.05 L804.05 54.6 Q806.9 52.9 809.4 50.4 811.9 47.9 813.6 45.05 817 39.25 817 32 817 24.75 813.6 19 811.9 16.1 809.4 13.6 M793 32 Q793 32.8 792.35 33.35 791.8 34 791 34 790.2 34 789.55 33.35 789 32.8 789 32 789 31.2 789.55 30.55 790.2 30 791 30 791.8 30 792.35 30.55 793 31.2 793 32" fill="var(--svg-fill-color)" stroke="var(--svg-stroke-color)"/><path d="M772.6 82.6 Q766.45 88.75 765.3 97 L761.25 97 Q762.45 87.1 769.75 79.75 777.1 72.45 787 71.25 L787 75.3 Q778.75 76.45 772.6 82.6 M809.4 119.4 Q815.55 113.25 816.75 105 L820.75 105 Q819.55 114.9 812.2 122.2 804.9 129.55 795 130.75 L795 126.75 Q803.25 125.55 809.4 119.4 M809.4 82.6 Q803.25 76.45 795 75.3 L795 71.25 Q804.9 72.45 812.2 79.75 819.55 87.1 820.75 97 L816.75 97 Q815.55 88.75 809.4 82.6 M785 95 L789 95 789 99 785 99 785 95 M793 95 L797 95 797 99 793 99 793 95 M793 103 L797 103 797 107 793 107 793 103 M785 103 L789 103 789 107 785 107 785 103 M772.6 119.4 Q778.75 125.55 787 126.75 L787 130.75 Q777.1 129.55 769.75 122.2 762.45 114.9 761.25 105 L765.3 105 Q766.45 113.25 772.6 119.4" fill="var(--svg-fill-color)" stroke="var(--svg-stroke-color)"/><path d="M791 144 Q783.15 144 777 148 L774.15 145.15 Q781.5 140 791 140 800.5 140 807.9 145.15 L805 148 Q798.85 144 791 144 M817 170 Q817 162.15 813 156 L815.9 153.15 Q821 160.5 821 170 821 179.5 815.9 186.9 L813 184 Q817 177.85 817 170 M821 144 L809 156 805 156 805 152 817 140 821 144 M765 140 L777 152 777 156 773 156 761 144 765 140 M765 170 Q765 177.85 769 184 L766.15 186.9 Q761 179.5 761 170 761 160.5 766.15 153.15 L769 156 Q765 162.15 765 170 M789 170 L791 168 793 170 791 172 789 170 M791 196 Q798.85 196 805 192 L807.9 194.9 Q800.5 200 791 200 781.5 200 774.15 194.9 L777 192 Q783.15 196 791 196 M765 200 L761 196 773 184 777 184 777 188 765 200 M817 200 L805 188 805 184 809 184 821 196 817 200" fill="var(--svg-fill-color)" stroke="var(--svg-stroke-color)"/><path d="M752 239 Q752 251.45 743.2 260.2 734.45 269 722 269 709.55 269 700.75 260.2 692 251.45 692 239 692 226.55 700.75 217.75 709.55 209 722 209 734.45 209 743.2 217.75 752 226.55 752 239 M730.5 233.3 L727.65 230.45 738.9 219.2 Q731.75 213 722 213 712.25 213 705.1 219.2 L716.35 230.45 713.5 233.3 702.25 222.05 Q696 229.2 696 239 696 248.75 702.2 255.9 L713.5 244.6 716.35 247.45 705.05 258.75 Q712.2 265 722 265 731.8 265 738.95 258.75 L727.65 247.45 730.5 244.6 741.8 255.9 Q748 248.75 748 239 748 229.2 741.75 222.05 L730.5 233.3" fill="var(--svg-fill-color)" stroke="var(--svg-stroke-color)"/><path d="M803.75 248.95 L810.8 256 Q817 248.8 817.05 239.05 817 229.3 810.75 222.15 L803.75 229.15 800.9 226.3 807.9 219.3 Q800.75 213.05 791 213 781.25 213.05 774.1 219.3 L781.1 226.3 778.25 229.15 771.25 222.15 Q765 229.3 764.95 239.05 765 248.8 771.2 256 L778.25 248.95 781.1 251.8 774.05 258.85 Q781.25 265.05 791 265.1 800.75 265.05 807.95 258.85 L800.9 251.8 803.75 248.95 M815.05 260.25 L812.2 263.1 810.75 261.65 Q802.4 269.1 791 269 779.6 269.1 771.25 261.65 L769.8 263.1 766.95 260.25 768.4 258.8 Q761 250.5 761 239 760.95 227.65 768.4 219.3 L766.95 217.85 769.8 215 771.25 216.45 Q779.55 209.05 791 209 802.45 209.05 810.75 216.45 L812.2 215 815.05 217.85 813.6 219.3 Q821.05 227.65 821 239 821 250.5 813.6 258.8 L815.05 260.25 M793 239 Q793 239.85 792.4 240.4 791.85 241 791 241 790.15 241 789.55 240.4 789 239.85 789 239 789 238.15 789.55 237.55 790.15 237 791 237 791.85 237 792.4 237.55 793 238.15 793 239" fill="var(--svg-fill-color)" stroke="var(--svg-stroke-color)"/><path d="M841.6 13.6 Q837.8 17.4 835.9 22 835.1 23.95 834.65 26 L828 26 828 22 831.6 22 Q833.75 15.8 838.75 10.75 843.8 5.75 850 3.6 L850 0 854 0 854 6.65 Q851.95 7.1 850 7.9 845.4 9.8 841.6 13.6" fill="var(--svg-fill-color)" stroke="var(--svg-stroke-color)"/><path d="M878.4 13.6 Q874.6 9.8 870 7.9 868.05 7.1 866 6.65 L866 0 870 0 870 3.6 Q876.2 5.75 881.25 10.75 886.25 15.8 888.4 22 L892 22 892 26 885.35 26 Q884.9 23.95 884.1 22 882.2 17.4 878.4 13.6" fill="var(--svg-fill-color)" stroke="var(--svg-stroke-color)"/><path d="M841.6 50.4 Q845.4 54.2 850 56.1 851.95 56.9 854 57.35 L854 64 850 64 850 60.4 Q843.8 58.25 838.75 53.25 833.75 48.2 831.6 42 L828 42 828 38 834.65 38 Q835.1 40.05 835.9 42 837.8 46.6 841.6 50.4" fill="var(--svg-fill-color)" stroke="var(--svg-stroke-color)"/><path d="M878.4 50.4 Q882.2 46.6 884.1 42 L885.35 38 892 38 892 42 888.4 42 Q886.25 48.2 881.25 53.25 876.2 58.25 870 60.4 L870 64 866 64 866 57.35 Q868.05 56.9 870 56.1 874.6 54.2 878.4 50.4" fill="var(--svg-fill-color)" stroke="var(--svg-stroke-color)"/><path d="M860 127 Q867.25 127 873.05 123.6 L875.05 127.05 Q868.35 131 860 131 851.7 131 845 127.1 L847 123.6 Q852.8 127 860 127 M886 101 Q886 93.75 882.6 88 L886.05 86 Q890 92.65 890 101 890 109.4 886 116.1 L882.55 114.1 Q886 108.25 886 101 M834 101 Q834 108.3 837.45 114.1 L834 116.1 Q830 109.4 830 101 830 92.65 833.95 86 L837.4 88 Q834 93.8 834 101 M860 75 Q852.75 75 846.95 78.45 L844.95 74.95 Q851.65 71 860 71 868.35 71 875.05 74.95 L873.05 78.45 Q867.25 75 860 75" fill="var(--svg-fill-color)" stroke="var(--svg-stroke-color)"/><path d="M860 93 Q856.7 93 854.35 95.3 L854.3 95.35 Q852 97.7 852 101 852 104.3 854.35 106.65 856.7 109 860 109 863.3 109 865.6 106.65 L865.65 106.6 Q868 104.3 868 101 868 97.7 865.65 95.35 863.3 93 860 93 M872 101 Q872 105.95 868.45 109.45 864.95 113 860 113 855.05 113 851.5 109.45 848 105.95 848 101 848 96.05 851.5 92.5 855.05 89 860 89 864.95 89 868.45 92.5 872 96.05 872 101" fill="var(--svg-fill-color)" stroke="var(--svg-stroke-color)"/><path d="M860 265 Q867.25 265 873.05 261.6 L875.05 265.05 Q868.35 269 860 269 851.7 269 845 265.1 L847 261.6 Q852.8 265 860 265 M834 239 Q834 246.3 837.45 252.1 L834 254.1 Q830 247.4 830 239 830 230.65 833.95 224 L837.4 226 Q834 231.8 834 239 M886 239 Q886 231.75 882.6 226 L886.05 224 Q890 230.65 890 239 890 247.4 886 254.1 L882.55 252.1 Q886 246.25 886 239 M860 213 Q852.75 213 846.95 216.45 L844.95 212.95 Q851.65 209 860 209 868.35 209 875.05 212.95 L873.05 216.45 Q867.25 213 860 213" fill="var(--svg-fill-color)" stroke="var(--svg-stroke-color)"/><path d="M852.9 231.9 L852.85 231.95 Q850 234.9 850 239 L850 239.05 Q850 243.15 852.9 246.1 855.85 249 860 249 864.15 249 867.05 246.1 L867.1 246.05 Q870 243.15 870 239 870 234.85 867.1 231.9 864.15 229 860.05 229 L860 229 Q855.9 229 852.95 231.85 L852.9 231.9 M862 239 Q862 239.85 861.4 240.4 860.85 241 860 241 859.15 241 858.55 240.4 858 239.85 858 239 858 238.15 858.55 237.55 859.15 237 860 237 860.85 237 861.4 237.55 862 238.15 862 239 M869.9 229.05 Q874 233.15 874 239 874 244.8 869.9 248.9 865.8 253 860 253 854.15 253 850.05 248.9 846 244.8 846 239 846 233.2 850.05 229.1 L850.1 229.05 Q854.2 225 860 225 865.8 225 869.9 229.05" fill="var(--svg-fill-color)" stroke="var(--svg-stroke-color)"/><path d="M998 58 L998 62 Q985.55 62 976.75 53.2 968 44.45 968 32 L972 32 Q972 42.8 979.6 50.4 987.2 58 998 58 M1016.4 13.6 Q1008.8 6 998 6 L998 2 Q1010.45 2 1019.2 10.75 1028 19.55 1028 32 L1024 32 Q1024 21.2 1016.4 13.6" fill="var(--svg-fill-color)" stroke="var(--svg-stroke-color)"/><path d="M884 170 Q884 179.95 876.95 186.95 869.95 194 860 194 850.05 194 843 186.95 836 179.95 836 170 836 160.05 843 153 850.05 146 860 146 869.95 146 876.95 153 884 160.05 884 170 M874.15 155.85 Q868.3 150 860 150 851.7 150 845.85 155.85 840 161.7 840 170 840 178.3 845.85 184.15 851.7 190 860 190 868.3 190 874.1 184.15 L874.15 184.1 Q880 178.3 880 170 880 161.7 874.15 155.85" fill="var(--svg-fill-color)" stroke="var(--svg-stroke-color)"/><path d="M948.8 219.2 Q940.6 211 929 211 917.4 211 909.2 219.15 L909.15 219.2 Q901 227.4 901 239 901 250.6 909.2 258.8 917.4 267 929 267 940.6 267 948.8 258.8 957 250.6 957 239 957 227.4 948.8 219.2 M959 239 Q959 251.45 950.2 260.2 941.45 269 929 269 916.55 269 907.75 260.2 899 251.45 899 239 899 226.55 907.75 217.75 916.55 209 929 209 941.45 209 950.2 217.75 959 226.55 959 239" fill="var(--svg-fill-color)" stroke="var(--svg-stroke-color)"/><path d="M948.8 12.2 Q940.6 4 929 4 917.4 4 909.2 12.15 L909.15 12.2 Q901 20.4 901 32 901 43.6 909.2 51.8 917.4 60 929 60 940.6 60 948.8 51.8 957 43.6 957 32 957 20.4 948.8 12.2 M959 32 Q959 44.45 950.2 53.2 941.45 62 929 62 916.55 62 907.75 53.2 899 44.45 899 32 899 19.55 907.75 10.75 916.55 2 929 2 941.45 2 950.2 10.75 959 19.55 959 32" fill="var(--svg-fill-color)" stroke="var(--svg-stroke-color)"/><path d="M938.9 22.1 Q934.8 18 929 18 923.2 18 919.1 22.05 L919.05 22.1 Q915 26.2 915 32 915 37.8 919.1 41.9 923.2 46 929 46 934.8 46 938.9 41.9 943 37.8 943 32 943 26.2 938.9 22.1 M945 32 Q945 38.65 940.3 43.3 935.65 48 929 48 922.35 48 917.65 43.3 913 38.65 913 32 913 25.35 917.65 20.65 922.35 16 929 16 935.65 16 940.3 20.65 945 25.35 945 32" fill="var(--svg-fill-color)" stroke="var(--svg-stroke-color)"/><path d="M907.75 79.75 Q915.85 71.7 927 71.05 L929 71 931 71.05 Q942.15 71.7 950.2 79.75 958.3 87.85 958.95 99 L956.95 99 Q956.3 88.65 948.8 81.2 941.35 73.7 931 73.1 L929 73 927 73.05 Q916.65 73.7 909.2 81.15 L909.15 81.2 Q906.7 83.65 905 86.4 901.5 92.05 901.05 99 L899.05 99 Q899.6 89.9 905 82.9 906.25 81.25 907.75 79.75 M940.3 89.65 Q944.3 93.65 944.9 99 L942.9 99 Q942.25 94.45 938.9 91.1 935.55 87.7 931 87.15 L931 85.1 Q936.35 85.7 940.3 89.65 M917.65 89.65 Q921.65 85.7 927 85.1 L927 87.15 Q922.45 87.7 919.1 91.05 L919.05 91.1 Q915.7 94.45 915.15 99 L913.1 99 Q913.7 93.65 917.65 89.65 M940.3 112.3 Q936.35 116.3 931 116.9 L931 114.9 Q935.55 114.3 938.9 110.9 942.3 107.55 942.9 103 L944.9 103 Q944.3 108.35 940.3 112.3 M950.2 122.2 Q942.15 130.3 931 130.95 L929 131 927 130.95 Q915.85 130.3 907.75 122.2 L905 119.1 Q899.6 112.05 899.05 103 L901.1 103 Q901.5 109.9 905 115.55 906.7 118.3 909.2 120.8 916.65 128.3 927 128.95 L929 129 931 128.95 Q941.35 128.3 948.8 120.8 956.3 113.35 956.95 103 L958.95 103 Q958.3 114.15 950.2 122.2 M931 101.05 Q931 101.85 930.4 102.4 929.85 103 929.05 103 L928.95 103 Q928.15 103 927.55 102.4 927 101.85 927 101.05 L927 100.95 Q927 100.15 927.55 99.55 928.15 99 928.95 99 L929.05 99 Q929.85 99 930.4 99.55 931 100.15 931 100.95 L931 101.05 M917.65 112.3 Q913.7 108.35 913.1 103 L915.15 103 Q915.7 107.55 919.1 110.9 922.45 114.25 927 114.9 L927 116.9 Q921.65 116.3 917.65 112.3" fill="var(--svg-fill-color)" stroke="var(--svg-stroke-color)"/><path d="M937 168 L961 168 961 172 937 172 937 168 M927 202 L927 199.95 Q915.85 199.3 907.75 191.2 900.45 183.9 899.25 174 L901.25 174 Q902.45 183.05 909.2 189.8 917.05 197.65 928 198 L930 198 Q940.95 197.65 948.8 189.8 955.55 183.05 956.75 174 L958.75 174 Q957.55 183.9 950.2 191.2 942.15 199.3 931 199.95 L931 202 927 202 M897 168 L921 168 921 172 897 172 897 168 M927 168 L931 168 931 172 927 172 927 168 M931 138 L931 140.05 Q942.15 140.7 950.2 148.75 957.55 156.1 958.75 166 L956.75 166 Q955.55 156.95 948.8 150.2 940.95 142.35 930 142 L928 142 Q917.05 142.35 909.2 150.15 L909.15 150.2 Q902.45 156.95 901.25 166 L899.25 166 Q900.45 156.1 907.75 148.75 915.85 140.7 927 140.05 L927 138 931 138" fill="var(--svg-fill-color)" stroke="var(--svg-stroke-color)"/><path d="M988.1 91.1 Q984 95.2 984 101 984 106.8 988.1 110.9 992.2 115 998 115 1003.75 115 1007.85 110.9 L1007.9 110.85 Q1012 106.75 1012 101 1012 95.2 1007.9 91.1 1003.8 87 998 87 992.2 87 988.1 91.1 M1010.7 88.25 Q1016 93.55 1016 101 1016 108.4 1010.7 113.7 1005.4 119 998 119 990.55 119 985.25 113.7 980 108.45 980 101 980 93.55 985.25 88.3 L985.3 88.25 Q990.55 83 998 83 1005.45 83 1010.7 88.25" fill="var(--svg-fill-color)" stroke="var(--svg-stroke-color)"/><path d="M991.3 195.2 L996 195.95 996 182 1000 182 1000 195.95 1004.8 195.2 1005.85 199.05 998 200 Q993.95 200 990.25 199.05 L991.3 195.2 M972.85 163.25 Q972.25 165.55 972.1 168 L986 168 986 172 972.1 172 Q972.25 174.5 972.85 176.8 L968.95 177.85 Q968 174.1 968 170 968 165.9 968.95 162.2 L972.85 163.25 M1023.2 176.75 Q1023.75 174.45 1023.95 172 L1010 172 1010 168 1023.95 168 Q1023.75 165.55 1023.2 163.3 L1027.05 162.25 Q1028 165.9 1028 170 1028 174.1 1027.05 177.75 L1023.2 176.75 M1004.75 144.85 L1000 144.1 1000 158 996 158 996 144.1 991.35 144.8 990.3 140.95 Q993.95 140 998 140 1002.1 140 1005.8 140.95 L1004.75 144.85" fill="var(--svg-fill-color)" stroke="var(--svg-stroke-color)"/><path d="M602.4 289.6 Q594.8 282 584 282 573.2 282 565.6 289.6 558 297.2 558 308 558 318.8 565.6 326.4 573.2 334 584 334 594.8 334 602.4 326.4 610 318.8 610 308 610 297.2 602.4 289.6 M614 308 Q614 320.45 605.2 329.2 596.45 338 584 338 571.55 338 562.75 329.2 554 320.45 554 308 554 295.55 562.75 286.75 571.55 278 584 278 596.45 278 605.2 286.75 614 295.55 614 308" fill="var(--svg-fill-color)" stroke="var(--svg-stroke-color)"/><path d="M634.6 326.4 Q637.15 328.95 640 330.65 L638 334.1 Q634.7 332.15 631.8 329.25 L631.75 329.2 Q628.9 326.35 626.95 323.05 L630.45 321.05 Q632.1 323.9 634.6 326.4 M627 308 Q627 311.55 627.85 314.8 L623.95 315.85 Q623 312.1 623 308 623 303.9 623.95 300.2 L627.85 301.25 Q627 304.45 627 308 M634.6 289.6 Q632.1 292.1 630.45 294.95 L626.95 292.95 Q628.9 289.65 631.75 286.75 634.65 283.85 638 281.95 L640 285.4 Q637.1 287.1 634.6 289.6 M671.4 326.4 Q673.9 323.9 675.6 321 L679.05 323 Q677.1 326.3 674.2 329.2 671.35 332.1 668.05 334.05 L666.05 330.6 Q668.9 328.9 671.4 326.4 M653 334 Q656.6 334 659.8 333.2 L660.85 337.05 Q657.1 338 653 338 648.95 338 645.25 337.05 L646.3 333.2 Q649.45 334 653 334 M679 308 Q679 304.45 678.2 301.3 L682.05 300.25 Q683 303.9 683 308 683 312.1 682.05 315.75 L678.2 314.75 Q679 311.55 679 308 M671.4 289.6 Q668.9 287.1 666.1 285.45 L668.1 282 Q671.35 283.9 674.2 286.75 L674.25 286.8 Q677.1 289.65 679.05 292.95 L675.6 294.95 Q673.9 292.1 671.4 289.6 M653 282 Q649.5 282 646.35 282.8 L645.3 278.95 Q648.95 278 653 278 657.1 278 660.8 278.95 L659.75 282.85 Q656.55 282 653 282" fill="var(--svg-fill-color)" stroke="var(--svg-stroke-color)"/><path d="M722 334 L728.8 333.2 Q732.1 332.3 735.05 330.6 L737.05 334.05 Q733.65 336.05 729.85 337.05 726.1 338 722 338 717.95 338 714.25 337.05 710.4 336.05 707 334.1 L709 330.65 Q711.95 332.35 715.3 333.2 L722 334 M696 308 Q696 311.55 696.85 314.8 697.7 318.1 699.45 321.05 L695.95 323.05 Q693.95 319.65 692.95 315.85 692 312.1 692 308 692 303.9 692.95 300.2 693.95 296.35 695.95 292.95 L699.45 294.95 Q697.7 297.9 696.85 301.25 696 304.45 696 308 M748 308 Q748 304.45 747.2 301.3 746.35 297.95 744.6 294.95 L748.05 292.95 Q750.05 296.4 751.05 300.25 752 303.9 752 308 752 312.1 751.05 315.75 750.05 319.6 748.05 323 L744.6 321 Q746.35 318.05 747.2 314.75 748 311.55 748 308 M722 282 Q718.5 282 715.35 282.8 711.95 283.65 709 285.4 L707 281.95 Q710.4 279.9 714.3 278.95 717.95 278 722 278 726.1 278 729.8 278.95 733.65 279.95 737.1 282 L735.1 285.45 Q732.1 283.7 728.75 282.85 725.55 282 722 282" fill="var(--svg-fill-color)" stroke="var(--svg-stroke-color)"/><path d="M809.4 326.4 Q815.55 320.25 816.75 312 L820.75 312 Q819.55 321.9 812.2 329.2 804.9 336.55 795 337.75 L795 333.75 Q803.25 332.55 809.4 326.4 M772.6 326.4 Q778.75 332.55 787 333.75 L787 337.75 Q777.1 336.55 769.75 329.2 762.45 321.9 761.25 312 L765.3 312 Q766.45 320.25 772.6 326.4 M809.4 289.6 Q803.25 283.45 795 282.3 L795 278.25 Q804.9 279.45 812.2 286.75 819.55 294.1 820.75 304 L816.75 304 Q815.55 295.75 809.4 289.6 M772.6 289.6 Q766.45 295.75 765.3 304 L761.25 304 Q762.45 294.1 769.75 286.75 777.1 279.45 787 278.25 L787 282.3 Q778.75 283.45 772.6 289.6" fill="var(--svg-fill-color)" stroke="var(--svg-stroke-color)"/><path d="M875.55 292.45 Q869.1 286 860 286 850.9 286 844.45 292.4 L844.4 292.45 Q838 298.9 838 308 838 317.1 844.45 323.55 850.9 330 860 330 869.1 330 875.55 323.55 882 317.1 882 308 882 298.9 875.55 292.45 M884 308 Q884 317.95 876.95 324.95 869.95 332 860 332 850.05 332 843 324.95 836 317.95 836 308 836 298.05 843 291 850.05 284 860 284 869.95 284 876.95 291 884 298.05 884 308" fill="var(--svg-fill-color)" stroke="var(--svg-stroke-color)"/><path d="M603.8 357.2 Q596.95 350.35 587.8 349.25 L584 353 580.25 349.25 Q571.05 350.35 564.2 357.15 L564.15 357.2 Q557.35 364.05 556.25 373.25 L560 377 556.25 380.8 Q557.35 389.95 564.2 396.8 571.05 403.65 580.25 404.8 L584 401 587.8 404.8 Q596.95 403.65 603.8 396.8 610.65 389.95 611.8 380.8 L608 377 611.8 373.25 Q610.65 364.05 603.8 357.2 M614 377 Q614 379.85 613.55 382.55 612 391.45 605.2 398.2 598.45 405 589.55 406.55 L584 407 578.5 406.55 Q569.55 405 562.75 398.2 556 391.45 554.5 382.55 554 379.85 554 377 554 374.15 554.5 371.5 556 362.55 562.75 355.75 569.55 349 578.5 347.5 L584 347 589.55 347.5 Q598.45 349 605.2 355.75 612 362.55 613.55 371.5 614 374.15 614 377" fill="var(--svg-fill-color)" stroke="var(--svg-stroke-color)"/><path d="M583 349 L585 349 585 405 583 405 583 349" fill="var(--svg-fill-color)" stroke="var(--svg-stroke-color)"/><path d="M612 376 L612 378 556 378 556 376 612 376" fill="var(--svg-fill-color)" stroke="var(--svg-stroke-color)"/><path d="M600 377 Q600 383.65 595.3 388.3 590.65 393 584 393 577.35 393 572.65 388.3 568 383.65 568 377 568 370.35 572.65 365.65 577.35 361 584 361 590.65 361 595.3 365.65 600 370.35 600 377 M593.9 367.1 Q589.8 363 584 363 578.2 363 574.1 367.05 L574.05 367.1 Q570 371.2 570 377 570 382.8 574.1 386.9 578.2 391 584 391 589.8 391 593.9 386.9 598 382.8 598 377 598 371.2 593.9 367.1" fill="var(--svg-fill-color)" stroke="var(--svg-stroke-color)"/><path d="M662.9 367.1 Q659.15 363.35 654 363.05 L653 363 652 363.05 Q646.85 363.35 643.1 367.05 L643.05 367.1 Q639.35 370.85 639.05 376 L639 377 639.05 378 Q639.35 383.15 643.1 386.9 646.85 390.65 652 391 L653 391 654 391 Q659.15 390.65 662.9 386.9 666.65 383.15 667 378 L667 377 667 376 Q666.65 370.85 662.9 367.1 M633.15 357.2 Q626.35 364.05 625.25 373.25 L628 376 637.05 376 Q637.35 370 641.65 365.65 646 361.35 652 361.05 L652 352 649.25 349.25 Q640.05 350.35 633.2 357.15 L633.15 357.2 M672.8 357.2 Q665.95 350.35 656.8 349.25 L654 352 654 361.05 Q660 361.35 664.3 365.65 668.65 370 669 376 L678 376 680.8 373.25 Q679.65 364.05 672.8 357.2 M683 377 Q683 379.85 682.55 382.55 681 391.45 674.2 398.2 667.45 405 658.55 406.55 L653 407 647.5 406.55 Q638.55 405 631.75 398.2 625 391.45 623.5 382.55 623 379.85 623 377 623 374.15 623.5 371.5 625 362.55 631.75 355.75 638.55 349 647.5 347.5 L653 347 658.55 347.5 Q667.45 349 674.2 355.75 681 362.55 682.55 371.5 683 374.15 683 377 M655 377 Q655 377.85 654.4 378.4 653.85 379 653 379 652.15 379 651.55 378.4 651 377.85 651 377 651 376.15 651.55 375.55 652.15 375 653 375 653.85 375 654.4 375.55 655 376.15 655 377 M633.2 396.8 Q640.05 403.65 649.25 404.8 L652 402 652 393 Q646 392.65 641.65 388.3 637.35 384 637.05 378 L628 378 625.25 380.8 Q626.35 389.95 633.2 396.8 M672.8 396.8 Q679.65 389.95 680.8 380.8 L678 378 669 378 Q668.65 384 664.3 388.3 660 392.65 654 393 L654 402 656.8 404.8 Q665.95 403.65 672.8 396.8" fill="var(--svg-fill-color)" stroke="var(--svg-stroke-color)"/><path d="M740.4 358.6 Q734.15 352.35 725.75 351.25 L722 355 718.25 351.25 Q709.85 352.35 703.6 358.6 697.35 364.85 696.25 373.25 L700 377 696.25 380.75 Q697.35 389.15 703.6 395.4 709.85 401.65 718.25 402.75 L722 399 725.75 402.75 Q734.15 401.65 740.4 395.4 746.65 389.15 747.75 380.75 L744 377 747.75 373.25 Q746.65 364.85 740.4 358.6 M752 377 Q752 380.75 751.2 384.2 749.35 392.1 743.2 398.2 737.1 404.35 729.2 406.2 725.75 407 722 407 L714.8 406.2 Q706.9 404.35 700.75 398.2 694.65 392.1 692.8 384.2 692 380.75 692 377 692 373.25 692.8 369.8 694.65 361.9 700.75 355.75 706.9 349.65 714.8 347.8 L722 347 Q725.75 347 729.2 347.8 737.1 349.65 743.2 355.75 749.35 361.9 751.2 369.8 752 373.25 752 377" fill="var(--svg-fill-color)" stroke="var(--svg-stroke-color)"/><path d="M821 377 Q821 380.75 820.2 384.2 818.35 392.1 812.2 398.2 806.1 404.35 798.2 406.2 L791 407 783.8 406.2 Q775.9 404.35 769.75 398.2 763.65 392.1 761.8 384.2 761 380.75 761 377 761 373.25 761.8 369.8 763.65 361.9 769.75 355.75 775.9 349.65 783.8 347.8 L791 347 798.2 347.8 Q806.1 349.65 812.2 355.75 818.35 361.9 820.2 369.8 821 373.25 821 377 M809.4 358.6 Q803.15 352.35 794.75 351.25 L791 355 787.25 351.25 Q778.85 352.35 772.6 358.6 766.35 364.85 765.25 373.25 L769 377 765.25 380.75 Q766.35 389.15 772.6 395.4 778.85 401.65 787.25 402.75 L791 399 794.75 402.75 Q803.15 401.65 809.4 395.4 815.65 389.15 816.75 380.75 L813 377 816.75 373.25 Q815.65 364.85 809.4 358.6" fill="var(--svg-fill-color)" stroke="var(--svg-stroke-color)"/><path d="M652 428 L652 414 654 414 654 428 652 428 M635 428 L635 442 633 442 633 426 649 426 649 428 635 428 M671 428 L657 428 657 426 673 426 673 442 671 442 671 428 M671 445 L685 445 685 447 671 447 671 445 M671 464 L671 450 673 450 673 466 657 466 657 464 671 464 M635 464 L649 464 649 466 633 466 633 450 635 450 635 464 M652 478 L652 464 654 464 654 478 652 478 M621 445 L635 445 635 447 621 447 621 445" fill="var(--svg-fill-color)" stroke="var(--svg-stroke-color)"/></svg>