<svg xmlns="http://www.w3.org/2000/svg" xmlns:xlink="http://www.w3.org/1999/xlink" width="64" height="64" viewBox="415 414 62 64"><path d="M714.9 162.9 L714.85 162.95 Q712 165.9 712 170 L712 170.05 Q712 174.15 714.9 177.1 717.85 180 722 180 726.15 180 729.05 177.1 L729.1 177.05 Q732 174.15 732 170 732 165.85 729.1 162.9 726.15 160 722.05 160 L722 160 Q717.9 160 714.95 162.85 L714.9 162.9 M731.9 160.05 Q736 164.15 736 170 736 175.8 731.9 179.9 727.8 184 722 184 716.15 184 712.05 179.9 708 175.8 708 170 708 164.2 712.05 160.1 L712.1 160.05 Q716.2 156 722 156 727.8 156 731.9 160.05 M724 170 Q724 170.85 723.4 171.4 722.85 172 722 172 721.15 172 720.55 171.4 720 170.85 720 170 720 169.15 720.55 168.55 721.15 168 722 168 722.85 168 723.4 168.55 724 169.15 724 170" fill="var(--svg-fill-color)" stroke="var(--svg-stroke-color)"/><path d="M752 170 Q752 182.45 743.2 191.2 734.45 200 722 200 709.55 200 700.75 191.2 692 182.45 692 170 692 157.55 700.75 148.75 709.55 140 722 140 734.45 140 743.2 148.75 752 157.55 752 170 M740.4 151.6 Q732.8 144 722 144 711.2 144 703.6 151.6 696 159.2 696 170 696 180.8 703.6 188.4 711.2 196 722 196 732.8 196 740.4 188.4 748 180.8 748 170 748 159.2 740.4 151.6" fill="var(--svg-fill-color)" stroke="var(--svg-stroke-color)"/><path d="M671.4 220.6 Q663.8 213 653 213 642.2 213 634.6 220.6 627 228.2 627 239 627 249.8 634.6 257.4 642.2 265 653 265 663.8 265 671.4 257.4 679 249.8 679 239 679 228.2 671.4 220.6 M683 239 Q683 251.45 674.2 260.2 665.45 269 653 269 640.55 269 631.75 260.2 623 251.45 623 239 623 226.55 631.75 217.75 640.55 209 653 209 665.45 209 674.2 217.75 683 226.55 683 239" fill="var(--svg-fill-color)" stroke="var(--svg-stroke-color)"/><path d="M655.85 236.2 Q654.65 235 653 235 651.35 235 650.2 236.2 649 237.35 649 239 649 240.65 650.2 241.85 651.35 243 653 243 654.65 243 655.85 241.85 657 240.65 657 239 657 237.35 655.85 236.2 M661 239 Q661 242.3 658.65 244.65 656.3 247 653 247 649.7 247 647.35 244.65 645 242.3 645 239 645 235.7 647.35 233.35 649.7 231 653 231 656.3 231 658.65 233.35 661 235.7 661 239" fill="var(--svg-fill-color)" stroke="var(--svg-stroke-color)"/><path d="M772.6 82.6 Q766.45 88.75 765.3 97 L761.25 97 Q762.45 87.1 769.75 79.75 777.1 72.45 787 71.25 L787 75.3 Q778.75 76.45 772.6 82.6 M809.4 119.4 Q815.55 113.25 816.75 105 L820.75 105 Q819.55 114.9 812.2 122.2 804.9 129.55 795 130.75 L795 126.75 Q803.25 125.55 809.4 119.4 M809.4 82.6 Q803.25 76.45 795 75.3 L795 71.25 Q804.9 72.45 812.2 79.75 819.55 87.1 820.75 97 L816.75 97 Q815.55 88.75 809.4 82.6 M785 95 L789 95 789 99 785 99 785 95 M793 95 L797 95 797 99 793 99 793 95 M793 103 L797 103 797 107 793 107 793 103 M785 103 L789 103 789 107 785 107 785 103 M772.6 119.4 Q778.75 125.55 787 126.75 L787 130.75 Q777.1 129.55 769.75 122.2 762.45 114.9 761.25 105 L765.3 105 Q766.45 113.25 772.6 119.4" fill="var(--svg-fill-color)" stroke="var(--svg-stroke-color)"/><path d="M533.4 289.6 Q525.8 282 515 282 504.2 282 496.6 289.6 489 297.2 489 308 489 318.8 496.6 326.4 504.2 334 515 334 525.8 334 533.4 326.4 541 318.8 541 308 541 297.2 533.4 289.6 M545 308 Q545 320.45 536.2 329.2 527.45 338 515 338 502.55 338 493.75 329.2 485 320.45 485 308 485 295.55 493.75 286.75 502.55 278 515 278 527.45 278 536.2 286.75 545 295.55 545 308" fill="var(--svg-fill-color)" stroke="var(--svg-stroke-color)"/><path d="M602.4 289.6 Q594.8 282 584 282 573.2 282 565.6 289.6 558 297.2 558 308 558 318.8 565.6 326.4 573.2 334 584 334 594.8 334 602.4 326.4 610 318.8 610 308 610 297.2 602.4 289.6 M614 308 Q614 320.45 605.2 329.2 596.45 338 584 338 571.55 338 562.75 329.2 554 320.45 554 308 554 295.55 562.75 286.75 571.55 278 584 278 596.45 278 605.2 286.75 614 295.55 614 308" fill="var(--svg-fill-color)" stroke="var(--svg-stroke-color)"/><path d="M634.6 326.4 Q637.15 328.95 640 330.65 L638 334.1 Q634.7 332.15 631.8 329.25 L631.75 329.2 Q628.9 326.35 626.95 323.05 L630.45 321.05 Q632.1 323.9 634.6 326.4 M627 308 Q627 311.55 627.85 314.8 L623.95 315.85 Q623 312.1 623 308 623 303.9 623.95 300.2 L627.85 301.25 Q627 304.45 627 308 M634.6 289.6 Q632.1 292.1 630.45 294.95 L626.95 292.95 Q628.9 289.65 631.75 286.75 634.65 283.85 638 281.95 L640 285.4 Q637.1 287.1 634.6 289.6 M671.4 326.4 Q673.9 323.9 675.6 321 L679.05 323 Q677.1 326.3 674.2 329.2 671.35 332.1 668.05 334.05 L666.05 330.6 Q668.9 328.9 671.4 326.4 M653 334 Q656.6 334 659.8 333.2 L660.85 337.05 Q657.1 338 653 338 648.95 338 645.25 337.05 L646.3 333.2 Q649.45 334 653 334 M679 308 Q679 304.45 678.2 301.3 L682.05 300.25 Q683 303.9 683 308 683 312.1 682.05 315.75 L678.2 314.75 Q679 311.55 679 308 M671.4 289.6 Q668.9 287.1 666.1 285.45 L668.1 282 Q671.35 283.9 674.2 286.75 L674.25 286.8 Q677.1 289.65 679.05 292.95 L675.6 294.95 Q673.9 292.1 671.4 289.6 M653 282 Q649.5 282 646.35 282.8 L645.3 278.95 Q648.95 278 653 278 657.1 278 660.8 278.95 L659.75 282.85 Q656.55 282 653 282" fill="var(--svg-fill-color)" stroke="var(--svg-stroke-color)"/><path d="M401 418 Q402.65 418 403.85 419.2 405 420.35 405 422 L405 442 401 442 401 422 381 422 381 418 401 418 M405 470 Q405 471.65 403.85 472.8 402.65 474 401 474 L381 474 381 470 401 470 401 450 405 450 405 470 M405 448 L395 448 395 444 405 444 405 448 M379 418 L379 428 375 428 375 418 379 418 M353 418 L373 418 373 422 353 422 353 442 349 442 349 422 Q349 420.35 350.15 419.2 351.35 418 353 418 M359 448 L349 448 349 444 359 444 359 448 M353 474 Q351.35 474 350.15 472.8 349 471.65 349 470 L349 450 353 450 353 470 373 470 373 474 353 474 M379 464 L379 474 375 474 375 464 379 464" fill="var(--svg-fill-color)" stroke="var(--svg-stroke-color)"/><path d="M470 418 Q471.65 418 472.85 419.2 474 420.35 474 422 L474 438 470 438 470 422 454 422 454 418 470 418 M448 418 L448 432 444 432 444 418 448 418 M474 448 L460 448 460 444 474 444 474 448 M422 418 L438 418 438 422 422 422 422 438 418 438 418 422 Q418 420.35 419.15 419.2 420.35 418 422 418 M432 448 L418 448 418 444 432 444 432 448 M422 474 Q420.35 474 419.15 472.8 418 471.65 418 470 L418 454 422 454 422 470 438 470 438 474 422 474 M448 460 L448 474 444 474 444 460 448 460 M474 470 Q474 471.65 472.85 472.8 471.65 474 470 474 L454 474 454 470 470 470 470 454 474 454 474 470" fill="var(--svg-fill-color)" stroke="var(--svg-stroke-color)"/><path d="M465.8 357.2 Q458.95 350.35 449.8 349.25 L446 353 442.25 349.25 Q433.05 350.35 426.2 357.15 L426.15 357.2 Q419.35 364.05 418.25 373.25 L422 377 418.25 380.8 Q419.35 389.95 426.2 396.8 433.05 403.65 442.25 404.8 L446 401 449.8 404.8 Q458.95 403.65 465.8 396.8 472.65 389.95 473.8 380.8 L470 377 473.8 373.25 Q472.65 364.05 465.8 357.2 M476 377 Q476 379.85 475.55 382.55 474 391.45 467.2 398.2 460.45 405 451.55 406.55 L446 407 440.5 406.55 Q431.55 405 424.75 398.2 418 391.45 416.5 382.55 416 379.85 416 377 416 374.15 416.5 371.5 418 362.55 424.75 355.75 431.55 349 440.5 347.5 L446 347 451.55 347.5 Q460.45 349 467.2 355.75 474 362.55 475.55 371.5 476 374.15 476 377" fill="var(--svg-fill-color)" stroke="var(--svg-stroke-color)"/><path d="M545 377 Q545 379.85 544.55 382.55 543 391.45 536.2 398.2 529.45 405 520.55 406.55 L515 407 509.5 406.55 Q500.55 405 493.75 398.2 487 391.45 485.5 382.55 485 379.85 485 377 485 374.15 485.5 371.5 487 362.55 493.75 355.75 500.55 349 509.5 347.5 L515 347 520.55 347.5 Q529.45 349 536.2 355.75 543 362.55 544.55 371.5 545 374.15 545 377 M534.8 357.2 Q527.95 350.35 518.8 349.25 L515 353 511.25 349.25 Q502.05 350.35 495.2 357.15 L495.15 357.2 Q488.35 364.05 487.25 373.25 L491 377 487.25 380.8 Q488.35 389.95 495.2 396.8 502.05 403.65 511.25 404.8 L515 401 518.8 404.8 Q527.95 403.65 534.8 396.8 541.65 389.95 542.8 380.8 L539 377 542.8 373.25 Q541.65 364.05 534.8 357.2" fill="var(--svg-fill-color)" stroke="var(--svg-stroke-color)"/><path d="M603.8 357.2 Q596.95 350.35 587.8 349.25 L584 353 580.25 349.25 Q571.05 350.35 564.2 357.15 L564.15 357.2 Q557.35 364.05 556.25 373.25 L560 377 556.25 380.8 Q557.35 389.95 564.2 396.8 571.05 403.65 580.25 404.8 L584 401 587.8 404.8 Q596.95 403.65 603.8 396.8 610.65 389.95 611.8 380.8 L608 377 611.8 373.25 Q610.65 364.05 603.8 357.2 M614 377 Q614 379.85 613.55 382.55 612 391.45 605.2 398.2 598.45 405 589.55 406.55 L584 407 578.5 406.55 Q569.55 405 562.75 398.2 556 391.45 554.5 382.55 554 379.85 554 377 554 374.15 554.5 371.5 556 362.55 562.75 355.75 569.55 349 578.5 347.5 L584 347 589.55 347.5 Q598.45 349 605.2 355.75 612 362.55 613.55 371.5 614 374.15 614 377" fill="var(--svg-fill-color)" stroke="var(--svg-stroke-color)"/><path d="M600 377 Q600 383.65 595.3 388.3 590.65 393 584 393 577.35 393 572.65 388.3 568 383.65 568 377 568 370.35 572.65 365.65 577.35 361 584 361 590.65 361 595.3 365.65 600 370.35 600 377 M593.9 367.1 Q589.8 363 584 363 578.2 363 574.1 367.05 L574.05 367.1 Q570 371.2 570 377 570 382.8 574.1 386.9 578.2 391 584 391 589.8 391 593.9 386.9 598 382.8 598 377 598 371.2 593.9 367.1" fill="var(--svg-fill-color)" stroke="var(--svg-stroke-color)"/><path d="M291 567 Q296.6 561.45 304 560.3 L304 564.4 Q298.25 565.45 293.85 569.85 291.05 572.65 289.6 576 288.75 577.9 288.4 580 L276 580 276 576 285.3 576 Q287 571.05 291 567 M291 600.95 Q287 596.95 285.3 592 L276 592 276 588 288.4 588 Q288.75 590.1 289.6 592 291.05 595.35 293.85 598.15 298.25 602.55 304 603.65 L304 607.7 Q296.6 606.55 291 600.95 M324.95 567 Q329 571.05 330.7 576 L340 576 340 580 327.65 580 Q327.25 577.9 326.4 576 324.95 572.65 322.15 569.85 317.75 565.45 312 564.4 L312 560.3 Q319.4 561.45 324.95 567 M324.95 600.95 Q319.4 606.55 312 607.7 L312 603.65 Q317.75 602.5 322.1 598.15 L322.15 598.1 Q324.9 595.35 326.4 592 327.2 590.1 327.65 588 L340 588 340 592 330.7 592 Q328.95 596.95 324.95 600.95" fill="var(--svg-fill-color)" stroke="var(--svg-stroke-color)"/><path d="M360.05 600.95 Q353 593.9 353 584 353 574.1 360.05 567.05 L365.7 572.7 365.7 572.75 Q361 577.4 361 584 361 590.6 365.7 595.3 L360.05 600.95 M379 584 Q379 584.85 378.4 585.4 377.85 586 377 586 376.15 586 375.55 585.4 375 584.85 375 584 375 583.15 375.55 582.55 376.15 582 377 582 377.85 582 378.4 582.55 379 583.15 379 584 M401 584 Q401 593.9 393.95 600.95 L388.3 595.3 Q393 590.6 393 584 393 577.4 388.3 572.7 L393.95 567.05 Q401 574.1 401 584" fill="var(--svg-fill-color)" stroke="var(--svg-stroke-color)"/><path d="M255 647 L251 643 247 643 247 639 253 639 257 643 271 643 271 647 255 647 M255 659 L271 659 271 663 257 663 253 667 247 667 247 663 251 663 255 659 M245 653 Q245 655.45 243.2 657.2 241.45 659 239 659 236.55 659 234.75 657.2 233 655.45 233 653 233 650.55 234.75 648.75 236.55 647 239 647 241.45 647 243.2 648.75 245 650.55 245 653 M240.4 651.6 Q239.8 651 239 651 238.2 651 237.65 651.55 L237.55 651.65 Q237 652.2 237 653 237 653.8 237.6 654.4 238.2 655 239 655 239.75 655 240.35 654.4 L240.4 654.35 Q241 653.75 241 653 241 652.2 240.4 651.6 M207 647 L207 643 221 643 225 639 231 639 231 643 227 643 223 647 207 647 M207 659 L223 659 227 663 231 663 231 667 225 667 221 663 207 663 207 659" fill="var(--svg-fill-color)" stroke="var(--svg-stroke-color)"/></svg>