<svg xmlns="http://www.w3.org/2000/svg" xmlns:xlink="http://www.w3.org/1999/xlink" width="64" height="64" viewBox="760 483 62 64"><path d="M803.75 248.95 L810.8 256 Q817 248.8 817.05 239.05 817 229.3 810.75 222.15 L803.75 229.15 800.9 226.3 807.9 219.3 Q800.75 213.05 791 213 781.25 213.05 774.1 219.3 L781.1 226.3 778.25 229.15 771.25 222.15 Q765 229.3 764.95 239.05 765 248.8 771.2 256 L778.25 248.95 781.1 251.8 774.05 258.85 Q781.25 265.05 791 265.1 800.75 265.05 807.95 258.85 L800.9 251.8 803.75 248.95 M815.05 260.25 L812.2 263.1 810.75 261.65 Q802.4 269.1 791 269 779.6 269.1 771.25 261.65 L769.8 263.1 766.95 260.25 768.4 258.8 Q761 250.5 761 239 760.95 227.65 768.4 219.3 L766.95 217.85 769.8 215 771.25 216.45 Q779.55 209.05 791 209 802.45 209.05 810.75 216.45 L812.2 215 815.05 217.85 813.6 219.3 Q821.05 227.65 821 239 821 250.5 813.6 258.8 L815.05 260.25 M793 239 Q793 239.85 792.4 240.4 791.85 241 791 241 790.15 241 789.55 240.4 789 239.85 789 239 789 238.15 789.55 237.55 790.15 237 791 237 791.85 237 792.4 237.55 793 238.15 793 239" fill="var(--svg-fill-color)" stroke="var(--svg-stroke-color)"/><path d="M860 265 Q867.25 265 873.05 261.6 L875.05 265.05 Q868.35 269 860 269 851.7 269 845 265.1 L847 261.6 Q852.8 265 860 265 M834 239 Q834 246.3 837.45 252.1 L834 254.1 Q830 247.4 830 239 830 230.65 833.95 224 L837.4 226 Q834 231.8 834 239 M886 239 Q886 231.75 882.6 226 L886.05 224 Q890 230.65 890 239 890 247.4 886 254.1 L882.55 252.1 Q886 246.25 886 239 M860 213 Q852.75 213 846.95 216.45 L844.95 212.95 Q851.65 209 860 209 868.35 209 875.05 212.95 L873.05 216.45 Q867.25 213 860 213" fill="var(--svg-fill-color)" stroke="var(--svg-stroke-color)"/><path d="M852.9 231.9 L852.85 231.95 Q850 234.9 850 239 L850 239.05 Q850 243.15 852.9 246.1 855.85 249 860 249 864.15 249 867.05 246.1 L867.1 246.05 Q870 243.15 870 239 870 234.85 867.1 231.9 864.15 229 860.05 229 L860 229 Q855.9 229 852.95 231.85 L852.9 231.9 M862 239 Q862 239.85 861.4 240.4 860.85 241 860 241 859.15 241 858.55 240.4 858 239.85 858 239 858 238.15 858.55 237.55 859.15 237 860 237 860.85 237 861.4 237.55 862 238.15 862 239 M869.9 229.05 Q874 233.15 874 239 874 244.8 869.9 248.9 865.8 253 860 253 854.15 253 850.05 248.9 846 244.8 846 239 846 233.2 850.05 229.1 L850.1 229.05 Q854.2 225 860 225 865.8 225 869.9 229.05" fill="var(--svg-fill-color)" stroke="var(--svg-stroke-color)"/><path d="M884 170 Q884 179.95 876.95 186.95 869.95 194 860 194 850.05 194 843 186.95 836 179.95 836 170 836 160.05 843 153 850.05 146 860 146 869.95 146 876.95 153 884 160.05 884 170 M874.15 155.85 Q868.3 150 860 150 851.7 150 845.85 155.85 840 161.7 840 170 840 178.3 845.85 184.15 851.7 190 860 190 868.3 190 874.1 184.15 L874.15 184.1 Q880 178.3 880 170 880 161.7 874.15 155.85" fill="var(--svg-fill-color)" stroke="var(--svg-stroke-color)"/><path d="M948.8 219.2 Q940.6 211 929 211 917.4 211 909.2 219.15 L909.15 219.2 Q901 227.4 901 239 901 250.6 909.2 258.8 917.4 267 929 267 940.6 267 948.8 258.8 957 250.6 957 239 957 227.4 948.8 219.2 M959 239 Q959 251.45 950.2 260.2 941.45 269 929 269 916.55 269 907.75 260.2 899 251.45 899 239 899 226.55 907.75 217.75 916.55 209 929 209 941.45 209 950.2 217.75 959 226.55 959 239" fill="var(--svg-fill-color)" stroke="var(--svg-stroke-color)"/><path d="M907.75 79.75 Q915.85 71.7 927 71.05 L929 71 931 71.05 Q942.15 71.7 950.2 79.75 958.3 87.85 958.95 99 L956.95 99 Q956.3 88.65 948.8 81.2 941.35 73.7 931 73.1 L929 73 927 73.05 Q916.65 73.7 909.2 81.15 L909.15 81.2 Q906.7 83.65 905 86.4 901.5 92.05 901.05 99 L899.05 99 Q899.6 89.9 905 82.9 906.25 81.25 907.75 79.75 M940.3 89.65 Q944.3 93.65 944.9 99 L942.9 99 Q942.25 94.45 938.9 91.1 935.55 87.7 931 87.15 L931 85.1 Q936.35 85.7 940.3 89.65 M917.65 89.65 Q921.65 85.7 927 85.1 L927 87.15 Q922.45 87.7 919.1 91.05 L919.05 91.1 Q915.7 94.45 915.15 99 L913.1 99 Q913.7 93.65 917.65 89.65 M940.3 112.3 Q936.35 116.3 931 116.9 L931 114.9 Q935.55 114.3 938.9 110.9 942.3 107.55 942.9 103 L944.9 103 Q944.3 108.35 940.3 112.3 M950.2 122.2 Q942.15 130.3 931 130.95 L929 131 927 130.95 Q915.85 130.3 907.75 122.2 L905 119.1 Q899.6 112.05 899.05 103 L901.1 103 Q901.5 109.9 905 115.55 906.7 118.3 909.2 120.8 916.65 128.3 927 128.95 L929 129 931 128.95 Q941.35 128.3 948.8 120.8 956.3 113.35 956.95 103 L958.95 103 Q958.3 114.15 950.2 122.2 M931 101.05 Q931 101.85 930.4 102.4 929.85 103 929.05 103 L928.95 103 Q928.15 103 927.55 102.4 927 101.85 927 101.05 L927 100.95 Q927 100.15 927.55 99.55 928.15 99 928.95 99 L929.05 99 Q929.85 99 930.4 99.55 931 100.15 931 100.95 L931 101.05 M917.65 112.3 Q913.7 108.35 913.1 103 L915.15 103 Q915.7 107.55 919.1 110.9 922.45 114.25 927 114.9 L927 116.9 Q921.65 116.3 917.65 112.3" fill="var(--svg-fill-color)" stroke="var(--svg-stroke-color)"/><path d="M937 168 L961 168 961 172 937 172 937 168 M927 202 L927 199.95 Q915.85 199.3 907.75 191.2 900.45 183.9 899.25 174 L901.25 174 Q902.45 183.05 909.2 189.8 917.05 197.65 928 198 L930 198 Q940.95 197.65 948.8 189.8 955.55 183.05 956.75 174 L958.75 174 Q957.55 183.9 950.2 191.2 942.15 199.3 931 199.95 L931 202 927 202 M897 168 L921 168 921 172 897 172 897 168 M927 168 L931 168 931 172 927 172 927 168 M931 138 L931 140.05 Q942.15 140.7 950.2 148.75 957.55 156.1 958.75 166 L956.75 166 Q955.55 156.95 948.8 150.2 940.95 142.35 930 142 L928 142 Q917.05 142.35 909.2 150.15 L909.15 150.2 Q902.45 156.95 901.25 166 L899.25 166 Q900.45 156.1 907.75 148.75 915.85 140.7 927 140.05 L927 138 931 138" fill="var(--svg-fill-color)" stroke="var(--svg-stroke-color)"/><path d="M988.1 91.1 Q984 95.2 984 101 984 106.8 988.1 110.9 992.2 115 998 115 1003.75 115 1007.85 110.9 L1007.9 110.85 Q1012 106.75 1012 101 1012 95.2 1007.9 91.1 1003.8 87 998 87 992.2 87 988.1 91.1 M1010.7 88.25 Q1016 93.55 1016 101 1016 108.4 1010.7 113.7 1005.4 119 998 119 990.55 119 985.25 113.7 980 108.45 980 101 980 93.55 985.25 88.3 L985.3 88.25 Q990.55 83 998 83 1005.45 83 1010.7 88.25" fill="var(--svg-fill-color)" stroke="var(--svg-stroke-color)"/><path d="M991.3 195.2 L996 195.95 996 182 1000 182 1000 195.95 1004.8 195.2 1005.85 199.05 998 200 Q993.95 200 990.25 199.05 L991.3 195.2 M972.85 163.25 Q972.25 165.55 972.1 168 L986 168 986 172 972.1 172 Q972.25 174.5 972.85 176.8 L968.95 177.85 Q968 174.1 968 170 968 165.9 968.95 162.2 L972.85 163.25 M1023.2 176.75 Q1023.75 174.45 1023.95 172 L1010 172 1010 168 1023.95 168 Q1023.75 165.55 1023.2 163.3 L1027.05 162.25 Q1028 165.9 1028 170 1028 174.1 1027.05 177.75 L1023.2 176.75 M1004.75 144.85 L1000 144.1 1000 158 996 158 996 144.1 991.35 144.8 990.3 140.95 Q993.95 140 998 140 1002.1 140 1005.8 140.95 L1004.75 144.85" fill="var(--svg-fill-color)" stroke="var(--svg-stroke-color)"/><path d="M809.4 326.4 Q815.55 320.25 816.75 312 L820.75 312 Q819.55 321.9 812.2 329.2 804.9 336.55 795 337.75 L795 333.75 Q803.25 332.55 809.4 326.4 M772.6 326.4 Q778.75 332.55 787 333.75 L787 337.75 Q777.1 336.55 769.75 329.2 762.45 321.9 761.25 312 L765.3 312 Q766.45 320.25 772.6 326.4 M809.4 289.6 Q803.25 283.45 795 282.3 L795 278.25 Q804.9 279.45 812.2 286.75 819.55 294.1 820.75 304 L816.75 304 Q815.55 295.75 809.4 289.6 M772.6 289.6 Q766.45 295.75 765.3 304 L761.25 304 Q762.45 294.1 769.75 286.75 777.1 279.45 787 278.25 L787 282.3 Q778.75 283.45 772.6 289.6" fill="var(--svg-fill-color)" stroke="var(--svg-stroke-color)"/><path d="M875.55 292.45 Q869.1 286 860 286 850.9 286 844.45 292.4 L844.4 292.45 Q838 298.9 838 308 838 317.1 844.45 323.55 850.9 330 860 330 869.1 330 875.55 323.55 882 317.1 882 308 882 298.9 875.55 292.45 M884 308 Q884 317.95 876.95 324.95 869.95 332 860 332 850.05 332 843 324.95 836 317.95 836 308 836 298.05 843 291 850.05 284 860 284 869.95 284 876.95 291 884 298.05 884 308" fill="var(--svg-fill-color)" stroke="var(--svg-stroke-color)"/><path d="M1298 26 L1298 38 1274 62 1250 38 1250 26 1274 2 1298 26 M1276 32 Q1276 32.85 1275.4 33.4 1274.85 34 1274 34 1273.15 34 1272.55 33.4 1272 32.85 1272 32 1272 31.15 1272.55 30.55 1273.15 30 1274 30 1274.85 30 1275.4 30.55 1276 31.15 1276 32 M1274 8 L1254 28 1254 36 1274 56 1294 36 1294 28 1274 8" fill="var(--svg-fill-color)" stroke="var(--svg-stroke-color)"/><path d="M1231 32 L1211 12 1199 12 1179 32 1199 52 1211 52 1231 32 M1213 56 L1197 56 1173 32 1197 8 1213 8 1237 32 1213 56 M1205 34 Q1204.15 34 1203.6 33.4 1203 32.85 1203 32 1203 31.15 1203.6 30.55 1204.15 30 1205 30 1205.85 30 1206.45 30.55 1207 31.15 1207 32 1207 32.85 1206.45 33.4 1205.85 34 1205 34" fill="var(--svg-fill-color)" stroke="var(--svg-stroke-color)"/><path d="M1231 32 L1211 12 1199 12 1179 32 1199 52 1211 52 1231 32 M1213 56 L1197 56 1173 32 1197 8 1213 8 1237 32 1213 56 M1205 34 Q1204.15 34 1203.6 33.4 1203 32.85 1203 32 1203 31.15 1203.6 30.55 1204.15 30 1205 30 1205.85 30 1206.45 30.55 1207 31.15 1207 32 1207 32.85 1206.45 33.4 1205.85 34 1205 34" fill="var(--svg-fill-color)" stroke="var(--svg-stroke-color)"/><path d="M1231 32 L1211 12 1199 12 1179 32 1199 52 1211 52 1231 32 M1213 56 L1197 56 1173 32 1197 8 1213 8 1237 32 1213 56 M1205 34 Q1204.15 34 1203.6 33.4 1203 32.85 1203 32 1203 31.15 1203.6 30.55 1204.15 30 1205 30 1205.85 30 1206.45 30.55 1207 31.15 1207 32 1207 32.85 1206.45 33.4 1205.85 34 1205 34" fill="var(--svg-fill-color)" stroke="var(--svg-stroke-color)"/><path d="M1367 26 L1367 38 1362 43 1359 40 1363 36 1363 28 1359 24 1362 21 1367 26 M1343 2 L1349 8 1347 10 1343 6 1339 10 1337 8 1343 2 M1345 32 Q1345 32.85 1344.4 33.4 1343.85 34 1343 34 1342.15 34 1341.6 33.45 L1341.55 33.4 Q1341 32.85 1341 32 1341 31.15 1341.55 30.55 1342.15 30 1343 30 1343.85 30 1344.4 30.55 L1344.45 30.6 Q1345 31.15 1345 32 M1343 62 L1337 56 1339 54 1343 58 1347 54 1349 56 1343 62 M1319 26 L1324 21 1327 24 1323 28 1323 36 1327 40 1324 43 1319 38 1319 26" fill="var(--svg-fill-color)" stroke="var(--svg-stroke-color)"/><path d="M1069 170 Q1069 170.65 1068.65 171.15 L1068.4 171.4 Q1067.85 172 1067 172 1066.15 172 1065.55 171.4 L1065.35 171.15 Q1065 170.65 1065 170 1065 169.15 1065.55 168.55 1066.15 168 1067 168 1067.85 168 1068.4 168.55 1069 169.15 1069 170 M1047 182 L1087 182 1067 148 1047 182 M1067 140 L1095 186 1039 186 1067 140" fill="var(--svg-fill-color)" stroke="var(--svg-stroke-color)"/><path d="M1185 182 L1195.75 173.85 Q1196.45 175.55 1197.9 177 L1198.2 177.3 1192.15 182 1217.85 182 1211.75 177.25 1212 177 Q1213.5 175.55 1214.25 173.8 L1225 182 1207 151.4 1207 160.2 1205 160 1203 160.2 1203 151.4 1185 182 M1207 170 Q1207 170.65 1206.65 171.15 L1206.4 171.4 Q1205.85 172 1205 172 1204.15 172 1203.55 171.4 L1203.35 171.15 Q1203 170.65 1203 170 1203 169.15 1203.55 168.55 1204.15 168 1205 168 1205.85 168 1206.4 168.55 1207 169.15 1207 170 M1205 140 L1233 186 1177 186 1205 140" fill="var(--svg-fill-color)" stroke="var(--svg-stroke-color)"/><path d="M1266.9 162.9 L1266.85 162.95 Q1264 165.9 1264 170 L1264 170.05 Q1264 172.1 1264.7 173.85 1265.45 175.6 1266.9 177.1 L1267.15 177.35 Q1270 180 1274 180 1278 180 1280.85 177.3 L1281.05 177.1 1281.1 177.05 Q1282.55 175.6 1283.3 173.8 1284 172.05 1284 170 1284 165.85 1281.1 162.9 1278.9 160.7 1276 160.2 L1274.05 160 1274 160 1272 160.2 Q1269.15 160.7 1266.95 162.85 L1266.9 162.9 M1272 146 L1276 146 1276 156.15 Q1280.55 156.7 1283.9 160.05 1288 164.15 1288 170 1288 173.5 1286.5 176.4 L1294.9 183.1 1292 186 1284 179.8 1283.9 179.9 Q1279.8 184 1274 184 1268.15 184 1264.05 179.9 L1263.95 179.8 1256 186 1253.1 183.1 1261.5 176.4 Q1260 173.5 1260 170 1260 164.2 1264.05 160.1 L1264.1 160.05 Q1267.45 156.7 1272 156.15 L1272 146 M1276 170 Q1276 170.85 1275.4 171.4 1274.85 172 1274 172 1273.15 172 1272.55 171.4 1272 170.85 1272 170 1272 169.15 1272.55 168.55 1273.15 168 1274 168 1274.85 168 1275.4 168.55 1276 169.15 1276 170" fill="var(--svg-fill-color)" stroke="var(--svg-stroke-color)"/><path d="M1322.1 183.1 L1330.5 176.4 Q1331.4 178.2 1332.95 179.8 L1325 186 1322.1 183.1 M1343 156 L1341 156.15 1341 146 1345 146 1345 156.15 1343 156 M1345 170 Q1345 170.85 1344.4 171.4 1343.85 172 1343 172 1342.15 172 1341.55 171.4 1341 170.85 1341 170 1341 169.15 1341.55 168.55 1342.15 168 1343 168 1343.85 168 1344.4 168.55 1345 169.15 1345 170 M1361 186 L1353 179.8 Q1354.55 178.2 1355.5 176.4 L1363.9 183.1 1361 186" fill="var(--svg-fill-color)" stroke="var(--svg-stroke-color)"/><path d="M821 377 Q821 380.75 820.2 384.2 818.35 392.1 812.2 398.2 806.1 404.35 798.2 406.2 L791 407 783.8 406.2 Q775.9 404.35 769.75 398.2 763.65 392.1 761.8 384.2 761 380.75 761 377 761 373.25 761.8 369.8 763.65 361.9 769.75 355.75 775.9 349.65 783.8 347.8 L791 347 798.2 347.8 Q806.1 349.65 812.2 355.75 818.35 361.9 820.2 369.8 821 373.25 821 377 M809.4 358.6 Q803.15 352.35 794.75 351.25 L791 355 787.25 351.25 Q778.85 352.35 772.6 358.6 766.35 364.85 765.25 373.25 L769 377 765.25 380.75 Q766.35 389.15 772.6 395.4 778.85 401.65 787.25 402.75 L791 399 794.75 402.75 Q803.15 401.65 809.4 395.4 815.65 389.15 816.75 380.75 L813 377 816.75 373.25 Q815.65 364.85 809.4 358.6" fill="var(--svg-fill-color)" stroke="var(--svg-stroke-color)"/><path d="M862 377 Q862 377.85 861.4 378.4 860.85 379 860 379 859.15 379 858.55 378.4 858 377.85 858 377 858 376.15 858.55 375.55 859.15 375 860 375 860.85 375 861.4 375.55 862 376.15 862 377" fill="var(--svg-fill-color)" stroke="var(--svg-stroke-color)"/><path d="M878.4 358.6 Q872.15 352.35 863.75 351.25 L860 355 856.25 351.25 Q847.85 352.35 841.6 358.6 835.35 364.85 834.25 373.25 L838 377 834.25 380.75 Q835.35 389.15 841.6 395.4 847.85 401.65 856.25 402.75 L860 399 863.75 402.75 Q872.15 401.65 878.4 395.4 884.65 389.15 885.75 380.75 L882 377 885.75 373.25 Q884.65 364.85 878.4 358.6 M890 377 Q890 380.75 889.2 384.2 887.35 392.1 881.2 398.2 875.1 404.35 867.2 406.2 L860 407 852.8 406.2 Q844.9 404.35 838.75 398.2 832.65 392.1 830.8 384.2 830 380.75 830 377 830 373.25 830.8 369.8 832.65 361.9 838.75 355.75 844.9 349.65 852.8 347.8 L860 347 867.2 347.8 Q875.1 349.65 881.2 355.75 887.35 361.9 889.2 369.8 890 373.25 890 377" fill="var(--svg-fill-color)" stroke="var(--svg-stroke-color)"/><path d="M947.4 358.6 Q941.15 352.35 932.75 351.25 L929 355 925.25 351.25 Q916.85 352.35 910.6 358.6 904.35 364.85 903.25 373.25 L907 377 903.25 380.75 Q904.35 389.15 910.6 395.4 916.85 401.65 925.25 402.75 L929 399 932.75 402.75 Q941.15 401.65 947.4 395.4 953.65 389.15 954.75 380.75 L951 377 954.75 373.25 Q953.65 364.85 947.4 358.6 M959 377 Q959 380.75 958.2 384.2 956.35 392.1 950.2 398.2 944.1 404.35 936.2 406.2 L929 407 Q925.25 407 921.8 406.2 913.9 404.35 907.75 398.2 901.65 392.1 899.8 384.2 899 380.75 899 377 899 373.25 899.8 369.8 901.65 361.9 907.75 355.75 913.9 349.65 921.8 347.8 925.25 347 929 347 L936.2 347.8 Q944.1 349.65 950.2 355.75 956.35 361.9 958.2 369.8 959 373.25 959 377" fill="var(--svg-fill-color)" stroke="var(--svg-stroke-color)"/><path d="M1091 239 Q1091 248.95 1083.95 255.95 1076.95 263 1067 263 1057.05 263 1050 255.95 1043 248.95 1043 239 1043 229.05 1050 222 1057.05 215 1067 215 1076.95 215 1083.95 222 1091 229.05 1091 239 M1067 259 Q1074.3 259 1079.65 254.5 L1051.5 226.35 Q1047 231.75 1047 239 1047 247.3 1052.85 253.15 1058.7 259 1067 259 M1081.15 224.85 Q1075.3 219 1067 219 1059.75 219 1054.35 223.5 L1082.5 251.65 Q1087 246.3 1087 239 1087 230.7 1081.15 224.85" fill="var(--svg-fill-color)" stroke="var(--svg-stroke-color)"/><path d="M1154.4 220.6 Q1162 228.2 1162 239 1162 249.75 1154.4 257.35 L1154.35 257.4 Q1146.75 265 1136 265 1125.2 265 1117.6 257.4 1110 249.8 1110 239 1110 228.25 1117.6 220.6 1125.25 213 1136 213 1146.8 213 1154.4 220.6 M1120.7 229.4 Q1118 233.65 1118 239 1118 246.45 1123.3 251.75 1128.55 257 1136 257 1141.4 257 1145.6 254.3 L1120.7 229.4 M1154 239 Q1154 231.55 1148.75 226.3 1143.45 221 1136 221 1130.65 221 1126.4 223.7 L1151.3 248.6 Q1154 244.4 1154 239" fill="var(--svg-fill-color)" stroke="var(--svg-stroke-color)"/><path d="M1235 239 Q1235 251.45 1226.2 260.2 1217.45 269 1205 269 1192.55 269 1183.75 260.2 1175 251.45 1175 239 1175 226.55 1183.75 217.75 1192.55 209 1205 209 1217.45 209 1226.2 217.75 1235 226.55 1235 239 M1205 265 Q1214.75 265 1221.95 258.8 L1185.25 222.1 Q1179 229.25 1179 239 1179 249.8 1186.6 257.4 1194.2 265 1205 265 M1223.4 220.6 Q1215.8 213 1205 213 1195.25 213 1188.1 219.25 L1224.8 255.95 Q1231 248.75 1231 239 1231 228.2 1223.4 220.6" fill="var(--svg-fill-color)" stroke="var(--svg-stroke-color)"/><path d="M1255.6 220.6 Q1253.1 223.1 1251.4 226 1249.7 228.9 1248.85 232.25 L1244.95 231.15 Q1245.95 227.35 1247.9 224 1249.85 220.65 1252.75 217.75 1255.65 214.85 1259 212.9 1262.4 210.9 1266.2 209.9 L1267.3 213.8 Q1263.95 214.65 1261 216.4 1258.15 218.05 1255.6 220.6 M1292.4 220.6 Q1289.9 218.1 1287.15 216.4 1284.1 214.6 1280.8 213.8 L1281.8 209.9 Q1285.65 210.85 1289.1 213 1292.35 214.85 1295.25 217.75 1298.15 220.65 1300.05 223.95 1302.05 227.35 1303.05 231.25 L1299.2 232.3 Q1298.3 228.9 1296.55 225.95 1294.9 223.1 1292.4 220.6 M1292.35 257.35 Q1294.9 254.8 1296.55 252.05 1298.35 249.05 1299.2 245.7 L1303.05 246.75 Q1302.05 250.55 1300 254 1298.1 257.3 1295.2 260.2 1292.3 263.1 1289.05 264.95 1285.6 267 1281.8 268 L1280.8 264.1 Q1284.1 263.3 1287.05 261.55 1289.85 259.85 1292.35 257.35 M1272 242 L1271.7 242.7 1271 243 Q1270.6 243 1270.3 242.7 1270 242.4 1270 242 1270 241.6 1270.3 241.3 1270.6 241 1271 241 1271.4 241 1271.7 241.3 L1272 242 M1272 236 L1271.7 236.7 1271 237 Q1270.6 237 1270.3 236.7 1270 236.4 1270 236 1270 235.6 1270.3 235.3 1270.6 235 1271 235 1271.4 235 1271.7 235.3 L1272 236 M1278 236 L1277.7 236.7 1277 237 Q1276.6 237 1276.3 236.7 1276 236.4 1276 236 1276 235.6 1276.3 235.3 1276.6 235 1277 235 L1277.7 235.3 1278 236 M1278 242 L1277.7 242.7 1277 243 Q1276.6 243 1276.3 242.7 1276 242.4 1276 242 1276 241.6 1276.3 241.3 1276.6 241 1277 241 L1277.7 241.3 1278 242 M1255.65 257.35 Q1258.15 259.85 1261 261.6 1263.95 263.25 1267.25 264.15 L1266.2 268 Q1262.4 267 1259.05 265.05 1255.7 263.1 1252.8 260.2 1249.9 257.3 1248 254 1245.95 250.55 1244.9 246.8 L1248.8 245.8 Q1249.65 249.05 1251.45 252.05 1253.1 254.8 1255.65 257.35" fill="var(--svg-fill-color)" stroke="var(--svg-stroke-color)"/><path d="M931 446 Q931 446.85 930.4 447.4 929.85 448 929 448 928.15 448 927.55 447.4 927 446.85 927 446 927 445.15 927.55 444.55 928.15 444 929 444 929.85 444 930.4 444.55 931 445.15 931 446" fill="var(--svg-fill-color)" stroke="var(--svg-stroke-color)"/><path d="M1066.9 369.05 Q1059.55 369.15 1052.3 377 1059.55 384.85 1066.9 385 1074.2 384.85 1081.7 377 1074.2 369.15 1066.9 369.05 M1069 376.9 Q1069 376.1 1068.4 375.5 1067.8 374.9 1067 374.9 1066.2 374.9 1065.6 375.45 L1065.55 375.5 Q1065 376.1 1065 376.9 1065 377.7 1065.6 378.3 1066.2 378.9 1067 378.9 1067.8 378.9 1068.35 378.35 L1068.45 378.25 Q1069 377.7 1069 376.9 M1071.2 381.15 Q1069.45 382.9 1067 382.9 1064.5 382.9 1062.75 381.15 1061 379.4 1061 376.9 1061 374.45 1062.7 372.7 L1062.75 372.65 1062.8 372.6 Q1064.55 370.9 1067 370.9 1069.5 370.9 1071.25 372.65 1073 374.4 1073 376.9 1073 379.35 1071.25 381.1 L1071.2 381.15 M1066.9 365.05 Q1076.3 364.95 1085.8 375.65 L1087 377 1085.8 378.35 Q1076.3 389.1 1066.9 389 1057.45 389.1 1048.2 378.35 L1047.05 377 1048.2 375.7 Q1057.45 364.95 1066.9 365.05" fill="var(--svg-fill-color)" stroke="var(--svg-stroke-color)"/><path d="M1135.9 365.05 Q1145.3 364.95 1154.8 375.65 L1156 377 1154.8 378.35 Q1145.3 389.1 1135.9 389 1126.45 389.1 1117.2 378.35 L1116.05 377 1117.2 375.7 Q1126.45 364.95 1135.9 365.05 M1138 377 Q1138 377.85 1137.4 378.4 1136.85 379 1136 379 1135.15 379 1134.55 378.4 1134 377.85 1134 377 1134 376.15 1134.55 375.55 1135.15 375 1136 375 1136.85 375 1137.4 375.55 1138 376.15 1138 377 M1135.9 369.05 Q1128.55 369.15 1121.3 377 1128.55 384.85 1135.9 385 1143.2 384.85 1150.7 377 1143.2 369.15 1135.9 369.05" fill="var(--svg-fill-color)" stroke="var(--svg-stroke-color)"/><path d="M1138 446 Q1138 446.85 1137.4 447.4 1136.85 448 1136 448 1135.15 448 1134.55 447.4 1134 446.85 1134 446 1134 445.15 1134.55 444.55 1135.15 444 1136 444 1136.85 444 1137.4 444.55 1138 445.15 1138 446 M1142 446 L1162 438 1164 442 1154 446 1164 450 1162 454 1142 446 M1130 446 L1110 454 1108 450 1118 446 1108 442 1110 438 1130 446" fill="var(--svg-fill-color)" stroke="var(--svg-stroke-color)"/><path d="M801 495 L805 495 805 535 801 535 801 495" fill="var(--svg-fill-color)" stroke="var(--svg-stroke-color)"/><path d="M805 495 L815 495 815 499 805 499 805 495" fill="var(--svg-fill-color)" stroke="var(--svg-stroke-color)"/><path d="M805 503 L813 503 813 507 805 507 805 503" fill="var(--svg-fill-color)" stroke="var(--svg-stroke-color)"/><path d="M805 511 L811 511 811 515 805 515 805 511" fill="var(--svg-fill-color)" stroke="var(--svg-stroke-color)"/><path d="M805 519 L809 519 809 523 805 523 805 519" fill="var(--svg-fill-color)" stroke="var(--svg-stroke-color)"/><path d="M805 527 L807 527 807 531 805 531 805 527" fill="var(--svg-fill-color)" stroke="var(--svg-stroke-color)"/><path d="M781 495 L781 535 777 535 777 495 781 495" fill="var(--svg-fill-color)" stroke="var(--svg-stroke-color)"/><path d="M777 495 L777 499 767 499 767 495 777 495" fill="var(--svg-fill-color)" stroke="var(--svg-stroke-color)"/><path d="M777 503 L777 507 769 507 769 503 777 503" fill="var(--svg-fill-color)" stroke="var(--svg-stroke-color)"/><path d="M777 511 L777 515 771 515 771 511 777 511" fill="var(--svg-fill-color)" stroke="var(--svg-stroke-color)"/><path d="M777 519 L777 523 773 523 773 519 777 519" fill="var(--svg-fill-color)" stroke="var(--svg-stroke-color)"/><path d="M777 527 L777 531 775 531 775 527 777 527" fill="var(--svg-fill-color)" stroke="var(--svg-stroke-color)"/><path d="M793 515 Q793 515.85 792.4 516.4 791.85 517 791 517 790.15 517 789.55 516.4 789 515.85 789 515 789 514.15 789.55 513.55 790.15 513 791 513 791.85 513 792.4 513.55 793 514.15 793 515" fill="var(--svg-fill-color)" stroke="var(--svg-stroke-color)"/><path d="M848 491 L848 539 844 539 844 531 840 531 840 527 844 527 844 519 836 519 836 515 844 515 844 507 832 507 832 503 844 503 844 495 828 495 828 491 848 491 M872 491 L892 491 892 495 876 495 876 503 888 503 888 507 876 507 876 515 884 515 884 519 876 519 876 527 880 527 880 531 876 531 876 539 872 539 872 491 M862 515 Q862 515.85 861.4 516.4 860.85 517 860 517 859.15 517 858.55 516.4 858 515.85 858 515 858 514.15 858.55 513.55 859.15 513 860 513 860.85 513 861.4 513.55 862 514.15 862 515 M859 499 L861 499 861 509 859 509 859 499 M859 521 L861 521 861 531 859 531 859 521" fill="var(--svg-fill-color)" stroke="var(--svg-stroke-color)"/><path d="M1069 515 Q1069 515.85 1068.4 516.4 1067.85 517 1067 517 1066.15 517 1065.55 516.4 1065 515.85 1065 515 1065 514.15 1065.55 513.55 1066.15 513 1067 513 1067.85 513 1068.4 513.55 1069 514.15 1069 515" fill="var(--svg-fill-color)" stroke="var(--svg-stroke-color)"/></svg>