<svg xmlns="http://www.w3.org/2000/svg" xmlns:xlink="http://www.w3.org/1999/xlink" width="64" height="64" viewBox="415 483 62 64"><path d="M603.8 357.2 Q596.95 350.35 587.8 349.25 L584 353 580.25 349.25 Q571.05 350.35 564.2 357.15 L564.15 357.2 Q557.35 364.05 556.25 373.25 L560 377 556.25 380.8 Q557.35 389.95 564.2 396.8 571.05 403.65 580.25 404.8 L584 401 587.8 404.8 Q596.95 403.65 603.8 396.8 610.65 389.95 611.8 380.8 L608 377 611.8 373.25 Q610.65 364.05 603.8 357.2 M614 377 Q614 379.85 613.55 382.55 612 391.45 605.2 398.2 598.45 405 589.55 406.55 L584 407 578.5 406.55 Q569.55 405 562.75 398.2 556 391.45 554.5 382.55 554 379.85 554 377 554 374.15 554.5 371.5 556 362.55 562.75 355.75 569.55 349 578.5 347.5 L584 347 589.55 347.5 Q598.45 349 605.2 355.75 612 362.55 613.55 371.5 614 374.15 614 377" fill="var(--svg-fill-color)" stroke="var(--svg-stroke-color)"/><path d="M291 567 Q296.6 561.45 304 560.3 L304 564.4 Q298.25 565.45 293.85 569.85 291.05 572.65 289.6 576 288.75 577.9 288.4 580 L276 580 276 576 285.3 576 Q287 571.05 291 567 M291 600.95 Q287 596.95 285.3 592 L276 592 276 588 288.4 588 Q288.75 590.1 289.6 592 291.05 595.35 293.85 598.15 298.25 602.55 304 603.65 L304 607.7 Q296.6 606.55 291 600.95 M324.95 567 Q329 571.05 330.7 576 L340 576 340 580 327.65 580 Q327.25 577.9 326.4 576 324.95 572.65 322.15 569.85 317.75 565.45 312 564.4 L312 560.3 Q319.4 561.45 324.95 567 M324.95 600.95 Q319.4 606.55 312 607.7 L312 603.65 Q317.75 602.5 322.1 598.15 L322.15 598.1 Q324.9 595.35 326.4 592 327.2 590.1 327.65 588 L340 588 340 592 330.7 592 Q328.95 596.95 324.95 600.95" fill="var(--svg-fill-color)" stroke="var(--svg-stroke-color)"/><path d="M360.05 600.95 Q353 593.9 353 584 353 574.1 360.05 567.05 L365.7 572.7 365.7 572.75 Q361 577.4 361 584 361 590.6 365.7 595.3 L360.05 600.95 M379 584 Q379 584.85 378.4 585.4 377.85 586 377 586 376.15 586 375.55 585.4 375 584.85 375 584 375 583.15 375.55 582.55 376.15 582 377 582 377.85 582 378.4 582.55 379 583.15 379 584 M401 584 Q401 593.9 393.95 600.95 L388.3 595.3 Q393 590.6 393 584 393 577.4 388.3 572.7 L393.95 567.05 Q401 574.1 401 584" fill="var(--svg-fill-color)" stroke="var(--svg-stroke-color)"/><path d="M255 647 L251 643 247 643 247 639 253 639 257 643 271 643 271 647 255 647 M255 659 L271 659 271 663 257 663 253 667 247 667 247 663 251 663 255 659 M245 653 Q245 655.45 243.2 657.2 241.45 659 239 659 236.55 659 234.75 657.2 233 655.45 233 653 233 650.55 234.75 648.75 236.55 647 239 647 241.45 647 243.2 648.75 245 650.55 245 653 M240.4 651.6 Q239.8 651 239 651 238.2 651 237.65 651.55 L237.55 651.65 Q237 652.2 237 653 237 653.8 237.6 654.4 238.2 655 239 655 239.75 655 240.35 654.4 L240.4 654.35 Q241 653.75 241 653 241 652.2 240.4 651.6 M207 647 L207 643 221 643 225 639 231 639 231 643 227 643 223 647 207 647 M207 659 L223 659 227 663 231 663 231 667 225 667 221 663 207 663 207 659" fill="var(--svg-fill-color)" stroke="var(--svg-stroke-color)"/><path d="M448 515 Q448 515.85 447.4 516.4 446.85 517 446 517 445.15 517 444.55 516.4 444 515.85 444 515 444 514.15 444.55 513.55 445.15 513 446 513 446.85 513 447.4 513.55 448 514.15 448 515 M456 509 L452 505 458 499 462 503 456 509 M456 521 L462 527 458 531 452 525 456 521 M436 509 L430 503 434 499 440 505 436 509 M436 521 L440 525 434 531 430 527 436 521" fill="var(--svg-fill-color)" stroke="var(--svg-stroke-color)"/><path d="M458 584 Q458 580.5 456.3 577.75 L454 580 450 576 452.3 573.75 Q449.5 572 446 572 442.5 572 439.75 573.75 L442 576 438 580 435.75 577.75 Q434 580.5 434 584 434 587.5 435.75 590.3 L438 588 442 592 439.75 594.3 Q442.5 596 446 596 449.5 596 452.3 594.3 L450 592 454 588 456.3 590.3 Q458 587.5 458 584 M462 584 Q462 589.15 459.15 593.15 L462 596 458 600 455.15 597.15 454 597.9 Q450.45 600 446 600 440.85 600 436.85 597.15 L434 600 430 596 432.85 593.15 Q430 589.15 430 584 430 578.8 432.85 574.85 L430 572 434 568 436.85 570.85 Q440.8 568 446 568 450.45 568 454 570.1 L455.15 570.85 458 568 462 572 459.15 574.85 Q462 578.85 462 584" fill="var(--svg-fill-color)" stroke="var(--svg-stroke-color)"/></svg>