<svg xmlns="http://www.w3.org/2000/svg" xmlns:xlink="http://www.w3.org/1999/xlink" width="64" height="64" viewBox="70 552 62 64"><path d="M38 629 L43 634 40 637 36 633 28 633 24 637 21 634 26 629 38 629 M32 655 Q31.15 655 30.6 654.4 30 653.85 30 653 30 652.15 30.55 651.6 L30.6 651.55 Q31.15 651 32 651 32.85 651 33.45 651.55 34 652.15 34 653 34 653.85 33.45 654.4 L33.4 654.45 Q32.85 655 32 655 M38 677 L26 677 21 672 24 669 28 673 36 673 40 669 43 672 38 677 M2 653 L8 647 10 649 6 653 10 657 8 659 2 653 M62 653 L56 659 54 657 58 653 54 649 56 647 62 653" fill="var(--svg-fill-color)" stroke="var(--svg-stroke-color)"/><path d="M10.75 562.75 Q18.85 554.7 30 554.05 L32 554 34 554.05 Q45.15 554.7 53.2 562.75 61.3 570.85 61.95 582 L59.95 582 Q59.3 571.65 51.8 564.2 44.35 556.7 34 556.1 L32 556 30 556.05 Q19.65 556.7 12.2 564.15 L12.15 564.2 Q9.7 566.65 8 569.4 4.5 575.05 4.05 582 L2.05 582 Q2.6 572.9 8 565.9 L10.75 562.75 M2 554 L10 554 10 558 6 558 6 562 2 562 2 554 M53.2 605.2 Q45.15 613.3 34 613.95 L32 614 30 613.95 Q18.85 613.3 10.75 605.2 L8 602.1 Q2.6 595.05 2.05 586 L4.1 586 Q4.5 592.9 8 598.55 9.7 601.3 12.2 603.8 19.65 611.3 30 611.95 L32 612 34 611.95 Q44.35 611.3 51.8 603.8 59.3 596.35 59.95 586 L61.95 586 Q61.3 597.15 53.2 605.2 M20.65 595.3 Q16.7 591.35 16.1 586 L18.15 586 Q18.7 590.55 22.1 593.9 25.45 597.25 30 597.9 L30 599.9 Q24.65 599.3 20.65 595.3 M20.65 572.65 Q24.65 568.7 30 568.1 L30 570.15 Q25.45 570.7 22.1 574.05 L22.05 574.1 Q18.7 577.45 18.15 582 L16.1 582 Q16.7 576.65 20.65 572.65 M34 584.05 Q34 584.85 33.4 585.4 32.85 586 32.05 586 L31.95 586 Q31.15 586 30.55 585.4 30 584.85 30 584.05 L30 583.95 Q30 583.15 30.55 582.55 31.15 582 31.95 582 L32.05 582 Q32.85 582 33.4 582.55 34 583.15 34 583.95 L34 584.05 M43.3 572.65 Q47.3 576.65 47.9 582 L45.9 582 Q45.25 577.45 41.9 574.1 38.55 570.7 34 570.15 L34 568.1 Q39.35 568.7 43.3 572.65 M62 554 L62 562 58 562 58 558 54 558 54 554 62 554 M43.3 595.3 Q39.35 599.3 34 599.9 L34 597.9 Q38.55 597.3 41.9 593.9 45.3 590.55 45.9 586 L47.9 586 Q47.3 591.35 43.3 595.3 M62 614 L54 614 54 610 58 610 58 606 62 606 62 614 M2 614 L2 606 6 606 6 610 10 610 10 614 2 614" fill="var(--svg-fill-color)" stroke="var(--svg-stroke-color)"/><path d="M71 554 L79 554 79 558 75 558 75 562 71 562 71 554 M79.75 562.75 Q87.85 554.7 99 554.05 L101 554 103 554.05 Q114.15 554.7 122.2 562.75 130.3 570.85 130.95 582 L128.95 582 Q128.3 571.65 120.8 564.2 113.35 556.7 103 556.1 L101 556 99 556.05 Q88.65 556.7 81.2 564.15 L81.15 564.2 Q78.7 566.65 77 569.4 73.5 575.05 73.05 582 L71.05 582 Q71.6 572.9 77 565.9 78.25 564.25 79.75 562.75 M122.2 605.2 Q114.15 613.3 103 613.95 L101 614 99 613.95 Q87.85 613.3 79.75 605.2 L77 602.1 Q71.6 595.05 71.05 586 L73.1 586 Q73.5 592.9 77 598.55 78.7 601.3 81.2 603.8 88.65 611.3 99 611.95 L101 612 103 611.95 Q113.35 611.3 120.8 603.8 128.3 596.35 128.95 586 L130.95 586 Q130.3 597.15 122.2 605.2 M101 566 L107 572 105 574 101 570 97 574 95 572 101 566 M83 584 L89 578 91 580 87 584 91 588 89 590 83 584 M103 584.05 Q103 584.85 102.4 585.4 101.85 586 101.05 586 L100.95 586 Q100.15 586 99.55 585.4 99 584.85 99 584.05 L99 583.95 Q99 583.15 99.55 582.55 100.15 582 100.95 582 L101.05 582 Q101.85 582 102.4 582.55 103 583.15 103 583.95 L103 584.05 M119 584 L113 590 111 588 115 584 111 580 113 578 119 584 M131 554 L131 562 127 562 127 558 123 558 123 554 131 554 M131 614 L123 614 123 610 127 610 127 606 131 606 131 614 M71 614 L71 606 75 606 75 610 79 610 79 614 71 614 M101 602 L95 596 97 594 101 598 105 594 107 596 101 602" fill="var(--svg-fill-color)" stroke="var(--svg-stroke-color)"/><path d="M103 653 Q103 653.85 102.4 654.4 101.85 655 101 655 100.15 655 99.55 654.4 99 653.85 99 653 99 652.15 99.55 651.55 100.15 651 101 651 101.85 651 102.4 651.55 103 652.15 103 653 M89 661 L69 661 69 657 91 657 101 667 111 657 133 657 133 661 113 661 101 673 89 661 M89 645 L101 633 113 645 133 645 133 649 111 649 101 639 91 649 69 649 69 645 89 645" fill="var(--svg-fill-color)" stroke="var(--svg-stroke-color)"/><path d="M202 657 L202 659 182 659 170 671 158 659 138 659 138 657 160 657 170 667 180 657 202 657 M202 649 L180 649 170 639 160 649 138 649 138 647 158 647 170 635 182 647 202 647 202 649 M172 653 Q172 653.85 171.4 654.4 170.85 655 170 655 169.15 655 168.55 654.4 168 653.85 168 653 168 652.15 168.55 651.55 169.15 651 170 651 170.85 651 171.4 651.55 172 652.15 172 653" fill="var(--svg-fill-color)" stroke="var(--svg-stroke-color)"/></svg>