<svg xmlns="http://www.w3.org/2000/svg" xmlns:xlink="http://www.w3.org/1999/xlink" width="64" height="64" viewBox="277 621 62 64"><path d="M332 643 L332 647 324 647 320 643 316 643 316 639 322 639 326 643 332 643 M332 663 L326 663 322 667 316 667 316 663 320 663 324 659 332 659 332 663 M284 643 L290 643 294 639 300 639 300 643 296 643 292 647 284 647 284 643 M284 663 L284 659 292 659 296 663 300 663 300 667 294 667 290 663 284 663" fill="var(--svg-fill-color)" stroke="var(--svg-stroke-color)"/><path d="M38 629 L43 634 40 637 36 633 28 633 24 637 21 634 26 629 38 629 M32 655 Q31.15 655 30.6 654.4 30 653.85 30 653 30 652.15 30.55 651.6 L30.6 651.55 Q31.15 651 32 651 32.85 651 33.45 651.55 34 652.15 34 653 34 653.85 33.45 654.4 L33.4 654.45 Q32.85 655 32 655 M38 677 L26 677 21 672 24 669 28 673 36 673 40 669 43 672 38 677 M2 653 L8 647 10 649 6 653 10 657 8 659 2 653 M62 653 L56 659 54 657 58 653 54 649 56 647 62 653" fill="var(--svg-fill-color)" stroke="var(--svg-stroke-color)"/><path d="M255 647 L251 643 247 643 247 639 253 639 257 643 271 643 271 647 255 647 M255 659 L271 659 271 663 257 663 253 667 247 667 247 663 251 663 255 659 M245 653 Q245 655.45 243.2 657.2 241.45 659 239 659 236.55 659 234.75 657.2 233 655.45 233 653 233 650.55 234.75 648.75 236.55 647 239 647 241.45 647 243.2 648.75 245 650.55 245 653 M240.4 651.6 Q239.8 651 239 651 238.2 651 237.65 651.55 L237.55 651.65 Q237 652.2 237 653 237 653.8 237.6 654.4 238.2 655 239 655 239.75 655 240.35 654.4 L240.4 654.35 Q241 653.75 241 653 241 652.2 240.4 651.6 M207 647 L207 643 221 643 225 639 231 639 231 643 227 643 223 647 207 647 M207 659 L223 659 227 663 231 663 231 667 225 667 221 663 207 663 207 659" fill="var(--svg-fill-color)" stroke="var(--svg-stroke-color)"/><path d="M103 653 Q103 653.85 102.4 654.4 101.85 655 101 655 100.15 655 99.55 654.4 99 653.85 99 653 99 652.15 99.55 651.55 100.15 651 101 651 101.85 651 102.4 651.55 103 652.15 103 653 M89 661 L69 661 69 657 91 657 101 667 111 657 133 657 133 661 113 661 101 673 89 661 M89 645 L101 633 113 645 133 645 133 649 111 649 101 639 91 649 69 649 69 645 89 645" fill="var(--svg-fill-color)" stroke="var(--svg-stroke-color)"/><path d="M202 657 L202 659 182 659 170 671 158 659 138 659 138 657 160 657 170 667 180 657 202 657 M202 649 L180 649 170 639 160 649 138 649 138 647 158 647 170 635 182 647 202 647 202 649 M172 653 Q172 653.85 171.4 654.4 170.85 655 170 655 169.15 655 168.55 654.4 168 653.85 168 653 168 652.15 168.55 651.55 169.15 651 170 651 170.85 651 171.4 651.55 172 652.15 172 653" fill="var(--svg-fill-color)" stroke="var(--svg-stroke-color)"/></svg>