<svg xmlns="http://www.w3.org/2000/svg" xmlns:xlink="http://www.w3.org/1999/xlink" width="64" height="64" viewBox="415 621 62 64"><path d="M454 653 Q454 656.3 451.65 658.65 449.3 661 446 661 442.65 661 440.3 658.65 438 656.3 438 653 438 649.65 440.3 647.3 442.6 645.05 445.8 645 L446.2 645 Q449.35 645.05 451.65 647.3 454 649.65 454 653 M448 653 Q448 653.85 447.4 654.4 446.85 655 446 655 445.15 655 444.55 654.4 444 653.85 444 653 444 652.15 444.55 651.55 445.15 651 446 651 446.85 651 447.4 651.55 448 652.15 448 653 M450.25 648.75 Q448.5 647 446 647 443.5 647 441.75 648.7 L441.7 648.75 Q440 650.5 440 653 440 655.5 441.75 657.25 443.5 659 446 659 448.45 659 450.25 657.25 452 655.45 452 653 452 650.5 450.25 648.75 M414 653 L424 643 426 645 418 653 426 661 424 663 414 653 M478 653 L468 663 466 661 474 653 466 645 468 643 478 653" fill="var(--svg-fill-color)" stroke="var(--svg-stroke-color)"/><path d="M255 647 L251 643 247 643 247 639 253 639 257 643 271 643 271 647 255 647 M255 659 L271 659 271 663 257 663 253 667 247 667 247 663 251 663 255 659 M245 653 Q245 655.45 243.2 657.2 241.45 659 239 659 236.55 659 234.75 657.2 233 655.45 233 653 233 650.55 234.75 648.75 236.55 647 239 647 241.45 647 243.2 648.75 245 650.55 245 653 M240.4 651.6 Q239.8 651 239 651 238.2 651 237.65 651.55 L237.55 651.65 Q237 652.2 237 653 237 653.8 237.6 654.4 238.2 655 239 655 239.75 655 240.35 654.4 L240.4 654.35 Q241 653.75 241 653 241 652.2 240.4 651.6 M207 647 L207 643 221 643 225 639 231 639 231 643 227 643 223 647 207 647 M207 659 L223 659 227 663 231 663 231 667 225 667 221 663 207 663 207 659" fill="var(--svg-fill-color)" stroke="var(--svg-stroke-color)"/></svg>