<svg xmlns="http://www.w3.org/2000/svg" xmlns:xlink="http://www.w3.org/1999/xlink" width="64" height="64" viewBox="622 621 62 64"><path d="M799.5 575.5 Q795.95 572 791 572 786 572 782.5 575.5 779 579 779 584 L803 584 Q803 579 799.5 575.5 M807 584 Q807 590.6 802.3 595.3 797.6 600 791 600 784.35 600 779.65 595.3 775 590.6 775 584 775 577.35 779.65 572.65 784.35 568 791 568 797.6 568 802.3 572.65 807 577.35 807 584" fill="var(--svg-fill-color)" stroke="var(--svg-stroke-color)"/><path d="M669 669 L669 665 Q674 665 677.5 661.5 681 658 681 653 681 648.05 677.5 644.55 674 641 669 641 L669 637 Q675.65 637 680.35 641.7 685 646.4 685 653 685 659.65 680.35 664.3 675.65 669 669 669 M655 653 Q655 653.85 654.45 654.45 653.85 655 653 655 652.15 655 651.6 654.45 651 653.85 651 653 651 652.15 651.6 651.6 652.15 651 653 651 653.85 651 654.45 651.6 655 652.15 655 653 M637 669 Q630.35 669 625.65 664.3 621 659.65 621 653 621 646.4 625.65 641.7 630.35 637 637 637 L637 641 Q632 641 628.5 644.55 625 648.05 625 653 625 658 628.5 661.5 632 665 637 665 L637 669" fill="var(--svg-fill-color)" stroke="var(--svg-stroke-color)"/><path d="M947.4 358.6 Q941.15 352.35 932.75 351.25 L929 355 925.25 351.25 Q916.85 352.35 910.6 358.6 904.35 364.85 903.25 373.25 L907 377 903.25 380.75 Q904.35 389.15 910.6 395.4 916.85 401.65 925.25 402.75 L929 399 932.75 402.75 Q941.15 401.65 947.4 395.4 953.65 389.15 954.75 380.75 L951 377 954.75 373.25 Q953.65 364.85 947.4 358.6 M959 377 Q959 380.75 958.2 384.2 956.35 392.1 950.2 398.2 944.1 404.35 936.2 406.2 L929 407 Q925.25 407 921.8 406.2 913.9 404.35 907.75 398.2 901.65 392.1 899.8 384.2 899 380.75 899 377 899 373.25 899.8 369.8 901.65 361.9 907.75 355.75 913.9 349.65 921.8 347.8 925.25 347 929 347 L936.2 347.8 Q944.1 349.65 950.2 355.75 956.35 361.9 958.2 369.8 959 373.25 959 377" fill="var(--svg-fill-color)" stroke="var(--svg-stroke-color)"/><path d="M1091 239 Q1091 248.95 1083.95 255.95 1076.95 263 1067 263 1057.05 263 1050 255.95 1043 248.95 1043 239 1043 229.05 1050 222 1057.05 215 1067 215 1076.95 215 1083.95 222 1091 229.05 1091 239 M1067 259 Q1074.3 259 1079.65 254.5 L1051.5 226.35 Q1047 231.75 1047 239 1047 247.3 1052.85 253.15 1058.7 259 1067 259 M1081.15 224.85 Q1075.3 219 1067 219 1059.75 219 1054.35 223.5 L1082.5 251.65 Q1087 246.3 1087 239 1087 230.7 1081.15 224.85" fill="var(--svg-fill-color)" stroke="var(--svg-stroke-color)"/><path d="M694 600 L701.1 589 704.55 591.05 702 596 708 596 708 600 694 600 M722 554 L728.55 565 725.1 567.05 722 561.9 718.95 567.05 715.5 565 722 554 M724 584 Q724 584.65 723.65 585.15 L723.4 585.4 Q722.85 586 722 586 721.15 586 720.55 585.4 L720.35 585.15 Q720 584.65 720 584 720 583.15 720.55 582.55 721.15 582 722 582 722.85 582 723.4 582.55 724 583.15 724 584 M750 600 L736 600 736 596 742 596 739.5 591.05 742.95 589 750 600" fill="var(--svg-fill-color)" stroke="var(--svg-stroke-color)"/><path d="M732 659 L744 647 746 649 734 661 732 659 M724 653 Q724 653.85 723.4 654.4 722.85 655 722 655 721.15 655 720.55 654.4 720 653.85 720 653 720 652.15 720.55 651.55 721.15 651 722 651 722.85 651 723.4 651.55 724 652.15 724 653 M712 659 L710 661 698 649 700 647 712 659" fill="var(--svg-fill-color)" stroke="var(--svg-stroke-color)"/><path d="M669 584 Q669 588.3 667 591.8 L667 596 663.55 596 Q659.1 600 653 600 646.85 600 642.4 596 L639 596 639 591.85 Q637 588.35 637 584 637 579.65 639 576.15 L639 572 642.35 572 Q646.85 568 653 568 659.1 568 663.6 572 L667 572 667 576.15 Q669 579.65 669 584 M661.5 575.5 Q658.05 572.1 653.3 572 L652.7 572 Q647.9 572.1 644.5 575.5 641 579 641 584 641 588.95 644.5 592.5 647.9 595.9 652.7 596 L653.3 596 Q658.05 595.9 661.5 592.5 665 588.95 665 584 665 579 661.5 575.5 M655 584 Q655 584.85 654.4 585.4 653.85 586 653 586 652.15 586 651.55 585.4 651 584.85 651 584 651 583.15 651.55 582.55 652.15 582 653 582 653.85 582 654.4 582.55 655 583.15 655 584" fill="var(--svg-fill-color)" stroke="var(--svg-stroke-color)"/><path d="M793 515 Q793 515.85 792.4 516.4 791.85 517 791 517 790.15 517 789.55 516.4 789 515.85 789 515 789 514.15 789.55 513.55 790.15 513 791 513 791.85 513 792.4 513.55 793 514.15 793 515" fill="var(--svg-fill-color)" stroke="var(--svg-stroke-color)"/></svg>